G75*
%MOIN*%
%OFA0B0*%
%FSLAX25Y25*%
%IPPOS*%
%LPD*%
%AMOC8*
5,1,8,0,0,1.08239X$1,22.5*
%
%ADD10C,0.00400*%
%ADD11OC8,0.07600*%
%ADD12C,0.06600*%
%ADD13C,0.07400*%
%ADD14C,0.12205*%
%ADD15R,0.15000X0.15000*%
%ADD16R,0.10000X0.05000*%
%ADD17C,0.05600*%
%ADD18OC8,0.07400*%
%ADD19C,0.00000*%
%ADD20C,0.07677*%
%ADD21R,0.07874X0.05000*%
%ADD22C,0.10050*%
%ADD23R,0.06500X0.06500*%
%ADD24C,0.06500*%
%ADD25C,0.07000*%
%ADD26C,0.01600*%
%ADD27C,0.00800*%
%ADD28C,0.02400*%
%ADD29C,0.01200*%
%ADD30C,0.04000*%
%ADD31C,0.01000*%
D10*
X0022595Y0027513D02*
X0022595Y0212513D01*
X0146595Y0212513D01*
X0146595Y0122513D01*
X0151095Y0122513D01*
X0151095Y0212513D01*
X0182595Y0212513D01*
X0182595Y0122513D01*
X0187595Y0122513D01*
X0187595Y0212513D01*
X0219095Y0212513D01*
X0219095Y0027513D01*
X0187595Y0027513D01*
X0187595Y0107513D01*
X0182595Y0107513D01*
X0182595Y0027513D01*
X0151095Y0027513D01*
X0151095Y0107513D01*
X0146595Y0107513D01*
X0146595Y0027513D01*
X0022595Y0027513D01*
D11*
X0055645Y0054113D03*
D12*
X0033595Y0119639D03*
X0033595Y0135387D03*
D13*
X0037595Y0167513D03*
X0047595Y0167513D03*
X0048595Y0177513D03*
X0047595Y0187513D03*
X0037595Y0187513D03*
X0038595Y0177513D03*
X0038595Y0197513D03*
X0048595Y0197513D03*
X0033595Y0090513D03*
X0031595Y0080513D03*
X0033595Y0070513D03*
X0031595Y0060513D03*
X0033595Y0050513D03*
X0031595Y0040513D03*
X0072595Y0050513D03*
X0082595Y0049513D03*
X0092595Y0050513D03*
X0102595Y0049513D03*
X0102595Y0038513D03*
X0112595Y0037513D03*
X0122595Y0038513D03*
X0132595Y0037513D03*
X0092595Y0037513D03*
X0082595Y0038513D03*
D14*
X0033595Y0105513D03*
X0135595Y0105513D03*
D15*
X0084595Y0105513D03*
D16*
X0061099Y0156891D03*
X0061099Y0164765D03*
X0061099Y0172639D03*
X0061099Y0180513D03*
X0061099Y0188387D03*
X0061099Y0196261D03*
X0061099Y0204135D03*
X0124091Y0204135D03*
X0124091Y0196261D03*
X0124091Y0188387D03*
X0124091Y0180513D03*
X0124091Y0172639D03*
X0124091Y0164765D03*
X0124091Y0156891D03*
D17*
X0130595Y0204013D03*
D18*
X0095095Y0204013D03*
X0095095Y0194013D03*
X0085095Y0193013D03*
X0075095Y0194013D03*
X0075095Y0204013D03*
X0085095Y0203013D03*
D19*
X0138922Y0185989D02*
X0138924Y0186070D01*
X0138930Y0186152D01*
X0138940Y0186233D01*
X0138954Y0186313D01*
X0138971Y0186392D01*
X0138993Y0186471D01*
X0139018Y0186548D01*
X0139047Y0186625D01*
X0139080Y0186699D01*
X0139117Y0186772D01*
X0139156Y0186843D01*
X0139200Y0186912D01*
X0139246Y0186979D01*
X0139296Y0187043D01*
X0139349Y0187105D01*
X0139405Y0187165D01*
X0139463Y0187221D01*
X0139525Y0187275D01*
X0139589Y0187326D01*
X0139655Y0187373D01*
X0139723Y0187417D01*
X0139794Y0187458D01*
X0139866Y0187495D01*
X0139941Y0187529D01*
X0140016Y0187559D01*
X0140094Y0187585D01*
X0140172Y0187608D01*
X0140251Y0187626D01*
X0140331Y0187641D01*
X0140412Y0187652D01*
X0140493Y0187659D01*
X0140575Y0187662D01*
X0140656Y0187661D01*
X0140737Y0187656D01*
X0140818Y0187647D01*
X0140899Y0187634D01*
X0140979Y0187617D01*
X0141057Y0187597D01*
X0141135Y0187572D01*
X0141212Y0187544D01*
X0141287Y0187512D01*
X0141360Y0187477D01*
X0141431Y0187438D01*
X0141501Y0187395D01*
X0141568Y0187350D01*
X0141634Y0187301D01*
X0141696Y0187249D01*
X0141756Y0187193D01*
X0141813Y0187135D01*
X0141868Y0187075D01*
X0141919Y0187011D01*
X0141967Y0186946D01*
X0142012Y0186878D01*
X0142054Y0186808D01*
X0142092Y0186736D01*
X0142127Y0186662D01*
X0142158Y0186587D01*
X0142185Y0186510D01*
X0142208Y0186432D01*
X0142228Y0186353D01*
X0142244Y0186273D01*
X0142256Y0186192D01*
X0142264Y0186111D01*
X0142268Y0186030D01*
X0142268Y0185948D01*
X0142264Y0185867D01*
X0142256Y0185786D01*
X0142244Y0185705D01*
X0142228Y0185625D01*
X0142208Y0185546D01*
X0142185Y0185468D01*
X0142158Y0185391D01*
X0142127Y0185316D01*
X0142092Y0185242D01*
X0142054Y0185170D01*
X0142012Y0185100D01*
X0141967Y0185032D01*
X0141919Y0184967D01*
X0141868Y0184903D01*
X0141813Y0184843D01*
X0141756Y0184785D01*
X0141696Y0184729D01*
X0141634Y0184677D01*
X0141568Y0184628D01*
X0141501Y0184583D01*
X0141432Y0184540D01*
X0141360Y0184501D01*
X0141287Y0184466D01*
X0141212Y0184434D01*
X0141135Y0184406D01*
X0141057Y0184381D01*
X0140979Y0184361D01*
X0140899Y0184344D01*
X0140818Y0184331D01*
X0140737Y0184322D01*
X0140656Y0184317D01*
X0140575Y0184316D01*
X0140493Y0184319D01*
X0140412Y0184326D01*
X0140331Y0184337D01*
X0140251Y0184352D01*
X0140172Y0184370D01*
X0140094Y0184393D01*
X0140016Y0184419D01*
X0139941Y0184449D01*
X0139866Y0184483D01*
X0139794Y0184520D01*
X0139723Y0184561D01*
X0139655Y0184605D01*
X0139589Y0184652D01*
X0139525Y0184703D01*
X0139463Y0184757D01*
X0139405Y0184813D01*
X0139349Y0184873D01*
X0139296Y0184935D01*
X0139246Y0184999D01*
X0139200Y0185066D01*
X0139156Y0185135D01*
X0139117Y0185206D01*
X0139080Y0185279D01*
X0139047Y0185353D01*
X0139018Y0185430D01*
X0138993Y0185507D01*
X0138971Y0185586D01*
X0138954Y0185665D01*
X0138940Y0185745D01*
X0138930Y0185826D01*
X0138924Y0185908D01*
X0138922Y0185989D01*
X0138922Y0174036D02*
X0138924Y0174117D01*
X0138930Y0174199D01*
X0138940Y0174280D01*
X0138954Y0174360D01*
X0138971Y0174439D01*
X0138993Y0174518D01*
X0139018Y0174595D01*
X0139047Y0174672D01*
X0139080Y0174746D01*
X0139117Y0174819D01*
X0139156Y0174890D01*
X0139200Y0174959D01*
X0139246Y0175026D01*
X0139296Y0175090D01*
X0139349Y0175152D01*
X0139405Y0175212D01*
X0139463Y0175268D01*
X0139525Y0175322D01*
X0139589Y0175373D01*
X0139655Y0175420D01*
X0139723Y0175464D01*
X0139794Y0175505D01*
X0139866Y0175542D01*
X0139941Y0175576D01*
X0140016Y0175606D01*
X0140094Y0175632D01*
X0140172Y0175655D01*
X0140251Y0175673D01*
X0140331Y0175688D01*
X0140412Y0175699D01*
X0140493Y0175706D01*
X0140575Y0175709D01*
X0140656Y0175708D01*
X0140737Y0175703D01*
X0140818Y0175694D01*
X0140899Y0175681D01*
X0140979Y0175664D01*
X0141057Y0175644D01*
X0141135Y0175619D01*
X0141212Y0175591D01*
X0141287Y0175559D01*
X0141360Y0175524D01*
X0141431Y0175485D01*
X0141501Y0175442D01*
X0141568Y0175397D01*
X0141634Y0175348D01*
X0141696Y0175296D01*
X0141756Y0175240D01*
X0141813Y0175182D01*
X0141868Y0175122D01*
X0141919Y0175058D01*
X0141967Y0174993D01*
X0142012Y0174925D01*
X0142054Y0174855D01*
X0142092Y0174783D01*
X0142127Y0174709D01*
X0142158Y0174634D01*
X0142185Y0174557D01*
X0142208Y0174479D01*
X0142228Y0174400D01*
X0142244Y0174320D01*
X0142256Y0174239D01*
X0142264Y0174158D01*
X0142268Y0174077D01*
X0142268Y0173995D01*
X0142264Y0173914D01*
X0142256Y0173833D01*
X0142244Y0173752D01*
X0142228Y0173672D01*
X0142208Y0173593D01*
X0142185Y0173515D01*
X0142158Y0173438D01*
X0142127Y0173363D01*
X0142092Y0173289D01*
X0142054Y0173217D01*
X0142012Y0173147D01*
X0141967Y0173079D01*
X0141919Y0173014D01*
X0141868Y0172950D01*
X0141813Y0172890D01*
X0141756Y0172832D01*
X0141696Y0172776D01*
X0141634Y0172724D01*
X0141568Y0172675D01*
X0141501Y0172630D01*
X0141432Y0172587D01*
X0141360Y0172548D01*
X0141287Y0172513D01*
X0141212Y0172481D01*
X0141135Y0172453D01*
X0141057Y0172428D01*
X0140979Y0172408D01*
X0140899Y0172391D01*
X0140818Y0172378D01*
X0140737Y0172369D01*
X0140656Y0172364D01*
X0140575Y0172363D01*
X0140493Y0172366D01*
X0140412Y0172373D01*
X0140331Y0172384D01*
X0140251Y0172399D01*
X0140172Y0172417D01*
X0140094Y0172440D01*
X0140016Y0172466D01*
X0139941Y0172496D01*
X0139866Y0172530D01*
X0139794Y0172567D01*
X0139723Y0172608D01*
X0139655Y0172652D01*
X0139589Y0172699D01*
X0139525Y0172750D01*
X0139463Y0172804D01*
X0139405Y0172860D01*
X0139349Y0172920D01*
X0139296Y0172982D01*
X0139246Y0173046D01*
X0139200Y0173113D01*
X0139156Y0173182D01*
X0139117Y0173253D01*
X0139080Y0173326D01*
X0139047Y0173400D01*
X0139018Y0173477D01*
X0138993Y0173554D01*
X0138971Y0173633D01*
X0138954Y0173712D01*
X0138940Y0173792D01*
X0138930Y0173873D01*
X0138924Y0173955D01*
X0138922Y0174036D01*
D20*
X0135095Y0091147D02*
X0135095Y0083469D01*
X0135095Y0065556D02*
X0135095Y0057879D01*
D21*
X0105091Y0156828D03*
X0105091Y0164702D03*
X0105091Y0172576D03*
X0105091Y0180450D03*
X0105091Y0196198D03*
X0105091Y0204072D03*
X0028320Y0204072D03*
X0028320Y0172576D03*
X0028320Y0156828D03*
D22*
X0166595Y0174013D03*
X0166595Y0204013D03*
X0203095Y0203513D03*
X0203095Y0173513D03*
X0203095Y0065513D03*
X0203095Y0035513D03*
X0166595Y0036013D03*
X0166595Y0066013D03*
D23*
X0156595Y0085013D03*
X0193095Y0084513D03*
D24*
X0193095Y0094513D03*
X0203095Y0094513D03*
X0203095Y0084513D03*
X0213095Y0084513D03*
X0213095Y0094513D03*
X0176595Y0095013D03*
X0166595Y0095013D03*
X0156595Y0095013D03*
X0166595Y0085013D03*
X0176595Y0085013D03*
D25*
X0136595Y0160513D03*
X0054595Y0134013D03*
D26*
X0051463Y0137810D02*
X0038084Y0137810D01*
X0037957Y0138060D02*
X0038322Y0137344D01*
X0038570Y0136581D01*
X0038695Y0135788D01*
X0038695Y0135387D01*
X0033595Y0135387D01*
X0033595Y0140487D01*
X0033194Y0140487D01*
X0032401Y0140361D01*
X0031637Y0140113D01*
X0030922Y0139749D01*
X0030273Y0139277D01*
X0029705Y0138709D01*
X0029233Y0138060D01*
X0028869Y0137344D01*
X0028621Y0136581D01*
X0028495Y0135788D01*
X0028495Y0135387D01*
X0033595Y0135387D01*
X0033595Y0135387D01*
X0033595Y0135387D01*
X0033595Y0140487D01*
X0033997Y0140487D01*
X0034789Y0140361D01*
X0035553Y0140113D01*
X0036268Y0139749D01*
X0036918Y0139277D01*
X0037485Y0138709D01*
X0037957Y0138060D01*
X0036736Y0139409D02*
X0062195Y0139409D01*
X0062195Y0141007D02*
X0024595Y0141007D01*
X0024595Y0139409D02*
X0030454Y0139409D01*
X0029106Y0137810D02*
X0024595Y0137810D01*
X0024595Y0136212D02*
X0028562Y0136212D01*
X0028495Y0135387D02*
X0028495Y0134985D01*
X0028621Y0134193D01*
X0028869Y0133429D01*
X0029233Y0132714D01*
X0029705Y0132064D01*
X0030273Y0131497D01*
X0030922Y0131025D01*
X0031637Y0130660D01*
X0032401Y0130412D01*
X0033194Y0130287D01*
X0033595Y0130287D01*
X0033595Y0135387D01*
X0028495Y0135387D01*
X0028554Y0134613D02*
X0024595Y0134613D01*
X0024595Y0133015D02*
X0029080Y0133015D01*
X0030384Y0131416D02*
X0024595Y0131416D01*
X0024595Y0129817D02*
X0051919Y0129817D01*
X0051820Y0129859D02*
X0053620Y0129113D01*
X0055570Y0129113D01*
X0057371Y0129859D01*
X0058749Y0131237D01*
X0059495Y0133038D01*
X0059495Y0134987D01*
X0058749Y0136788D01*
X0057371Y0138167D01*
X0055570Y0138913D01*
X0053620Y0138913D01*
X0051820Y0138167D01*
X0050441Y0136788D01*
X0049695Y0134987D01*
X0049695Y0133038D01*
X0050441Y0131237D01*
X0051820Y0129859D01*
X0050367Y0131416D02*
X0036806Y0131416D01*
X0036918Y0131497D02*
X0037485Y0132064D01*
X0037957Y0132714D01*
X0038322Y0133429D01*
X0038570Y0134193D01*
X0038695Y0134985D01*
X0038695Y0135387D01*
X0033595Y0135387D01*
X0033595Y0135387D01*
X0033595Y0135387D01*
X0033595Y0130287D01*
X0033997Y0130287D01*
X0034789Y0130412D01*
X0035553Y0130660D01*
X0036268Y0131025D01*
X0036918Y0131497D01*
X0038110Y0133015D02*
X0049705Y0133015D01*
X0049695Y0134613D02*
X0038636Y0134613D01*
X0038628Y0136212D02*
X0050202Y0136212D01*
X0057271Y0129817D02*
X0062195Y0129817D01*
X0062195Y0128219D02*
X0024595Y0128219D01*
X0024595Y0126620D02*
X0062195Y0126620D01*
X0062195Y0125022D02*
X0024595Y0125022D01*
X0024595Y0123423D02*
X0030733Y0123423D01*
X0030933Y0123623D02*
X0029611Y0122301D01*
X0028895Y0120574D01*
X0028895Y0118704D01*
X0029611Y0116976D01*
X0030933Y0115654D01*
X0032660Y0114939D01*
X0034530Y0114939D01*
X0036258Y0115654D01*
X0037580Y0116976D01*
X0038295Y0118704D01*
X0038295Y0120574D01*
X0037580Y0122301D01*
X0036258Y0123623D01*
X0034530Y0124339D01*
X0032660Y0124339D01*
X0030933Y0123623D01*
X0029413Y0121825D02*
X0024595Y0121825D01*
X0024595Y0120226D02*
X0028895Y0120226D01*
X0028927Y0118628D02*
X0024595Y0118628D01*
X0024595Y0117029D02*
X0029589Y0117029D01*
X0031472Y0115431D02*
X0024595Y0115431D01*
X0024595Y0113832D02*
X0056099Y0113832D01*
X0056122Y0113809D02*
X0057078Y0113413D01*
X0058112Y0113413D01*
X0059068Y0113809D01*
X0059799Y0114540D01*
X0060195Y0115496D01*
X0060195Y0116067D01*
X0065795Y0121667D01*
X0065795Y0147167D01*
X0066392Y0147764D01*
X0066295Y0147530D01*
X0066295Y0146496D01*
X0066691Y0145540D01*
X0067422Y0144809D01*
X0068378Y0144413D01*
X0068950Y0144413D01*
X0072650Y0140713D01*
X0086795Y0140713D01*
X0086795Y0132490D01*
X0086568Y0132717D01*
X0085612Y0133113D01*
X0084578Y0133113D01*
X0083622Y0132717D01*
X0082891Y0131986D01*
X0082718Y0131567D01*
X0082568Y0131717D01*
X0081612Y0132113D01*
X0080578Y0132113D01*
X0079622Y0131717D01*
X0078891Y0130986D01*
X0078495Y0130030D01*
X0078495Y0128996D01*
X0078653Y0128616D01*
X0069850Y0119813D01*
X0068795Y0118758D01*
X0068795Y0092758D01*
X0067650Y0091613D01*
X0067078Y0091613D01*
X0066122Y0091217D01*
X0065391Y0090486D01*
X0064995Y0089530D01*
X0064995Y0088496D01*
X0065391Y0087540D01*
X0066122Y0086809D01*
X0067078Y0086413D01*
X0068112Y0086413D01*
X0069068Y0086809D01*
X0069799Y0087540D01*
X0070195Y0088496D01*
X0070195Y0089067D01*
X0070730Y0089602D01*
X0070697Y0075560D01*
X0070695Y0075558D01*
X0070695Y0074817D01*
X0070693Y0074071D01*
X0070695Y0074070D01*
X0070695Y0073867D01*
X0072050Y0072513D01*
X0062472Y0072513D01*
X0062268Y0072717D01*
X0061312Y0073113D01*
X0060278Y0073113D01*
X0059322Y0072717D01*
X0059118Y0072513D01*
X0053424Y0072513D01*
X0044595Y0081341D01*
X0043424Y0082513D01*
X0036287Y0082513D01*
X0035919Y0083402D01*
X0034484Y0084836D01*
X0033092Y0085413D01*
X0034610Y0085413D01*
X0036484Y0086189D01*
X0037919Y0087624D01*
X0038695Y0089498D01*
X0038695Y0091527D01*
X0037919Y0093402D01*
X0036484Y0094836D01*
X0034610Y0095613D01*
X0032581Y0095613D01*
X0030706Y0094836D01*
X0029272Y0093402D01*
X0028495Y0091527D01*
X0028495Y0089498D01*
X0029272Y0087624D01*
X0030706Y0086189D01*
X0032098Y0085613D01*
X0030581Y0085613D01*
X0028706Y0084836D01*
X0027272Y0083402D01*
X0026495Y0081527D01*
X0026495Y0079498D01*
X0027272Y0077624D01*
X0028706Y0076189D01*
X0030581Y0075413D01*
X0032098Y0075413D01*
X0030706Y0074836D01*
X0029272Y0073402D01*
X0028495Y0071527D01*
X0028495Y0069498D01*
X0029272Y0067624D01*
X0030706Y0066189D01*
X0031141Y0066009D01*
X0030307Y0065877D01*
X0029484Y0065610D01*
X0028713Y0065217D01*
X0028012Y0064708D01*
X0027400Y0064096D01*
X0026891Y0063395D01*
X0026498Y0062624D01*
X0026231Y0061801D01*
X0026095Y0060946D01*
X0026095Y0060713D01*
X0031395Y0060713D01*
X0031395Y0060313D01*
X0026095Y0060313D01*
X0026095Y0060080D01*
X0026231Y0059225D01*
X0026498Y0058401D01*
X0026891Y0057630D01*
X0027400Y0056930D01*
X0028012Y0056318D01*
X0028713Y0055809D01*
X0029484Y0055416D01*
X0030307Y0055148D01*
X0031141Y0055016D01*
X0030706Y0054836D01*
X0029272Y0053402D01*
X0028495Y0051527D01*
X0028495Y0049498D01*
X0029272Y0047624D01*
X0030706Y0046189D01*
X0032098Y0045613D01*
X0030581Y0045613D01*
X0028706Y0044836D01*
X0027272Y0043402D01*
X0026495Y0041527D01*
X0026495Y0039498D01*
X0027272Y0037624D01*
X0028706Y0036189D01*
X0030581Y0035413D01*
X0032610Y0035413D01*
X0034484Y0036189D01*
X0035919Y0037624D01*
X0036370Y0038713D01*
X0038341Y0038713D01*
X0039395Y0039767D01*
X0044395Y0044767D01*
X0044395Y0070636D01*
X0044799Y0071040D01*
X0045195Y0071996D01*
X0045195Y0073030D01*
X0044799Y0073986D01*
X0044068Y0074717D01*
X0043112Y0075113D01*
X0042078Y0075113D01*
X0041122Y0074717D01*
X0040391Y0073986D01*
X0039995Y0073030D01*
X0039995Y0071996D01*
X0040391Y0071040D01*
X0040795Y0070636D01*
X0040795Y0046258D01*
X0036850Y0042313D01*
X0036370Y0042313D01*
X0035919Y0043402D01*
X0034484Y0044836D01*
X0033092Y0045413D01*
X0034610Y0045413D01*
X0036484Y0046189D01*
X0037919Y0047624D01*
X0038695Y0049498D01*
X0038695Y0051527D01*
X0037919Y0053402D01*
X0036484Y0054836D01*
X0034610Y0055613D01*
X0034093Y0055613D01*
X0034478Y0055809D01*
X0035178Y0056318D01*
X0035790Y0056930D01*
X0036299Y0057630D01*
X0036692Y0058401D01*
X0036960Y0059225D01*
X0037095Y0060080D01*
X0037095Y0060313D01*
X0031795Y0060313D01*
X0031795Y0060713D01*
X0037095Y0060713D01*
X0037095Y0060946D01*
X0036960Y0061801D01*
X0036692Y0062624D01*
X0036299Y0063395D01*
X0035790Y0064096D01*
X0035178Y0064708D01*
X0034478Y0065217D01*
X0034093Y0065413D01*
X0034610Y0065413D01*
X0036484Y0066189D01*
X0037919Y0067624D01*
X0038695Y0069498D01*
X0038695Y0071527D01*
X0037919Y0073402D01*
X0036484Y0074836D01*
X0034610Y0075613D01*
X0033092Y0075613D01*
X0034484Y0076189D01*
X0035919Y0077624D01*
X0036287Y0078513D01*
X0041767Y0078513D01*
X0051767Y0068513D01*
X0059118Y0068513D01*
X0059322Y0068309D01*
X0060278Y0067913D01*
X0061312Y0067913D01*
X0062268Y0068309D01*
X0062472Y0068513D01*
X0093767Y0068513D01*
X0096895Y0065384D01*
X0096895Y0065096D01*
X0097291Y0064140D01*
X0098022Y0063409D01*
X0098978Y0063013D01*
X0100012Y0063013D01*
X0100968Y0063409D01*
X0101699Y0064140D01*
X0102095Y0065096D01*
X0102095Y0066130D01*
X0101699Y0067086D01*
X0100968Y0067817D01*
X0100012Y0068213D01*
X0099724Y0068213D01*
X0096924Y0071013D01*
X0102350Y0071013D01*
X0103395Y0069967D01*
X0103395Y0069396D01*
X0103791Y0068440D01*
X0104522Y0067709D01*
X0105478Y0067313D01*
X0106512Y0067313D01*
X0107468Y0067709D01*
X0108199Y0068440D01*
X0108595Y0069396D01*
X0108595Y0070430D01*
X0108199Y0071386D01*
X0107468Y0072117D01*
X0106512Y0072513D01*
X0105941Y0072513D01*
X0103841Y0074613D01*
X0075041Y0074613D01*
X0074296Y0075357D01*
X0074393Y0116765D01*
X0085541Y0127913D01*
X0085612Y0127913D01*
X0086568Y0128309D01*
X0086795Y0128536D01*
X0086795Y0123690D01*
X0086391Y0123286D01*
X0085995Y0122330D01*
X0085995Y0121296D01*
X0086391Y0120340D01*
X0086753Y0119978D01*
X0086122Y0119717D01*
X0085391Y0118986D01*
X0084995Y0118030D01*
X0084995Y0116996D01*
X0085391Y0116040D01*
X0086122Y0115309D01*
X0087078Y0114913D01*
X0088112Y0114913D01*
X0089068Y0115309D01*
X0089799Y0116040D01*
X0090195Y0116996D01*
X0090195Y0117567D01*
X0091945Y0119317D01*
X0095795Y0115467D01*
X0095795Y0099390D01*
X0095391Y0098986D01*
X0094995Y0098030D01*
X0094995Y0096996D01*
X0095391Y0096040D01*
X0096122Y0095309D01*
X0097078Y0094913D01*
X0098112Y0094913D01*
X0099068Y0095309D01*
X0099799Y0096040D01*
X0100195Y0096996D01*
X0100195Y0098030D01*
X0099799Y0098986D01*
X0099395Y0099390D01*
X0099395Y0116958D01*
X0093095Y0123258D01*
X0093095Y0143058D01*
X0090395Y0145758D01*
X0090395Y0146330D01*
X0089999Y0147286D01*
X0089268Y0148017D01*
X0088312Y0148413D01*
X0087278Y0148413D01*
X0086322Y0148017D01*
X0085591Y0147286D01*
X0085195Y0146330D01*
X0085195Y0145296D01*
X0085591Y0144340D01*
X0085618Y0144313D01*
X0074141Y0144313D01*
X0071495Y0146958D01*
X0071495Y0147530D01*
X0071099Y0148486D01*
X0070368Y0149217D01*
X0069412Y0149613D01*
X0068378Y0149613D01*
X0068144Y0149516D01*
X0073295Y0154667D01*
X0073295Y0165867D01*
X0073450Y0165713D01*
X0085404Y0165713D01*
X0085444Y0165677D01*
X0086142Y0165713D01*
X0086841Y0165713D01*
X0086879Y0165751D01*
X0086933Y0165754D01*
X0087401Y0166273D01*
X0087895Y0166767D01*
X0087895Y0166821D01*
X0091459Y0170776D01*
X0099754Y0170776D01*
X0099754Y0169496D01*
X0100574Y0168676D01*
X0109608Y0168676D01*
X0110428Y0169496D01*
X0110428Y0175656D01*
X0109608Y0176476D01*
X0100574Y0176476D01*
X0099754Y0175656D01*
X0099754Y0174376D01*
X0091350Y0174376D01*
X0091309Y0174412D01*
X0090611Y0174376D01*
X0089913Y0174376D01*
X0089874Y0174337D01*
X0089820Y0174335D01*
X0089352Y0173815D01*
X0088858Y0173321D01*
X0088858Y0173267D01*
X0085294Y0169313D01*
X0074941Y0169313D01*
X0074395Y0169858D01*
X0074395Y0170330D01*
X0073999Y0171286D01*
X0073595Y0171690D01*
X0073595Y0176613D01*
X0074078Y0176413D01*
X0075112Y0176413D01*
X0076068Y0176809D01*
X0076799Y0177540D01*
X0077195Y0178496D01*
X0077195Y0179530D01*
X0076799Y0180486D01*
X0076395Y0180890D01*
X0076395Y0182867D01*
X0079295Y0185767D01*
X0079295Y0177267D01*
X0080350Y0176213D01*
X0081850Y0174713D01*
X0087341Y0174713D01*
X0088395Y0175767D01*
X0088395Y0175767D01*
X0091341Y0178713D01*
X0099754Y0178713D01*
X0099754Y0177370D01*
X0100574Y0176550D01*
X0109608Y0176550D01*
X0110428Y0177370D01*
X0110428Y0179213D01*
X0111350Y0179213D01*
X0114795Y0175767D01*
X0114795Y0168767D01*
X0115850Y0167713D01*
X0117691Y0165871D01*
X0117691Y0163462D01*
X0115395Y0165758D01*
X0114341Y0166813D01*
X0110428Y0166813D01*
X0110428Y0167782D01*
X0109608Y0168602D01*
X0100574Y0168602D01*
X0099754Y0167782D01*
X0099754Y0166813D01*
X0096350Y0166813D01*
X0095295Y0165758D01*
X0093350Y0163813D01*
X0083850Y0163813D01*
X0082795Y0162758D01*
X0074650Y0154613D01*
X0074078Y0154613D01*
X0073122Y0154217D01*
X0072391Y0153486D01*
X0071995Y0152530D01*
X0071995Y0151496D01*
X0072391Y0150540D01*
X0073122Y0149809D01*
X0074078Y0149413D01*
X0075112Y0149413D01*
X0076068Y0149809D01*
X0076799Y0150540D01*
X0077195Y0151496D01*
X0077195Y0152067D01*
X0085341Y0160213D01*
X0094841Y0160213D01*
X0097841Y0163213D01*
X0099754Y0163213D01*
X0099754Y0161622D01*
X0100574Y0160802D01*
X0109608Y0160802D01*
X0110428Y0161622D01*
X0110428Y0163213D01*
X0112850Y0163213D01*
X0116850Y0159213D01*
X0117691Y0159213D01*
X0117691Y0158691D01*
X0110428Y0158691D01*
X0110428Y0159908D01*
X0109608Y0160728D01*
X0100574Y0160728D01*
X0099754Y0159908D01*
X0099754Y0158628D01*
X0086165Y0158628D01*
X0077650Y0150113D01*
X0077078Y0150113D01*
X0076122Y0149717D01*
X0075391Y0148986D01*
X0074995Y0148030D01*
X0074995Y0146996D01*
X0075391Y0146040D01*
X0076122Y0145309D01*
X0077078Y0144913D01*
X0078112Y0144913D01*
X0079068Y0145309D01*
X0079799Y0146040D01*
X0080195Y0146996D01*
X0080195Y0147567D01*
X0087656Y0155028D01*
X0099754Y0155028D01*
X0099754Y0153748D01*
X0100574Y0152928D01*
X0109608Y0152928D01*
X0110428Y0153748D01*
X0110428Y0155091D01*
X0117691Y0155091D01*
X0117691Y0153811D01*
X0118511Y0152991D01*
X0129671Y0152991D01*
X0130491Y0153811D01*
X0130491Y0159213D01*
X0131091Y0159213D01*
X0131695Y0159817D01*
X0131695Y0159538D01*
X0132441Y0157737D01*
X0133820Y0156359D01*
X0135620Y0155613D01*
X0137570Y0155613D01*
X0139371Y0156359D01*
X0140749Y0157737D01*
X0141495Y0159538D01*
X0141495Y0161487D01*
X0140749Y0163288D01*
X0139371Y0164667D01*
X0137570Y0165413D01*
X0135620Y0165413D01*
X0135395Y0165319D01*
X0135395Y0171258D01*
X0134341Y0172313D01*
X0132215Y0174439D01*
X0130491Y0174439D01*
X0130491Y0175719D01*
X0129671Y0176539D01*
X0118511Y0176539D01*
X0118395Y0176423D01*
X0118395Y0176729D01*
X0118511Y0176613D01*
X0129671Y0176613D01*
X0130491Y0177433D01*
X0130491Y0183593D01*
X0129842Y0184242D01*
X0130196Y0184446D01*
X0130532Y0184782D01*
X0130769Y0185192D01*
X0130891Y0185650D01*
X0130891Y0187937D01*
X0124541Y0187937D01*
X0124541Y0184413D01*
X0123641Y0184413D01*
X0123641Y0187937D01*
X0117291Y0187937D01*
X0117291Y0185650D01*
X0117414Y0185192D01*
X0117651Y0184782D01*
X0117986Y0184446D01*
X0118340Y0184242D01*
X0117691Y0183593D01*
X0117691Y0177962D01*
X0113895Y0181758D01*
X0112841Y0182813D01*
X0110428Y0182813D01*
X0110428Y0183263D01*
X0110891Y0183263D01*
X0111945Y0184317D01*
X0111945Y0184317D01*
X0117291Y0189663D01*
X0117291Y0188837D01*
X0123641Y0188837D01*
X0123641Y0192361D01*
X0124541Y0192361D01*
X0124541Y0188837D01*
X0123641Y0188837D01*
X0123641Y0187937D01*
X0124541Y0187937D01*
X0124541Y0188837D01*
X0130891Y0188837D01*
X0130891Y0191124D01*
X0130769Y0191582D01*
X0130532Y0191992D01*
X0130196Y0192327D01*
X0129842Y0192532D01*
X0130491Y0193181D01*
X0130491Y0199341D01*
X0130019Y0199813D01*
X0131431Y0199813D01*
X0132974Y0200452D01*
X0134156Y0201634D01*
X0134795Y0203177D01*
X0134795Y0204848D01*
X0134156Y0206392D01*
X0132974Y0207573D01*
X0131431Y0208213D01*
X0129760Y0208213D01*
X0129330Y0208035D01*
X0118511Y0208035D01*
X0117691Y0207215D01*
X0117691Y0206417D01*
X0110687Y0199413D01*
X0110293Y0199413D01*
X0109779Y0199927D01*
X0110133Y0200131D01*
X0110469Y0200467D01*
X0110706Y0200877D01*
X0110828Y0201335D01*
X0110828Y0203622D01*
X0105541Y0203622D01*
X0105541Y0200098D01*
X0104641Y0200098D01*
X0104641Y0203622D01*
X0100595Y0203622D01*
X0100595Y0203813D01*
X0095295Y0203813D01*
X0095295Y0204213D01*
X0094895Y0204213D01*
X0094895Y0209513D01*
X0092817Y0209513D01*
X0091229Y0207925D01*
X0090741Y0208413D01*
X0088641Y0210513D01*
X0137918Y0210513D01*
X0137641Y0210236D01*
X0137245Y0209280D01*
X0137245Y0208246D01*
X0137641Y0207290D01*
X0138372Y0206559D01*
X0139328Y0206163D01*
X0139617Y0206163D01*
X0142595Y0203184D01*
X0142595Y0188901D01*
X0142563Y0188934D01*
X0141286Y0189462D01*
X0139904Y0189462D01*
X0138628Y0188934D01*
X0137651Y0187957D01*
X0137122Y0186680D01*
X0137122Y0185298D01*
X0137651Y0184022D01*
X0138628Y0183045D01*
X0139904Y0182516D01*
X0141286Y0182516D01*
X0142563Y0183045D01*
X0142595Y0183077D01*
X0142595Y0176948D01*
X0142563Y0176981D01*
X0141286Y0177510D01*
X0139904Y0177510D01*
X0138628Y0176981D01*
X0137651Y0176004D01*
X0137122Y0174727D01*
X0137122Y0173345D01*
X0137651Y0172069D01*
X0138628Y0171092D01*
X0139904Y0170563D01*
X0141286Y0170563D01*
X0142563Y0171092D01*
X0142595Y0171125D01*
X0142595Y0108218D01*
X0141955Y0109762D01*
X0139845Y0111873D01*
X0137087Y0113015D01*
X0134103Y0113015D01*
X0131345Y0111873D01*
X0129235Y0109762D01*
X0128093Y0107005D01*
X0128093Y0104020D01*
X0129235Y0101263D01*
X0131345Y0099153D01*
X0134103Y0098010D01*
X0137087Y0098010D01*
X0139845Y0099153D01*
X0141955Y0101263D01*
X0142595Y0102808D01*
X0142595Y0033341D01*
X0141767Y0032513D01*
X0133851Y0032513D01*
X0135484Y0033189D01*
X0136919Y0034624D01*
X0137695Y0036498D01*
X0137695Y0038527D01*
X0136919Y0040402D01*
X0135484Y0041836D01*
X0133610Y0042613D01*
X0131581Y0042613D01*
X0129706Y0041836D01*
X0128272Y0040402D01*
X0127695Y0039010D01*
X0127695Y0039527D01*
X0126919Y0041402D01*
X0125484Y0042836D01*
X0123610Y0043613D01*
X0121581Y0043613D01*
X0119706Y0042836D01*
X0118272Y0041402D01*
X0117495Y0039527D01*
X0117495Y0039010D01*
X0116919Y0040402D01*
X0115484Y0041836D01*
X0113610Y0042613D01*
X0111581Y0042613D01*
X0109706Y0041836D01*
X0108272Y0040402D01*
X0107695Y0039010D01*
X0107695Y0039527D01*
X0106919Y0041402D01*
X0105484Y0042836D01*
X0103610Y0043613D01*
X0101581Y0043613D01*
X0099706Y0042836D01*
X0098272Y0041402D01*
X0097606Y0039794D01*
X0097299Y0040395D01*
X0096790Y0041096D01*
X0096178Y0041708D01*
X0095478Y0042217D01*
X0094706Y0042610D01*
X0093883Y0042877D01*
X0093028Y0043013D01*
X0092595Y0043013D01*
X0092162Y0043013D01*
X0091307Y0042877D01*
X0090484Y0042610D01*
X0089713Y0042217D01*
X0089012Y0041708D01*
X0088400Y0041096D01*
X0087891Y0040395D01*
X0087815Y0040246D01*
X0087692Y0040624D01*
X0087299Y0041395D01*
X0086790Y0042096D01*
X0086178Y0042708D01*
X0085478Y0043217D01*
X0084706Y0043610D01*
X0083883Y0043877D01*
X0083028Y0044013D01*
X0082595Y0044013D01*
X0082162Y0044013D01*
X0081307Y0043877D01*
X0080484Y0043610D01*
X0079713Y0043217D01*
X0079012Y0042708D01*
X0078400Y0042096D01*
X0077891Y0041395D01*
X0077498Y0040624D01*
X0077231Y0039801D01*
X0077095Y0038946D01*
X0077095Y0038513D01*
X0082595Y0038513D01*
X0082595Y0044013D01*
X0082595Y0038513D01*
X0082595Y0038513D01*
X0082595Y0038513D01*
X0077095Y0038513D01*
X0077095Y0038080D01*
X0077231Y0037225D01*
X0077498Y0036401D01*
X0077891Y0035630D01*
X0078400Y0034930D01*
X0079012Y0034318D01*
X0079713Y0033809D01*
X0080484Y0033416D01*
X0081307Y0033148D01*
X0082162Y0033013D01*
X0082595Y0033013D01*
X0082595Y0038513D01*
X0082595Y0038513D01*
X0082595Y0033013D01*
X0083028Y0033013D01*
X0083883Y0033148D01*
X0084706Y0033416D01*
X0085478Y0033809D01*
X0086178Y0034318D01*
X0086790Y0034930D01*
X0087299Y0035630D01*
X0087375Y0035780D01*
X0087498Y0035401D01*
X0087891Y0034630D01*
X0088400Y0033930D01*
X0089012Y0033318D01*
X0089713Y0032809D01*
X0090484Y0032416D01*
X0091307Y0032148D01*
X0092162Y0032013D01*
X0092595Y0032013D01*
X0092595Y0037513D01*
X0092595Y0043013D01*
X0092595Y0037513D01*
X0092595Y0037513D01*
X0092595Y0037513D01*
X0092595Y0032013D01*
X0093028Y0032013D01*
X0093883Y0032148D01*
X0094706Y0032416D01*
X0095478Y0032809D01*
X0096178Y0033318D01*
X0096790Y0033930D01*
X0097299Y0034630D01*
X0097692Y0035401D01*
X0097960Y0036225D01*
X0097977Y0036335D01*
X0098272Y0035624D01*
X0099706Y0034189D01*
X0100595Y0033821D01*
X0100595Y0032184D01*
X0101767Y0031013D01*
X0103267Y0029513D01*
X0024595Y0029513D01*
X0024595Y0152928D01*
X0032836Y0152928D01*
X0033657Y0153748D01*
X0033657Y0155028D01*
X0037565Y0155028D01*
X0033150Y0150613D01*
X0032578Y0150613D01*
X0031622Y0150217D01*
X0030891Y0149486D01*
X0030495Y0148530D01*
X0030495Y0147496D01*
X0030891Y0146540D01*
X0031622Y0145809D01*
X0032578Y0145413D01*
X0033612Y0145413D01*
X0034568Y0145809D01*
X0035299Y0146540D01*
X0035695Y0147496D01*
X0035695Y0148067D01*
X0042719Y0155091D01*
X0054699Y0155091D01*
X0054699Y0153811D01*
X0055519Y0152991D01*
X0066528Y0152991D01*
X0063250Y0149713D01*
X0062195Y0148658D01*
X0062195Y0123158D01*
X0057650Y0118613D01*
X0057078Y0118613D01*
X0056122Y0118217D01*
X0055391Y0117486D01*
X0054995Y0116530D01*
X0054995Y0115496D01*
X0055391Y0114540D01*
X0056122Y0113809D01*
X0055022Y0115431D02*
X0035718Y0115431D01*
X0037602Y0117029D02*
X0055202Y0117029D01*
X0057665Y0118628D02*
X0038264Y0118628D01*
X0038295Y0120226D02*
X0059263Y0120226D01*
X0060862Y0121825D02*
X0037777Y0121825D01*
X0036457Y0123423D02*
X0062195Y0123423D01*
X0065795Y0123423D02*
X0073460Y0123423D01*
X0071862Y0121825D02*
X0065795Y0121825D01*
X0064354Y0120226D02*
X0070263Y0120226D01*
X0068795Y0118628D02*
X0062756Y0118628D01*
X0061157Y0117029D02*
X0068795Y0117029D01*
X0068795Y0115431D02*
X0060168Y0115431D01*
X0059092Y0113832D02*
X0068795Y0113832D01*
X0068795Y0112234D02*
X0036974Y0112234D01*
X0037845Y0111873D02*
X0035087Y0113015D01*
X0032103Y0113015D01*
X0029345Y0111873D01*
X0027235Y0109762D01*
X0026093Y0107005D01*
X0026093Y0104020D01*
X0027235Y0101263D01*
X0029345Y0099153D01*
X0032103Y0098010D01*
X0035087Y0098010D01*
X0037845Y0099153D01*
X0039955Y0101263D01*
X0041098Y0104020D01*
X0041098Y0107005D01*
X0039955Y0109762D01*
X0037845Y0111873D01*
X0039083Y0110635D02*
X0068795Y0110635D01*
X0068795Y0109037D02*
X0040256Y0109037D01*
X0040918Y0107438D02*
X0068795Y0107438D01*
X0068795Y0105840D02*
X0041098Y0105840D01*
X0041098Y0104241D02*
X0068795Y0104241D01*
X0068795Y0102643D02*
X0040527Y0102643D01*
X0039737Y0101044D02*
X0068795Y0101044D01*
X0068795Y0099446D02*
X0038138Y0099446D01*
X0036670Y0094650D02*
X0068795Y0094650D01*
X0068795Y0093052D02*
X0038064Y0093052D01*
X0038695Y0091453D02*
X0066693Y0091453D01*
X0065130Y0089855D02*
X0038695Y0089855D01*
X0038181Y0088256D02*
X0065094Y0088256D01*
X0066487Y0086658D02*
X0036953Y0086658D01*
X0033946Y0085059D02*
X0070719Y0085059D01*
X0070715Y0083461D02*
X0035860Y0083461D01*
X0035362Y0077067D02*
X0043213Y0077067D01*
X0044811Y0075468D02*
X0034959Y0075468D01*
X0037451Y0073870D02*
X0040343Y0073870D01*
X0039995Y0072271D02*
X0038387Y0072271D01*
X0038695Y0070673D02*
X0040758Y0070673D01*
X0040795Y0069074D02*
X0038519Y0069074D01*
X0037770Y0067476D02*
X0040795Y0067476D01*
X0040795Y0065877D02*
X0035730Y0065877D01*
X0035608Y0064279D02*
X0040795Y0064279D01*
X0040795Y0062680D02*
X0036664Y0062680D01*
X0037074Y0061081D02*
X0040795Y0061081D01*
X0040795Y0059483D02*
X0037001Y0059483D01*
X0036429Y0057884D02*
X0040795Y0057884D01*
X0040795Y0056286D02*
X0035135Y0056286D01*
X0036633Y0054687D02*
X0040795Y0054687D01*
X0040795Y0053089D02*
X0038048Y0053089D01*
X0038695Y0051490D02*
X0040795Y0051490D01*
X0040795Y0049892D02*
X0038695Y0049892D01*
X0038196Y0048293D02*
X0040795Y0048293D01*
X0040795Y0046695D02*
X0036990Y0046695D01*
X0039633Y0045096D02*
X0033856Y0045096D01*
X0035823Y0043498D02*
X0038035Y0043498D01*
X0041527Y0041899D02*
X0078257Y0041899D01*
X0077393Y0040301D02*
X0039929Y0040301D01*
X0036365Y0038702D02*
X0077095Y0038702D01*
X0077270Y0037104D02*
X0035399Y0037104D01*
X0032833Y0035505D02*
X0077982Y0035505D01*
X0079578Y0033907D02*
X0024595Y0033907D01*
X0024595Y0035505D02*
X0030357Y0035505D01*
X0027792Y0037104D02*
X0024595Y0037104D01*
X0024595Y0038702D02*
X0026825Y0038702D01*
X0026495Y0040301D02*
X0024595Y0040301D01*
X0024595Y0041899D02*
X0026649Y0041899D01*
X0027368Y0043498D02*
X0024595Y0043498D01*
X0024595Y0045096D02*
X0029334Y0045096D01*
X0030201Y0046695D02*
X0024595Y0046695D01*
X0024595Y0048293D02*
X0028994Y0048293D01*
X0028495Y0049892D02*
X0024595Y0049892D01*
X0024595Y0051490D02*
X0028495Y0051490D01*
X0029142Y0053089D02*
X0024595Y0053089D01*
X0024595Y0054687D02*
X0030557Y0054687D01*
X0028056Y0056286D02*
X0024595Y0056286D01*
X0024595Y0057884D02*
X0026762Y0057884D01*
X0026190Y0059483D02*
X0024595Y0059483D01*
X0024595Y0061081D02*
X0026117Y0061081D01*
X0026527Y0062680D02*
X0024595Y0062680D01*
X0024595Y0064279D02*
X0027583Y0064279D01*
X0030306Y0065877D02*
X0024595Y0065877D01*
X0024595Y0067476D02*
X0029420Y0067476D01*
X0028671Y0069074D02*
X0024595Y0069074D01*
X0024595Y0070673D02*
X0028495Y0070673D01*
X0028803Y0072271D02*
X0024595Y0072271D01*
X0024595Y0073870D02*
X0029740Y0073870D01*
X0030447Y0075468D02*
X0024595Y0075468D01*
X0024595Y0077067D02*
X0027829Y0077067D01*
X0026840Y0078665D02*
X0024595Y0078665D01*
X0024595Y0080264D02*
X0026495Y0080264D01*
X0026634Y0081862D02*
X0024595Y0081862D01*
X0024595Y0083461D02*
X0027331Y0083461D01*
X0029244Y0085059D02*
X0024595Y0085059D01*
X0024595Y0086658D02*
X0030238Y0086658D01*
X0029010Y0088256D02*
X0024595Y0088256D01*
X0024595Y0089855D02*
X0028495Y0089855D01*
X0028495Y0091453D02*
X0024595Y0091453D01*
X0024595Y0093052D02*
X0029127Y0093052D01*
X0030520Y0094650D02*
X0024595Y0094650D01*
X0024595Y0096249D02*
X0068795Y0096249D01*
X0068795Y0097847D02*
X0024595Y0097847D01*
X0024595Y0099446D02*
X0029052Y0099446D01*
X0027454Y0101044D02*
X0024595Y0101044D01*
X0024595Y0102643D02*
X0026663Y0102643D01*
X0026093Y0104241D02*
X0024595Y0104241D01*
X0024595Y0105840D02*
X0026093Y0105840D01*
X0026272Y0107438D02*
X0024595Y0107438D01*
X0024595Y0109037D02*
X0026934Y0109037D01*
X0028108Y0110635D02*
X0024595Y0110635D01*
X0024595Y0112234D02*
X0030217Y0112234D01*
X0033595Y0131416D02*
X0033595Y0131416D01*
X0033595Y0133015D02*
X0033595Y0133015D01*
X0033595Y0134613D02*
X0033595Y0134613D01*
X0033595Y0136212D02*
X0033595Y0136212D01*
X0033595Y0137810D02*
X0033595Y0137810D01*
X0033595Y0139409D02*
X0033595Y0139409D01*
X0034553Y0145803D02*
X0062195Y0145803D01*
X0062195Y0147401D02*
X0035656Y0147401D01*
X0036628Y0149000D02*
X0062536Y0149000D01*
X0064135Y0150598D02*
X0038226Y0150598D01*
X0039825Y0152197D02*
X0065733Y0152197D01*
X0067499Y0153962D02*
X0067499Y0159971D01*
X0066679Y0160791D01*
X0055519Y0160791D01*
X0054699Y0159971D01*
X0054699Y0158691D01*
X0041319Y0158691D01*
X0045492Y0162864D01*
X0046581Y0162413D01*
X0048610Y0162413D01*
X0049942Y0162965D01*
X0054699Y0162965D01*
X0054699Y0161685D01*
X0055519Y0160865D01*
X0066679Y0160865D01*
X0067499Y0161685D01*
X0067499Y0166863D01*
X0069695Y0164667D01*
X0069695Y0156158D01*
X0067499Y0153962D01*
X0067499Y0155394D02*
X0068931Y0155394D01*
X0069695Y0156992D02*
X0067499Y0156992D01*
X0067499Y0158591D02*
X0069695Y0158591D01*
X0069695Y0160189D02*
X0067281Y0160189D01*
X0067499Y0161788D02*
X0069695Y0161788D01*
X0069695Y0163386D02*
X0067499Y0163386D01*
X0067499Y0164985D02*
X0069378Y0164985D01*
X0067779Y0166583D02*
X0067499Y0166583D01*
X0069195Y0170258D02*
X0067499Y0171954D01*
X0067499Y0175719D01*
X0066679Y0176539D01*
X0055519Y0176539D01*
X0054699Y0175719D01*
X0054699Y0174439D01*
X0052734Y0174439D01*
X0052919Y0174624D01*
X0053695Y0176498D01*
X0053695Y0178527D01*
X0052919Y0180402D01*
X0052274Y0181046D01*
X0052995Y0181767D01*
X0052995Y0181767D01*
X0054699Y0183471D01*
X0054699Y0177433D01*
X0055519Y0176613D01*
X0066679Y0176613D01*
X0067499Y0177433D01*
X0067499Y0183593D01*
X0066679Y0184413D01*
X0055641Y0184413D01*
X0055715Y0184487D01*
X0066679Y0184487D01*
X0067499Y0185307D01*
X0067499Y0191467D01*
X0066679Y0192287D01*
X0056195Y0192287D01*
X0056195Y0192361D01*
X0066679Y0192361D01*
X0067499Y0193181D01*
X0067499Y0199341D01*
X0066679Y0200161D01*
X0056195Y0200161D01*
X0056195Y0200235D01*
X0066679Y0200235D01*
X0067499Y0201055D01*
X0067499Y0207213D01*
X0071083Y0207213D01*
X0069995Y0206125D01*
X0069995Y0201900D01*
X0072883Y0199013D01*
X0069995Y0196125D01*
X0069995Y0191900D01*
X0072983Y0188913D01*
X0073295Y0188913D01*
X0073295Y0188658D01*
X0071050Y0186413D01*
X0069995Y0185358D01*
X0069995Y0171690D01*
X0069591Y0171286D01*
X0069195Y0170330D01*
X0069195Y0170258D01*
X0069684Y0171379D02*
X0068075Y0171379D01*
X0067499Y0172977D02*
X0069995Y0172977D01*
X0069995Y0174576D02*
X0067499Y0174576D01*
X0067043Y0176174D02*
X0069995Y0176174D01*
X0069995Y0177773D02*
X0067499Y0177773D01*
X0067499Y0179371D02*
X0069995Y0179371D01*
X0069995Y0180970D02*
X0067499Y0180970D01*
X0067499Y0182568D02*
X0069995Y0182568D01*
X0069995Y0184167D02*
X0066925Y0184167D01*
X0067499Y0185765D02*
X0070402Y0185765D01*
X0072001Y0187364D02*
X0067499Y0187364D01*
X0067499Y0188962D02*
X0072933Y0188962D01*
X0071335Y0190561D02*
X0067499Y0190561D01*
X0066806Y0192159D02*
X0069995Y0192159D01*
X0069995Y0193758D02*
X0067499Y0193758D01*
X0067499Y0195356D02*
X0069995Y0195356D01*
X0070825Y0196955D02*
X0067499Y0196955D01*
X0067499Y0198553D02*
X0072423Y0198553D01*
X0071743Y0200152D02*
X0066688Y0200152D01*
X0067499Y0201750D02*
X0070145Y0201750D01*
X0069995Y0203349D02*
X0067499Y0203349D01*
X0067499Y0204948D02*
X0069995Y0204948D01*
X0070416Y0206546D02*
X0067499Y0206546D01*
X0054850Y0210513D02*
X0054095Y0209758D01*
X0053650Y0209313D01*
X0052595Y0208258D01*
X0052595Y0200725D01*
X0051484Y0201836D01*
X0049610Y0202613D01*
X0047581Y0202613D01*
X0046492Y0202162D01*
X0042782Y0205872D01*
X0033657Y0205872D01*
X0033657Y0207152D01*
X0032836Y0207972D01*
X0024595Y0207972D01*
X0024595Y0210513D01*
X0054850Y0210513D01*
X0054095Y0209758D02*
X0054095Y0209758D01*
X0054080Y0209743D02*
X0024595Y0209743D01*
X0024595Y0208145D02*
X0052595Y0208145D01*
X0052595Y0206546D02*
X0033657Y0206546D01*
X0033657Y0202272D02*
X0035821Y0202272D01*
X0035713Y0202217D01*
X0035012Y0201708D01*
X0034400Y0201096D01*
X0033891Y0200395D01*
X0033498Y0199624D01*
X0033231Y0198801D01*
X0033095Y0197946D01*
X0033095Y0197713D01*
X0038395Y0197713D01*
X0038395Y0202272D01*
X0038795Y0202272D01*
X0038795Y0197713D01*
X0038395Y0197713D01*
X0038395Y0197313D01*
X0033095Y0197313D01*
X0033095Y0197080D01*
X0033231Y0196225D01*
X0033498Y0195401D01*
X0033891Y0194630D01*
X0034400Y0193930D01*
X0035012Y0193318D01*
X0035713Y0192809D01*
X0036314Y0192502D01*
X0034706Y0191836D01*
X0033272Y0190402D01*
X0032495Y0188527D01*
X0032495Y0186498D01*
X0033272Y0184624D01*
X0034706Y0183189D01*
X0036581Y0182413D01*
X0037098Y0182413D01*
X0035706Y0181836D01*
X0034272Y0180402D01*
X0033495Y0178527D01*
X0033495Y0176498D01*
X0034272Y0174624D01*
X0034457Y0174439D01*
X0033657Y0174439D01*
X0033657Y0175656D01*
X0032836Y0176476D01*
X0024595Y0176476D01*
X0024595Y0200172D01*
X0032836Y0200172D01*
X0033657Y0200992D01*
X0033657Y0202272D01*
X0033657Y0201750D02*
X0035071Y0201750D01*
X0033767Y0200152D02*
X0024595Y0200152D01*
X0024595Y0198553D02*
X0033191Y0198553D01*
X0033115Y0196955D02*
X0024595Y0196955D01*
X0024595Y0195356D02*
X0033521Y0195356D01*
X0034572Y0193758D02*
X0024595Y0193758D01*
X0024595Y0192159D02*
X0035486Y0192159D01*
X0033431Y0190561D02*
X0024595Y0190561D01*
X0024595Y0188962D02*
X0032675Y0188962D01*
X0032495Y0187364D02*
X0024595Y0187364D01*
X0024595Y0185765D02*
X0032799Y0185765D01*
X0033729Y0184167D02*
X0024595Y0184167D01*
X0024595Y0182568D02*
X0036205Y0182568D01*
X0034840Y0180970D02*
X0024595Y0180970D01*
X0024595Y0179371D02*
X0033845Y0179371D01*
X0033495Y0177773D02*
X0024595Y0177773D01*
X0033138Y0176174D02*
X0033629Y0176174D01*
X0033657Y0174576D02*
X0034320Y0174576D01*
X0044416Y0161788D02*
X0054699Y0161788D01*
X0054918Y0160189D02*
X0042817Y0160189D01*
X0041423Y0153795D02*
X0054715Y0153795D01*
X0062195Y0144204D02*
X0024595Y0144204D01*
X0024595Y0142606D02*
X0062195Y0142606D01*
X0065795Y0142606D02*
X0070757Y0142606D01*
X0069158Y0144204D02*
X0065795Y0144204D01*
X0065795Y0145803D02*
X0066582Y0145803D01*
X0066295Y0147401D02*
X0066029Y0147401D01*
X0069226Y0150598D02*
X0072367Y0150598D01*
X0071995Y0152197D02*
X0070825Y0152197D01*
X0072423Y0153795D02*
X0072701Y0153795D01*
X0073295Y0155394D02*
X0075431Y0155394D01*
X0077029Y0156992D02*
X0073295Y0156992D01*
X0073295Y0158591D02*
X0078628Y0158591D01*
X0080226Y0160189D02*
X0073295Y0160189D01*
X0073295Y0161788D02*
X0081825Y0161788D01*
X0083423Y0163386D02*
X0073295Y0163386D01*
X0073295Y0164985D02*
X0094522Y0164985D01*
X0096120Y0166583D02*
X0087711Y0166583D01*
X0089121Y0168182D02*
X0100154Y0168182D01*
X0099754Y0169780D02*
X0090562Y0169780D01*
X0088597Y0172977D02*
X0073595Y0172977D01*
X0073595Y0174576D02*
X0099754Y0174576D01*
X0100273Y0176174D02*
X0088802Y0176174D01*
X0090401Y0177773D02*
X0099754Y0177773D01*
X0094350Y0184313D02*
X0085472Y0184313D01*
X0085018Y0184767D01*
X0084062Y0185163D01*
X0083028Y0185163D01*
X0082895Y0185108D01*
X0082895Y0186267D01*
X0084541Y0187913D01*
X0087208Y0187913D01*
X0090195Y0190900D01*
X0090195Y0191700D01*
X0092983Y0188913D01*
X0097208Y0188913D01*
X0100195Y0191900D01*
X0100195Y0192677D01*
X0100574Y0192298D01*
X0109608Y0192298D01*
X0109923Y0192613D01*
X0112771Y0192613D01*
X0114021Y0193130D01*
X0114978Y0194087D01*
X0117691Y0196801D01*
X0117691Y0195154D01*
X0109400Y0186863D01*
X0096900Y0186863D01*
X0094350Y0184313D01*
X0095802Y0185765D02*
X0082895Y0185765D01*
X0083992Y0187364D02*
X0109901Y0187364D01*
X0111499Y0188962D02*
X0097257Y0188962D01*
X0098856Y0190561D02*
X0113098Y0190561D01*
X0114696Y0192159D02*
X0100195Y0192159D01*
X0092933Y0188962D02*
X0088257Y0188962D01*
X0089856Y0190561D02*
X0091335Y0190561D01*
X0079295Y0185765D02*
X0079293Y0185765D01*
X0079295Y0184167D02*
X0077695Y0184167D01*
X0076395Y0182568D02*
X0079295Y0182568D01*
X0079295Y0180970D02*
X0076395Y0180970D01*
X0077195Y0179371D02*
X0079295Y0179371D01*
X0079295Y0177773D02*
X0076896Y0177773D01*
X0073595Y0176174D02*
X0080388Y0176174D01*
X0073906Y0171379D02*
X0087156Y0171379D01*
X0085716Y0169780D02*
X0074473Y0169780D01*
X0085317Y0160189D02*
X0100036Y0160189D01*
X0099754Y0161788D02*
X0096416Y0161788D01*
X0099754Y0153795D02*
X0086423Y0153795D01*
X0084825Y0152197D02*
X0142595Y0152197D01*
X0142595Y0153795D02*
X0130476Y0153795D01*
X0130491Y0155394D02*
X0142595Y0155394D01*
X0142595Y0156992D02*
X0140004Y0156992D01*
X0141103Y0158591D02*
X0142595Y0158591D01*
X0142595Y0160189D02*
X0141495Y0160189D01*
X0141371Y0161788D02*
X0142595Y0161788D01*
X0142595Y0163386D02*
X0140651Y0163386D01*
X0142595Y0164985D02*
X0138603Y0164985D01*
X0135395Y0166583D02*
X0142595Y0166583D01*
X0142595Y0168182D02*
X0135395Y0168182D01*
X0135395Y0169780D02*
X0142595Y0169780D01*
X0138341Y0171379D02*
X0135275Y0171379D01*
X0133676Y0172977D02*
X0137274Y0172977D01*
X0137122Y0174576D02*
X0130491Y0174576D01*
X0130036Y0176174D02*
X0137821Y0176174D01*
X0142595Y0177773D02*
X0130491Y0177773D01*
X0130491Y0179371D02*
X0142595Y0179371D01*
X0142595Y0180970D02*
X0130491Y0180970D01*
X0130491Y0182568D02*
X0139778Y0182568D01*
X0141413Y0182568D02*
X0142595Y0182568D01*
X0137591Y0184167D02*
X0129917Y0184167D01*
X0130891Y0185765D02*
X0137122Y0185765D01*
X0137405Y0187364D02*
X0130891Y0187364D01*
X0130891Y0188962D02*
X0138697Y0188962D01*
X0142493Y0188962D02*
X0142595Y0188962D01*
X0142595Y0190561D02*
X0130891Y0190561D01*
X0130364Y0192159D02*
X0142595Y0192159D01*
X0142595Y0193758D02*
X0130491Y0193758D01*
X0130491Y0195356D02*
X0142595Y0195356D01*
X0142595Y0196955D02*
X0130491Y0196955D01*
X0130491Y0198553D02*
X0142595Y0198553D01*
X0142595Y0200152D02*
X0132250Y0200152D01*
X0134204Y0201750D02*
X0142595Y0201750D01*
X0142430Y0203349D02*
X0134795Y0203349D01*
X0134754Y0204948D02*
X0140832Y0204948D01*
X0138403Y0206546D02*
X0134002Y0206546D01*
X0131595Y0208145D02*
X0137287Y0208145D01*
X0137437Y0209743D02*
X0089410Y0209743D01*
X0091009Y0208145D02*
X0091449Y0208145D01*
X0094895Y0208145D02*
X0095295Y0208145D01*
X0095295Y0209513D02*
X0095295Y0204213D01*
X0100595Y0204213D01*
X0100595Y0204522D01*
X0104641Y0204522D01*
X0104641Y0203622D01*
X0105541Y0203622D01*
X0105541Y0204522D01*
X0104641Y0204522D01*
X0104641Y0208372D01*
X0100917Y0208372D01*
X0100459Y0208249D01*
X0100049Y0208012D01*
X0099714Y0207677D01*
X0099529Y0207357D01*
X0097373Y0209513D01*
X0095295Y0209513D01*
X0098742Y0208145D02*
X0100278Y0208145D01*
X0104641Y0208145D02*
X0105541Y0208145D01*
X0105541Y0208372D02*
X0105541Y0204522D01*
X0110828Y0204522D01*
X0110828Y0206809D01*
X0110706Y0207267D01*
X0110469Y0207677D01*
X0110133Y0208012D01*
X0109723Y0208249D01*
X0109265Y0208372D01*
X0105541Y0208372D01*
X0105541Y0206546D02*
X0104641Y0206546D01*
X0104641Y0204948D02*
X0105541Y0204948D01*
X0105541Y0203349D02*
X0104641Y0203349D01*
X0104641Y0201750D02*
X0105541Y0201750D01*
X0105541Y0200152D02*
X0104641Y0200152D01*
X0110154Y0200152D02*
X0111426Y0200152D01*
X0110828Y0201750D02*
X0113025Y0201750D01*
X0114623Y0203349D02*
X0110828Y0203349D01*
X0110828Y0204948D02*
X0116222Y0204948D01*
X0117691Y0206546D02*
X0110828Y0206546D01*
X0109904Y0208145D02*
X0129595Y0208145D01*
X0117691Y0195356D02*
X0116247Y0195356D01*
X0116295Y0193758D02*
X0114649Y0193758D01*
X0116590Y0188962D02*
X0117291Y0188962D01*
X0117291Y0187364D02*
X0114992Y0187364D01*
X0113393Y0185765D02*
X0117291Y0185765D01*
X0118265Y0184167D02*
X0111795Y0184167D01*
X0113085Y0182568D02*
X0117691Y0182568D01*
X0117691Y0180970D02*
X0114684Y0180970D01*
X0116282Y0179371D02*
X0117691Y0179371D01*
X0114388Y0176174D02*
X0109910Y0176174D01*
X0110428Y0174576D02*
X0114795Y0174576D01*
X0114795Y0172977D02*
X0110428Y0172977D01*
X0110428Y0171379D02*
X0114795Y0171379D01*
X0114795Y0169780D02*
X0110428Y0169780D01*
X0110028Y0168182D02*
X0115381Y0168182D01*
X0114570Y0166583D02*
X0116979Y0166583D01*
X0117691Y0164985D02*
X0116169Y0164985D01*
X0114275Y0161788D02*
X0110428Y0161788D01*
X0110147Y0160189D02*
X0115873Y0160189D01*
X0117707Y0153795D02*
X0110428Y0153795D01*
X0093095Y0142606D02*
X0142595Y0142606D01*
X0142595Y0144204D02*
X0091949Y0144204D01*
X0090395Y0145803D02*
X0142595Y0145803D01*
X0142595Y0147401D02*
X0089884Y0147401D01*
X0085707Y0147401D02*
X0080195Y0147401D01*
X0079562Y0145803D02*
X0085195Y0145803D01*
X0081628Y0149000D02*
X0142595Y0149000D01*
X0142595Y0150598D02*
X0083226Y0150598D01*
X0079733Y0152197D02*
X0077325Y0152197D01*
X0076823Y0150598D02*
X0078135Y0150598D01*
X0075405Y0149000D02*
X0070585Y0149000D01*
X0071495Y0147401D02*
X0074995Y0147401D01*
X0075628Y0145803D02*
X0072651Y0145803D01*
X0072355Y0141007D02*
X0065795Y0141007D01*
X0065795Y0139409D02*
X0086795Y0139409D01*
X0086795Y0137810D02*
X0065795Y0137810D01*
X0065795Y0136212D02*
X0086795Y0136212D01*
X0086795Y0134613D02*
X0065795Y0134613D01*
X0065795Y0133015D02*
X0084341Y0133015D01*
X0085850Y0133015D02*
X0086795Y0133015D01*
X0086795Y0128219D02*
X0086352Y0128219D01*
X0086795Y0126620D02*
X0084248Y0126620D01*
X0082650Y0125022D02*
X0086795Y0125022D01*
X0086529Y0123423D02*
X0081051Y0123423D01*
X0079453Y0121825D02*
X0085995Y0121825D01*
X0086505Y0120226D02*
X0077854Y0120226D01*
X0076256Y0118628D02*
X0085243Y0118628D01*
X0084995Y0117029D02*
X0074657Y0117029D01*
X0074390Y0115431D02*
X0086000Y0115431D01*
X0085395Y0114813D02*
X0085395Y0106313D01*
X0083795Y0106313D01*
X0083795Y0114813D01*
X0076858Y0114813D01*
X0076400Y0114690D01*
X0075990Y0114453D01*
X0075655Y0114118D01*
X0075418Y0113708D01*
X0075295Y0113250D01*
X0075295Y0106313D01*
X0083795Y0106313D01*
X0083795Y0104713D01*
X0075295Y0104713D01*
X0075295Y0097776D01*
X0075418Y0097318D01*
X0075655Y0096908D01*
X0075990Y0096572D01*
X0076400Y0096335D01*
X0076858Y0096213D01*
X0083795Y0096213D01*
X0083795Y0104713D01*
X0085395Y0104713D01*
X0085395Y0106313D01*
X0093895Y0106313D01*
X0093895Y0113250D01*
X0093773Y0113708D01*
X0093536Y0114118D01*
X0093200Y0114453D01*
X0092790Y0114690D01*
X0092332Y0114813D01*
X0085395Y0114813D01*
X0085395Y0113832D02*
X0083795Y0113832D01*
X0083795Y0112234D02*
X0085395Y0112234D01*
X0085395Y0110635D02*
X0083795Y0110635D01*
X0083795Y0109037D02*
X0085395Y0109037D01*
X0085395Y0107438D02*
X0083795Y0107438D01*
X0083795Y0105840D02*
X0074368Y0105840D01*
X0074372Y0107438D02*
X0075295Y0107438D01*
X0075295Y0109037D02*
X0074375Y0109037D01*
X0074379Y0110635D02*
X0075295Y0110635D01*
X0075295Y0112234D02*
X0074383Y0112234D01*
X0074387Y0113832D02*
X0075490Y0113832D01*
X0075295Y0104241D02*
X0074364Y0104241D01*
X0074360Y0102643D02*
X0075295Y0102643D01*
X0075295Y0101044D02*
X0074357Y0101044D01*
X0074353Y0099446D02*
X0075295Y0099446D01*
X0075295Y0097847D02*
X0074349Y0097847D01*
X0074345Y0096249D02*
X0076724Y0096249D01*
X0074342Y0094650D02*
X0131190Y0094650D01*
X0130654Y0094114D02*
X0129857Y0092189D01*
X0129857Y0082427D01*
X0130654Y0080502D01*
X0132128Y0079028D01*
X0134053Y0078231D01*
X0136137Y0078231D01*
X0138063Y0079028D01*
X0139536Y0080502D01*
X0140334Y0082427D01*
X0140334Y0092189D01*
X0139536Y0094114D01*
X0138063Y0095588D01*
X0136137Y0096385D01*
X0134053Y0096385D01*
X0132128Y0095588D01*
X0130654Y0094114D01*
X0130214Y0093052D02*
X0074338Y0093052D01*
X0074334Y0091453D02*
X0129857Y0091453D01*
X0129857Y0089855D02*
X0074330Y0089855D01*
X0074327Y0088256D02*
X0129857Y0088256D01*
X0129857Y0086658D02*
X0074323Y0086658D01*
X0074319Y0085059D02*
X0129857Y0085059D01*
X0129857Y0083461D02*
X0074315Y0083461D01*
X0074312Y0081862D02*
X0130091Y0081862D01*
X0130893Y0080264D02*
X0074308Y0080264D01*
X0074304Y0078665D02*
X0133005Y0078665D01*
X0137186Y0078665D02*
X0142595Y0078665D01*
X0142595Y0077067D02*
X0074300Y0077067D01*
X0074297Y0075468D02*
X0142595Y0075468D01*
X0142595Y0073870D02*
X0104584Y0073870D01*
X0107096Y0072271D02*
X0142595Y0072271D01*
X0142595Y0070673D02*
X0137473Y0070673D01*
X0137260Y0070782D02*
X0136416Y0071056D01*
X0135575Y0071189D01*
X0135575Y0062197D01*
X0140734Y0062197D01*
X0140734Y0066000D01*
X0140595Y0066876D01*
X0140321Y0067721D01*
X0139918Y0068511D01*
X0139396Y0069229D01*
X0138768Y0069857D01*
X0138050Y0070379D01*
X0137260Y0070782D01*
X0135575Y0070673D02*
X0134616Y0070673D01*
X0134616Y0071189D02*
X0133775Y0071056D01*
X0132931Y0070782D01*
X0132140Y0070379D01*
X0131422Y0069857D01*
X0130794Y0069229D01*
X0130273Y0068511D01*
X0129870Y0067721D01*
X0129595Y0066876D01*
X0129457Y0066000D01*
X0129457Y0062197D01*
X0134616Y0062197D01*
X0134616Y0071189D01*
X0132717Y0070673D02*
X0108495Y0070673D01*
X0108462Y0069074D02*
X0130681Y0069074D01*
X0129790Y0067476D02*
X0106905Y0067476D01*
X0105085Y0067476D02*
X0101309Y0067476D01*
X0102095Y0065877D02*
X0129457Y0065877D01*
X0129457Y0064279D02*
X0101757Y0064279D01*
X0097234Y0064279D02*
X0077885Y0064279D01*
X0077799Y0064486D02*
X0077068Y0065217D01*
X0076112Y0065613D01*
X0075078Y0065613D01*
X0074122Y0065217D01*
X0073391Y0064486D01*
X0072995Y0063530D01*
X0072995Y0062496D01*
X0073391Y0061540D01*
X0073795Y0061136D01*
X0073795Y0055767D01*
X0074190Y0055372D01*
X0073610Y0055613D01*
X0071581Y0055613D01*
X0069706Y0054836D01*
X0068272Y0053402D01*
X0067495Y0051527D01*
X0067495Y0049498D01*
X0068272Y0047624D01*
X0069706Y0046189D01*
X0071581Y0045413D01*
X0073610Y0045413D01*
X0075484Y0046189D01*
X0076919Y0047624D01*
X0077495Y0049016D01*
X0077495Y0048498D01*
X0078272Y0046624D01*
X0079706Y0045189D01*
X0081581Y0044413D01*
X0083610Y0044413D01*
X0085484Y0045189D01*
X0086919Y0046624D01*
X0087585Y0048232D01*
X0087891Y0047630D01*
X0088400Y0046930D01*
X0089012Y0046318D01*
X0089713Y0045809D01*
X0090484Y0045416D01*
X0091307Y0045148D01*
X0092162Y0045013D01*
X0092395Y0045013D01*
X0092395Y0050313D01*
X0092795Y0050313D01*
X0092795Y0045013D01*
X0093028Y0045013D01*
X0093883Y0045148D01*
X0094706Y0045416D01*
X0095478Y0045809D01*
X0096178Y0046318D01*
X0096790Y0046930D01*
X0097299Y0047630D01*
X0097606Y0048232D01*
X0098272Y0046624D01*
X0099706Y0045189D01*
X0101581Y0044413D01*
X0103610Y0044413D01*
X0105484Y0045189D01*
X0106919Y0046624D01*
X0107695Y0048498D01*
X0107695Y0050527D01*
X0106919Y0052402D01*
X0105484Y0053836D01*
X0103610Y0054613D01*
X0101581Y0054613D01*
X0099706Y0053836D01*
X0098272Y0052402D01*
X0097977Y0051691D01*
X0097960Y0051801D01*
X0097692Y0052624D01*
X0097299Y0053395D01*
X0096790Y0054096D01*
X0096178Y0054708D01*
X0095478Y0055217D01*
X0094706Y0055610D01*
X0093883Y0055877D01*
X0093028Y0056013D01*
X0092795Y0056013D01*
X0092795Y0050713D01*
X0092395Y0050713D01*
X0092395Y0056013D01*
X0092162Y0056013D01*
X0091307Y0055877D01*
X0090484Y0055610D01*
X0089713Y0055217D01*
X0089012Y0054708D01*
X0088400Y0054096D01*
X0087891Y0053395D01*
X0087498Y0052624D01*
X0087231Y0051801D01*
X0087213Y0051691D01*
X0086919Y0052402D01*
X0085484Y0053836D01*
X0083610Y0054613D01*
X0081581Y0054613D01*
X0080492Y0054162D01*
X0077395Y0057258D01*
X0077395Y0061136D01*
X0077799Y0061540D01*
X0078195Y0062496D01*
X0078195Y0063530D01*
X0077799Y0064486D01*
X0078195Y0062680D02*
X0129457Y0062680D01*
X0129457Y0061238D02*
X0129457Y0057435D01*
X0129595Y0056559D01*
X0129870Y0055714D01*
X0130273Y0054924D01*
X0130794Y0054206D01*
X0131422Y0053578D01*
X0132140Y0053056D01*
X0132931Y0052653D01*
X0133775Y0052379D01*
X0134616Y0052246D01*
X0134616Y0061238D01*
X0135575Y0061238D01*
X0135575Y0062197D01*
X0134616Y0062197D01*
X0134616Y0061238D01*
X0129457Y0061238D01*
X0129457Y0061081D02*
X0077395Y0061081D01*
X0077395Y0059483D02*
X0129457Y0059483D01*
X0129457Y0057884D02*
X0077395Y0057884D01*
X0078368Y0056286D02*
X0129684Y0056286D01*
X0130444Y0054687D02*
X0096199Y0054687D01*
X0097455Y0053089D02*
X0098959Y0053089D01*
X0092795Y0053089D02*
X0092395Y0053089D01*
X0092395Y0054687D02*
X0092795Y0054687D01*
X0092795Y0051490D02*
X0092395Y0051490D01*
X0092395Y0049892D02*
X0092795Y0049892D01*
X0092795Y0048293D02*
X0092395Y0048293D01*
X0092395Y0046695D02*
X0092795Y0046695D01*
X0092795Y0045096D02*
X0092395Y0045096D01*
X0091634Y0045096D02*
X0085260Y0045096D01*
X0084926Y0043498D02*
X0101303Y0043498D01*
X0099930Y0045096D02*
X0093556Y0045096D01*
X0092595Y0041899D02*
X0092595Y0041899D01*
X0092595Y0040301D02*
X0092595Y0040301D01*
X0092595Y0038702D02*
X0092595Y0038702D01*
X0092595Y0037104D02*
X0092595Y0037104D01*
X0092595Y0035505D02*
X0092595Y0035505D01*
X0092595Y0033907D02*
X0092595Y0033907D01*
X0092595Y0032308D02*
X0092595Y0032308D01*
X0090815Y0032308D02*
X0024595Y0032308D01*
X0024595Y0030710D02*
X0102070Y0030710D01*
X0100595Y0032308D02*
X0094376Y0032308D01*
X0096767Y0033907D02*
X0100388Y0033907D01*
X0098390Y0035505D02*
X0097726Y0035505D01*
X0097816Y0040301D02*
X0097347Y0040301D01*
X0098769Y0041899D02*
X0095915Y0041899D01*
X0096555Y0046695D02*
X0098242Y0046695D01*
X0103887Y0043498D02*
X0121303Y0043498D01*
X0118769Y0041899D02*
X0115332Y0041899D01*
X0116961Y0040301D02*
X0117816Y0040301D01*
X0123887Y0043498D02*
X0142595Y0043498D01*
X0142595Y0045096D02*
X0105260Y0045096D01*
X0106948Y0046695D02*
X0142595Y0046695D01*
X0142595Y0048293D02*
X0107610Y0048293D01*
X0107695Y0049892D02*
X0142595Y0049892D01*
X0142595Y0051490D02*
X0107296Y0051490D01*
X0106231Y0053089D02*
X0132095Y0053089D01*
X0134616Y0053089D02*
X0135575Y0053089D01*
X0135575Y0052246D02*
X0136416Y0052379D01*
X0137260Y0052653D01*
X0138050Y0053056D01*
X0138768Y0053578D01*
X0139396Y0054206D01*
X0139918Y0054924D01*
X0140321Y0055714D01*
X0140595Y0056559D01*
X0140734Y0057435D01*
X0140734Y0061238D01*
X0135575Y0061238D01*
X0135575Y0052246D01*
X0135575Y0054687D02*
X0134616Y0054687D01*
X0134616Y0056286D02*
X0135575Y0056286D01*
X0135575Y0057884D02*
X0134616Y0057884D01*
X0134616Y0059483D02*
X0135575Y0059483D01*
X0135575Y0061081D02*
X0134616Y0061081D01*
X0134616Y0062680D02*
X0135575Y0062680D01*
X0135575Y0064279D02*
X0134616Y0064279D01*
X0134616Y0065877D02*
X0135575Y0065877D01*
X0135575Y0067476D02*
X0134616Y0067476D01*
X0134616Y0069074D02*
X0135575Y0069074D01*
X0139509Y0069074D02*
X0142595Y0069074D01*
X0142595Y0067476D02*
X0140400Y0067476D01*
X0140734Y0065877D02*
X0142595Y0065877D01*
X0142595Y0064279D02*
X0140734Y0064279D01*
X0140734Y0062680D02*
X0142595Y0062680D01*
X0142595Y0061081D02*
X0140734Y0061081D01*
X0140734Y0059483D02*
X0142595Y0059483D01*
X0142595Y0057884D02*
X0140734Y0057884D01*
X0140506Y0056286D02*
X0142595Y0056286D01*
X0142595Y0054687D02*
X0139746Y0054687D01*
X0138095Y0053089D02*
X0142595Y0053089D01*
X0142595Y0041899D02*
X0135332Y0041899D01*
X0136961Y0040301D02*
X0142595Y0040301D01*
X0142595Y0038702D02*
X0137623Y0038702D01*
X0137695Y0037104D02*
X0142595Y0037104D01*
X0142595Y0035505D02*
X0137284Y0035505D01*
X0136202Y0033907D02*
X0142595Y0033907D01*
X0129858Y0041899D02*
X0126421Y0041899D01*
X0127375Y0040301D02*
X0128230Y0040301D01*
X0109858Y0041899D02*
X0106421Y0041899D01*
X0107375Y0040301D02*
X0108230Y0040301D01*
X0089276Y0041899D02*
X0086933Y0041899D01*
X0087797Y0040301D02*
X0087843Y0040301D01*
X0087464Y0035505D02*
X0087209Y0035505D01*
X0088423Y0033907D02*
X0085613Y0033907D01*
X0082595Y0033907D02*
X0082595Y0033907D01*
X0082595Y0035505D02*
X0082595Y0035505D01*
X0082595Y0037104D02*
X0082595Y0037104D01*
X0082595Y0038702D02*
X0082595Y0038702D01*
X0082595Y0040301D02*
X0082595Y0040301D01*
X0082595Y0041899D02*
X0082595Y0041899D01*
X0082595Y0043498D02*
X0082595Y0043498D01*
X0080264Y0043498D02*
X0043126Y0043498D01*
X0044395Y0045096D02*
X0079930Y0045096D01*
X0078242Y0046695D02*
X0075990Y0046695D01*
X0077196Y0048293D02*
X0077580Y0048293D01*
X0079966Y0054687D02*
X0088992Y0054687D01*
X0087735Y0053089D02*
X0086231Y0053089D01*
X0086948Y0046695D02*
X0088635Y0046695D01*
X0073795Y0056286D02*
X0061245Y0056286D01*
X0061245Y0056432D02*
X0057965Y0059713D01*
X0055845Y0059713D01*
X0055845Y0054313D01*
X0055445Y0054313D01*
X0055445Y0059713D01*
X0053326Y0059713D01*
X0050045Y0056432D01*
X0050045Y0054313D01*
X0055445Y0054313D01*
X0055445Y0053913D01*
X0050045Y0053913D01*
X0050045Y0051793D01*
X0053326Y0048513D01*
X0055445Y0048513D01*
X0055445Y0053913D01*
X0055845Y0053913D01*
X0055845Y0054313D01*
X0061245Y0054313D01*
X0061245Y0056432D01*
X0061245Y0054687D02*
X0069557Y0054687D01*
X0068142Y0053089D02*
X0061245Y0053089D01*
X0061245Y0053913D02*
X0055845Y0053913D01*
X0055845Y0048513D01*
X0057965Y0048513D01*
X0061245Y0051793D01*
X0061245Y0053913D01*
X0060942Y0051490D02*
X0067495Y0051490D01*
X0067495Y0049892D02*
X0059344Y0049892D01*
X0055845Y0049892D02*
X0055445Y0049892D01*
X0055445Y0051490D02*
X0055845Y0051490D01*
X0055845Y0053089D02*
X0055445Y0053089D01*
X0055445Y0054687D02*
X0055845Y0054687D01*
X0055845Y0056286D02*
X0055445Y0056286D01*
X0055445Y0057884D02*
X0055845Y0057884D01*
X0055845Y0059483D02*
X0055445Y0059483D01*
X0053096Y0059483D02*
X0044395Y0059483D01*
X0044395Y0061081D02*
X0073795Y0061081D01*
X0073795Y0059483D02*
X0058195Y0059483D01*
X0059793Y0057884D02*
X0073795Y0057884D01*
X0072995Y0062680D02*
X0044395Y0062680D01*
X0044395Y0064279D02*
X0073305Y0064279D01*
X0070695Y0073870D02*
X0052067Y0073870D01*
X0050468Y0075468D02*
X0070695Y0075468D01*
X0070700Y0077067D02*
X0048870Y0077067D01*
X0047271Y0078665D02*
X0070704Y0078665D01*
X0070708Y0080264D02*
X0045673Y0080264D01*
X0044074Y0081862D02*
X0070712Y0081862D01*
X0070723Y0086658D02*
X0068704Y0086658D01*
X0070096Y0088256D02*
X0070727Y0088256D01*
X0083795Y0096249D02*
X0085395Y0096249D01*
X0085395Y0096213D02*
X0092332Y0096213D01*
X0092790Y0096335D01*
X0093200Y0096572D01*
X0093536Y0096908D01*
X0093773Y0097318D01*
X0093895Y0097776D01*
X0093895Y0104713D01*
X0085395Y0104713D01*
X0085395Y0096213D01*
X0085395Y0097847D02*
X0083795Y0097847D01*
X0083795Y0099446D02*
X0085395Y0099446D01*
X0085395Y0101044D02*
X0083795Y0101044D01*
X0083795Y0102643D02*
X0085395Y0102643D01*
X0085395Y0104241D02*
X0083795Y0104241D01*
X0085395Y0105840D02*
X0095795Y0105840D01*
X0095795Y0107438D02*
X0093895Y0107438D01*
X0093895Y0109037D02*
X0095795Y0109037D01*
X0095795Y0110635D02*
X0093895Y0110635D01*
X0093895Y0112234D02*
X0095795Y0112234D01*
X0095795Y0113832D02*
X0093700Y0113832D01*
X0095795Y0115431D02*
X0089190Y0115431D01*
X0090195Y0117029D02*
X0094233Y0117029D01*
X0092634Y0118628D02*
X0091256Y0118628D01*
X0094529Y0121825D02*
X0142595Y0121825D01*
X0142595Y0123423D02*
X0093095Y0123423D01*
X0093095Y0125022D02*
X0142595Y0125022D01*
X0142595Y0126620D02*
X0093095Y0126620D01*
X0093095Y0128219D02*
X0142595Y0128219D01*
X0142595Y0129817D02*
X0093095Y0129817D01*
X0093095Y0131416D02*
X0142595Y0131416D01*
X0142595Y0133015D02*
X0093095Y0133015D01*
X0093095Y0134613D02*
X0142595Y0134613D01*
X0142595Y0136212D02*
X0093095Y0136212D01*
X0093095Y0137810D02*
X0142595Y0137810D01*
X0142595Y0139409D02*
X0093095Y0139409D01*
X0093095Y0141007D02*
X0142595Y0141007D01*
X0133186Y0156992D02*
X0130491Y0156992D01*
X0130491Y0158591D02*
X0132088Y0158591D01*
X0112790Y0177773D02*
X0110428Y0177773D01*
X0123641Y0185765D02*
X0124541Y0185765D01*
X0124541Y0187364D02*
X0123641Y0187364D01*
X0123641Y0188962D02*
X0124541Y0188962D01*
X0124541Y0190561D02*
X0123641Y0190561D01*
X0123641Y0192159D02*
X0124541Y0192159D01*
X0095295Y0204948D02*
X0094895Y0204948D01*
X0094895Y0206546D02*
X0095295Y0206546D01*
X0054699Y0182568D02*
X0053796Y0182568D01*
X0054699Y0180970D02*
X0052351Y0180970D01*
X0053346Y0179371D02*
X0054699Y0179371D01*
X0054699Y0177773D02*
X0053695Y0177773D01*
X0053561Y0176174D02*
X0055155Y0176174D01*
X0054699Y0174576D02*
X0052871Y0174576D01*
X0038795Y0192536D02*
X0038795Y0197313D01*
X0043495Y0197313D01*
X0043495Y0197713D01*
X0038795Y0197713D01*
X0038795Y0197313D01*
X0038395Y0197313D01*
X0038395Y0192613D01*
X0038610Y0192613D01*
X0038795Y0192536D01*
X0038795Y0193758D02*
X0038395Y0193758D01*
X0038395Y0195356D02*
X0038795Y0195356D01*
X0038795Y0196955D02*
X0038395Y0196955D01*
X0038395Y0198553D02*
X0038795Y0198553D01*
X0038795Y0200152D02*
X0038395Y0200152D01*
X0038395Y0201750D02*
X0038795Y0201750D01*
X0043706Y0204948D02*
X0052595Y0204948D01*
X0052595Y0203349D02*
X0045305Y0203349D01*
X0051570Y0201750D02*
X0052595Y0201750D01*
X0083719Y0158591D02*
X0086128Y0158591D01*
X0084529Y0156992D02*
X0082120Y0156992D01*
X0082930Y0155394D02*
X0080522Y0155394D01*
X0081332Y0153795D02*
X0078923Y0153795D01*
X0062195Y0137810D02*
X0057728Y0137810D01*
X0058988Y0136212D02*
X0062195Y0136212D01*
X0062195Y0134613D02*
X0059495Y0134613D01*
X0059485Y0133015D02*
X0062195Y0133015D01*
X0062195Y0131416D02*
X0058823Y0131416D01*
X0065795Y0131416D02*
X0079321Y0131416D01*
X0078495Y0129817D02*
X0065795Y0129817D01*
X0065795Y0128219D02*
X0078256Y0128219D01*
X0076657Y0126620D02*
X0065795Y0126620D01*
X0065795Y0125022D02*
X0075059Y0125022D01*
X0093895Y0104241D02*
X0095795Y0104241D01*
X0095795Y0102643D02*
X0093895Y0102643D01*
X0093895Y0101044D02*
X0095795Y0101044D01*
X0095795Y0099446D02*
X0093895Y0099446D01*
X0093895Y0097847D02*
X0094995Y0097847D01*
X0095305Y0096249D02*
X0092466Y0096249D01*
X0099886Y0096249D02*
X0133724Y0096249D01*
X0136467Y0096249D02*
X0142595Y0096249D01*
X0142595Y0097847D02*
X0100195Y0097847D01*
X0099395Y0099446D02*
X0131052Y0099446D01*
X0129454Y0101044D02*
X0099395Y0101044D01*
X0099395Y0102643D02*
X0128663Y0102643D01*
X0128093Y0104241D02*
X0099395Y0104241D01*
X0099395Y0105840D02*
X0128093Y0105840D01*
X0128272Y0107438D02*
X0099395Y0107438D01*
X0099395Y0109037D02*
X0128934Y0109037D01*
X0130108Y0110635D02*
X0099395Y0110635D01*
X0099395Y0112234D02*
X0132217Y0112234D01*
X0138974Y0112234D02*
X0142595Y0112234D01*
X0142595Y0113832D02*
X0099395Y0113832D01*
X0099395Y0115431D02*
X0142595Y0115431D01*
X0142595Y0117029D02*
X0099324Y0117029D01*
X0097726Y0118628D02*
X0142595Y0118628D01*
X0142595Y0120226D02*
X0096127Y0120226D01*
X0139000Y0094650D02*
X0142595Y0094650D01*
X0142595Y0093052D02*
X0139976Y0093052D01*
X0140334Y0091453D02*
X0142595Y0091453D01*
X0142595Y0089855D02*
X0140334Y0089855D01*
X0140334Y0088256D02*
X0142595Y0088256D01*
X0142595Y0086658D02*
X0140334Y0086658D01*
X0140334Y0085059D02*
X0142595Y0085059D01*
X0142595Y0083461D02*
X0140334Y0083461D01*
X0140100Y0081862D02*
X0142595Y0081862D01*
X0142595Y0080264D02*
X0139298Y0080264D01*
X0140138Y0099446D02*
X0142595Y0099446D01*
X0142595Y0101044D02*
X0141737Y0101044D01*
X0142527Y0102643D02*
X0142595Y0102643D01*
X0142595Y0109037D02*
X0142256Y0109037D01*
X0142595Y0110635D02*
X0141083Y0110635D01*
X0102690Y0070673D02*
X0097264Y0070673D01*
X0098862Y0069074D02*
X0103528Y0069074D01*
X0096402Y0065877D02*
X0044395Y0065877D01*
X0044395Y0067476D02*
X0094804Y0067476D01*
X0069201Y0046695D02*
X0044395Y0046695D01*
X0044395Y0048293D02*
X0067994Y0048293D01*
X0051946Y0049892D02*
X0044395Y0049892D01*
X0044395Y0051490D02*
X0050348Y0051490D01*
X0050045Y0053089D02*
X0044395Y0053089D01*
X0044395Y0054687D02*
X0050045Y0054687D01*
X0050045Y0056286D02*
X0044395Y0056286D01*
X0044395Y0057884D02*
X0051497Y0057884D01*
X0051205Y0069074D02*
X0044395Y0069074D01*
X0044432Y0070673D02*
X0049607Y0070673D01*
X0048008Y0072271D02*
X0045195Y0072271D01*
X0044847Y0073870D02*
X0046410Y0073870D01*
X0031637Y0145803D02*
X0024595Y0145803D01*
X0024595Y0147401D02*
X0030534Y0147401D01*
X0030690Y0149000D02*
X0024595Y0149000D01*
X0024595Y0150598D02*
X0032543Y0150598D01*
X0034733Y0152197D02*
X0024595Y0152197D01*
X0033657Y0153795D02*
X0036332Y0153795D01*
D27*
X0036910Y0156828D02*
X0028320Y0156828D01*
X0036910Y0156828D02*
X0047595Y0167513D01*
X0050343Y0164765D01*
X0061099Y0164765D01*
X0061221Y0157013D02*
X0061099Y0156891D01*
X0041973Y0156891D01*
X0033095Y0148013D01*
X0028320Y0172576D02*
X0028383Y0172639D01*
X0061099Y0172639D01*
X0064269Y0172639D01*
X0071495Y0165413D01*
X0071495Y0155413D01*
X0063995Y0147913D01*
X0063995Y0122413D01*
X0057595Y0116013D01*
X0070595Y0118013D02*
X0070595Y0092013D01*
X0067595Y0089013D01*
X0072495Y0074813D02*
X0072495Y0074613D01*
X0074295Y0072813D01*
X0103095Y0072813D01*
X0105995Y0069913D01*
X0082595Y0049513D02*
X0075595Y0056513D01*
X0075595Y0063013D01*
X0072495Y0074813D02*
X0072595Y0117513D01*
X0085095Y0130013D01*
X0085095Y0130513D01*
X0081095Y0129513D02*
X0081095Y0128513D01*
X0070595Y0118013D01*
X0087595Y0117513D02*
X0091295Y0121213D01*
X0091295Y0122513D01*
X0097595Y0116213D01*
X0097595Y0097513D01*
X0091295Y0122513D02*
X0091295Y0142313D01*
X0087795Y0145813D01*
X0087595Y0142513D02*
X0073395Y0142513D01*
X0068895Y0147013D01*
X0074595Y0152013D02*
X0084595Y0162013D01*
X0094095Y0162013D01*
X0097095Y0165013D01*
X0105091Y0165013D01*
X0105091Y0164702D01*
X0105091Y0165013D02*
X0113595Y0165013D01*
X0117595Y0161013D01*
X0130345Y0161013D01*
X0133595Y0164263D01*
X0133595Y0170513D01*
X0131469Y0172639D01*
X0124091Y0172639D01*
X0124091Y0164765D02*
X0121343Y0164765D01*
X0116595Y0169513D01*
X0116595Y0176513D01*
X0112095Y0181013D01*
X0102595Y0181013D01*
X0102595Y0180513D01*
X0090595Y0180513D01*
X0086595Y0176513D01*
X0082595Y0176513D01*
X0081095Y0178013D01*
X0081095Y0187013D01*
X0085095Y0191013D01*
X0085095Y0193013D01*
X0089995Y0197913D01*
X0089995Y0206613D01*
X0087595Y0209013D01*
X0055895Y0209013D01*
X0054395Y0207513D01*
X0054395Y0185713D01*
X0051195Y0182513D01*
X0043595Y0182513D01*
X0038595Y0177513D01*
X0048595Y0197513D02*
X0042036Y0204072D01*
X0028320Y0204072D01*
X0071795Y0184613D02*
X0071795Y0169913D01*
X0071795Y0169813D01*
X0071795Y0169913D02*
X0074195Y0167513D01*
X0086095Y0167513D01*
X0090658Y0172576D01*
X0105091Y0172576D01*
X0105091Y0180450D02*
X0105091Y0180513D01*
X0102595Y0180513D01*
X0097645Y0185063D02*
X0095095Y0182513D01*
X0083595Y0182513D01*
X0083545Y0182563D01*
X0080195Y0189213D02*
X0074595Y0183613D01*
X0074595Y0179013D01*
X0071795Y0184613D02*
X0075095Y0187913D01*
X0075095Y0194013D01*
X0080195Y0189213D02*
X0080195Y0198913D01*
X0084295Y0203013D01*
X0085095Y0203013D01*
X0105091Y0196198D02*
X0105091Y0196013D01*
X0109276Y0196013D01*
X0110145Y0185063D02*
X0097645Y0185063D01*
X0110145Y0185063D02*
X0121343Y0196261D01*
X0124091Y0196261D01*
X0127843Y0196261D01*
X0122965Y0189513D02*
X0120095Y0189513D01*
X0122965Y0189513D02*
X0124091Y0188387D01*
X0124091Y0156891D02*
X0105028Y0156891D01*
X0105091Y0156828D01*
X0086910Y0156828D01*
X0077595Y0147513D01*
X0087595Y0142513D02*
X0088595Y0141513D01*
X0088595Y0121813D01*
X0104154Y0156891D02*
X0105028Y0156891D01*
X0042595Y0072513D02*
X0042595Y0045513D01*
X0037595Y0040513D01*
X0031595Y0040513D01*
D28*
X0026095Y0032013D03*
X0047595Y0047513D03*
X0067395Y0044113D03*
X0075595Y0063013D03*
X0060795Y0070513D03*
X0054095Y0086013D03*
X0067595Y0089013D03*
X0042595Y0072513D03*
X0028595Y0114013D03*
X0057595Y0116013D03*
X0072095Y0131513D03*
X0081095Y0129513D03*
X0085095Y0130513D03*
X0088595Y0121813D03*
X0087595Y0117513D03*
X0079095Y0118013D03*
X0097595Y0097513D03*
X0116045Y0099663D03*
X0120795Y0078413D03*
X0118295Y0070513D03*
X0105995Y0069913D03*
X0099495Y0065613D03*
X0117495Y0044713D03*
X0097895Y0032913D03*
X0135095Y0074513D03*
X0153595Y0071013D03*
X0190095Y0071013D03*
X0207095Y0119013D03*
X0195595Y0127513D03*
X0214095Y0142513D03*
X0215595Y0158513D03*
X0179095Y0157513D03*
X0154095Y0169513D03*
X0139845Y0208763D03*
X0108095Y0210013D03*
X0099095Y0188513D03*
X0091095Y0186013D03*
X0083545Y0182563D03*
X0074595Y0179013D03*
X0071795Y0169813D03*
X0074595Y0152013D03*
X0077595Y0147513D03*
X0068895Y0147013D03*
X0087795Y0145813D03*
X0099345Y0142513D03*
X0099095Y0176513D03*
X0069095Y0205513D03*
X0040345Y0207763D03*
X0029845Y0185263D03*
X0051595Y0160513D03*
X0045095Y0151513D03*
X0033095Y0148013D03*
X0027845Y0149763D03*
X0156095Y0127513D03*
D29*
X0156099Y0129913D02*
X0154795Y0131217D01*
X0154795Y0167205D01*
X0155455Y0167478D01*
X0155989Y0168013D01*
X0164814Y0168013D01*
X0165357Y0167788D01*
X0167833Y0167788D01*
X0168377Y0168013D01*
X0180795Y0168013D01*
X0180795Y0159207D01*
X0180455Y0159547D01*
X0179573Y0159913D01*
X0178618Y0159913D01*
X0177736Y0159547D01*
X0177061Y0158872D01*
X0176695Y0157990D01*
X0176695Y0157035D01*
X0177061Y0156153D01*
X0177736Y0155478D01*
X0178395Y0155205D01*
X0178395Y0109217D01*
X0170891Y0101713D01*
X0169895Y0100717D01*
X0169895Y0098006D01*
X0169116Y0098785D01*
X0167480Y0099463D01*
X0165710Y0099463D01*
X0164074Y0098785D01*
X0162823Y0097533D01*
X0162145Y0095898D01*
X0162145Y0094128D01*
X0162823Y0092492D01*
X0164074Y0091240D01*
X0165710Y0090563D01*
X0167480Y0090563D01*
X0169116Y0091240D01*
X0169895Y0092020D01*
X0169895Y0089309D01*
X0172485Y0086719D01*
X0172145Y0085898D01*
X0172145Y0084128D01*
X0172823Y0082492D01*
X0174074Y0081240D01*
X0175710Y0080563D01*
X0177480Y0080563D01*
X0179116Y0081240D01*
X0180368Y0082492D01*
X0180795Y0083524D01*
X0180795Y0029313D01*
X0152895Y0029313D01*
X0152895Y0080227D01*
X0153135Y0080163D01*
X0156320Y0080163D01*
X0156320Y0084738D01*
X0156870Y0084738D01*
X0156870Y0085288D01*
X0156320Y0085288D01*
X0156320Y0089863D01*
X0153135Y0089863D01*
X0152895Y0089799D01*
X0152895Y0092420D01*
X0154074Y0091240D01*
X0155710Y0090563D01*
X0157480Y0090563D01*
X0159116Y0091240D01*
X0160368Y0092492D01*
X0161045Y0094128D01*
X0161045Y0095898D01*
X0160368Y0097533D01*
X0159116Y0098785D01*
X0157480Y0099463D01*
X0155710Y0099463D01*
X0154795Y0099084D01*
X0154795Y0125454D01*
X0155618Y0125113D01*
X0156573Y0125113D01*
X0157455Y0125478D01*
X0158130Y0126153D01*
X0158495Y0127035D01*
X0158495Y0127990D01*
X0158130Y0128872D01*
X0157455Y0129547D01*
X0156573Y0129913D01*
X0156099Y0129913D01*
X0155427Y0130585D02*
X0178395Y0130585D01*
X0178395Y0131783D02*
X0154795Y0131783D01*
X0154795Y0132982D02*
X0178395Y0132982D01*
X0178395Y0134180D02*
X0154795Y0134180D01*
X0154795Y0135379D02*
X0178395Y0135379D01*
X0178395Y0136577D02*
X0154795Y0136577D01*
X0154795Y0137776D02*
X0178395Y0137776D01*
X0178395Y0138974D02*
X0154795Y0138974D01*
X0154795Y0140173D02*
X0178395Y0140173D01*
X0178395Y0141371D02*
X0154795Y0141371D01*
X0154795Y0142570D02*
X0178395Y0142570D01*
X0178395Y0143768D02*
X0154795Y0143768D01*
X0154795Y0144967D02*
X0178395Y0144967D01*
X0178395Y0146165D02*
X0154795Y0146165D01*
X0154795Y0147364D02*
X0178395Y0147364D01*
X0178395Y0148562D02*
X0154795Y0148562D01*
X0154795Y0149761D02*
X0178395Y0149761D01*
X0178395Y0150959D02*
X0154795Y0150959D01*
X0154795Y0152158D02*
X0178395Y0152158D01*
X0178395Y0153356D02*
X0154795Y0153356D01*
X0154795Y0154555D02*
X0178395Y0154555D01*
X0177460Y0155753D02*
X0154795Y0155753D01*
X0154795Y0156952D02*
X0176730Y0156952D01*
X0176762Y0158150D02*
X0154795Y0158150D01*
X0154795Y0159349D02*
X0177537Y0159349D01*
X0180653Y0159349D02*
X0180795Y0159349D01*
X0180795Y0160548D02*
X0154795Y0160548D01*
X0154795Y0161746D02*
X0180795Y0161746D01*
X0180795Y0162945D02*
X0154795Y0162945D01*
X0154795Y0164143D02*
X0180795Y0164143D01*
X0180795Y0165342D02*
X0154795Y0165342D01*
X0154795Y0166540D02*
X0180795Y0166540D01*
X0180795Y0167739D02*
X0155715Y0167739D01*
X0189395Y0167513D02*
X0201314Y0167513D01*
X0201857Y0167288D01*
X0204333Y0167288D01*
X0204877Y0167513D01*
X0217295Y0167513D01*
X0217295Y0160207D01*
X0216955Y0160547D01*
X0216073Y0160913D01*
X0215118Y0160913D01*
X0214236Y0160547D01*
X0213561Y0159872D01*
X0213195Y0158990D01*
X0213195Y0158035D01*
X0213561Y0157153D01*
X0214236Y0156478D01*
X0214895Y0156205D01*
X0214895Y0144779D01*
X0214573Y0144913D01*
X0213618Y0144913D01*
X0212736Y0144547D01*
X0212061Y0143872D01*
X0211695Y0142990D01*
X0211695Y0142035D01*
X0212061Y0141153D01*
X0212395Y0140819D01*
X0212395Y0133217D01*
X0208391Y0129213D01*
X0197289Y0129213D01*
X0196955Y0129547D01*
X0196073Y0129913D01*
X0195118Y0129913D01*
X0194236Y0129547D01*
X0193561Y0128872D01*
X0193195Y0127990D01*
X0193195Y0127035D01*
X0193561Y0126153D01*
X0194236Y0125478D01*
X0195118Y0125113D01*
X0196073Y0125113D01*
X0196955Y0125478D01*
X0197289Y0125813D01*
X0209799Y0125813D01*
X0210795Y0126809D01*
X0214895Y0130909D01*
X0214895Y0106717D01*
X0207391Y0099213D01*
X0206395Y0098217D01*
X0206395Y0097506D01*
X0205616Y0098285D01*
X0203980Y0098963D01*
X0202210Y0098963D01*
X0200574Y0098285D01*
X0199323Y0097033D01*
X0198645Y0095398D01*
X0198645Y0093628D01*
X0199323Y0091992D01*
X0200574Y0090740D01*
X0202210Y0090063D01*
X0203980Y0090063D01*
X0205616Y0090740D01*
X0206395Y0091520D01*
X0206395Y0088809D01*
X0208985Y0086219D01*
X0208645Y0085398D01*
X0208645Y0083628D01*
X0209323Y0081992D01*
X0210574Y0080740D01*
X0212210Y0080063D01*
X0213980Y0080063D01*
X0215616Y0080740D01*
X0216868Y0081992D01*
X0217295Y0083024D01*
X0217295Y0029313D01*
X0205439Y0029313D01*
X0206032Y0029558D01*
X0206784Y0029992D01*
X0207473Y0030521D01*
X0208087Y0031135D01*
X0208615Y0031824D01*
X0209050Y0032576D01*
X0209382Y0033379D01*
X0209607Y0034218D01*
X0209698Y0034913D01*
X0203695Y0034913D01*
X0203695Y0036113D01*
X0202495Y0036113D01*
X0202495Y0042116D01*
X0201800Y0042024D01*
X0200961Y0041800D01*
X0200159Y0041467D01*
X0199407Y0041033D01*
X0198718Y0040504D01*
X0198104Y0039890D01*
X0197575Y0039201D01*
X0197141Y0038449D01*
X0196808Y0037647D01*
X0196584Y0036808D01*
X0196492Y0036113D01*
X0202495Y0036113D01*
X0202495Y0034913D01*
X0196492Y0034913D01*
X0196584Y0034218D01*
X0196808Y0033379D01*
X0197141Y0032576D01*
X0197575Y0031824D01*
X0198104Y0031135D01*
X0198718Y0030521D01*
X0199407Y0029992D01*
X0200159Y0029558D01*
X0200751Y0029313D01*
X0189395Y0029313D01*
X0189395Y0079727D01*
X0189635Y0079663D01*
X0192820Y0079663D01*
X0192820Y0084238D01*
X0193370Y0084238D01*
X0193370Y0084788D01*
X0192820Y0084788D01*
X0192820Y0089363D01*
X0189635Y0089363D01*
X0189395Y0089299D01*
X0189395Y0091920D01*
X0190574Y0090740D01*
X0192210Y0090063D01*
X0193980Y0090063D01*
X0195616Y0090740D01*
X0196868Y0091992D01*
X0197545Y0093628D01*
X0197545Y0095398D01*
X0196868Y0097033D01*
X0195616Y0098285D01*
X0193980Y0098963D01*
X0192210Y0098963D01*
X0190574Y0098285D01*
X0189395Y0097106D01*
X0189395Y0108258D01*
X0189095Y0108558D01*
X0189095Y0121467D01*
X0189395Y0121767D01*
X0189395Y0167513D01*
X0189395Y0166540D02*
X0217295Y0166540D01*
X0217295Y0165342D02*
X0189395Y0165342D01*
X0189395Y0164143D02*
X0217295Y0164143D01*
X0217295Y0162945D02*
X0189395Y0162945D01*
X0189395Y0161746D02*
X0217295Y0161746D01*
X0217295Y0160548D02*
X0216954Y0160548D01*
X0214236Y0160548D02*
X0189395Y0160548D01*
X0189395Y0159349D02*
X0213344Y0159349D01*
X0213195Y0158150D02*
X0189395Y0158150D01*
X0189395Y0156952D02*
X0213762Y0156952D01*
X0214895Y0155753D02*
X0189395Y0155753D01*
X0189395Y0154555D02*
X0214895Y0154555D01*
X0214895Y0153356D02*
X0189395Y0153356D01*
X0189395Y0152158D02*
X0214895Y0152158D01*
X0214895Y0150959D02*
X0189395Y0150959D01*
X0189395Y0149761D02*
X0214895Y0149761D01*
X0214895Y0148562D02*
X0189395Y0148562D01*
X0189395Y0147364D02*
X0214895Y0147364D01*
X0214895Y0146165D02*
X0189395Y0146165D01*
X0189395Y0144967D02*
X0214895Y0144967D01*
X0212018Y0143768D02*
X0189395Y0143768D01*
X0189395Y0142570D02*
X0211695Y0142570D01*
X0211970Y0141371D02*
X0189395Y0141371D01*
X0189395Y0140173D02*
X0212395Y0140173D01*
X0212395Y0138974D02*
X0189395Y0138974D01*
X0189395Y0137776D02*
X0212395Y0137776D01*
X0212395Y0136577D02*
X0189395Y0136577D01*
X0189395Y0135379D02*
X0212395Y0135379D01*
X0212395Y0134180D02*
X0189395Y0134180D01*
X0189395Y0132982D02*
X0212160Y0132982D01*
X0210962Y0131783D02*
X0189395Y0131783D01*
X0189395Y0130585D02*
X0209763Y0130585D01*
X0208564Y0129386D02*
X0197116Y0129386D01*
X0197267Y0125791D02*
X0214895Y0125791D01*
X0214895Y0126989D02*
X0210976Y0126989D01*
X0212174Y0128188D02*
X0214895Y0128188D01*
X0214895Y0129386D02*
X0213373Y0129386D01*
X0214571Y0130585D02*
X0214895Y0130585D01*
X0214895Y0124592D02*
X0189395Y0124592D01*
X0189395Y0123394D02*
X0214895Y0123394D01*
X0214895Y0122195D02*
X0189395Y0122195D01*
X0189095Y0120997D02*
X0214895Y0120997D01*
X0214895Y0119798D02*
X0189095Y0119798D01*
X0189095Y0118600D02*
X0214895Y0118600D01*
X0214895Y0117401D02*
X0189095Y0117401D01*
X0189095Y0116203D02*
X0214895Y0116203D01*
X0214895Y0115004D02*
X0189095Y0115004D01*
X0189095Y0113806D02*
X0214895Y0113806D01*
X0214895Y0112607D02*
X0189095Y0112607D01*
X0189095Y0111409D02*
X0214895Y0111409D01*
X0214895Y0110210D02*
X0189095Y0110210D01*
X0189095Y0109012D02*
X0214895Y0109012D01*
X0214895Y0107813D02*
X0189395Y0107813D01*
X0189395Y0106615D02*
X0214793Y0106615D01*
X0213594Y0105416D02*
X0189395Y0105416D01*
X0189395Y0104217D02*
X0212396Y0104217D01*
X0211197Y0103019D02*
X0189395Y0103019D01*
X0189395Y0101820D02*
X0209999Y0101820D01*
X0208800Y0100622D02*
X0189395Y0100622D01*
X0189395Y0099423D02*
X0207602Y0099423D01*
X0206403Y0098225D02*
X0205676Y0098225D01*
X0200514Y0098225D02*
X0195676Y0098225D01*
X0196871Y0097026D02*
X0199320Y0097026D01*
X0198823Y0095828D02*
X0197367Y0095828D01*
X0197545Y0094629D02*
X0198645Y0094629D01*
X0198727Y0093431D02*
X0197464Y0093431D01*
X0196967Y0092232D02*
X0199223Y0092232D01*
X0200281Y0091034D02*
X0195910Y0091034D01*
X0196556Y0089363D02*
X0193370Y0089363D01*
X0193370Y0084788D01*
X0197945Y0084788D01*
X0197945Y0087973D01*
X0197836Y0088380D01*
X0197625Y0088745D01*
X0197328Y0089043D01*
X0196963Y0089254D01*
X0196556Y0089363D01*
X0197688Y0088637D02*
X0201423Y0088637D01*
X0202210Y0088963D02*
X0200574Y0088285D01*
X0199323Y0087033D01*
X0198645Y0085398D01*
X0198645Y0083628D01*
X0199323Y0081992D01*
X0200574Y0080740D01*
X0202210Y0080063D01*
X0203980Y0080063D01*
X0205616Y0080740D01*
X0206868Y0081992D01*
X0207545Y0083628D01*
X0207545Y0085398D01*
X0206868Y0087033D01*
X0205616Y0088285D01*
X0203980Y0088963D01*
X0202210Y0088963D01*
X0204767Y0088637D02*
X0206567Y0088637D01*
X0206463Y0087438D02*
X0207765Y0087438D01*
X0207196Y0086240D02*
X0208964Y0086240D01*
X0208645Y0085041D02*
X0207545Y0085041D01*
X0207545Y0083843D02*
X0208645Y0083843D01*
X0209052Y0082644D02*
X0207138Y0082644D01*
X0206321Y0081446D02*
X0209869Y0081446D01*
X0211765Y0080247D02*
X0204426Y0080247D01*
X0201765Y0080247D02*
X0197592Y0080247D01*
X0197625Y0080280D02*
X0197836Y0080645D01*
X0197945Y0081052D01*
X0197945Y0084238D01*
X0193370Y0084238D01*
X0193370Y0079663D01*
X0196556Y0079663D01*
X0196963Y0079772D01*
X0197328Y0079982D01*
X0197625Y0080280D01*
X0197945Y0081446D02*
X0199869Y0081446D01*
X0199052Y0082644D02*
X0197945Y0082644D01*
X0197945Y0083843D02*
X0198645Y0083843D01*
X0198645Y0085041D02*
X0197945Y0085041D01*
X0197945Y0086240D02*
X0198994Y0086240D01*
X0199727Y0087438D02*
X0197945Y0087438D01*
X0193370Y0087438D02*
X0192820Y0087438D01*
X0192820Y0086240D02*
X0193370Y0086240D01*
X0193370Y0085041D02*
X0192820Y0085041D01*
X0192820Y0083843D02*
X0193370Y0083843D01*
X0193370Y0082644D02*
X0192820Y0082644D01*
X0192820Y0081446D02*
X0193370Y0081446D01*
X0193370Y0080247D02*
X0192820Y0080247D01*
X0189395Y0079049D02*
X0217295Y0079049D01*
X0217295Y0080247D02*
X0214426Y0080247D01*
X0216321Y0081446D02*
X0217295Y0081446D01*
X0217295Y0082644D02*
X0217138Y0082644D01*
X0217295Y0077850D02*
X0189395Y0077850D01*
X0189395Y0076652D02*
X0217295Y0076652D01*
X0217295Y0075453D02*
X0189395Y0075453D01*
X0189395Y0074255D02*
X0217295Y0074255D01*
X0217295Y0073056D02*
X0189395Y0073056D01*
X0189395Y0071858D02*
X0217295Y0071858D01*
X0217295Y0070659D02*
X0206752Y0070659D01*
X0206621Y0070790D02*
X0204333Y0071738D01*
X0201857Y0071738D01*
X0199569Y0070790D01*
X0197818Y0069039D01*
X0196870Y0066751D01*
X0196870Y0064275D01*
X0197818Y0061987D01*
X0199569Y0060235D01*
X0201857Y0059288D01*
X0204333Y0059288D01*
X0206621Y0060235D01*
X0208372Y0061987D01*
X0209320Y0064275D01*
X0209320Y0066751D01*
X0208372Y0069039D01*
X0206621Y0070790D01*
X0207951Y0069461D02*
X0217295Y0069461D01*
X0217295Y0068262D02*
X0208694Y0068262D01*
X0209191Y0067064D02*
X0217295Y0067064D01*
X0217295Y0065865D02*
X0209320Y0065865D01*
X0209320Y0064667D02*
X0217295Y0064667D01*
X0217295Y0063468D02*
X0208986Y0063468D01*
X0208490Y0062270D02*
X0217295Y0062270D01*
X0217295Y0061071D02*
X0207457Y0061071D01*
X0205745Y0059873D02*
X0217295Y0059873D01*
X0217295Y0058674D02*
X0189395Y0058674D01*
X0189395Y0057476D02*
X0217295Y0057476D01*
X0217295Y0056277D02*
X0189395Y0056277D01*
X0189395Y0055079D02*
X0217295Y0055079D01*
X0217295Y0053880D02*
X0189395Y0053880D01*
X0189395Y0052681D02*
X0217295Y0052681D01*
X0217295Y0051483D02*
X0189395Y0051483D01*
X0189395Y0050284D02*
X0217295Y0050284D01*
X0217295Y0049086D02*
X0189395Y0049086D01*
X0189395Y0047887D02*
X0217295Y0047887D01*
X0217295Y0046689D02*
X0189395Y0046689D01*
X0189395Y0045490D02*
X0217295Y0045490D01*
X0217295Y0044292D02*
X0189395Y0044292D01*
X0189395Y0043093D02*
X0217295Y0043093D01*
X0217295Y0041895D02*
X0204874Y0041895D01*
X0205229Y0041800D02*
X0204390Y0042024D01*
X0203695Y0042116D01*
X0203695Y0036113D01*
X0209698Y0036113D01*
X0209607Y0036808D01*
X0209382Y0037647D01*
X0209050Y0038449D01*
X0208615Y0039201D01*
X0208087Y0039890D01*
X0207473Y0040504D01*
X0206784Y0041033D01*
X0206032Y0041467D01*
X0205229Y0041800D01*
X0203695Y0041895D02*
X0202495Y0041895D01*
X0201317Y0041895D02*
X0189395Y0041895D01*
X0189395Y0040696D02*
X0198968Y0040696D01*
X0197802Y0039498D02*
X0189395Y0039498D01*
X0189395Y0038299D02*
X0197079Y0038299D01*
X0196662Y0037101D02*
X0189395Y0037101D01*
X0189395Y0035902D02*
X0202495Y0035902D01*
X0202495Y0037101D02*
X0203695Y0037101D01*
X0203695Y0038299D02*
X0202495Y0038299D01*
X0202495Y0039498D02*
X0203695Y0039498D01*
X0203695Y0040696D02*
X0202495Y0040696D01*
X0207222Y0040696D02*
X0217295Y0040696D01*
X0217295Y0039498D02*
X0208388Y0039498D01*
X0209112Y0038299D02*
X0217295Y0038299D01*
X0217295Y0037101D02*
X0209528Y0037101D01*
X0209671Y0034704D02*
X0217295Y0034704D01*
X0217295Y0035902D02*
X0203695Y0035902D01*
X0209416Y0033505D02*
X0217295Y0033505D01*
X0217295Y0032307D02*
X0208894Y0032307D01*
X0208060Y0031108D02*
X0217295Y0031108D01*
X0217295Y0029910D02*
X0206641Y0029910D01*
X0199550Y0029910D02*
X0189395Y0029910D01*
X0189395Y0031108D02*
X0198130Y0031108D01*
X0197296Y0032307D02*
X0189395Y0032307D01*
X0189395Y0033505D02*
X0196774Y0033505D01*
X0196520Y0034704D02*
X0189395Y0034704D01*
X0180795Y0034704D02*
X0173103Y0034704D01*
X0173107Y0034718D02*
X0173198Y0035413D01*
X0167195Y0035413D01*
X0167195Y0036613D01*
X0165995Y0036613D01*
X0165995Y0042616D01*
X0165300Y0042524D01*
X0164461Y0042300D01*
X0163659Y0041967D01*
X0162907Y0041533D01*
X0162218Y0041004D01*
X0161604Y0040390D01*
X0161075Y0039701D01*
X0160641Y0038949D01*
X0160308Y0038147D01*
X0160084Y0037308D01*
X0159992Y0036613D01*
X0165995Y0036613D01*
X0165995Y0035413D01*
X0159992Y0035413D01*
X0160084Y0034718D01*
X0160308Y0033879D01*
X0160641Y0033076D01*
X0161075Y0032324D01*
X0161604Y0031635D01*
X0162218Y0031021D01*
X0162907Y0030492D01*
X0163659Y0030058D01*
X0164461Y0029726D01*
X0165300Y0029501D01*
X0165995Y0029410D01*
X0165995Y0035413D01*
X0167195Y0035413D01*
X0167195Y0029410D01*
X0167890Y0029501D01*
X0168729Y0029726D01*
X0169532Y0030058D01*
X0170284Y0030492D01*
X0170973Y0031021D01*
X0171587Y0031635D01*
X0172115Y0032324D01*
X0172550Y0033076D01*
X0172882Y0033879D01*
X0173107Y0034718D01*
X0172727Y0033505D02*
X0180795Y0033505D01*
X0180795Y0032307D02*
X0172102Y0032307D01*
X0171060Y0031108D02*
X0180795Y0031108D01*
X0180795Y0029910D02*
X0169173Y0029910D01*
X0167195Y0029910D02*
X0165995Y0029910D01*
X0165995Y0031108D02*
X0167195Y0031108D01*
X0167195Y0032307D02*
X0165995Y0032307D01*
X0165995Y0033505D02*
X0167195Y0033505D01*
X0167195Y0034704D02*
X0165995Y0034704D01*
X0165995Y0035902D02*
X0152895Y0035902D01*
X0152895Y0034704D02*
X0160087Y0034704D01*
X0160463Y0033505D02*
X0152895Y0033505D01*
X0152895Y0032307D02*
X0161088Y0032307D01*
X0162130Y0031108D02*
X0152895Y0031108D01*
X0152895Y0029910D02*
X0164017Y0029910D01*
X0167195Y0035902D02*
X0180795Y0035902D01*
X0180795Y0037101D02*
X0173134Y0037101D01*
X0173107Y0037308D02*
X0172882Y0038147D01*
X0172550Y0038949D01*
X0172115Y0039701D01*
X0171587Y0040390D01*
X0170973Y0041004D01*
X0170284Y0041533D01*
X0169532Y0041967D01*
X0168729Y0042300D01*
X0167890Y0042524D01*
X0167195Y0042616D01*
X0167195Y0036613D01*
X0173198Y0036613D01*
X0173107Y0037308D01*
X0172819Y0038299D02*
X0180795Y0038299D01*
X0180795Y0039498D02*
X0172233Y0039498D01*
X0171281Y0040696D02*
X0180795Y0040696D01*
X0180795Y0041895D02*
X0169657Y0041895D01*
X0167195Y0041895D02*
X0165995Y0041895D01*
X0165995Y0040696D02*
X0167195Y0040696D01*
X0167195Y0039498D02*
X0165995Y0039498D01*
X0165995Y0038299D02*
X0167195Y0038299D01*
X0167195Y0037101D02*
X0165995Y0037101D01*
X0163533Y0041895D02*
X0152895Y0041895D01*
X0152895Y0043093D02*
X0180795Y0043093D01*
X0180795Y0044292D02*
X0152895Y0044292D01*
X0152895Y0045490D02*
X0180795Y0045490D01*
X0180795Y0046689D02*
X0152895Y0046689D01*
X0152895Y0047887D02*
X0180795Y0047887D01*
X0180795Y0049086D02*
X0152895Y0049086D01*
X0152895Y0050284D02*
X0180795Y0050284D01*
X0180795Y0051483D02*
X0152895Y0051483D01*
X0152895Y0052681D02*
X0180795Y0052681D01*
X0180795Y0053880D02*
X0152895Y0053880D01*
X0152895Y0055079D02*
X0180795Y0055079D01*
X0180795Y0056277D02*
X0152895Y0056277D01*
X0152895Y0057476D02*
X0180795Y0057476D01*
X0180795Y0058674D02*
X0152895Y0058674D01*
X0152895Y0059873D02*
X0165152Y0059873D01*
X0165357Y0059788D02*
X0167833Y0059788D01*
X0170121Y0060735D01*
X0171872Y0062487D01*
X0172820Y0064775D01*
X0172820Y0067251D01*
X0171872Y0069539D01*
X0170121Y0071290D01*
X0167833Y0072238D01*
X0165357Y0072238D01*
X0163069Y0071290D01*
X0161318Y0069539D01*
X0160370Y0067251D01*
X0160370Y0064775D01*
X0161318Y0062487D01*
X0163069Y0060735D01*
X0165357Y0059788D01*
X0162733Y0061071D02*
X0152895Y0061071D01*
X0152895Y0062270D02*
X0161535Y0062270D01*
X0160911Y0063468D02*
X0152895Y0063468D01*
X0152895Y0064667D02*
X0160415Y0064667D01*
X0160370Y0065865D02*
X0152895Y0065865D01*
X0152895Y0067064D02*
X0160370Y0067064D01*
X0160789Y0068262D02*
X0152895Y0068262D01*
X0152895Y0069461D02*
X0161285Y0069461D01*
X0162438Y0070659D02*
X0152895Y0070659D01*
X0152895Y0071858D02*
X0164439Y0071858D01*
X0168751Y0071858D02*
X0180795Y0071858D01*
X0180795Y0073056D02*
X0152895Y0073056D01*
X0152895Y0074255D02*
X0180795Y0074255D01*
X0180795Y0075453D02*
X0152895Y0075453D01*
X0152895Y0076652D02*
X0180795Y0076652D01*
X0180795Y0077850D02*
X0152895Y0077850D01*
X0152895Y0079049D02*
X0180795Y0079049D01*
X0180795Y0080247D02*
X0160371Y0080247D01*
X0160463Y0080272D02*
X0160828Y0080482D01*
X0161125Y0080780D01*
X0161336Y0081145D01*
X0161445Y0081552D01*
X0161445Y0084738D01*
X0156870Y0084738D01*
X0156870Y0080163D01*
X0160056Y0080163D01*
X0160463Y0080272D01*
X0161417Y0081446D02*
X0163869Y0081446D01*
X0164074Y0081240D02*
X0165710Y0080563D01*
X0167480Y0080563D01*
X0169116Y0081240D01*
X0170368Y0082492D01*
X0171045Y0084128D01*
X0171045Y0085898D01*
X0170368Y0087533D01*
X0169116Y0088785D01*
X0167480Y0089463D01*
X0165710Y0089463D01*
X0164074Y0088785D01*
X0162823Y0087533D01*
X0162145Y0085898D01*
X0162145Y0084128D01*
X0162823Y0082492D01*
X0164074Y0081240D01*
X0162760Y0082644D02*
X0161445Y0082644D01*
X0161445Y0083843D02*
X0162263Y0083843D01*
X0162145Y0085041D02*
X0156870Y0085041D01*
X0156870Y0085288D02*
X0161445Y0085288D01*
X0161445Y0088473D01*
X0161336Y0088880D01*
X0161125Y0089245D01*
X0160828Y0089543D01*
X0160463Y0089754D01*
X0160056Y0089863D01*
X0156870Y0089863D01*
X0156870Y0085288D01*
X0156870Y0086240D02*
X0156320Y0086240D01*
X0156320Y0087438D02*
X0156870Y0087438D01*
X0156870Y0088637D02*
X0156320Y0088637D01*
X0156320Y0089835D02*
X0156870Y0089835D01*
X0158618Y0091034D02*
X0164573Y0091034D01*
X0163082Y0092232D02*
X0160108Y0092232D01*
X0160757Y0093431D02*
X0162434Y0093431D01*
X0162145Y0094629D02*
X0161045Y0094629D01*
X0161045Y0095828D02*
X0162145Y0095828D01*
X0162613Y0097026D02*
X0160578Y0097026D01*
X0159676Y0098225D02*
X0163514Y0098225D01*
X0165615Y0099423D02*
X0157575Y0099423D01*
X0155615Y0099423D02*
X0154795Y0099423D01*
X0154795Y0100622D02*
X0169895Y0100622D01*
X0169895Y0099423D02*
X0167575Y0099423D01*
X0169676Y0098225D02*
X0169895Y0098225D01*
X0170999Y0101820D02*
X0154795Y0101820D01*
X0154795Y0103019D02*
X0172197Y0103019D01*
X0173396Y0104217D02*
X0154795Y0104217D01*
X0154795Y0105416D02*
X0174594Y0105416D01*
X0175793Y0106615D02*
X0154795Y0106615D01*
X0154795Y0107813D02*
X0176991Y0107813D01*
X0178190Y0109012D02*
X0154795Y0109012D01*
X0154795Y0110210D02*
X0178395Y0110210D01*
X0178395Y0111409D02*
X0154795Y0111409D01*
X0154795Y0112607D02*
X0178395Y0112607D01*
X0178395Y0113806D02*
X0154795Y0113806D01*
X0154795Y0115004D02*
X0178395Y0115004D01*
X0178395Y0116203D02*
X0154795Y0116203D01*
X0154795Y0117401D02*
X0178395Y0117401D01*
X0178395Y0118600D02*
X0154795Y0118600D01*
X0154795Y0119798D02*
X0178395Y0119798D01*
X0178395Y0120997D02*
X0154795Y0120997D01*
X0154795Y0122195D02*
X0178395Y0122195D01*
X0178395Y0123394D02*
X0154795Y0123394D01*
X0154795Y0124592D02*
X0178395Y0124592D01*
X0178395Y0125791D02*
X0157767Y0125791D01*
X0158476Y0126989D02*
X0178395Y0126989D01*
X0178395Y0128188D02*
X0158413Y0128188D01*
X0157616Y0129386D02*
X0178395Y0129386D01*
X0189395Y0129386D02*
X0194075Y0129386D01*
X0193277Y0128188D02*
X0189395Y0128188D01*
X0189395Y0126989D02*
X0193214Y0126989D01*
X0193923Y0125791D02*
X0189395Y0125791D01*
X0207095Y0119013D02*
X0207095Y0118513D01*
X0208095Y0117513D01*
X0190514Y0098225D02*
X0189395Y0098225D01*
X0189395Y0091034D02*
X0190281Y0091034D01*
X0189395Y0089835D02*
X0206395Y0089835D01*
X0206395Y0091034D02*
X0205910Y0091034D01*
X0193370Y0088637D02*
X0192820Y0088637D01*
X0180795Y0082644D02*
X0180431Y0082644D01*
X0180795Y0081446D02*
X0179321Y0081446D01*
X0173869Y0081446D02*
X0169321Y0081446D01*
X0170431Y0082644D02*
X0172760Y0082644D01*
X0172263Y0083843D02*
X0170927Y0083843D01*
X0171045Y0085041D02*
X0172145Y0085041D01*
X0172287Y0086240D02*
X0170904Y0086240D01*
X0170407Y0087438D02*
X0171765Y0087438D01*
X0170567Y0088637D02*
X0169264Y0088637D01*
X0169895Y0089835D02*
X0160158Y0089835D01*
X0161401Y0088637D02*
X0163926Y0088637D01*
X0162783Y0087438D02*
X0161445Y0087438D01*
X0161445Y0086240D02*
X0162287Y0086240D01*
X0156870Y0083843D02*
X0156320Y0083843D01*
X0156320Y0082644D02*
X0156870Y0082644D01*
X0156870Y0081446D02*
X0156320Y0081446D01*
X0156320Y0080247D02*
X0156870Y0080247D01*
X0153032Y0089835D02*
X0152895Y0089835D01*
X0152895Y0091034D02*
X0154573Y0091034D01*
X0153082Y0092232D02*
X0152895Y0092232D01*
X0156095Y0095513D02*
X0156595Y0095013D01*
X0168618Y0091034D02*
X0169895Y0091034D01*
X0170752Y0070659D02*
X0180795Y0070659D01*
X0180795Y0069461D02*
X0171905Y0069461D01*
X0172401Y0068262D02*
X0180795Y0068262D01*
X0180795Y0067064D02*
X0172820Y0067064D01*
X0172820Y0065865D02*
X0180795Y0065865D01*
X0180795Y0064667D02*
X0172775Y0064667D01*
X0172279Y0063468D02*
X0180795Y0063468D01*
X0180795Y0062270D02*
X0171655Y0062270D01*
X0170457Y0061071D02*
X0180795Y0061071D01*
X0180795Y0059873D02*
X0168038Y0059873D01*
X0161910Y0040696D02*
X0152895Y0040696D01*
X0152895Y0039498D02*
X0160957Y0039498D01*
X0160371Y0038299D02*
X0152895Y0038299D01*
X0152895Y0037101D02*
X0160056Y0037101D01*
X0144595Y0032513D02*
X0144595Y0204013D01*
X0139845Y0208763D01*
X0130595Y0204013D02*
X0124213Y0204013D01*
X0124091Y0204135D01*
X0042595Y0080513D02*
X0031595Y0080513D01*
X0042595Y0080513D02*
X0052595Y0070513D01*
X0060795Y0070513D01*
X0094595Y0070513D01*
X0099495Y0065613D01*
X0102595Y0038513D02*
X0102595Y0033013D01*
X0105095Y0030513D01*
X0142595Y0030513D01*
X0144595Y0032513D01*
X0189395Y0059873D02*
X0200445Y0059873D01*
X0198733Y0061071D02*
X0189395Y0061071D01*
X0189395Y0062270D02*
X0197701Y0062270D01*
X0197204Y0063468D02*
X0189395Y0063468D01*
X0189395Y0064667D02*
X0196870Y0064667D01*
X0196870Y0065865D02*
X0189395Y0065865D01*
X0189395Y0067064D02*
X0197000Y0067064D01*
X0197496Y0068262D02*
X0189395Y0068262D01*
X0189395Y0069461D02*
X0198240Y0069461D01*
X0199438Y0070659D02*
X0189395Y0070659D01*
D30*
X0112095Y0196013D02*
X0109276Y0196013D01*
X0112095Y0196013D02*
X0120217Y0204135D01*
X0124091Y0204135D01*
D31*
X0154095Y0169513D02*
X0153095Y0168513D01*
X0153095Y0130513D01*
X0153095Y0097513D01*
X0155095Y0095513D01*
X0156095Y0095513D01*
X0171595Y0100013D02*
X0171595Y0090013D01*
X0176595Y0085013D01*
X0171595Y0100013D02*
X0180095Y0108513D01*
X0180095Y0156513D01*
X0179095Y0157513D01*
X0153095Y0130513D02*
X0156095Y0127513D01*
X0195595Y0127513D02*
X0209095Y0127513D01*
X0214095Y0132513D01*
X0214095Y0142513D01*
X0216595Y0157513D02*
X0215595Y0158513D01*
X0216595Y0157513D02*
X0216595Y0106013D01*
X0208095Y0097513D01*
X0208095Y0089513D01*
X0213095Y0084513D01*
M02*
