G75*
%MOIN*%
%OFA0B0*%
%FSLAX25Y25*%
%IPPOS*%
%LPD*%
%AMOC8*
5,1,8,0,0,1.08239X$1,22.5*
%
%ADD10C,0.00800*%
%ADD11C,0.00700*%
%ADD12C,0.00400*%
%ADD13C,0.01400*%
%ADD14C,0.00500*%
%ADD15C,0.00600*%
%ADD16C,0.00000*%
D10*
X0141245Y0155413D02*
X0141245Y0157014D01*
X0141779Y0157548D01*
X0142313Y0157548D01*
X0142847Y0157014D01*
X0142847Y0155413D01*
X0144448Y0155413D02*
X0141245Y0155413D01*
X0142847Y0157014D02*
X0143380Y0157548D01*
X0143914Y0157548D01*
X0144448Y0157014D01*
X0144448Y0155413D01*
X0143380Y0159096D02*
X0144448Y0160163D01*
X0143380Y0161231D01*
X0141245Y0161231D01*
X0142847Y0161231D02*
X0142847Y0159096D01*
X0143380Y0159096D02*
X0141245Y0159096D01*
X0141245Y0163847D02*
X0144448Y0163847D01*
X0144448Y0164914D02*
X0144448Y0162779D01*
X0135449Y0162913D02*
X0135449Y0165015D01*
X0134748Y0165715D01*
X0133347Y0165715D01*
X0132646Y0165015D01*
X0132646Y0162913D01*
X0131245Y0162913D02*
X0135449Y0162913D01*
X0132646Y0164314D02*
X0131245Y0165715D01*
X0131245Y0167517D02*
X0135449Y0167517D01*
X0135449Y0170319D01*
X0135449Y0172121D02*
X0134048Y0173522D01*
X0135449Y0174923D01*
X0131245Y0174923D01*
X0131245Y0176725D02*
X0131245Y0179527D01*
X0131245Y0178126D02*
X0135449Y0178126D01*
X0134048Y0176725D01*
X0135449Y0172121D02*
X0131245Y0172121D01*
X0133347Y0168918D02*
X0133347Y0167517D01*
X0134748Y0181328D02*
X0135449Y0182029D01*
X0135449Y0183430D01*
X0134748Y0184131D01*
X0134048Y0184131D01*
X0131245Y0181328D01*
X0131245Y0184131D01*
X0131245Y0185932D02*
X0131245Y0188034D01*
X0131946Y0188735D01*
X0132646Y0188735D01*
X0133347Y0188034D01*
X0133347Y0185932D01*
X0135449Y0185932D02*
X0135449Y0188034D01*
X0134748Y0188735D01*
X0134048Y0188735D01*
X0133347Y0188034D01*
X0131245Y0185932D02*
X0135449Y0185932D01*
X0135449Y0190536D02*
X0131245Y0190536D01*
X0131245Y0193339D02*
X0135449Y0193339D01*
X0134748Y0195140D02*
X0131946Y0195140D01*
X0131245Y0195841D01*
X0131245Y0197242D01*
X0131946Y0197943D01*
X0134748Y0197943D01*
X0135449Y0197242D01*
X0135449Y0195841D01*
X0134748Y0195140D01*
X0131245Y0193339D02*
X0135449Y0190536D01*
X0140029Y0196413D02*
X0139495Y0196947D01*
X0139495Y0198014D01*
X0140029Y0198548D01*
X0142698Y0198548D01*
X0142164Y0200096D02*
X0141630Y0200096D01*
X0141097Y0200630D01*
X0141097Y0201697D01*
X0140563Y0202231D01*
X0140029Y0202231D01*
X0139495Y0201697D01*
X0139495Y0200630D01*
X0140029Y0200096D01*
X0142164Y0200096D02*
X0142698Y0200630D01*
X0142698Y0201697D01*
X0142164Y0202231D01*
X0142698Y0203779D02*
X0139495Y0203779D01*
X0139495Y0205380D01*
X0140029Y0205914D01*
X0140563Y0205914D01*
X0141097Y0205380D01*
X0141097Y0203779D01*
X0142698Y0203779D02*
X0142698Y0205380D01*
X0142164Y0205914D01*
X0141630Y0205914D01*
X0141097Y0205380D01*
X0140029Y0196413D02*
X0142698Y0196413D01*
X0031254Y0196998D02*
X0030553Y0196297D01*
X0029853Y0196297D01*
X0029152Y0196998D01*
X0029152Y0199099D01*
X0027751Y0199099D02*
X0030553Y0199099D01*
X0031254Y0198399D01*
X0031254Y0196998D01*
X0031254Y0194495D02*
X0030553Y0193094D01*
X0029152Y0191693D01*
X0029152Y0193795D01*
X0028451Y0194495D01*
X0027751Y0194495D01*
X0027050Y0193795D01*
X0027050Y0192394D01*
X0027751Y0191693D01*
X0029152Y0191693D01*
X0031254Y0189891D02*
X0027050Y0189891D01*
X0029853Y0188490D02*
X0031254Y0189891D01*
X0029853Y0188490D02*
X0031254Y0187089D01*
X0027050Y0187089D01*
X0029152Y0183886D02*
X0029152Y0182485D01*
X0029152Y0180684D02*
X0028451Y0179983D01*
X0028451Y0177881D01*
X0027050Y0177881D02*
X0031254Y0177881D01*
X0031254Y0179983D01*
X0030553Y0180684D01*
X0029152Y0180684D01*
X0028451Y0179282D02*
X0027050Y0180684D01*
X0027050Y0182485D02*
X0031254Y0182485D01*
X0031254Y0185288D01*
X0027751Y0196297D02*
X0027050Y0196998D01*
X0027050Y0198399D01*
X0027751Y0199099D01*
D11*
X0073552Y0044147D02*
X0074975Y0042724D01*
X0074500Y0042250D02*
X0076398Y0044147D01*
X0076398Y0042250D02*
X0073552Y0042250D01*
X0074026Y0040885D02*
X0073552Y0040410D01*
X0073552Y0039462D01*
X0074026Y0038987D01*
X0075923Y0038987D01*
X0076398Y0039462D01*
X0076398Y0040410D01*
X0075923Y0040885D01*
X0075449Y0037622D02*
X0073552Y0037622D01*
X0074975Y0037622D02*
X0074975Y0035725D01*
X0075449Y0035725D02*
X0073552Y0035725D01*
X0073552Y0034359D02*
X0073552Y0032462D01*
X0076398Y0032462D01*
X0075923Y0031097D02*
X0075449Y0031097D01*
X0074975Y0030622D01*
X0074975Y0029200D01*
X0074975Y0030622D02*
X0074500Y0031097D01*
X0074026Y0031097D01*
X0073552Y0030622D01*
X0073552Y0029200D01*
X0076398Y0029200D01*
X0076398Y0030622D01*
X0075923Y0031097D01*
X0075449Y0035725D02*
X0076398Y0036673D01*
X0075449Y0037622D01*
X0102472Y0032315D02*
X0103420Y0032315D01*
X0102946Y0032315D02*
X0102946Y0029469D01*
X0103420Y0029469D02*
X0102472Y0029469D01*
X0104786Y0029944D02*
X0104786Y0031841D01*
X0105260Y0032315D01*
X0106683Y0032315D01*
X0106683Y0029469D01*
X0105260Y0029469D01*
X0104786Y0029944D01*
X0108048Y0032315D02*
X0109946Y0032315D01*
X0108997Y0032315D02*
X0108997Y0029469D01*
X0112260Y0030892D02*
X0113208Y0030892D01*
X0113208Y0029469D02*
X0113208Y0032315D01*
X0111311Y0032315D01*
X0139445Y0031586D02*
X0139919Y0032060D01*
X0140868Y0032060D01*
X0140868Y0031111D01*
X0139919Y0030163D02*
X0139445Y0030637D01*
X0139445Y0031586D01*
X0139919Y0030163D02*
X0141817Y0030163D01*
X0142291Y0030637D01*
X0142291Y0031586D01*
X0141817Y0032060D01*
X0142291Y0033425D02*
X0139445Y0033425D01*
X0140394Y0033425D02*
X0140394Y0034848D01*
X0140868Y0035323D01*
X0141817Y0035323D01*
X0142291Y0034848D01*
X0142291Y0033425D01*
X0140394Y0034374D02*
X0139445Y0035323D01*
X0139445Y0036688D02*
X0139445Y0038585D01*
X0139445Y0039951D02*
X0139445Y0041848D01*
X0139445Y0043213D02*
X0142291Y0043213D01*
X0139445Y0045110D01*
X0142291Y0045110D01*
X0142291Y0041848D02*
X0142291Y0039951D01*
X0139445Y0039951D01*
X0140868Y0039951D02*
X0140868Y0040899D01*
X0142291Y0038585D02*
X0142291Y0036688D01*
X0139445Y0036688D01*
X0140868Y0036688D02*
X0140868Y0037637D01*
D12*
X0022595Y0027513D02*
X0022595Y0212513D01*
X0146595Y0212513D01*
X0146595Y0122513D01*
X0151095Y0122513D01*
X0151095Y0212513D01*
X0182595Y0212513D01*
X0182595Y0122513D01*
X0187595Y0122513D01*
X0187595Y0212513D01*
X0219095Y0212513D01*
X0219095Y0027513D01*
X0187595Y0027513D01*
X0187595Y0107513D01*
X0182595Y0107513D01*
X0182595Y0027513D01*
X0151095Y0027513D01*
X0151095Y0107513D01*
X0146595Y0107513D01*
X0146595Y0027513D01*
X0022595Y0027513D01*
X0024276Y0034662D02*
X0023752Y0035187D01*
X0023752Y0036235D01*
X0024276Y0036760D01*
X0024801Y0036760D01*
X0025325Y0036235D01*
X0025325Y0035187D01*
X0025849Y0034662D01*
X0026374Y0034662D01*
X0026898Y0035187D01*
X0026898Y0036235D01*
X0026374Y0036760D01*
X0025325Y0037925D02*
X0025849Y0038449D01*
X0025849Y0039498D01*
X0025325Y0040022D01*
X0024801Y0040022D01*
X0024801Y0037925D01*
X0025325Y0037925D02*
X0024276Y0037925D01*
X0023752Y0038449D01*
X0023752Y0039498D01*
X0023752Y0041187D02*
X0025849Y0041187D01*
X0025849Y0042760D01*
X0025325Y0043285D01*
X0023752Y0043285D01*
X0023752Y0044450D02*
X0023752Y0046023D01*
X0024276Y0046547D01*
X0024801Y0046023D01*
X0024801Y0044974D01*
X0025325Y0044450D01*
X0025849Y0044974D01*
X0025849Y0046547D01*
X0026941Y0048213D02*
X0023795Y0048213D01*
X0023795Y0049786D01*
X0024320Y0050310D01*
X0026417Y0050310D01*
X0026941Y0049786D01*
X0026941Y0048213D01*
X0026417Y0051475D02*
X0026941Y0052000D01*
X0026941Y0053048D01*
X0026417Y0053573D01*
X0024320Y0053573D01*
X0023795Y0053048D01*
X0023795Y0052000D01*
X0024320Y0051475D01*
X0026417Y0051475D01*
X0024844Y0052524D02*
X0023795Y0053573D01*
X0038795Y0053787D02*
X0041941Y0053787D01*
X0041941Y0054835D02*
X0041941Y0052738D01*
X0041941Y0051573D02*
X0038795Y0051573D01*
X0040368Y0051573D02*
X0040368Y0049475D01*
X0039320Y0048310D02*
X0041417Y0048310D01*
X0041941Y0047786D01*
X0041941Y0046213D01*
X0038795Y0046213D01*
X0038795Y0047786D01*
X0039320Y0048310D01*
X0038795Y0049475D02*
X0041941Y0049475D01*
X0041417Y0044835D02*
X0040368Y0044835D01*
X0039844Y0044311D01*
X0039844Y0042738D01*
X0039844Y0043787D02*
X0038795Y0044835D01*
X0038795Y0042738D02*
X0041941Y0042738D01*
X0041941Y0044311D01*
X0041417Y0044835D01*
X0041941Y0041573D02*
X0038795Y0041573D01*
X0039844Y0040524D01*
X0038795Y0039475D01*
X0041941Y0039475D01*
X0041417Y0038310D02*
X0040368Y0038310D01*
X0039844Y0037786D01*
X0039844Y0036213D01*
X0038795Y0036213D02*
X0041941Y0036213D01*
X0041941Y0037786D01*
X0041417Y0038310D01*
X0041374Y0055925D02*
X0039276Y0055925D01*
X0038752Y0056449D01*
X0038752Y0057498D01*
X0039276Y0058022D01*
X0040325Y0058022D01*
X0040325Y0056974D01*
X0041374Y0058022D02*
X0041898Y0057498D01*
X0041898Y0056449D01*
X0041374Y0055925D01*
X0041898Y0059187D02*
X0038752Y0059187D01*
X0038752Y0061285D02*
X0041898Y0061285D01*
X0041898Y0062450D02*
X0041898Y0064023D01*
X0041374Y0064547D01*
X0039276Y0064547D01*
X0038752Y0064023D01*
X0038752Y0062450D01*
X0041898Y0062450D01*
X0041898Y0059187D02*
X0038752Y0061285D01*
X0038795Y0067713D02*
X0040893Y0067713D01*
X0041941Y0068761D01*
X0040893Y0069810D01*
X0038795Y0069810D01*
X0038795Y0070975D02*
X0038795Y0073073D01*
X0038795Y0072024D02*
X0041941Y0072024D01*
X0040893Y0070975D01*
X0040368Y0069810D02*
X0040368Y0067713D01*
X0039320Y0076463D02*
X0038795Y0076987D01*
X0038795Y0078036D01*
X0039320Y0078560D01*
X0039844Y0078560D01*
X0040368Y0078036D01*
X0040368Y0077511D01*
X0040368Y0078036D02*
X0040893Y0078560D01*
X0041417Y0078560D01*
X0041941Y0078036D01*
X0041941Y0076987D01*
X0041417Y0076463D01*
X0041941Y0079725D02*
X0039844Y0079725D01*
X0038795Y0080774D01*
X0039844Y0081823D01*
X0041941Y0081823D01*
X0041417Y0082988D02*
X0041941Y0083512D01*
X0041941Y0084561D01*
X0041417Y0085085D01*
X0040893Y0085085D01*
X0040368Y0084561D01*
X0039844Y0085085D01*
X0039320Y0085085D01*
X0038795Y0084561D01*
X0038795Y0083512D01*
X0039320Y0082988D01*
X0040368Y0084037D02*
X0040368Y0084561D01*
X0040368Y0087713D02*
X0040368Y0089810D01*
X0040893Y0089810D02*
X0038795Y0089810D01*
X0039320Y0090975D02*
X0041417Y0093073D01*
X0039320Y0093073D01*
X0038795Y0092548D01*
X0038795Y0091500D01*
X0039320Y0090975D01*
X0041417Y0090975D01*
X0041941Y0091500D01*
X0041941Y0092548D01*
X0041417Y0093073D01*
X0040893Y0089810D02*
X0041941Y0088761D01*
X0040893Y0087713D01*
X0038795Y0087713D01*
X0061820Y0058335D02*
X0063917Y0058335D01*
X0064441Y0057811D01*
X0064441Y0056238D01*
X0061295Y0056238D01*
X0061295Y0057811D01*
X0061820Y0058335D01*
X0061295Y0055073D02*
X0064441Y0055073D01*
X0064441Y0052975D02*
X0061295Y0055073D01*
X0061295Y0052975D02*
X0064441Y0052975D01*
X0063917Y0051810D02*
X0064441Y0051286D01*
X0064441Y0050237D01*
X0063917Y0049713D01*
X0061820Y0049713D01*
X0061295Y0050237D01*
X0061295Y0051286D01*
X0061820Y0051810D01*
X0062868Y0051810D01*
X0062868Y0050761D01*
X0083760Y0032091D02*
X0084285Y0032615D01*
X0085858Y0032615D01*
X0085858Y0029469D01*
X0084285Y0029469D01*
X0083760Y0029994D01*
X0083760Y0032091D01*
X0087023Y0032615D02*
X0087023Y0029469D01*
X0089120Y0032615D01*
X0089120Y0029469D01*
X0090286Y0029994D02*
X0090286Y0031042D01*
X0091334Y0031042D01*
X0090286Y0029994D02*
X0090810Y0029469D01*
X0091859Y0029469D01*
X0092383Y0029994D01*
X0092383Y0032091D01*
X0091859Y0032615D01*
X0090810Y0032615D01*
X0090286Y0032091D01*
X0109735Y0044313D02*
X0111833Y0047459D01*
X0112998Y0046934D02*
X0112998Y0045886D01*
X0113522Y0045361D01*
X0115095Y0045361D01*
X0115095Y0044313D02*
X0115095Y0047459D01*
X0113522Y0047459D01*
X0112998Y0046934D01*
X0114047Y0045361D02*
X0112998Y0044313D01*
X0111833Y0044313D02*
X0109735Y0047459D01*
X0120235Y0047459D02*
X0122333Y0044313D01*
X0120235Y0044313D02*
X0122333Y0047459D01*
X0123498Y0047459D02*
X0125595Y0047459D01*
X0124547Y0047459D02*
X0124547Y0044313D01*
X0058396Y0137619D02*
X0058396Y0139717D01*
X0057347Y0140765D01*
X0056298Y0139717D01*
X0056298Y0137619D01*
X0055133Y0137619D02*
X0055133Y0140765D01*
X0053560Y0140765D01*
X0053036Y0140241D01*
X0053036Y0139192D01*
X0053560Y0138668D01*
X0055133Y0138668D01*
X0054084Y0138668D02*
X0053036Y0137619D01*
X0051870Y0137619D02*
X0049773Y0137619D01*
X0048608Y0137619D02*
X0048608Y0140765D01*
X0046510Y0140765D01*
X0047559Y0139192D02*
X0048608Y0139192D01*
X0049773Y0140765D02*
X0051870Y0140765D01*
X0051870Y0137619D01*
X0051870Y0139192D02*
X0050822Y0139192D01*
X0056298Y0139192D02*
X0058396Y0139192D01*
X0105410Y0144664D02*
X0105410Y0145865D01*
X0106611Y0147066D01*
X0107892Y0145264D02*
X0107892Y0143463D01*
X0106611Y0143463D02*
X0105410Y0144664D01*
X0107892Y0145264D02*
X0108492Y0145865D01*
X0110294Y0145865D01*
X0110294Y0143463D01*
X0111548Y0143463D02*
X0112749Y0143463D01*
X0112149Y0143463D02*
X0112149Y0145865D01*
X0112749Y0145865D01*
X0112149Y0147066D02*
X0112149Y0147666D01*
X0112803Y0147963D02*
X0114604Y0147963D01*
X0115205Y0148563D01*
X0115205Y0149764D01*
X0114604Y0150365D01*
X0112803Y0150365D01*
X0112803Y0151566D02*
X0112803Y0147963D01*
X0111522Y0148563D02*
X0111522Y0149764D01*
X0110921Y0150365D01*
X0109720Y0150365D01*
X0109120Y0149764D01*
X0109120Y0149164D01*
X0111522Y0149164D01*
X0111522Y0148563D02*
X0110921Y0147963D01*
X0109720Y0147963D01*
X0114030Y0145264D02*
X0114030Y0144063D01*
X0114631Y0143463D01*
X0115832Y0143463D01*
X0116432Y0144063D01*
X0116432Y0145264D01*
X0115832Y0145865D01*
X0114631Y0145865D01*
X0114030Y0145264D01*
X0117086Y0147963D02*
X0116486Y0148563D01*
X0116486Y0149764D01*
X0117086Y0150365D01*
X0118287Y0150365D01*
X0118888Y0149764D01*
X0118888Y0148563D01*
X0118287Y0147963D01*
X0117086Y0147963D01*
X0117714Y0145865D02*
X0119515Y0145865D01*
X0120116Y0145264D01*
X0120116Y0144063D01*
X0119515Y0143463D01*
X0117714Y0143463D01*
X0121370Y0143463D02*
X0122571Y0144664D01*
X0122571Y0145865D01*
X0121370Y0147066D01*
X0120169Y0147963D02*
X0120169Y0151566D01*
X0122571Y0151566D02*
X0120169Y0147963D01*
X0122571Y0147963D02*
X0122571Y0151566D01*
X0124426Y0151566D02*
X0124426Y0152166D01*
X0124426Y0150365D02*
X0124426Y0147963D01*
X0125026Y0147963D02*
X0123825Y0147963D01*
X0124426Y0150365D02*
X0125026Y0150365D01*
X0126308Y0150365D02*
X0126308Y0147963D01*
X0128109Y0147963D01*
X0128710Y0148563D01*
X0128710Y0150365D01*
X0129991Y0150365D02*
X0131792Y0150365D01*
X0132393Y0149764D01*
X0132393Y0148563D01*
X0131792Y0147963D01*
X0129991Y0147963D01*
X0129991Y0151566D01*
X0133660Y0150365D02*
X0134261Y0150365D01*
X0135462Y0149164D01*
X0135462Y0147963D02*
X0135462Y0150365D01*
X0136743Y0150365D02*
X0136743Y0147963D01*
X0136743Y0147066D02*
X0136743Y0144664D01*
X0137944Y0143463D01*
X0139145Y0144664D01*
X0139145Y0147066D01*
X0139145Y0147963D02*
X0139145Y0150365D01*
X0137944Y0151566D01*
X0136743Y0150365D01*
X0136743Y0149764D02*
X0139145Y0149764D01*
X0135462Y0145865D02*
X0134261Y0147066D01*
X0134261Y0143463D01*
X0135462Y0143463D02*
X0133060Y0143463D01*
X0131779Y0143463D02*
X0131178Y0143463D01*
X0131178Y0144063D01*
X0131779Y0144063D01*
X0131779Y0143463D01*
X0129937Y0144063D02*
X0129337Y0143463D01*
X0128136Y0143463D01*
X0127535Y0144063D01*
X0127535Y0144664D01*
X0128136Y0145264D01*
X0128736Y0145264D01*
X0128136Y0145264D02*
X0127535Y0145865D01*
X0127535Y0146465D01*
X0128136Y0147066D01*
X0129337Y0147066D01*
X0129937Y0146465D01*
X0172545Y0173290D02*
X0172545Y0175091D01*
X0173146Y0175692D01*
X0173746Y0175692D01*
X0174347Y0175091D01*
X0174347Y0173290D01*
X0176148Y0173290D02*
X0172545Y0173290D01*
X0174347Y0175091D02*
X0174947Y0175692D01*
X0175548Y0175692D01*
X0176148Y0175091D01*
X0176148Y0173290D01*
X0177045Y0174491D02*
X0178246Y0175692D01*
X0180648Y0175692D01*
X0179447Y0176973D02*
X0180648Y0178174D01*
X0177045Y0178174D01*
X0177045Y0176973D02*
X0177045Y0179375D01*
X0177045Y0180656D02*
X0177045Y0181257D01*
X0177646Y0181257D01*
X0177646Y0180656D01*
X0177045Y0180656D01*
X0177646Y0182498D02*
X0180048Y0184900D01*
X0177646Y0184900D01*
X0177045Y0184299D01*
X0177045Y0183098D01*
X0177646Y0182498D01*
X0180048Y0182498D01*
X0180648Y0183098D01*
X0180648Y0184299D01*
X0180048Y0184900D01*
X0174947Y0184940D02*
X0174947Y0186741D01*
X0174947Y0188022D02*
X0174947Y0189223D01*
X0175548Y0188623D02*
X0173146Y0188623D01*
X0172545Y0189223D01*
X0173146Y0186741D02*
X0173746Y0186141D01*
X0173746Y0184940D01*
X0174347Y0184339D01*
X0174947Y0184940D01*
X0174347Y0183058D02*
X0174947Y0182458D01*
X0174947Y0181257D01*
X0174347Y0180656D01*
X0173146Y0180656D01*
X0172545Y0181257D01*
X0172545Y0182458D01*
X0173146Y0183058D01*
X0174347Y0183058D01*
X0172545Y0184339D02*
X0172545Y0186141D01*
X0173146Y0186741D01*
X0177045Y0189864D02*
X0177045Y0191665D01*
X0177646Y0192266D01*
X0178246Y0192266D01*
X0178847Y0191665D01*
X0178847Y0189864D01*
X0180648Y0189864D02*
X0177045Y0189864D01*
X0178847Y0191665D02*
X0179447Y0192266D01*
X0180048Y0192266D01*
X0180648Y0191665D01*
X0180648Y0189864D01*
X0179447Y0193547D02*
X0177646Y0193547D01*
X0177045Y0194148D01*
X0177045Y0195949D01*
X0176445Y0195949D02*
X0175844Y0195349D01*
X0175844Y0194748D01*
X0176148Y0194161D02*
X0176148Y0195962D01*
X0175548Y0196563D01*
X0174947Y0196563D01*
X0174347Y0195962D01*
X0174347Y0194161D01*
X0176148Y0194161D02*
X0172545Y0194161D01*
X0172545Y0195962D01*
X0173146Y0196563D01*
X0173746Y0196563D01*
X0174347Y0195962D01*
X0174347Y0197844D02*
X0173146Y0197844D01*
X0172545Y0198445D01*
X0172545Y0199646D01*
X0173146Y0200246D01*
X0174347Y0200246D01*
X0174947Y0199646D01*
X0174947Y0198445D01*
X0174347Y0197844D01*
X0175844Y0197230D02*
X0179447Y0197230D01*
X0179447Y0199032D01*
X0178847Y0199632D01*
X0177646Y0199632D01*
X0177045Y0199032D01*
X0177045Y0197230D01*
X0176445Y0195949D02*
X0179447Y0195949D01*
X0177646Y0200913D02*
X0178246Y0201514D01*
X0178246Y0203315D01*
X0178847Y0203315D02*
X0177045Y0203315D01*
X0177045Y0201514D01*
X0177646Y0200913D01*
X0179447Y0201514D02*
X0179447Y0202715D01*
X0178847Y0203315D01*
X0178847Y0204596D02*
X0179447Y0205197D01*
X0179447Y0206998D01*
X0178246Y0206398D02*
X0178246Y0205197D01*
X0178847Y0204596D01*
X0177045Y0204596D02*
X0177045Y0206398D01*
X0177646Y0206998D01*
X0178246Y0206398D01*
X0178847Y0208280D02*
X0179447Y0208880D01*
X0179447Y0210682D01*
X0178246Y0210081D02*
X0178246Y0208880D01*
X0178847Y0208280D01*
X0177045Y0208280D02*
X0177045Y0210081D01*
X0177646Y0210682D01*
X0178246Y0210081D01*
X0176148Y0210682D02*
X0172545Y0210682D01*
X0172545Y0208880D01*
X0173146Y0208280D01*
X0174347Y0208280D01*
X0174947Y0208880D01*
X0174947Y0210682D01*
X0174947Y0207012D02*
X0174947Y0206411D01*
X0173746Y0205210D01*
X0172545Y0205210D02*
X0174947Y0205210D01*
X0174347Y0203929D02*
X0172545Y0203929D01*
X0172545Y0202128D01*
X0173146Y0201527D01*
X0173746Y0202128D01*
X0173746Y0203929D01*
X0174347Y0203929D02*
X0174947Y0203329D01*
X0174947Y0202128D01*
X0188545Y0201628D02*
X0189146Y0201027D01*
X0189746Y0201628D01*
X0189746Y0203429D01*
X0190347Y0203429D02*
X0188545Y0203429D01*
X0188545Y0201628D01*
X0189146Y0199746D02*
X0190347Y0199746D01*
X0190947Y0199146D01*
X0190947Y0197945D01*
X0190347Y0197344D01*
X0189146Y0197344D01*
X0188545Y0197945D01*
X0188545Y0199146D01*
X0189146Y0199746D01*
X0190947Y0201628D02*
X0190947Y0202829D01*
X0190347Y0203429D01*
X0190947Y0204710D02*
X0188545Y0204710D01*
X0189746Y0204710D02*
X0190947Y0205911D01*
X0190947Y0206512D01*
X0190347Y0207780D02*
X0189146Y0207780D01*
X0188545Y0208380D01*
X0188545Y0210182D01*
X0192148Y0210182D01*
X0190947Y0210182D02*
X0190947Y0208380D01*
X0190347Y0207780D01*
X0193545Y0206938D02*
X0195947Y0206938D01*
X0195947Y0208740D01*
X0195347Y0209340D01*
X0193545Y0209340D01*
X0193545Y0210621D02*
X0193545Y0211222D01*
X0194146Y0211222D01*
X0194146Y0210621D01*
X0193545Y0210621D01*
X0194146Y0205657D02*
X0195347Y0205657D01*
X0195947Y0205056D01*
X0195947Y0203855D01*
X0195347Y0203255D01*
X0194146Y0203255D01*
X0193545Y0203855D01*
X0193545Y0205056D01*
X0194146Y0205657D01*
X0193545Y0201974D02*
X0193545Y0200172D01*
X0194146Y0199572D01*
X0195347Y0199572D01*
X0195947Y0200172D01*
X0195947Y0201974D01*
X0195947Y0198291D02*
X0195947Y0196489D01*
X0195347Y0195889D01*
X0194746Y0196489D01*
X0194746Y0197690D01*
X0194146Y0198291D01*
X0193545Y0197690D01*
X0193545Y0195889D01*
X0193545Y0194634D02*
X0193545Y0193433D01*
X0193545Y0194034D02*
X0195947Y0194034D01*
X0195947Y0193433D01*
X0197148Y0194034D02*
X0197749Y0194034D01*
X0196548Y0192152D02*
X0197148Y0191552D01*
X0197148Y0189750D01*
X0193545Y0189750D01*
X0193545Y0191552D01*
X0194146Y0192152D01*
X0196548Y0192152D01*
X0192148Y0193661D02*
X0192148Y0195462D01*
X0191548Y0196063D01*
X0190947Y0196063D01*
X0190347Y0195462D01*
X0190347Y0193661D01*
X0192148Y0193661D02*
X0188545Y0193661D01*
X0188545Y0195462D01*
X0189146Y0196063D01*
X0189746Y0196063D01*
X0190347Y0195462D01*
X0190947Y0188723D02*
X0190947Y0187522D01*
X0191548Y0188123D02*
X0189146Y0188123D01*
X0188545Y0188723D01*
X0189146Y0186241D02*
X0189746Y0185641D01*
X0189746Y0184440D01*
X0190347Y0183839D01*
X0190947Y0184440D01*
X0190947Y0186241D01*
X0189146Y0186241D02*
X0188545Y0185641D01*
X0188545Y0183839D01*
X0189146Y0182558D02*
X0190347Y0182558D01*
X0190947Y0181958D01*
X0190947Y0180757D01*
X0190347Y0180156D01*
X0189146Y0180156D01*
X0188545Y0180757D01*
X0188545Y0181958D01*
X0189146Y0182558D01*
X0189146Y0178875D02*
X0190347Y0178875D01*
X0190947Y0178274D01*
X0190947Y0177073D01*
X0190347Y0176473D01*
X0189146Y0176473D01*
X0188545Y0177073D01*
X0188545Y0178274D01*
X0189146Y0178875D01*
X0189146Y0175192D02*
X0188545Y0174591D01*
X0188545Y0172790D01*
X0192148Y0172790D01*
X0192148Y0174591D01*
X0191548Y0175192D01*
X0190947Y0175192D01*
X0190347Y0174591D01*
X0190347Y0172790D01*
X0190347Y0174591D02*
X0189746Y0175192D01*
X0189146Y0175192D01*
X0193545Y0174377D02*
X0194746Y0175578D01*
X0197148Y0175578D01*
X0195947Y0176859D02*
X0197148Y0178060D01*
X0193545Y0178060D01*
X0193545Y0176859D02*
X0193545Y0179261D01*
X0193545Y0180542D02*
X0193545Y0181143D01*
X0194146Y0181143D01*
X0194146Y0180542D01*
X0193545Y0180542D01*
X0194146Y0182384D02*
X0196548Y0184786D01*
X0194146Y0184786D01*
X0193545Y0184185D01*
X0193545Y0182984D01*
X0194146Y0182384D01*
X0196548Y0182384D01*
X0197148Y0182984D01*
X0197148Y0184185D01*
X0196548Y0184786D01*
X0193545Y0174377D02*
X0194746Y0173176D01*
X0197148Y0173176D01*
X0180648Y0173290D02*
X0178246Y0173290D01*
X0177045Y0174491D01*
X0174347Y0176973D02*
X0173146Y0176973D01*
X0172545Y0177573D01*
X0172545Y0178774D01*
X0173146Y0179375D01*
X0174347Y0179375D01*
X0174947Y0178774D01*
X0174947Y0177573D01*
X0174347Y0176973D01*
X0099883Y0208994D02*
X0099359Y0208469D01*
X0098310Y0208469D01*
X0097786Y0208994D01*
X0097786Y0210042D01*
X0098834Y0210042D01*
X0099883Y0208994D02*
X0099883Y0211091D01*
X0099359Y0211615D01*
X0098310Y0211615D01*
X0097786Y0211091D01*
X0096620Y0211615D02*
X0096620Y0208469D01*
X0094523Y0208469D02*
X0094523Y0211615D01*
X0093358Y0211615D02*
X0091785Y0211615D01*
X0091260Y0211091D01*
X0091260Y0208994D01*
X0091785Y0208469D01*
X0093358Y0208469D01*
X0093358Y0211615D01*
X0096620Y0211615D02*
X0094523Y0208469D01*
X0055171Y0206115D02*
X0055171Y0202969D01*
X0055171Y0204018D02*
X0053598Y0204018D01*
X0053074Y0204542D01*
X0053074Y0205591D01*
X0053598Y0206115D01*
X0055171Y0206115D01*
X0054122Y0204018D02*
X0053074Y0202969D01*
X0051908Y0202969D02*
X0051908Y0206115D01*
X0049811Y0206115D01*
X0050860Y0204542D02*
X0051908Y0204542D01*
X0048646Y0204542D02*
X0046548Y0204542D01*
X0045383Y0204018D02*
X0045383Y0206115D01*
X0045383Y0204018D02*
X0044334Y0202969D01*
X0043286Y0204018D01*
X0043286Y0206115D01*
X0042120Y0205591D02*
X0042120Y0203494D01*
X0041596Y0202969D01*
X0040547Y0202969D01*
X0040023Y0203494D01*
X0038858Y0203494D02*
X0038858Y0205591D01*
X0038334Y0206115D01*
X0037285Y0206115D01*
X0036761Y0205591D01*
X0036761Y0203494D02*
X0037285Y0202969D01*
X0038334Y0202969D01*
X0038858Y0203494D01*
X0040023Y0205591D02*
X0040547Y0206115D01*
X0041596Y0206115D01*
X0042120Y0205591D01*
D13*
X0165604Y0188665D02*
X0169341Y0188665D01*
X0167472Y0190533D02*
X0167472Y0186797D01*
X0174972Y0172033D02*
X0174972Y0168297D01*
X0173104Y0170165D02*
X0176841Y0170165D01*
X0201604Y0187165D02*
X0205341Y0187165D01*
X0203472Y0189033D02*
X0203472Y0185297D01*
X0211972Y0172033D02*
X0211972Y0168297D01*
X0210104Y0170165D02*
X0213841Y0170165D01*
X0211341Y0071665D02*
X0207604Y0071665D01*
X0205341Y0048665D02*
X0201604Y0048665D01*
X0175341Y0071665D02*
X0171604Y0071665D01*
X0169341Y0048665D02*
X0165604Y0048665D01*
D14*
X0135816Y0076056D02*
X0124658Y0068292D01*
X0044926Y0068292D01*
X0033375Y0075450D01*
X0033375Y0099450D01*
X0029855Y0099450D01*
X0029855Y0111969D01*
X0033375Y0111969D01*
X0033375Y0132702D01*
X0043595Y0142702D01*
X0043595Y0142513D02*
X0043717Y0142632D01*
X0043842Y0142749D01*
X0043970Y0142862D01*
X0044101Y0142972D01*
X0044234Y0143079D01*
X0044370Y0143183D01*
X0044508Y0143283D01*
X0044649Y0143380D01*
X0044792Y0143474D01*
X0044937Y0143564D01*
X0045084Y0143651D01*
X0045234Y0143734D01*
X0045385Y0143813D01*
X0045538Y0143889D01*
X0045693Y0143961D01*
X0045850Y0144029D01*
X0046008Y0144094D01*
X0046168Y0144154D01*
X0046329Y0144211D01*
X0046491Y0144264D01*
X0046655Y0144313D01*
X0046820Y0144358D01*
X0046986Y0144398D01*
X0047153Y0144435D01*
X0047320Y0144468D01*
X0047489Y0144497D01*
X0047658Y0144522D01*
X0047828Y0144542D01*
X0047998Y0144559D01*
X0048168Y0144571D01*
X0048339Y0144579D01*
X0048510Y0144583D01*
X0048680Y0144583D01*
X0048851Y0144579D01*
X0049022Y0144571D01*
X0049192Y0144559D01*
X0049362Y0144542D01*
X0049532Y0144522D01*
X0049701Y0144497D01*
X0049870Y0144468D01*
X0050037Y0144435D01*
X0050204Y0144398D01*
X0050370Y0144358D01*
X0050535Y0144313D01*
X0050699Y0144264D01*
X0050861Y0144211D01*
X0051022Y0144154D01*
X0051182Y0144094D01*
X0051340Y0144029D01*
X0051497Y0143961D01*
X0051652Y0143889D01*
X0051805Y0143813D01*
X0051956Y0143734D01*
X0052106Y0143651D01*
X0052253Y0143564D01*
X0052398Y0143474D01*
X0052541Y0143380D01*
X0052682Y0143283D01*
X0052820Y0143183D01*
X0052956Y0143079D01*
X0053089Y0142972D01*
X0053220Y0142862D01*
X0053348Y0142749D01*
X0053473Y0142632D01*
X0053595Y0142513D01*
X0050879Y0151670D02*
X0078438Y0151985D01*
X0078634Y0151981D01*
X0078830Y0151982D01*
X0079025Y0151988D01*
X0079221Y0151999D01*
X0079416Y0152014D01*
X0079611Y0152035D01*
X0079805Y0152059D01*
X0079999Y0152089D01*
X0080191Y0152124D01*
X0080383Y0152163D01*
X0080574Y0152207D01*
X0080764Y0152255D01*
X0080952Y0152308D01*
X0081139Y0152366D01*
X0081325Y0152428D01*
X0081509Y0152495D01*
X0081691Y0152566D01*
X0081872Y0152642D01*
X0082051Y0152722D01*
X0082227Y0152807D01*
X0082402Y0152895D01*
X0082574Y0152988D01*
X0082744Y0153086D01*
X0082912Y0153187D01*
X0083077Y0153292D01*
X0083239Y0153402D01*
X0083399Y0153515D01*
X0083556Y0153632D01*
X0083710Y0153753D01*
X0083860Y0153878D01*
X0084008Y0154006D01*
X0084153Y0154138D01*
X0084294Y0154274D01*
X0084432Y0154413D01*
X0084567Y0154555D01*
X0084698Y0154700D01*
X0084825Y0154849D01*
X0084949Y0155001D01*
X0085069Y0155155D01*
X0085185Y0155313D01*
X0085298Y0155473D01*
X0085406Y0155637D01*
X0085511Y0155802D01*
X0085611Y0155970D01*
X0085707Y0156141D01*
X0085799Y0156314D01*
X0085886Y0156489D01*
X0085970Y0156666D01*
X0086049Y0156845D01*
X0086123Y0157026D01*
X0086194Y0157209D01*
X0086259Y0157394D01*
X0086320Y0157580D01*
X0086377Y0157767D01*
X0086429Y0157956D01*
X0086476Y0158146D01*
X0086519Y0158337D01*
X0086557Y0158529D01*
X0086590Y0158722D01*
X0086618Y0158916D01*
X0086642Y0159110D01*
X0086661Y0159305D01*
X0086675Y0159500D01*
X0086685Y0159696D01*
X0086689Y0159892D01*
X0086689Y0160087D01*
X0086684Y0160283D01*
X0086675Y0160479D01*
X0086660Y0160674D01*
X0086641Y0160869D01*
X0086617Y0161063D01*
X0086588Y0161257D01*
X0086555Y0161450D01*
X0086516Y0161642D01*
X0086474Y0161833D01*
X0086426Y0162023D01*
X0086374Y0162212D01*
X0086317Y0162399D01*
X0086256Y0162585D01*
X0086190Y0162769D01*
X0086119Y0162952D01*
X0086044Y0163133D01*
X0085965Y0163312D01*
X0085882Y0163489D01*
X0085794Y0163664D01*
X0085702Y0163837D01*
X0085605Y0164007D01*
X0085505Y0164175D01*
X0085400Y0164341D01*
X0085292Y0164504D01*
X0085179Y0164664D01*
X0085063Y0164821D01*
X0084942Y0164976D01*
X0084818Y0165127D01*
X0084691Y0165276D01*
X0084559Y0165421D01*
X0084425Y0165563D01*
X0084286Y0165702D01*
X0084145Y0165837D01*
X0084000Y0165969D01*
X0083852Y0166097D01*
X0083701Y0166222D01*
X0083547Y0166342D01*
X0083390Y0166459D01*
X0083230Y0166573D01*
X0083067Y0166682D01*
X0082902Y0166787D01*
X0082735Y0166888D01*
X0082564Y0166985D01*
X0082392Y0167078D01*
X0082217Y0167166D01*
X0082041Y0167250D01*
X0081862Y0167330D01*
X0081681Y0167406D01*
X0081499Y0167477D01*
X0081314Y0167543D01*
X0081129Y0167605D01*
X0080942Y0167663D01*
X0080753Y0167716D01*
X0080563Y0167764D01*
X0080372Y0167808D01*
X0080180Y0167846D01*
X0079988Y0167881D01*
X0079794Y0167910D01*
X0079600Y0167935D01*
X0079405Y0167955D01*
X0079210Y0167970D01*
X0079014Y0167980D01*
X0078819Y0167986D01*
X0078623Y0167987D01*
X0078427Y0167983D01*
X0078231Y0167974D01*
X0078036Y0167960D01*
X0077841Y0167942D01*
X0077647Y0167919D01*
X0077453Y0167891D01*
X0077260Y0167859D01*
X0077068Y0167821D01*
X0076876Y0167779D01*
X0076686Y0167733D01*
X0049127Y0167418D01*
X0048935Y0167395D01*
X0048745Y0167366D01*
X0048555Y0167333D01*
X0048365Y0167296D01*
X0048177Y0167254D01*
X0047990Y0167207D01*
X0047804Y0167156D01*
X0047619Y0167100D01*
X0047436Y0167040D01*
X0047254Y0166975D01*
X0047074Y0166906D01*
X0046896Y0166832D01*
X0046719Y0166754D01*
X0046544Y0166672D01*
X0046372Y0166586D01*
X0046201Y0166495D01*
X0046033Y0166401D01*
X0045867Y0166302D01*
X0045704Y0166199D01*
X0045543Y0166093D01*
X0045385Y0165982D01*
X0045230Y0165868D01*
X0045077Y0165750D01*
X0044928Y0165628D01*
X0044781Y0165502D01*
X0044637Y0165374D01*
X0044497Y0165241D01*
X0044360Y0165105D01*
X0044226Y0164966D01*
X0044096Y0164824D01*
X0043969Y0164679D01*
X0043846Y0164530D01*
X0043726Y0164379D01*
X0043610Y0164224D01*
X0043498Y0164067D01*
X0043390Y0163908D01*
X0043286Y0163745D01*
X0043185Y0163581D01*
X0043089Y0163413D01*
X0042997Y0163244D01*
X0042909Y0163072D01*
X0042825Y0162898D01*
X0042746Y0162723D01*
X0042670Y0162545D01*
X0042599Y0162365D01*
X0042533Y0162184D01*
X0042471Y0162002D01*
X0042413Y0161817D01*
X0042360Y0161632D01*
X0042311Y0161445D01*
X0042267Y0161257D01*
X0042228Y0161069D01*
X0042193Y0160879D01*
X0042163Y0160688D01*
X0042138Y0160497D01*
X0042117Y0160305D01*
X0042100Y0160113D01*
X0042089Y0159920D01*
X0042082Y0159727D01*
X0042080Y0159534D01*
X0042083Y0159342D01*
X0042090Y0159149D01*
X0042102Y0158956D01*
X0042118Y0158764D01*
X0042140Y0158572D01*
X0042166Y0158381D01*
X0042196Y0158190D01*
X0042232Y0158001D01*
X0042272Y0157812D01*
X0042316Y0157624D01*
X0042365Y0157438D01*
X0042419Y0157252D01*
X0042477Y0157068D01*
X0042539Y0156886D01*
X0042606Y0156705D01*
X0042678Y0156525D01*
X0042753Y0156348D01*
X0042833Y0156172D01*
X0042917Y0155999D01*
X0043006Y0155827D01*
X0043098Y0155658D01*
X0043195Y0155491D01*
X0043296Y0155326D01*
X0043401Y0155164D01*
X0043509Y0155005D01*
X0043622Y0154848D01*
X0043738Y0154694D01*
X0043858Y0154543D01*
X0043981Y0154395D01*
X0044109Y0154250D01*
X0044239Y0154108D01*
X0044373Y0153969D01*
X0044511Y0153834D01*
X0044651Y0153702D01*
X0044795Y0153573D01*
X0044942Y0153448D01*
X0045092Y0153326D01*
X0045245Y0153209D01*
X0045401Y0153095D01*
X0045559Y0152985D01*
X0045720Y0152878D01*
X0045884Y0152776D01*
X0046050Y0152678D01*
X0046218Y0152583D01*
X0046389Y0152493D01*
X0046562Y0152407D01*
X0046736Y0152326D01*
X0046913Y0152248D01*
X0047092Y0152175D01*
X0047272Y0152107D01*
X0047454Y0152042D01*
X0047637Y0151982D01*
X0047822Y0151927D01*
X0048008Y0151876D01*
X0048196Y0151830D01*
X0048384Y0151788D01*
X0048573Y0151751D01*
X0048763Y0151719D01*
X0048954Y0151691D01*
X0049146Y0151667D01*
X0049338Y0151649D01*
X0049530Y0151635D01*
X0049723Y0151626D01*
X0049916Y0151621D01*
X0050109Y0151622D01*
X0050302Y0151627D01*
X0050495Y0151636D01*
X0050687Y0151651D01*
X0050879Y0151670D01*
X0059534Y0158267D02*
X0061302Y0158267D01*
X0061302Y0160919D01*
X0062435Y0160035D02*
X0062435Y0158267D01*
X0062435Y0159593D02*
X0064202Y0159593D01*
X0064202Y0160035D02*
X0064202Y0158267D01*
X0064202Y0160035D02*
X0063318Y0160919D01*
X0062435Y0160035D01*
X0065335Y0160919D02*
X0067103Y0160919D01*
X0066219Y0160919D02*
X0066219Y0158267D01*
X0068235Y0158267D02*
X0070003Y0160919D01*
X0068235Y0160919D02*
X0070003Y0158267D01*
X0070095Y0165513D02*
X0070095Y0185513D01*
X0070067Y0185727D01*
X0070044Y0185942D01*
X0070027Y0186158D01*
X0070015Y0186374D01*
X0070008Y0186590D01*
X0070006Y0186806D01*
X0070010Y0187023D01*
X0070019Y0187239D01*
X0070033Y0187454D01*
X0070053Y0187670D01*
X0070077Y0187885D01*
X0070108Y0188099D01*
X0070143Y0188312D01*
X0070183Y0188525D01*
X0070229Y0188736D01*
X0070280Y0188946D01*
X0070336Y0189155D01*
X0070397Y0189363D01*
X0070463Y0189568D01*
X0070534Y0189773D01*
X0070610Y0189975D01*
X0070691Y0190176D01*
X0070777Y0190374D01*
X0070868Y0190570D01*
X0070964Y0190764D01*
X0071064Y0190956D01*
X0071169Y0191145D01*
X0071278Y0191332D01*
X0071392Y0191515D01*
X0071511Y0191696D01*
X0071634Y0191874D01*
X0071761Y0192049D01*
X0071892Y0192221D01*
X0072028Y0192389D01*
X0072168Y0192554D01*
X0072311Y0192716D01*
X0072459Y0192874D01*
X0072610Y0193028D01*
X0072765Y0193179D01*
X0072924Y0193326D01*
X0073086Y0193469D01*
X0073252Y0193608D01*
X0073421Y0193742D01*
X0073594Y0193873D01*
X0073769Y0193999D01*
X0073948Y0194121D01*
X0074129Y0194239D01*
X0074314Y0194352D01*
X0074501Y0194461D01*
X0074690Y0194565D01*
X0074882Y0194664D01*
X0075077Y0194759D01*
X0075274Y0194848D01*
X0075472Y0194933D01*
X0075673Y0195013D01*
X0075876Y0195088D01*
X0076081Y0195159D01*
X0076287Y0195224D01*
X0076495Y0195284D01*
X0076704Y0195339D01*
X0076914Y0195389D01*
X0077126Y0195433D01*
X0077339Y0195473D01*
X0077552Y0195507D01*
X0077766Y0195536D01*
X0077981Y0195560D01*
X0078197Y0195578D01*
X0078413Y0195591D01*
X0078629Y0195599D01*
X0078845Y0195602D01*
X0079061Y0195599D01*
X0079277Y0195591D01*
X0079493Y0195578D01*
X0079709Y0195560D01*
X0079924Y0195536D01*
X0080138Y0195507D01*
X0080351Y0195473D01*
X0080564Y0195433D01*
X0080776Y0195389D01*
X0080986Y0195339D01*
X0081195Y0195284D01*
X0081403Y0195224D01*
X0081609Y0195159D01*
X0081814Y0195088D01*
X0082017Y0195013D01*
X0082218Y0194933D01*
X0082416Y0194848D01*
X0082613Y0194759D01*
X0082808Y0194664D01*
X0083000Y0194565D01*
X0083189Y0194461D01*
X0083376Y0194352D01*
X0083561Y0194239D01*
X0083742Y0194121D01*
X0083921Y0193999D01*
X0084096Y0193873D01*
X0084269Y0193742D01*
X0084438Y0193608D01*
X0084604Y0193469D01*
X0084766Y0193326D01*
X0084925Y0193179D01*
X0085080Y0193028D01*
X0085231Y0192874D01*
X0085379Y0192716D01*
X0085522Y0192554D01*
X0085662Y0192389D01*
X0085798Y0192221D01*
X0085929Y0192049D01*
X0086056Y0191874D01*
X0086179Y0191696D01*
X0086298Y0191515D01*
X0086412Y0191332D01*
X0086521Y0191145D01*
X0086626Y0190956D01*
X0086726Y0190764D01*
X0086822Y0190570D01*
X0086913Y0190374D01*
X0086999Y0190176D01*
X0087080Y0189975D01*
X0087156Y0189773D01*
X0087227Y0189568D01*
X0087293Y0189363D01*
X0087354Y0189155D01*
X0087410Y0188946D01*
X0087461Y0188736D01*
X0087507Y0188525D01*
X0087547Y0188312D01*
X0087582Y0188099D01*
X0087613Y0187885D01*
X0087637Y0187670D01*
X0087657Y0187454D01*
X0087671Y0187239D01*
X0087680Y0187023D01*
X0087684Y0186806D01*
X0087682Y0186590D01*
X0087675Y0186374D01*
X0087663Y0186158D01*
X0087646Y0185942D01*
X0087623Y0185727D01*
X0087595Y0185513D01*
X0087595Y0165513D01*
X0115595Y0142513D02*
X0114837Y0141773D01*
X0114061Y0141051D01*
X0113268Y0140349D01*
X0112459Y0139665D01*
X0111633Y0139002D01*
X0110791Y0138359D01*
X0109934Y0137736D01*
X0109062Y0137134D01*
X0108176Y0136554D01*
X0107276Y0135995D01*
X0106362Y0135458D01*
X0105436Y0134943D01*
X0104498Y0134450D01*
X0103549Y0133981D01*
X0102588Y0133534D01*
X0101617Y0133111D01*
X0100635Y0132712D01*
X0099645Y0132336D01*
X0098645Y0131984D01*
X0097638Y0131657D01*
X0096623Y0131354D01*
X0095600Y0131076D01*
X0094572Y0130822D01*
X0093537Y0130594D01*
X0092498Y0130390D01*
X0091453Y0130212D01*
X0090405Y0130059D01*
X0089353Y0129931D01*
X0088299Y0129829D01*
X0087242Y0129752D01*
X0086184Y0129701D01*
X0085125Y0129675D01*
X0084065Y0129675D01*
X0083006Y0129701D01*
X0081948Y0129752D01*
X0080891Y0129829D01*
X0079837Y0129931D01*
X0078785Y0130059D01*
X0077737Y0130212D01*
X0076692Y0130390D01*
X0075653Y0130594D01*
X0074618Y0130822D01*
X0073590Y0131076D01*
X0072567Y0131354D01*
X0071552Y0131657D01*
X0070545Y0131984D01*
X0069545Y0132336D01*
X0068555Y0132712D01*
X0067573Y0133111D01*
X0066602Y0133534D01*
X0065641Y0133981D01*
X0064692Y0134450D01*
X0063754Y0134943D01*
X0062828Y0135458D01*
X0061914Y0135995D01*
X0061014Y0136554D01*
X0060128Y0137134D01*
X0059256Y0137736D01*
X0058399Y0138359D01*
X0057557Y0139002D01*
X0056731Y0139665D01*
X0055922Y0140349D01*
X0055129Y0141051D01*
X0054353Y0141773D01*
X0053595Y0142513D01*
X0063068Y0152954D02*
X0122123Y0152954D01*
X0125595Y0142702D02*
X0135816Y0132702D01*
X0135816Y0111969D01*
X0139335Y0111969D01*
X0139335Y0099056D01*
X0135816Y0099056D01*
X0135816Y0076056D01*
X0036367Y0105513D02*
X0036382Y0106697D01*
X0036425Y0107879D01*
X0036498Y0109061D01*
X0036599Y0110240D01*
X0036730Y0111417D01*
X0036889Y0112590D01*
X0037077Y0113758D01*
X0037294Y0114922D01*
X0037539Y0116080D01*
X0037812Y0117231D01*
X0038114Y0118376D01*
X0038444Y0119513D01*
X0038801Y0120641D01*
X0039186Y0121761D01*
X0039599Y0122870D01*
X0040038Y0123969D01*
X0040504Y0125057D01*
X0040997Y0126133D01*
X0041517Y0127197D01*
X0042062Y0128248D01*
X0042632Y0129284D01*
X0043228Y0130307D01*
X0043849Y0131315D01*
X0044495Y0132307D01*
X0045165Y0133283D01*
X0045858Y0134242D01*
X0046575Y0135184D01*
X0047314Y0136109D01*
X0048076Y0137014D01*
X0048860Y0137901D01*
X0049666Y0138768D01*
X0050493Y0139615D01*
X0051340Y0140442D01*
X0052207Y0141248D01*
X0053094Y0142032D01*
X0053999Y0142794D01*
X0054924Y0143533D01*
X0055866Y0144250D01*
X0056825Y0144943D01*
X0057801Y0145613D01*
X0058793Y0146259D01*
X0059801Y0146880D01*
X0060824Y0147476D01*
X0061860Y0148046D01*
X0062911Y0148591D01*
X0063975Y0149111D01*
X0065051Y0149604D01*
X0066139Y0150070D01*
X0067238Y0150509D01*
X0068347Y0150922D01*
X0069467Y0151307D01*
X0070595Y0151664D01*
X0071732Y0151994D01*
X0072877Y0152296D01*
X0074028Y0152569D01*
X0075186Y0152814D01*
X0076350Y0153031D01*
X0077518Y0153219D01*
X0078691Y0153378D01*
X0079868Y0153509D01*
X0081047Y0153610D01*
X0082229Y0153683D01*
X0083411Y0153726D01*
X0084595Y0153741D01*
X0085779Y0153726D01*
X0086961Y0153683D01*
X0088143Y0153610D01*
X0089322Y0153509D01*
X0090499Y0153378D01*
X0091672Y0153219D01*
X0092840Y0153031D01*
X0094004Y0152814D01*
X0095162Y0152569D01*
X0096313Y0152296D01*
X0097458Y0151994D01*
X0098595Y0151664D01*
X0099723Y0151307D01*
X0100843Y0150922D01*
X0101952Y0150509D01*
X0103051Y0150070D01*
X0104139Y0149604D01*
X0105215Y0149111D01*
X0106279Y0148591D01*
X0107330Y0148046D01*
X0108366Y0147476D01*
X0109389Y0146880D01*
X0110397Y0146259D01*
X0111389Y0145613D01*
X0112365Y0144943D01*
X0113324Y0144250D01*
X0114266Y0143533D01*
X0115191Y0142794D01*
X0116096Y0142032D01*
X0116983Y0141248D01*
X0117850Y0140442D01*
X0118697Y0139615D01*
X0119524Y0138768D01*
X0120330Y0137901D01*
X0121114Y0137014D01*
X0121876Y0136109D01*
X0122615Y0135184D01*
X0123332Y0134242D01*
X0124025Y0133283D01*
X0124695Y0132307D01*
X0125341Y0131315D01*
X0125962Y0130307D01*
X0126558Y0129284D01*
X0127128Y0128248D01*
X0127673Y0127197D01*
X0128193Y0126133D01*
X0128686Y0125057D01*
X0129152Y0123969D01*
X0129591Y0122870D01*
X0130004Y0121761D01*
X0130389Y0120641D01*
X0130746Y0119513D01*
X0131076Y0118376D01*
X0131378Y0117231D01*
X0131651Y0116080D01*
X0131896Y0114922D01*
X0132113Y0113758D01*
X0132301Y0112590D01*
X0132460Y0111417D01*
X0132591Y0110240D01*
X0132692Y0109061D01*
X0132765Y0107879D01*
X0132808Y0106697D01*
X0132823Y0105513D01*
X0132808Y0104329D01*
X0132765Y0103147D01*
X0132692Y0101965D01*
X0132591Y0100786D01*
X0132460Y0099609D01*
X0132301Y0098436D01*
X0132113Y0097268D01*
X0131896Y0096104D01*
X0131651Y0094946D01*
X0131378Y0093795D01*
X0131076Y0092650D01*
X0130746Y0091513D01*
X0130389Y0090385D01*
X0130004Y0089265D01*
X0129591Y0088156D01*
X0129152Y0087057D01*
X0128686Y0085969D01*
X0128193Y0084893D01*
X0127673Y0083829D01*
X0127128Y0082778D01*
X0126558Y0081742D01*
X0125962Y0080719D01*
X0125341Y0079711D01*
X0124695Y0078719D01*
X0124025Y0077743D01*
X0123332Y0076784D01*
X0122615Y0075842D01*
X0121876Y0074917D01*
X0121114Y0074012D01*
X0120330Y0073125D01*
X0119524Y0072258D01*
X0118697Y0071411D01*
X0117850Y0070584D01*
X0116983Y0069778D01*
X0116096Y0068994D01*
X0115191Y0068232D01*
X0114266Y0067493D01*
X0113324Y0066776D01*
X0112365Y0066083D01*
X0111389Y0065413D01*
X0110397Y0064767D01*
X0109389Y0064146D01*
X0108366Y0063550D01*
X0107330Y0062980D01*
X0106279Y0062435D01*
X0105215Y0061915D01*
X0104139Y0061422D01*
X0103051Y0060956D01*
X0101952Y0060517D01*
X0100843Y0060104D01*
X0099723Y0059719D01*
X0098595Y0059362D01*
X0097458Y0059032D01*
X0096313Y0058730D01*
X0095162Y0058457D01*
X0094004Y0058212D01*
X0092840Y0057995D01*
X0091672Y0057807D01*
X0090499Y0057648D01*
X0089322Y0057517D01*
X0088143Y0057416D01*
X0086961Y0057343D01*
X0085779Y0057300D01*
X0084595Y0057285D01*
X0083411Y0057300D01*
X0082229Y0057343D01*
X0081047Y0057416D01*
X0079868Y0057517D01*
X0078691Y0057648D01*
X0077518Y0057807D01*
X0076350Y0057995D01*
X0075186Y0058212D01*
X0074028Y0058457D01*
X0072877Y0058730D01*
X0071732Y0059032D01*
X0070595Y0059362D01*
X0069467Y0059719D01*
X0068347Y0060104D01*
X0067238Y0060517D01*
X0066139Y0060956D01*
X0065051Y0061422D01*
X0063975Y0061915D01*
X0062911Y0062435D01*
X0061860Y0062980D01*
X0060824Y0063550D01*
X0059801Y0064146D01*
X0058793Y0064767D01*
X0057801Y0065413D01*
X0056825Y0066083D01*
X0055866Y0066776D01*
X0054924Y0067493D01*
X0053999Y0068232D01*
X0053094Y0068994D01*
X0052207Y0069778D01*
X0051340Y0070584D01*
X0050493Y0071411D01*
X0049666Y0072258D01*
X0048860Y0073125D01*
X0048076Y0074012D01*
X0047314Y0074917D01*
X0046575Y0075842D01*
X0045858Y0076784D01*
X0045165Y0077743D01*
X0044495Y0078719D01*
X0043849Y0079711D01*
X0043228Y0080719D01*
X0042632Y0081742D01*
X0042062Y0082778D01*
X0041517Y0083829D01*
X0040997Y0084893D01*
X0040504Y0085969D01*
X0040038Y0087057D01*
X0039599Y0088156D01*
X0039186Y0089265D01*
X0038801Y0090385D01*
X0038444Y0091513D01*
X0038114Y0092650D01*
X0037812Y0093795D01*
X0037539Y0094946D01*
X0037294Y0096104D01*
X0037077Y0097268D01*
X0036889Y0098436D01*
X0036730Y0099609D01*
X0036599Y0100786D01*
X0036498Y0101965D01*
X0036425Y0103147D01*
X0036382Y0104329D01*
X0036367Y0105513D01*
X0070095Y0165513D02*
X0070098Y0165300D01*
X0070105Y0165087D01*
X0070118Y0164874D01*
X0070136Y0164662D01*
X0070160Y0164450D01*
X0070188Y0164239D01*
X0070222Y0164029D01*
X0070261Y0163819D01*
X0070304Y0163610D01*
X0070353Y0163403D01*
X0070407Y0163197D01*
X0070466Y0162992D01*
X0070530Y0162789D01*
X0070599Y0162587D01*
X0070672Y0162387D01*
X0070751Y0162189D01*
X0070834Y0161993D01*
X0070922Y0161799D01*
X0071015Y0161607D01*
X0071113Y0161418D01*
X0071215Y0161231D01*
X0071321Y0161046D01*
X0071432Y0160864D01*
X0071548Y0160685D01*
X0071667Y0160509D01*
X0071791Y0160335D01*
X0071919Y0160165D01*
X0072052Y0159998D01*
X0072188Y0159834D01*
X0072328Y0159674D01*
X0072472Y0159517D01*
X0072620Y0159364D01*
X0072772Y0159214D01*
X0072927Y0159068D01*
X0073086Y0158926D01*
X0073248Y0158787D01*
X0073413Y0158653D01*
X0073582Y0158523D01*
X0073754Y0158397D01*
X0073929Y0158275D01*
X0074106Y0158157D01*
X0074287Y0158044D01*
X0074470Y0157935D01*
X0074656Y0157831D01*
X0074844Y0157731D01*
X0075035Y0157636D01*
X0075228Y0157546D01*
X0075423Y0157460D01*
X0075620Y0157379D01*
X0075819Y0157303D01*
X0076020Y0157232D01*
X0076222Y0157165D01*
X0076426Y0157104D01*
X0076632Y0157048D01*
X0076839Y0156996D01*
X0077047Y0156950D01*
X0077256Y0156909D01*
X0077466Y0156872D01*
X0077676Y0156841D01*
X0077888Y0156815D01*
X0078100Y0156795D01*
X0078313Y0156779D01*
X0078525Y0156769D01*
X0078738Y0156764D01*
X0078952Y0156764D01*
X0079165Y0156769D01*
X0079377Y0156779D01*
X0079590Y0156795D01*
X0079802Y0156815D01*
X0080014Y0156841D01*
X0080224Y0156872D01*
X0080434Y0156909D01*
X0080643Y0156950D01*
X0080851Y0156996D01*
X0081058Y0157048D01*
X0081264Y0157104D01*
X0081468Y0157165D01*
X0081670Y0157232D01*
X0081871Y0157303D01*
X0082070Y0157379D01*
X0082267Y0157460D01*
X0082462Y0157546D01*
X0082655Y0157636D01*
X0082846Y0157731D01*
X0083034Y0157831D01*
X0083220Y0157935D01*
X0083403Y0158044D01*
X0083584Y0158157D01*
X0083761Y0158275D01*
X0083936Y0158397D01*
X0084108Y0158523D01*
X0084277Y0158653D01*
X0084442Y0158787D01*
X0084604Y0158926D01*
X0084763Y0159068D01*
X0084918Y0159214D01*
X0085070Y0159364D01*
X0085218Y0159517D01*
X0085362Y0159674D01*
X0085502Y0159834D01*
X0085638Y0159998D01*
X0085771Y0160165D01*
X0085899Y0160335D01*
X0086023Y0160509D01*
X0086142Y0160685D01*
X0086258Y0160864D01*
X0086369Y0161046D01*
X0086475Y0161231D01*
X0086577Y0161418D01*
X0086675Y0161607D01*
X0086768Y0161799D01*
X0086856Y0161993D01*
X0086939Y0162189D01*
X0087018Y0162387D01*
X0087091Y0162587D01*
X0087160Y0162789D01*
X0087224Y0162992D01*
X0087283Y0163197D01*
X0087337Y0163403D01*
X0087386Y0163610D01*
X0087429Y0163819D01*
X0087468Y0164029D01*
X0087502Y0164239D01*
X0087530Y0164450D01*
X0087554Y0164662D01*
X0087572Y0164874D01*
X0087585Y0165087D01*
X0087592Y0165300D01*
X0087595Y0165513D01*
X0041951Y0190166D02*
X0041954Y0190440D01*
X0041964Y0190715D01*
X0041981Y0190988D01*
X0042005Y0191262D01*
X0042035Y0191535D01*
X0042072Y0191806D01*
X0042116Y0192077D01*
X0042166Y0192347D01*
X0042223Y0192616D01*
X0042286Y0192883D01*
X0042356Y0193148D01*
X0042432Y0193411D01*
X0042515Y0193673D01*
X0042605Y0193932D01*
X0042700Y0194190D01*
X0042802Y0194444D01*
X0042910Y0194697D01*
X0043024Y0194946D01*
X0043145Y0195193D01*
X0043271Y0195436D01*
X0043403Y0195677D01*
X0043542Y0195914D01*
X0043686Y0196147D01*
X0043835Y0196377D01*
X0043990Y0196604D01*
X0044151Y0196826D01*
X0044317Y0197044D01*
X0044489Y0197259D01*
X0044665Y0197468D01*
X0044847Y0197674D01*
X0045034Y0197875D01*
X0045226Y0198071D01*
X0045422Y0198263D01*
X0045623Y0198450D01*
X0045829Y0198632D01*
X0046038Y0198808D01*
X0046253Y0198980D01*
X0046471Y0199146D01*
X0046693Y0199307D01*
X0046920Y0199462D01*
X0047150Y0199611D01*
X0047383Y0199755D01*
X0047620Y0199894D01*
X0047861Y0200026D01*
X0048104Y0200152D01*
X0048351Y0200273D01*
X0048600Y0200387D01*
X0048853Y0200495D01*
X0049107Y0200597D01*
X0049365Y0200692D01*
X0049624Y0200782D01*
X0049886Y0200865D01*
X0050149Y0200941D01*
X0050414Y0201011D01*
X0050681Y0201074D01*
X0050950Y0201131D01*
X0051220Y0201181D01*
X0051491Y0201225D01*
X0051762Y0201262D01*
X0052035Y0201292D01*
X0052309Y0201316D01*
X0052582Y0201333D01*
X0052857Y0201343D01*
X0053131Y0201346D01*
X0053405Y0201343D01*
X0053680Y0201333D01*
X0053953Y0201316D01*
X0054227Y0201292D01*
X0054500Y0201262D01*
X0054771Y0201225D01*
X0055042Y0201181D01*
X0055312Y0201131D01*
X0055581Y0201074D01*
X0055848Y0201011D01*
X0056113Y0200941D01*
X0056376Y0200865D01*
X0056638Y0200782D01*
X0056897Y0200692D01*
X0057155Y0200597D01*
X0057409Y0200495D01*
X0057662Y0200387D01*
X0057911Y0200273D01*
X0058158Y0200152D01*
X0058401Y0200026D01*
X0058642Y0199894D01*
X0058879Y0199755D01*
X0059112Y0199611D01*
X0059342Y0199462D01*
X0059569Y0199307D01*
X0059791Y0199146D01*
X0060009Y0198980D01*
X0060224Y0198808D01*
X0060433Y0198632D01*
X0060639Y0198450D01*
X0060840Y0198263D01*
X0061036Y0198071D01*
X0061228Y0197875D01*
X0061415Y0197674D01*
X0061597Y0197468D01*
X0061773Y0197259D01*
X0061945Y0197044D01*
X0062111Y0196826D01*
X0062272Y0196604D01*
X0062427Y0196377D01*
X0062576Y0196147D01*
X0062720Y0195914D01*
X0062859Y0195677D01*
X0062991Y0195436D01*
X0063117Y0195193D01*
X0063238Y0194946D01*
X0063352Y0194697D01*
X0063460Y0194444D01*
X0063562Y0194190D01*
X0063657Y0193932D01*
X0063747Y0193673D01*
X0063830Y0193411D01*
X0063906Y0193148D01*
X0063976Y0192883D01*
X0064039Y0192616D01*
X0064096Y0192347D01*
X0064146Y0192077D01*
X0064190Y0191806D01*
X0064227Y0191535D01*
X0064257Y0191262D01*
X0064281Y0190988D01*
X0064298Y0190715D01*
X0064308Y0190440D01*
X0064311Y0190166D01*
X0064308Y0189892D01*
X0064298Y0189617D01*
X0064281Y0189344D01*
X0064257Y0189070D01*
X0064227Y0188797D01*
X0064190Y0188526D01*
X0064146Y0188255D01*
X0064096Y0187985D01*
X0064039Y0187716D01*
X0063976Y0187449D01*
X0063906Y0187184D01*
X0063830Y0186921D01*
X0063747Y0186659D01*
X0063657Y0186400D01*
X0063562Y0186142D01*
X0063460Y0185888D01*
X0063352Y0185635D01*
X0063238Y0185386D01*
X0063117Y0185139D01*
X0062991Y0184896D01*
X0062859Y0184655D01*
X0062720Y0184418D01*
X0062576Y0184185D01*
X0062427Y0183955D01*
X0062272Y0183728D01*
X0062111Y0183506D01*
X0061945Y0183288D01*
X0061773Y0183073D01*
X0061597Y0182864D01*
X0061415Y0182658D01*
X0061228Y0182457D01*
X0061036Y0182261D01*
X0060840Y0182069D01*
X0060639Y0181882D01*
X0060433Y0181700D01*
X0060224Y0181524D01*
X0060009Y0181352D01*
X0059791Y0181186D01*
X0059569Y0181025D01*
X0059342Y0180870D01*
X0059112Y0180721D01*
X0058879Y0180577D01*
X0058642Y0180438D01*
X0058401Y0180306D01*
X0058158Y0180180D01*
X0057911Y0180059D01*
X0057662Y0179945D01*
X0057409Y0179837D01*
X0057155Y0179735D01*
X0056897Y0179640D01*
X0056638Y0179550D01*
X0056376Y0179467D01*
X0056113Y0179391D01*
X0055848Y0179321D01*
X0055581Y0179258D01*
X0055312Y0179201D01*
X0055042Y0179151D01*
X0054771Y0179107D01*
X0054500Y0179070D01*
X0054227Y0179040D01*
X0053953Y0179016D01*
X0053680Y0178999D01*
X0053405Y0178989D01*
X0053131Y0178986D01*
X0052857Y0178989D01*
X0052582Y0178999D01*
X0052309Y0179016D01*
X0052035Y0179040D01*
X0051762Y0179070D01*
X0051491Y0179107D01*
X0051220Y0179151D01*
X0050950Y0179201D01*
X0050681Y0179258D01*
X0050414Y0179321D01*
X0050149Y0179391D01*
X0049886Y0179467D01*
X0049624Y0179550D01*
X0049365Y0179640D01*
X0049107Y0179735D01*
X0048853Y0179837D01*
X0048600Y0179945D01*
X0048351Y0180059D01*
X0048104Y0180180D01*
X0047861Y0180306D01*
X0047620Y0180438D01*
X0047383Y0180577D01*
X0047150Y0180721D01*
X0046920Y0180870D01*
X0046693Y0181025D01*
X0046471Y0181186D01*
X0046253Y0181352D01*
X0046038Y0181524D01*
X0045829Y0181700D01*
X0045623Y0181882D01*
X0045422Y0182069D01*
X0045226Y0182261D01*
X0045034Y0182457D01*
X0044847Y0182658D01*
X0044665Y0182864D01*
X0044489Y0183073D01*
X0044317Y0183288D01*
X0044151Y0183506D01*
X0043990Y0183728D01*
X0043835Y0183955D01*
X0043686Y0184185D01*
X0043542Y0184418D01*
X0043403Y0184655D01*
X0043271Y0184896D01*
X0043145Y0185139D01*
X0043024Y0185386D01*
X0042910Y0185635D01*
X0042802Y0185888D01*
X0042700Y0186142D01*
X0042605Y0186400D01*
X0042515Y0186659D01*
X0042432Y0186921D01*
X0042356Y0187184D01*
X0042286Y0187449D01*
X0042223Y0187716D01*
X0042166Y0187985D01*
X0042116Y0188255D01*
X0042072Y0188526D01*
X0042035Y0188797D01*
X0042005Y0189070D01*
X0041981Y0189344D01*
X0041964Y0189617D01*
X0041954Y0189892D01*
X0041951Y0190166D01*
X0063068Y0208072D02*
X0122123Y0208072D01*
X0125595Y0142513D02*
X0125473Y0142632D01*
X0125348Y0142749D01*
X0125220Y0142862D01*
X0125089Y0142972D01*
X0124956Y0143079D01*
X0124820Y0143183D01*
X0124682Y0143283D01*
X0124541Y0143380D01*
X0124398Y0143474D01*
X0124253Y0143564D01*
X0124106Y0143651D01*
X0123956Y0143734D01*
X0123805Y0143813D01*
X0123652Y0143889D01*
X0123497Y0143961D01*
X0123340Y0144029D01*
X0123182Y0144094D01*
X0123022Y0144154D01*
X0122861Y0144211D01*
X0122699Y0144264D01*
X0122535Y0144313D01*
X0122370Y0144358D01*
X0122204Y0144398D01*
X0122037Y0144435D01*
X0121870Y0144468D01*
X0121701Y0144497D01*
X0121532Y0144522D01*
X0121362Y0144542D01*
X0121192Y0144559D01*
X0121022Y0144571D01*
X0120851Y0144579D01*
X0120680Y0144583D01*
X0120510Y0144583D01*
X0120339Y0144579D01*
X0120168Y0144571D01*
X0119998Y0144559D01*
X0119828Y0144542D01*
X0119658Y0144522D01*
X0119489Y0144497D01*
X0119320Y0144468D01*
X0119153Y0144435D01*
X0118986Y0144398D01*
X0118820Y0144358D01*
X0118655Y0144313D01*
X0118491Y0144264D01*
X0118329Y0144211D01*
X0118168Y0144154D01*
X0118008Y0144094D01*
X0117850Y0144029D01*
X0117693Y0143961D01*
X0117538Y0143889D01*
X0117385Y0143813D01*
X0117234Y0143734D01*
X0117084Y0143651D01*
X0116937Y0143564D01*
X0116792Y0143474D01*
X0116649Y0143380D01*
X0116508Y0143283D01*
X0116370Y0143183D01*
X0116234Y0143079D01*
X0116101Y0142972D01*
X0115970Y0142862D01*
X0115842Y0142749D01*
X0115717Y0142632D01*
X0115595Y0142513D01*
D15*
X0114661Y0186813D02*
X0114661Y0190216D01*
X0112393Y0186813D01*
X0112393Y0190216D01*
X0110978Y0190216D02*
X0109277Y0190216D01*
X0108710Y0189649D01*
X0108710Y0187380D01*
X0109277Y0186813D01*
X0110978Y0186813D01*
X0110978Y0190216D01*
X0110411Y0194313D02*
X0109277Y0194313D01*
X0108710Y0194880D01*
X0110411Y0194313D02*
X0110978Y0194880D01*
X0110978Y0197149D01*
X0110411Y0197716D01*
X0109277Y0197716D01*
X0108710Y0197149D01*
X0112393Y0197149D02*
X0112960Y0197716D01*
X0114094Y0197716D01*
X0114661Y0197149D01*
X0114661Y0194880D01*
X0114094Y0194313D01*
X0112960Y0194313D01*
X0112393Y0194880D01*
X0116076Y0195447D02*
X0116076Y0197716D01*
X0118345Y0197716D02*
X0118345Y0195447D01*
X0117210Y0194313D01*
X0116076Y0195447D01*
X0116643Y0190216D02*
X0117777Y0190216D01*
X0118345Y0189649D01*
X0118345Y0187380D01*
X0117777Y0186813D01*
X0116643Y0186813D01*
X0116076Y0187380D01*
X0116076Y0188514D01*
X0117210Y0188514D01*
X0116076Y0189649D02*
X0116643Y0190216D01*
X0116690Y0201813D02*
X0116690Y0204081D01*
X0117824Y0205216D01*
X0118958Y0204081D01*
X0118958Y0201813D01*
X0118958Y0203514D02*
X0116690Y0203514D01*
X0115275Y0204081D02*
X0113574Y0204081D01*
X0113007Y0203514D01*
X0113007Y0201813D01*
X0111025Y0202380D02*
X0111025Y0204649D01*
X0111592Y0204081D02*
X0110458Y0204081D01*
X0111025Y0202380D02*
X0110458Y0201813D01*
X0109137Y0201813D02*
X0108570Y0201813D01*
X0108570Y0202380D01*
X0109137Y0202380D01*
X0109137Y0201813D01*
X0115275Y0201813D02*
X0115275Y0204081D01*
D16*
X0138922Y0185989D02*
X0138924Y0186070D01*
X0138930Y0186152D01*
X0138940Y0186233D01*
X0138954Y0186313D01*
X0138971Y0186392D01*
X0138993Y0186471D01*
X0139018Y0186548D01*
X0139047Y0186625D01*
X0139080Y0186699D01*
X0139117Y0186772D01*
X0139156Y0186843D01*
X0139200Y0186912D01*
X0139246Y0186979D01*
X0139296Y0187043D01*
X0139349Y0187105D01*
X0139405Y0187165D01*
X0139463Y0187221D01*
X0139525Y0187275D01*
X0139589Y0187326D01*
X0139655Y0187373D01*
X0139723Y0187417D01*
X0139794Y0187458D01*
X0139866Y0187495D01*
X0139941Y0187529D01*
X0140016Y0187559D01*
X0140094Y0187585D01*
X0140172Y0187608D01*
X0140251Y0187626D01*
X0140331Y0187641D01*
X0140412Y0187652D01*
X0140493Y0187659D01*
X0140575Y0187662D01*
X0140656Y0187661D01*
X0140737Y0187656D01*
X0140818Y0187647D01*
X0140899Y0187634D01*
X0140979Y0187617D01*
X0141057Y0187597D01*
X0141135Y0187572D01*
X0141212Y0187544D01*
X0141287Y0187512D01*
X0141360Y0187477D01*
X0141431Y0187438D01*
X0141501Y0187395D01*
X0141568Y0187350D01*
X0141634Y0187301D01*
X0141696Y0187249D01*
X0141756Y0187193D01*
X0141813Y0187135D01*
X0141868Y0187075D01*
X0141919Y0187011D01*
X0141967Y0186946D01*
X0142012Y0186878D01*
X0142054Y0186808D01*
X0142092Y0186736D01*
X0142127Y0186662D01*
X0142158Y0186587D01*
X0142185Y0186510D01*
X0142208Y0186432D01*
X0142228Y0186353D01*
X0142244Y0186273D01*
X0142256Y0186192D01*
X0142264Y0186111D01*
X0142268Y0186030D01*
X0142268Y0185948D01*
X0142264Y0185867D01*
X0142256Y0185786D01*
X0142244Y0185705D01*
X0142228Y0185625D01*
X0142208Y0185546D01*
X0142185Y0185468D01*
X0142158Y0185391D01*
X0142127Y0185316D01*
X0142092Y0185242D01*
X0142054Y0185170D01*
X0142012Y0185100D01*
X0141967Y0185032D01*
X0141919Y0184967D01*
X0141868Y0184903D01*
X0141813Y0184843D01*
X0141756Y0184785D01*
X0141696Y0184729D01*
X0141634Y0184677D01*
X0141568Y0184628D01*
X0141501Y0184583D01*
X0141432Y0184540D01*
X0141360Y0184501D01*
X0141287Y0184466D01*
X0141212Y0184434D01*
X0141135Y0184406D01*
X0141057Y0184381D01*
X0140979Y0184361D01*
X0140899Y0184344D01*
X0140818Y0184331D01*
X0140737Y0184322D01*
X0140656Y0184317D01*
X0140575Y0184316D01*
X0140493Y0184319D01*
X0140412Y0184326D01*
X0140331Y0184337D01*
X0140251Y0184352D01*
X0140172Y0184370D01*
X0140094Y0184393D01*
X0140016Y0184419D01*
X0139941Y0184449D01*
X0139866Y0184483D01*
X0139794Y0184520D01*
X0139723Y0184561D01*
X0139655Y0184605D01*
X0139589Y0184652D01*
X0139525Y0184703D01*
X0139463Y0184757D01*
X0139405Y0184813D01*
X0139349Y0184873D01*
X0139296Y0184935D01*
X0139246Y0184999D01*
X0139200Y0185066D01*
X0139156Y0185135D01*
X0139117Y0185206D01*
X0139080Y0185279D01*
X0139047Y0185353D01*
X0139018Y0185430D01*
X0138993Y0185507D01*
X0138971Y0185586D01*
X0138954Y0185665D01*
X0138940Y0185745D01*
X0138930Y0185826D01*
X0138924Y0185908D01*
X0138922Y0185989D01*
X0138922Y0174036D02*
X0138924Y0174117D01*
X0138930Y0174199D01*
X0138940Y0174280D01*
X0138954Y0174360D01*
X0138971Y0174439D01*
X0138993Y0174518D01*
X0139018Y0174595D01*
X0139047Y0174672D01*
X0139080Y0174746D01*
X0139117Y0174819D01*
X0139156Y0174890D01*
X0139200Y0174959D01*
X0139246Y0175026D01*
X0139296Y0175090D01*
X0139349Y0175152D01*
X0139405Y0175212D01*
X0139463Y0175268D01*
X0139525Y0175322D01*
X0139589Y0175373D01*
X0139655Y0175420D01*
X0139723Y0175464D01*
X0139794Y0175505D01*
X0139866Y0175542D01*
X0139941Y0175576D01*
X0140016Y0175606D01*
X0140094Y0175632D01*
X0140172Y0175655D01*
X0140251Y0175673D01*
X0140331Y0175688D01*
X0140412Y0175699D01*
X0140493Y0175706D01*
X0140575Y0175709D01*
X0140656Y0175708D01*
X0140737Y0175703D01*
X0140818Y0175694D01*
X0140899Y0175681D01*
X0140979Y0175664D01*
X0141057Y0175644D01*
X0141135Y0175619D01*
X0141212Y0175591D01*
X0141287Y0175559D01*
X0141360Y0175524D01*
X0141431Y0175485D01*
X0141501Y0175442D01*
X0141568Y0175397D01*
X0141634Y0175348D01*
X0141696Y0175296D01*
X0141756Y0175240D01*
X0141813Y0175182D01*
X0141868Y0175122D01*
X0141919Y0175058D01*
X0141967Y0174993D01*
X0142012Y0174925D01*
X0142054Y0174855D01*
X0142092Y0174783D01*
X0142127Y0174709D01*
X0142158Y0174634D01*
X0142185Y0174557D01*
X0142208Y0174479D01*
X0142228Y0174400D01*
X0142244Y0174320D01*
X0142256Y0174239D01*
X0142264Y0174158D01*
X0142268Y0174077D01*
X0142268Y0173995D01*
X0142264Y0173914D01*
X0142256Y0173833D01*
X0142244Y0173752D01*
X0142228Y0173672D01*
X0142208Y0173593D01*
X0142185Y0173515D01*
X0142158Y0173438D01*
X0142127Y0173363D01*
X0142092Y0173289D01*
X0142054Y0173217D01*
X0142012Y0173147D01*
X0141967Y0173079D01*
X0141919Y0173014D01*
X0141868Y0172950D01*
X0141813Y0172890D01*
X0141756Y0172832D01*
X0141696Y0172776D01*
X0141634Y0172724D01*
X0141568Y0172675D01*
X0141501Y0172630D01*
X0141432Y0172587D01*
X0141360Y0172548D01*
X0141287Y0172513D01*
X0141212Y0172481D01*
X0141135Y0172453D01*
X0141057Y0172428D01*
X0140979Y0172408D01*
X0140899Y0172391D01*
X0140818Y0172378D01*
X0140737Y0172369D01*
X0140656Y0172364D01*
X0140575Y0172363D01*
X0140493Y0172366D01*
X0140412Y0172373D01*
X0140331Y0172384D01*
X0140251Y0172399D01*
X0140172Y0172417D01*
X0140094Y0172440D01*
X0140016Y0172466D01*
X0139941Y0172496D01*
X0139866Y0172530D01*
X0139794Y0172567D01*
X0139723Y0172608D01*
X0139655Y0172652D01*
X0139589Y0172699D01*
X0139525Y0172750D01*
X0139463Y0172804D01*
X0139405Y0172860D01*
X0139349Y0172920D01*
X0139296Y0172982D01*
X0139246Y0173046D01*
X0139200Y0173113D01*
X0139156Y0173182D01*
X0139117Y0173253D01*
X0139080Y0173326D01*
X0139047Y0173400D01*
X0139018Y0173477D01*
X0138993Y0173554D01*
X0138971Y0173633D01*
X0138954Y0173712D01*
X0138940Y0173792D01*
X0138930Y0173873D01*
X0138924Y0173955D01*
X0138922Y0174036D01*
M02*
