G75*
%MOIN*%
%OFA0B0*%
%FSLAX25Y25*%
%IPPOS*%
%LPD*%
%AMOC8*
5,1,8,0,0,1.08239X$1,22.5*
%
%ADD10C,0.00400*%
%ADD11R,0.05118X0.06299*%
%ADD12R,0.06299X0.05118*%
%ADD13R,0.03937X0.05512*%
%ADD14OC8,0.07600*%
%ADD15C,0.06600*%
%ADD16R,0.05000X0.02200*%
%ADD17R,0.02200X0.05000*%
%ADD18C,0.07400*%
%ADD19C,0.12205*%
%ADD20C,0.05600*%
%ADD21C,0.00875*%
%ADD22OC8,0.07400*%
%ADD23R,0.05500X0.05500*%
%ADD24R,0.04000X0.04500*%
%ADD25R,0.08000X0.07000*%
%ADD26R,0.07874X0.04724*%
%ADD27C,0.00000*%
%ADD28C,0.07677*%
%ADD29C,0.05000*%
%ADD30R,0.04500X0.05600*%
%ADD31C,0.10050*%
%ADD32R,0.05200X0.02200*%
%ADD33C,0.01000*%
%ADD34R,0.06500X0.06500*%
%ADD35C,0.06500*%
%ADD36R,0.07874X0.13780*%
%ADD37C,0.03000*%
%ADD38C,0.07000*%
%ADD39R,0.09055X0.06299*%
%ADD40R,0.06299X0.09055*%
%ADD41R,0.06693X0.02756*%
%ADD42C,0.01600*%
%ADD43C,0.02400*%
%ADD44C,0.01200*%
%ADD45C,0.00800*%
D10*
X0022595Y0027513D02*
X0022595Y0212513D01*
X0146595Y0212513D01*
X0146595Y0122513D01*
X0151095Y0122513D01*
X0151095Y0212513D01*
X0182595Y0212513D01*
X0182595Y0122513D01*
X0187595Y0122513D01*
X0187595Y0212513D01*
X0219095Y0212513D01*
X0219095Y0027513D01*
X0187595Y0027513D01*
X0187595Y0107513D01*
X0182595Y0107513D01*
X0182595Y0027513D01*
X0151095Y0027513D01*
X0151095Y0107513D01*
X0146595Y0107513D01*
X0146595Y0027513D01*
X0022595Y0027513D01*
D11*
X0083655Y0064113D03*
X0091135Y0064113D03*
X0091085Y0087913D03*
X0083605Y0087913D03*
X0112355Y0093013D03*
X0119835Y0093013D03*
X0128208Y0048363D03*
X0136082Y0048363D03*
X0056032Y0123513D03*
X0048158Y0123513D03*
X0046255Y0110113D03*
X0053735Y0110113D03*
X0034335Y0127513D03*
X0026855Y0127513D03*
X0101558Y0170263D03*
X0109432Y0170263D03*
X0109835Y0158013D03*
X0102355Y0158013D03*
X0107408Y0146763D03*
X0115282Y0146763D03*
X0120605Y0158013D03*
X0128085Y0158013D03*
D12*
X0110595Y0181576D03*
X0110595Y0189450D03*
X0108495Y0122950D03*
X0108495Y0115076D03*
X0121595Y0110450D03*
X0121595Y0102576D03*
X0067145Y0070653D03*
X0067145Y0063173D03*
X0059095Y0092273D03*
X0059095Y0099753D03*
D13*
X0111855Y0059343D03*
X0119335Y0059343D03*
X0115595Y0050682D03*
X0155855Y0111182D03*
X0163335Y0111182D03*
X0159595Y0119843D03*
X0191855Y0111182D03*
X0199335Y0111182D03*
X0195595Y0119843D03*
X0088335Y0157682D03*
X0080855Y0157682D03*
X0084595Y0166343D03*
D14*
X0055645Y0054113D03*
D15*
X0033595Y0119639D03*
X0033595Y0135387D03*
D16*
X0065695Y0131536D03*
X0065695Y0128387D03*
X0065695Y0125237D03*
X0065695Y0122088D03*
X0065695Y0118938D03*
X0065695Y0115788D03*
X0065695Y0112639D03*
X0065695Y0109489D03*
X0099495Y0109489D03*
X0099495Y0112639D03*
X0099495Y0115788D03*
X0099495Y0118938D03*
X0099495Y0122088D03*
X0099495Y0125237D03*
X0099495Y0128387D03*
X0099495Y0131536D03*
D17*
X0093619Y0137413D03*
X0090469Y0137413D03*
X0087320Y0137413D03*
X0084170Y0137413D03*
X0081020Y0137413D03*
X0077871Y0137413D03*
X0074721Y0137413D03*
X0071572Y0137413D03*
X0071572Y0103613D03*
X0074721Y0103613D03*
X0077871Y0103613D03*
X0081020Y0103613D03*
X0084170Y0103613D03*
X0087320Y0103613D03*
X0090469Y0103613D03*
X0093619Y0103613D03*
D18*
X0092595Y0050513D03*
X0082595Y0049513D03*
X0072595Y0050513D03*
X0082595Y0038513D03*
X0092595Y0037513D03*
X0102595Y0038513D03*
X0112595Y0037513D03*
X0122595Y0038513D03*
X0132595Y0037513D03*
X0102595Y0049513D03*
X0033595Y0050513D03*
X0031595Y0060513D03*
X0033595Y0070513D03*
X0031595Y0080513D03*
X0033595Y0090513D03*
X0031595Y0040513D03*
X0037595Y0167513D03*
X0047595Y0167513D03*
X0048595Y0177513D03*
X0047595Y0187513D03*
X0037595Y0187513D03*
X0038595Y0177513D03*
X0038595Y0197513D03*
X0048595Y0197513D03*
D19*
X0033595Y0105513D03*
X0135595Y0105513D03*
D20*
X0130595Y0204013D03*
D21*
X0179908Y0170826D02*
X0179908Y0168200D01*
X0177282Y0168200D01*
X0177282Y0170826D01*
X0179908Y0170826D01*
X0179908Y0169074D02*
X0177282Y0169074D01*
X0177282Y0169948D02*
X0179908Y0169948D01*
X0179908Y0170822D02*
X0177282Y0170822D01*
X0179908Y0164826D02*
X0179908Y0162200D01*
X0177282Y0162200D01*
X0177282Y0164826D01*
X0179908Y0164826D01*
X0179908Y0163074D02*
X0177282Y0163074D01*
X0177282Y0163948D02*
X0179908Y0163948D01*
X0179908Y0164822D02*
X0177282Y0164822D01*
X0177908Y0139326D02*
X0177908Y0136700D01*
X0175282Y0136700D01*
X0175282Y0139326D01*
X0177908Y0139326D01*
X0177908Y0137574D02*
X0175282Y0137574D01*
X0175282Y0138448D02*
X0177908Y0138448D01*
X0177908Y0139322D02*
X0175282Y0139322D01*
X0177908Y0133326D02*
X0177908Y0130700D01*
X0175282Y0130700D01*
X0175282Y0133326D01*
X0177908Y0133326D01*
X0177908Y0131574D02*
X0175282Y0131574D01*
X0175282Y0132448D02*
X0177908Y0132448D01*
X0177908Y0133322D02*
X0175282Y0133322D01*
X0172408Y0127200D02*
X0169782Y0127200D01*
X0169782Y0129826D01*
X0172408Y0129826D01*
X0172408Y0127200D01*
X0172408Y0128074D02*
X0169782Y0128074D01*
X0169782Y0128948D02*
X0172408Y0128948D01*
X0172408Y0129822D02*
X0169782Y0129822D01*
X0166408Y0127200D02*
X0163782Y0127200D01*
X0163782Y0129826D01*
X0166408Y0129826D01*
X0166408Y0127200D01*
X0166408Y0128074D02*
X0163782Y0128074D01*
X0163782Y0128948D02*
X0166408Y0128948D01*
X0166408Y0129822D02*
X0163782Y0129822D01*
X0138408Y0132076D02*
X0135782Y0132076D01*
X0138408Y0132076D02*
X0138408Y0127950D01*
X0135782Y0127950D01*
X0135782Y0132076D01*
X0135782Y0128824D02*
X0138408Y0128824D01*
X0138408Y0129698D02*
X0135782Y0129698D01*
X0135782Y0130572D02*
X0138408Y0130572D01*
X0138408Y0131446D02*
X0135782Y0131446D01*
X0131408Y0132076D02*
X0128782Y0132076D01*
X0131408Y0132076D02*
X0131408Y0127950D01*
X0128782Y0127950D01*
X0128782Y0132076D01*
X0128782Y0128824D02*
X0131408Y0128824D01*
X0131408Y0129698D02*
X0128782Y0129698D01*
X0128782Y0130572D02*
X0131408Y0130572D01*
X0131408Y0131446D02*
X0128782Y0131446D01*
X0128782Y0145826D02*
X0131408Y0145826D01*
X0131408Y0141700D01*
X0128782Y0141700D01*
X0128782Y0145826D01*
X0128782Y0142574D02*
X0131408Y0142574D01*
X0131408Y0143448D02*
X0128782Y0143448D01*
X0128782Y0144322D02*
X0131408Y0144322D01*
X0131408Y0145196D02*
X0128782Y0145196D01*
X0135782Y0145826D02*
X0138408Y0145826D01*
X0138408Y0141700D01*
X0135782Y0141700D01*
X0135782Y0145826D01*
X0135782Y0142574D02*
X0138408Y0142574D01*
X0138408Y0143448D02*
X0135782Y0143448D01*
X0135782Y0144322D02*
X0138408Y0144322D01*
X0138408Y0145196D02*
X0135782Y0145196D01*
X0135782Y0119826D02*
X0138408Y0119826D01*
X0138408Y0115700D01*
X0135782Y0115700D01*
X0135782Y0119826D01*
X0135782Y0116574D02*
X0138408Y0116574D01*
X0138408Y0117448D02*
X0135782Y0117448D01*
X0135782Y0118322D02*
X0138408Y0118322D01*
X0138408Y0119196D02*
X0135782Y0119196D01*
X0131408Y0119826D02*
X0128782Y0119826D01*
X0131408Y0119826D02*
X0131408Y0115700D01*
X0128782Y0115700D01*
X0128782Y0119826D01*
X0128782Y0116574D02*
X0131408Y0116574D01*
X0131408Y0117448D02*
X0128782Y0117448D01*
X0128782Y0118322D02*
X0131408Y0118322D01*
X0131408Y0119196D02*
X0128782Y0119196D01*
X0199782Y0124826D02*
X0202408Y0124826D01*
X0202408Y0122200D01*
X0199782Y0122200D01*
X0199782Y0124826D01*
X0199782Y0123074D02*
X0202408Y0123074D01*
X0202408Y0123948D02*
X0199782Y0123948D01*
X0199782Y0124822D02*
X0202408Y0124822D01*
X0202408Y0127700D02*
X0199782Y0127700D01*
X0199782Y0130326D01*
X0202408Y0130326D01*
X0202408Y0127700D01*
X0202408Y0128574D02*
X0199782Y0128574D01*
X0199782Y0129448D02*
X0202408Y0129448D01*
X0202408Y0130322D02*
X0199782Y0130322D01*
X0205782Y0127700D02*
X0208408Y0127700D01*
X0205782Y0127700D02*
X0205782Y0130326D01*
X0208408Y0130326D01*
X0208408Y0127700D01*
X0208408Y0128574D02*
X0205782Y0128574D01*
X0205782Y0129448D02*
X0208408Y0129448D01*
X0208408Y0130322D02*
X0205782Y0130322D01*
X0205782Y0124826D02*
X0208408Y0124826D01*
X0208408Y0122200D01*
X0205782Y0122200D01*
X0205782Y0124826D01*
X0205782Y0123074D02*
X0208408Y0123074D01*
X0208408Y0123948D02*
X0205782Y0123948D01*
X0205782Y0124822D02*
X0208408Y0124822D01*
X0214408Y0130700D02*
X0214408Y0133326D01*
X0214408Y0130700D02*
X0211782Y0130700D01*
X0211782Y0133326D01*
X0214408Y0133326D01*
X0214408Y0131574D02*
X0211782Y0131574D01*
X0211782Y0132448D02*
X0214408Y0132448D01*
X0214408Y0133322D02*
X0211782Y0133322D01*
X0214408Y0136700D02*
X0214408Y0139326D01*
X0214408Y0136700D02*
X0211782Y0136700D01*
X0211782Y0139326D01*
X0214408Y0139326D01*
X0214408Y0137574D02*
X0211782Y0137574D01*
X0211782Y0138448D02*
X0214408Y0138448D01*
X0214408Y0139322D02*
X0211782Y0139322D01*
X0216408Y0146200D02*
X0216408Y0148826D01*
X0216408Y0146200D02*
X0213782Y0146200D01*
X0213782Y0148826D01*
X0216408Y0148826D01*
X0216408Y0147074D02*
X0213782Y0147074D01*
X0213782Y0147948D02*
X0216408Y0147948D01*
X0216408Y0148822D02*
X0213782Y0148822D01*
X0216408Y0152200D02*
X0216408Y0154826D01*
X0216408Y0152200D02*
X0213782Y0152200D01*
X0213782Y0154826D01*
X0216408Y0154826D01*
X0216408Y0153074D02*
X0213782Y0153074D01*
X0213782Y0153948D02*
X0216408Y0153948D01*
X0216408Y0154822D02*
X0213782Y0154822D01*
X0216408Y0162200D02*
X0216408Y0164826D01*
X0216408Y0162200D02*
X0213782Y0162200D01*
X0213782Y0164826D01*
X0216408Y0164826D01*
X0216408Y0163074D02*
X0213782Y0163074D01*
X0213782Y0163948D02*
X0216408Y0163948D01*
X0216408Y0164822D02*
X0213782Y0164822D01*
X0216408Y0168200D02*
X0216408Y0170826D01*
X0216408Y0168200D02*
X0213782Y0168200D01*
X0213782Y0170826D01*
X0216408Y0170826D01*
X0216408Y0169074D02*
X0213782Y0169074D01*
X0213782Y0169948D02*
X0216408Y0169948D01*
X0216408Y0170822D02*
X0213782Y0170822D01*
X0040282Y0125826D02*
X0040282Y0123200D01*
X0040282Y0125826D02*
X0042908Y0125826D01*
X0042908Y0123200D01*
X0040282Y0123200D01*
X0040282Y0124074D02*
X0042908Y0124074D01*
X0042908Y0124948D02*
X0040282Y0124948D01*
X0040282Y0125822D02*
X0042908Y0125822D01*
X0040282Y0119826D02*
X0040282Y0117200D01*
X0040282Y0119826D02*
X0042908Y0119826D01*
X0042908Y0117200D01*
X0040282Y0117200D01*
X0040282Y0118074D02*
X0042908Y0118074D01*
X0042908Y0118948D02*
X0040282Y0118948D01*
X0040282Y0119822D02*
X0042908Y0119822D01*
D22*
X0075095Y0194013D03*
X0085095Y0193013D03*
X0085095Y0203013D03*
X0075095Y0204013D03*
X0095095Y0204013D03*
X0095095Y0194013D03*
D23*
X0095695Y0076013D03*
X0082695Y0076013D03*
X0052095Y0077013D03*
X0052095Y0064013D03*
D24*
X0112095Y0199013D03*
X0119095Y0199013D03*
X0115595Y0207013D03*
D25*
X0119845Y0137013D03*
X0119845Y0120013D03*
D26*
X0128768Y0170670D03*
X0128768Y0180513D03*
X0128768Y0189855D03*
D27*
X0138922Y0185989D02*
X0138924Y0186070D01*
X0138930Y0186152D01*
X0138940Y0186233D01*
X0138954Y0186313D01*
X0138971Y0186392D01*
X0138993Y0186471D01*
X0139018Y0186548D01*
X0139047Y0186625D01*
X0139080Y0186699D01*
X0139117Y0186772D01*
X0139156Y0186843D01*
X0139200Y0186912D01*
X0139246Y0186979D01*
X0139296Y0187043D01*
X0139349Y0187105D01*
X0139405Y0187165D01*
X0139463Y0187221D01*
X0139525Y0187275D01*
X0139589Y0187326D01*
X0139655Y0187373D01*
X0139723Y0187417D01*
X0139794Y0187458D01*
X0139866Y0187495D01*
X0139941Y0187529D01*
X0140016Y0187559D01*
X0140094Y0187585D01*
X0140172Y0187608D01*
X0140251Y0187626D01*
X0140331Y0187641D01*
X0140412Y0187652D01*
X0140493Y0187659D01*
X0140575Y0187662D01*
X0140656Y0187661D01*
X0140737Y0187656D01*
X0140818Y0187647D01*
X0140899Y0187634D01*
X0140979Y0187617D01*
X0141057Y0187597D01*
X0141135Y0187572D01*
X0141212Y0187544D01*
X0141287Y0187512D01*
X0141360Y0187477D01*
X0141431Y0187438D01*
X0141501Y0187395D01*
X0141568Y0187350D01*
X0141634Y0187301D01*
X0141696Y0187249D01*
X0141756Y0187193D01*
X0141813Y0187135D01*
X0141868Y0187075D01*
X0141919Y0187011D01*
X0141967Y0186946D01*
X0142012Y0186878D01*
X0142054Y0186808D01*
X0142092Y0186736D01*
X0142127Y0186662D01*
X0142158Y0186587D01*
X0142185Y0186510D01*
X0142208Y0186432D01*
X0142228Y0186353D01*
X0142244Y0186273D01*
X0142256Y0186192D01*
X0142264Y0186111D01*
X0142268Y0186030D01*
X0142268Y0185948D01*
X0142264Y0185867D01*
X0142256Y0185786D01*
X0142244Y0185705D01*
X0142228Y0185625D01*
X0142208Y0185546D01*
X0142185Y0185468D01*
X0142158Y0185391D01*
X0142127Y0185316D01*
X0142092Y0185242D01*
X0142054Y0185170D01*
X0142012Y0185100D01*
X0141967Y0185032D01*
X0141919Y0184967D01*
X0141868Y0184903D01*
X0141813Y0184843D01*
X0141756Y0184785D01*
X0141696Y0184729D01*
X0141634Y0184677D01*
X0141568Y0184628D01*
X0141501Y0184583D01*
X0141432Y0184540D01*
X0141360Y0184501D01*
X0141287Y0184466D01*
X0141212Y0184434D01*
X0141135Y0184406D01*
X0141057Y0184381D01*
X0140979Y0184361D01*
X0140899Y0184344D01*
X0140818Y0184331D01*
X0140737Y0184322D01*
X0140656Y0184317D01*
X0140575Y0184316D01*
X0140493Y0184319D01*
X0140412Y0184326D01*
X0140331Y0184337D01*
X0140251Y0184352D01*
X0140172Y0184370D01*
X0140094Y0184393D01*
X0140016Y0184419D01*
X0139941Y0184449D01*
X0139866Y0184483D01*
X0139794Y0184520D01*
X0139723Y0184561D01*
X0139655Y0184605D01*
X0139589Y0184652D01*
X0139525Y0184703D01*
X0139463Y0184757D01*
X0139405Y0184813D01*
X0139349Y0184873D01*
X0139296Y0184935D01*
X0139246Y0184999D01*
X0139200Y0185066D01*
X0139156Y0185135D01*
X0139117Y0185206D01*
X0139080Y0185279D01*
X0139047Y0185353D01*
X0139018Y0185430D01*
X0138993Y0185507D01*
X0138971Y0185586D01*
X0138954Y0185665D01*
X0138940Y0185745D01*
X0138930Y0185826D01*
X0138924Y0185908D01*
X0138922Y0185989D01*
X0138922Y0174036D02*
X0138924Y0174117D01*
X0138930Y0174199D01*
X0138940Y0174280D01*
X0138954Y0174360D01*
X0138971Y0174439D01*
X0138993Y0174518D01*
X0139018Y0174595D01*
X0139047Y0174672D01*
X0139080Y0174746D01*
X0139117Y0174819D01*
X0139156Y0174890D01*
X0139200Y0174959D01*
X0139246Y0175026D01*
X0139296Y0175090D01*
X0139349Y0175152D01*
X0139405Y0175212D01*
X0139463Y0175268D01*
X0139525Y0175322D01*
X0139589Y0175373D01*
X0139655Y0175420D01*
X0139723Y0175464D01*
X0139794Y0175505D01*
X0139866Y0175542D01*
X0139941Y0175576D01*
X0140016Y0175606D01*
X0140094Y0175632D01*
X0140172Y0175655D01*
X0140251Y0175673D01*
X0140331Y0175688D01*
X0140412Y0175699D01*
X0140493Y0175706D01*
X0140575Y0175709D01*
X0140656Y0175708D01*
X0140737Y0175703D01*
X0140818Y0175694D01*
X0140899Y0175681D01*
X0140979Y0175664D01*
X0141057Y0175644D01*
X0141135Y0175619D01*
X0141212Y0175591D01*
X0141287Y0175559D01*
X0141360Y0175524D01*
X0141431Y0175485D01*
X0141501Y0175442D01*
X0141568Y0175397D01*
X0141634Y0175348D01*
X0141696Y0175296D01*
X0141756Y0175240D01*
X0141813Y0175182D01*
X0141868Y0175122D01*
X0141919Y0175058D01*
X0141967Y0174993D01*
X0142012Y0174925D01*
X0142054Y0174855D01*
X0142092Y0174783D01*
X0142127Y0174709D01*
X0142158Y0174634D01*
X0142185Y0174557D01*
X0142208Y0174479D01*
X0142228Y0174400D01*
X0142244Y0174320D01*
X0142256Y0174239D01*
X0142264Y0174158D01*
X0142268Y0174077D01*
X0142268Y0173995D01*
X0142264Y0173914D01*
X0142256Y0173833D01*
X0142244Y0173752D01*
X0142228Y0173672D01*
X0142208Y0173593D01*
X0142185Y0173515D01*
X0142158Y0173438D01*
X0142127Y0173363D01*
X0142092Y0173289D01*
X0142054Y0173217D01*
X0142012Y0173147D01*
X0141967Y0173079D01*
X0141919Y0173014D01*
X0141868Y0172950D01*
X0141813Y0172890D01*
X0141756Y0172832D01*
X0141696Y0172776D01*
X0141634Y0172724D01*
X0141568Y0172675D01*
X0141501Y0172630D01*
X0141432Y0172587D01*
X0141360Y0172548D01*
X0141287Y0172513D01*
X0141212Y0172481D01*
X0141135Y0172453D01*
X0141057Y0172428D01*
X0140979Y0172408D01*
X0140899Y0172391D01*
X0140818Y0172378D01*
X0140737Y0172369D01*
X0140656Y0172364D01*
X0140575Y0172363D01*
X0140493Y0172366D01*
X0140412Y0172373D01*
X0140331Y0172384D01*
X0140251Y0172399D01*
X0140172Y0172417D01*
X0140094Y0172440D01*
X0140016Y0172466D01*
X0139941Y0172496D01*
X0139866Y0172530D01*
X0139794Y0172567D01*
X0139723Y0172608D01*
X0139655Y0172652D01*
X0139589Y0172699D01*
X0139525Y0172750D01*
X0139463Y0172804D01*
X0139405Y0172860D01*
X0139349Y0172920D01*
X0139296Y0172982D01*
X0139246Y0173046D01*
X0139200Y0173113D01*
X0139156Y0173182D01*
X0139117Y0173253D01*
X0139080Y0173326D01*
X0139047Y0173400D01*
X0139018Y0173477D01*
X0138993Y0173554D01*
X0138971Y0173633D01*
X0138954Y0173712D01*
X0138940Y0173792D01*
X0138930Y0173873D01*
X0138924Y0173955D01*
X0138922Y0174036D01*
D28*
X0135095Y0091147D02*
X0135095Y0083469D01*
X0135095Y0065556D02*
X0135095Y0057879D01*
D29*
X0067595Y0080013D03*
X0032095Y0032013D03*
X0046845Y0134013D03*
X0059595Y0197513D03*
D30*
X0116995Y0189013D03*
X0122195Y0189013D03*
D31*
X0166595Y0204013D03*
X0166595Y0174013D03*
X0203095Y0173513D03*
X0203095Y0203513D03*
X0203095Y0065513D03*
X0203095Y0035513D03*
X0166595Y0036013D03*
X0166595Y0066013D03*
D32*
X0170095Y0134013D03*
X0170095Y0138013D03*
X0170095Y0142013D03*
X0162095Y0142013D03*
X0162095Y0138013D03*
X0162095Y0134013D03*
X0198095Y0134013D03*
X0198095Y0138013D03*
X0198095Y0142013D03*
X0206095Y0142013D03*
X0206095Y0138013D03*
X0206095Y0134013D03*
D33*
X0201095Y0129013D01*
X0201095Y0123513D01*
X0203095Y0121513D01*
X0203095Y0120013D01*
X0207095Y0129013D02*
X0209095Y0129013D01*
X0211095Y0131013D01*
X0212095Y0131013D01*
X0213095Y0132013D01*
X0211095Y0131013D02*
X0211095Y0102013D01*
X0203595Y0094513D01*
X0203095Y0094513D01*
X0213095Y0084513D02*
X0213095Y0077513D01*
X0210595Y0075013D01*
X0205095Y0075013D01*
X0206595Y0072763D02*
X0203595Y0072763D01*
X0203595Y0077263D01*
X0206595Y0077263D01*
X0206595Y0072763D01*
X0206595Y0073762D02*
X0203595Y0073762D01*
X0203595Y0074761D02*
X0206595Y0074761D01*
X0206595Y0075760D02*
X0203595Y0075760D01*
X0203595Y0076759D02*
X0206595Y0076759D01*
X0205595Y0077013D02*
X0205095Y0075013D01*
X0199595Y0072763D02*
X0196595Y0072763D01*
X0196595Y0077263D01*
X0199595Y0077263D01*
X0199595Y0072763D01*
X0199595Y0073762D02*
X0196595Y0073762D01*
X0196595Y0074761D02*
X0199595Y0074761D01*
X0199595Y0075760D02*
X0196595Y0075760D01*
X0196595Y0076759D02*
X0199595Y0076759D01*
X0176595Y0080013D02*
X0176595Y0085013D01*
X0176595Y0080013D02*
X0172595Y0076013D01*
X0167595Y0076013D01*
X0167095Y0072763D02*
X0170095Y0072763D01*
X0167095Y0072763D02*
X0167095Y0077263D01*
X0170095Y0077263D01*
X0170095Y0072763D01*
X0170095Y0073762D02*
X0167095Y0073762D01*
X0167095Y0074761D02*
X0170095Y0074761D01*
X0170095Y0075760D02*
X0167095Y0075760D01*
X0167095Y0076759D02*
X0170095Y0076759D01*
X0163095Y0072763D02*
X0160095Y0072763D01*
X0160095Y0077263D01*
X0163095Y0077263D01*
X0163095Y0072763D01*
X0163095Y0073762D02*
X0160095Y0073762D01*
X0160095Y0074761D02*
X0163095Y0074761D01*
X0163095Y0075760D02*
X0160095Y0075760D01*
X0160095Y0076759D02*
X0163095Y0076759D01*
X0169595Y0109263D02*
X0172595Y0109263D01*
X0169595Y0109263D02*
X0169595Y0113763D01*
X0172595Y0113763D01*
X0172595Y0109263D01*
X0172595Y0110262D02*
X0169595Y0110262D01*
X0169595Y0111261D02*
X0172595Y0111261D01*
X0172595Y0112260D02*
X0169595Y0112260D01*
X0169595Y0113259D02*
X0172595Y0113259D01*
X0176595Y0109263D02*
X0179595Y0109263D01*
X0176595Y0109263D02*
X0176595Y0113763D01*
X0179595Y0113763D01*
X0179595Y0109263D01*
X0179595Y0110262D02*
X0176595Y0110262D01*
X0176595Y0111261D02*
X0179595Y0111261D01*
X0179595Y0112260D02*
X0176595Y0112260D01*
X0176595Y0113259D02*
X0179595Y0113259D01*
X0180095Y0111513D02*
X0178095Y0111513D01*
X0162095Y0133513D02*
X0156095Y0127513D01*
X0170145Y0141963D02*
X0170145Y0142063D01*
X0174195Y0142063D01*
X0174195Y0143310D01*
X0174093Y0143692D01*
X0174026Y0143808D01*
X0174367Y0143899D01*
X0174823Y0144162D01*
X0175196Y0144535D01*
X0175459Y0144991D01*
X0175595Y0145499D01*
X0175595Y0147513D01*
X0172595Y0147513D01*
X0172595Y0148513D01*
X0172595Y0151623D01*
X0171894Y0151623D01*
X0171894Y0159513D01*
X0170894Y0159513D01*
X0170894Y0152263D01*
X0171595Y0152263D01*
X0171595Y0148513D01*
X0172595Y0148513D01*
X0175595Y0148513D01*
X0175595Y0150526D01*
X0175459Y0151035D01*
X0175196Y0151491D01*
X0175063Y0151623D01*
X0175529Y0151623D01*
X0175595Y0151641D01*
X0175595Y0140863D01*
X0174646Y0140863D01*
X0174060Y0140277D01*
X0174093Y0140334D01*
X0174195Y0140715D01*
X0174195Y0141963D01*
X0170145Y0141963D01*
X0174195Y0142342D02*
X0175595Y0142342D01*
X0175595Y0143340D02*
X0174187Y0143340D01*
X0174999Y0144339D02*
X0175595Y0144339D01*
X0175552Y0145337D02*
X0175595Y0145337D01*
X0175595Y0146336D02*
X0175595Y0146336D01*
X0175595Y0147334D02*
X0175595Y0147334D01*
X0175595Y0148333D02*
X0172595Y0148333D01*
X0173595Y0145763D02*
X0170595Y0145763D01*
X0170595Y0150263D01*
X0173595Y0150263D01*
X0173595Y0145763D01*
X0173595Y0146762D02*
X0170595Y0146762D01*
X0170595Y0147761D02*
X0173595Y0147761D01*
X0173595Y0148760D02*
X0170595Y0148760D01*
X0170595Y0149759D02*
X0173595Y0149759D01*
X0172595Y0149331D02*
X0171595Y0149331D01*
X0171595Y0148513D02*
X0168595Y0148513D01*
X0168595Y0150526D01*
X0168731Y0151035D01*
X0168995Y0151491D01*
X0169127Y0151623D01*
X0168196Y0151623D01*
X0168190Y0150931D01*
X0168195Y0150925D01*
X0168195Y0145100D01*
X0168139Y0145044D01*
X0168135Y0144613D01*
X0168950Y0144613D01*
X0168731Y0144991D01*
X0168595Y0145499D01*
X0168595Y0147513D01*
X0171595Y0147513D01*
X0171595Y0148513D01*
X0171595Y0148333D02*
X0168195Y0148333D01*
X0168195Y0149331D02*
X0168595Y0149331D01*
X0168595Y0150330D02*
X0168195Y0150330D01*
X0168194Y0151328D02*
X0168901Y0151328D01*
X0170894Y0152327D02*
X0171894Y0152327D01*
X0171894Y0153325D02*
X0170894Y0153325D01*
X0170894Y0154324D02*
X0171894Y0154324D01*
X0171894Y0155322D02*
X0170894Y0155322D01*
X0170894Y0156321D02*
X0171894Y0156321D01*
X0171894Y0157319D02*
X0170894Y0157319D01*
X0170894Y0158318D02*
X0171894Y0158318D01*
X0171894Y0159316D02*
X0170894Y0159316D01*
X0170894Y0160513D02*
X0170894Y0168403D01*
X0169056Y0168403D01*
X0170065Y0168820D01*
X0171788Y0170543D01*
X0172720Y0172794D01*
X0172720Y0175231D01*
X0171788Y0177482D01*
X0170065Y0179205D01*
X0168442Y0179877D01*
X0168595Y0197513D01*
X0167213Y0197513D01*
X0167871Y0197599D01*
X0168697Y0197821D01*
X0169487Y0198148D01*
X0170228Y0198576D01*
X0170907Y0199096D01*
X0171511Y0199701D01*
X0172032Y0200380D01*
X0172460Y0201121D01*
X0172787Y0201911D01*
X0173009Y0202737D01*
X0173111Y0203513D01*
X0167095Y0203513D01*
X0167095Y0204513D01*
X0166095Y0204513D01*
X0166095Y0210528D01*
X0165319Y0210426D01*
X0164493Y0210205D01*
X0163703Y0209877D01*
X0162962Y0209450D01*
X0162284Y0208929D01*
X0161679Y0208324D01*
X0161158Y0207646D01*
X0160731Y0206905D01*
X0160601Y0206593D01*
X0160445Y0206863D01*
X0160166Y0207142D01*
X0159824Y0207340D01*
X0159442Y0207442D01*
X0156595Y0207442D01*
X0156595Y0201914D01*
X0160402Y0201914D01*
X0160403Y0201911D01*
X0160731Y0201121D01*
X0161158Y0200380D01*
X0161679Y0199701D01*
X0162284Y0199096D01*
X0162962Y0198576D01*
X0163703Y0198148D01*
X0164493Y0197821D01*
X0165319Y0197599D01*
X0165978Y0197513D01*
X0160745Y0197513D01*
X0160745Y0200914D01*
X0156595Y0200914D01*
X0156595Y0201914D01*
X0155595Y0201914D01*
X0155595Y0207442D01*
X0152795Y0207442D01*
X0152795Y0210813D01*
X0175595Y0210813D01*
X0175595Y0171777D01*
X0175477Y0171573D01*
X0175345Y0171080D01*
X0175345Y0169888D01*
X0175595Y0169888D01*
X0175595Y0169138D01*
X0175345Y0169138D01*
X0175345Y0168403D01*
X0171894Y0168403D01*
X0171894Y0160513D01*
X0170894Y0160513D01*
X0170894Y0161313D02*
X0171894Y0161313D01*
X0171894Y0162312D02*
X0170894Y0162312D01*
X0170894Y0163310D02*
X0171894Y0163310D01*
X0171894Y0164309D02*
X0170894Y0164309D01*
X0170894Y0165307D02*
X0171894Y0165307D01*
X0171894Y0166306D02*
X0170894Y0166306D01*
X0170894Y0167304D02*
X0171894Y0167304D01*
X0171894Y0168303D02*
X0170894Y0168303D01*
X0170546Y0169301D02*
X0175595Y0169301D01*
X0175345Y0170300D02*
X0171544Y0170300D01*
X0172100Y0171298D02*
X0175404Y0171298D01*
X0175595Y0172297D02*
X0172514Y0172297D01*
X0172720Y0173295D02*
X0175595Y0173295D01*
X0175595Y0174294D02*
X0172720Y0174294D01*
X0172695Y0175292D02*
X0175595Y0175292D01*
X0175595Y0176291D02*
X0172281Y0176291D01*
X0171868Y0177289D02*
X0175595Y0177289D01*
X0175595Y0178288D02*
X0170982Y0178288D01*
X0169869Y0179286D02*
X0175595Y0179286D01*
X0175595Y0180285D02*
X0168445Y0180285D01*
X0168454Y0181284D02*
X0175595Y0181284D01*
X0175595Y0182282D02*
X0168463Y0182282D01*
X0168471Y0183281D02*
X0175595Y0183281D01*
X0175595Y0184279D02*
X0168480Y0184279D01*
X0168489Y0185278D02*
X0175595Y0185278D01*
X0175595Y0186276D02*
X0168497Y0186276D01*
X0168506Y0187275D02*
X0175595Y0187275D01*
X0175595Y0188273D02*
X0168515Y0188273D01*
X0168523Y0189272D02*
X0175595Y0189272D01*
X0175595Y0190270D02*
X0168532Y0190270D01*
X0168541Y0191269D02*
X0175595Y0191269D01*
X0175595Y0192267D02*
X0168550Y0192267D01*
X0168558Y0193266D02*
X0175595Y0193266D01*
X0175595Y0194264D02*
X0168567Y0194264D01*
X0168576Y0195263D02*
X0175595Y0195263D01*
X0175595Y0196261D02*
X0168584Y0196261D01*
X0168593Y0197260D02*
X0175595Y0197260D01*
X0175595Y0198258D02*
X0169678Y0198258D01*
X0171067Y0199257D02*
X0175595Y0199257D01*
X0175595Y0200255D02*
X0171936Y0200255D01*
X0172515Y0201254D02*
X0175595Y0201254D01*
X0175595Y0202252D02*
X0172879Y0202252D01*
X0173076Y0203251D02*
X0175595Y0203251D01*
X0175595Y0204249D02*
X0167095Y0204249D01*
X0167095Y0204513D02*
X0173111Y0204513D01*
X0173009Y0205288D01*
X0172787Y0206115D01*
X0172460Y0206905D01*
X0172032Y0207646D01*
X0171511Y0208324D01*
X0170907Y0208929D01*
X0170228Y0209450D01*
X0169487Y0209877D01*
X0168697Y0210205D01*
X0167871Y0210426D01*
X0167095Y0210528D01*
X0167095Y0204513D01*
X0166595Y0204013D02*
X0160595Y0204013D01*
X0159095Y0202513D01*
X0157595Y0202513D01*
X0156497Y0201414D01*
X0156095Y0201414D01*
X0156595Y0201254D02*
X0160675Y0201254D01*
X0160745Y0200255D02*
X0161254Y0200255D01*
X0160745Y0199257D02*
X0162123Y0199257D01*
X0160745Y0198258D02*
X0163512Y0198258D01*
X0166095Y0205248D02*
X0167095Y0205248D01*
X0167095Y0206246D02*
X0166095Y0206246D01*
X0166095Y0207245D02*
X0167095Y0207245D01*
X0167095Y0208243D02*
X0166095Y0208243D01*
X0166095Y0209242D02*
X0167095Y0209242D01*
X0167095Y0210240D02*
X0166095Y0210240D01*
X0164626Y0210240D02*
X0152795Y0210240D01*
X0152795Y0209242D02*
X0162691Y0209242D01*
X0161617Y0208243D02*
X0152795Y0208243D01*
X0155595Y0207245D02*
X0156595Y0207245D01*
X0156595Y0206246D02*
X0155595Y0206246D01*
X0155595Y0205248D02*
X0156595Y0205248D01*
X0156595Y0204249D02*
X0155595Y0204249D01*
X0155595Y0203251D02*
X0156595Y0203251D01*
X0156595Y0202252D02*
X0155595Y0202252D01*
X0159988Y0207245D02*
X0160927Y0207245D01*
X0168564Y0210240D02*
X0175595Y0210240D01*
X0175595Y0209242D02*
X0170499Y0209242D01*
X0171574Y0208243D02*
X0175595Y0208243D01*
X0175595Y0207245D02*
X0172264Y0207245D01*
X0172733Y0206246D02*
X0175595Y0206246D01*
X0175595Y0205248D02*
X0173014Y0205248D01*
X0195095Y0205248D02*
X0196805Y0205248D01*
X0196903Y0205615D02*
X0196682Y0204788D01*
X0196580Y0204013D01*
X0202595Y0204013D01*
X0202595Y0210028D01*
X0201819Y0209926D01*
X0200993Y0209705D01*
X0200203Y0209377D01*
X0199462Y0208950D01*
X0198784Y0208429D01*
X0198179Y0207824D01*
X0197658Y0207146D01*
X0197231Y0206405D01*
X0196903Y0205615D01*
X0197165Y0206246D02*
X0195095Y0206246D01*
X0195095Y0207245D02*
X0197734Y0207245D01*
X0198598Y0208243D02*
X0195095Y0208243D01*
X0195095Y0209242D02*
X0199968Y0209242D01*
X0202595Y0209242D02*
X0203595Y0209242D01*
X0203595Y0210028D02*
X0203595Y0204013D01*
X0202595Y0204013D01*
X0202595Y0203013D01*
X0196580Y0203013D01*
X0196682Y0202237D01*
X0196903Y0201411D01*
X0197231Y0200621D01*
X0197658Y0199880D01*
X0198179Y0199201D01*
X0198784Y0198596D01*
X0199462Y0198076D01*
X0200203Y0197648D01*
X0200993Y0197321D01*
X0201819Y0197099D01*
X0202595Y0196997D01*
X0202595Y0203013D01*
X0203595Y0203013D01*
X0203595Y0204013D01*
X0209611Y0204013D01*
X0209509Y0204788D01*
X0209287Y0205615D01*
X0208960Y0206405D01*
X0208532Y0207146D01*
X0208011Y0207824D01*
X0207407Y0208429D01*
X0206728Y0208950D01*
X0205987Y0209377D01*
X0205197Y0209705D01*
X0204371Y0209926D01*
X0203595Y0210028D01*
X0203595Y0208243D02*
X0202595Y0208243D01*
X0202595Y0207245D02*
X0203595Y0207245D01*
X0203595Y0206246D02*
X0202595Y0206246D01*
X0202595Y0205248D02*
X0203595Y0205248D01*
X0203595Y0204249D02*
X0202595Y0204249D01*
X0202595Y0203251D02*
X0195095Y0203251D01*
X0195095Y0204249D02*
X0196611Y0204249D01*
X0196680Y0202252D02*
X0195095Y0202252D01*
X0195095Y0201254D02*
X0196968Y0201254D01*
X0197441Y0200255D02*
X0195095Y0200255D01*
X0195095Y0199257D02*
X0198136Y0199257D01*
X0199225Y0198258D02*
X0195095Y0198258D01*
X0195095Y0197260D02*
X0201221Y0197260D01*
X0202595Y0197260D02*
X0203595Y0197260D01*
X0203595Y0196997D02*
X0204371Y0197099D01*
X0205197Y0197321D01*
X0205987Y0197648D01*
X0206728Y0198076D01*
X0207407Y0198596D01*
X0208011Y0199201D01*
X0208532Y0199880D01*
X0208960Y0200621D01*
X0209287Y0201411D01*
X0209509Y0202237D01*
X0209611Y0203013D01*
X0203595Y0203013D01*
X0203595Y0196997D01*
X0204095Y0196513D02*
X0195095Y0196513D01*
X0195095Y0210813D01*
X0212095Y0210813D01*
X0212095Y0171777D01*
X0211977Y0171573D01*
X0211845Y0171080D01*
X0211845Y0169888D01*
X0212095Y0169888D01*
X0212095Y0169138D01*
X0211845Y0169138D01*
X0211845Y0168403D01*
X0208394Y0168403D01*
X0208394Y0160513D01*
X0207394Y0160513D01*
X0207394Y0168403D01*
X0206647Y0168403D01*
X0208288Y0170043D01*
X0209220Y0172294D01*
X0209220Y0174731D01*
X0208288Y0176982D01*
X0206565Y0178705D01*
X0204314Y0179638D01*
X0203946Y0179638D01*
X0204095Y0196513D01*
X0204093Y0196261D02*
X0212095Y0196261D01*
X0212095Y0195263D02*
X0204084Y0195263D01*
X0204075Y0194264D02*
X0212095Y0194264D01*
X0212095Y0193266D02*
X0204066Y0193266D01*
X0204058Y0192267D02*
X0212095Y0192267D01*
X0212095Y0191269D02*
X0204049Y0191269D01*
X0204040Y0190270D02*
X0212095Y0190270D01*
X0212095Y0189272D02*
X0204031Y0189272D01*
X0204022Y0188273D02*
X0212095Y0188273D01*
X0212095Y0187275D02*
X0204013Y0187275D01*
X0204005Y0186276D02*
X0212095Y0186276D01*
X0212095Y0185278D02*
X0203996Y0185278D01*
X0203987Y0184279D02*
X0212095Y0184279D01*
X0212095Y0183281D02*
X0203978Y0183281D01*
X0203969Y0182282D02*
X0212095Y0182282D01*
X0212095Y0181284D02*
X0203960Y0181284D01*
X0203952Y0180285D02*
X0212095Y0180285D01*
X0212095Y0179286D02*
X0205162Y0179286D01*
X0206982Y0178288D02*
X0212095Y0178288D01*
X0212095Y0177289D02*
X0207981Y0177289D01*
X0208574Y0176291D02*
X0212095Y0176291D01*
X0212095Y0175292D02*
X0208988Y0175292D01*
X0209220Y0174294D02*
X0212095Y0174294D01*
X0212095Y0173295D02*
X0209220Y0173295D01*
X0209220Y0172297D02*
X0212095Y0172297D01*
X0211904Y0171298D02*
X0208808Y0171298D01*
X0208394Y0170300D02*
X0211845Y0170300D01*
X0212095Y0169301D02*
X0207546Y0169301D01*
X0207394Y0168303D02*
X0208394Y0168303D01*
X0208095Y0167513D02*
X0208095Y0160214D01*
X0207894Y0160013D01*
X0207394Y0159513D02*
X0208394Y0159513D01*
X0208394Y0152263D01*
X0208095Y0152263D01*
X0208095Y0148513D01*
X0207095Y0148513D01*
X0207095Y0151623D01*
X0207394Y0151623D01*
X0207394Y0159513D01*
X0207394Y0159316D02*
X0208394Y0159316D01*
X0208394Y0158318D02*
X0207394Y0158318D01*
X0207394Y0157319D02*
X0208394Y0157319D01*
X0208394Y0156321D02*
X0207394Y0156321D01*
X0207394Y0155322D02*
X0208394Y0155322D01*
X0208394Y0154324D02*
X0207394Y0154324D01*
X0207394Y0153325D02*
X0208394Y0153325D01*
X0208394Y0152327D02*
X0207394Y0152327D01*
X0207095Y0151328D02*
X0208095Y0151328D01*
X0208095Y0150330D02*
X0207095Y0150330D01*
X0207095Y0149331D02*
X0208095Y0149331D01*
X0208095Y0148513D02*
X0211095Y0148513D01*
X0211095Y0150526D01*
X0210959Y0151035D01*
X0210696Y0151491D01*
X0210563Y0151623D01*
X0211932Y0151623D01*
X0211977Y0151452D01*
X0212095Y0151248D01*
X0212095Y0143765D01*
X0211795Y0143465D01*
X0211795Y0141560D01*
X0212095Y0141260D01*
X0212095Y0140863D01*
X0211146Y0140863D01*
X0210296Y0140013D01*
X0209908Y0140013D01*
X0210093Y0140334D01*
X0210195Y0140715D01*
X0210195Y0141963D01*
X0206145Y0141963D01*
X0206145Y0142063D01*
X0210195Y0142063D01*
X0210195Y0143310D01*
X0210093Y0143692D01*
X0209947Y0143945D01*
X0210323Y0144162D01*
X0210696Y0144535D01*
X0210959Y0144991D01*
X0211095Y0145499D01*
X0211095Y0147513D01*
X0208095Y0147513D01*
X0208095Y0148513D01*
X0208095Y0148333D02*
X0212095Y0148333D01*
X0212095Y0149331D02*
X0211095Y0149331D01*
X0211095Y0150330D02*
X0212095Y0150330D01*
X0212049Y0151328D02*
X0210789Y0151328D01*
X0211095Y0147334D02*
X0212095Y0147334D01*
X0212095Y0146336D02*
X0211095Y0146336D01*
X0211052Y0145337D02*
X0212095Y0145337D01*
X0212095Y0144339D02*
X0210499Y0144339D01*
X0210187Y0143340D02*
X0211795Y0143340D01*
X0211795Y0142342D02*
X0210195Y0142342D01*
X0210195Y0141343D02*
X0212012Y0141343D01*
X0210628Y0140345D02*
X0210096Y0140345D01*
X0214095Y0142513D02*
X0215095Y0143513D01*
X0215095Y0147513D01*
X0209095Y0145763D02*
X0206095Y0145763D01*
X0206095Y0150263D01*
X0209095Y0150263D01*
X0209095Y0145763D01*
X0209095Y0146762D02*
X0206095Y0146762D01*
X0206095Y0147761D02*
X0209095Y0147761D01*
X0209095Y0148760D02*
X0206095Y0148760D01*
X0206095Y0149759D02*
X0209095Y0149759D01*
X0207095Y0148513D02*
X0207095Y0147513D01*
X0204095Y0147513D01*
X0204095Y0145499D01*
X0204231Y0144991D01*
X0204450Y0144613D01*
X0203795Y0144613D01*
X0203795Y0146717D01*
X0203695Y0146817D01*
X0203695Y0150925D01*
X0203692Y0150929D01*
X0203698Y0151640D01*
X0203760Y0151623D01*
X0204627Y0151623D01*
X0204495Y0151491D01*
X0204231Y0151035D01*
X0204095Y0150526D01*
X0204095Y0148513D01*
X0207095Y0148513D01*
X0207095Y0148333D02*
X0203695Y0148333D01*
X0203695Y0149331D02*
X0204095Y0149331D01*
X0204095Y0150330D02*
X0203695Y0150330D01*
X0203695Y0151328D02*
X0204401Y0151328D01*
X0204095Y0147334D02*
X0203695Y0147334D01*
X0203795Y0146336D02*
X0204095Y0146336D01*
X0204139Y0145337D02*
X0203795Y0145337D01*
X0202095Y0145763D02*
X0199095Y0145763D01*
X0199095Y0150263D01*
X0202095Y0150263D01*
X0202095Y0145763D01*
X0202095Y0146762D02*
X0199095Y0146762D01*
X0199095Y0147761D02*
X0202095Y0147761D01*
X0202095Y0148760D02*
X0199095Y0148760D01*
X0199095Y0149759D02*
X0202095Y0149759D01*
X0207394Y0161313D02*
X0208394Y0161313D01*
X0208394Y0162312D02*
X0207394Y0162312D01*
X0207394Y0163310D02*
X0208394Y0163310D01*
X0208394Y0164309D02*
X0207394Y0164309D01*
X0207394Y0165307D02*
X0208394Y0165307D01*
X0208394Y0166306D02*
X0207394Y0166306D01*
X0207394Y0167304D02*
X0208394Y0167304D01*
X0208095Y0167513D02*
X0210095Y0169513D01*
X0215095Y0169513D01*
X0215095Y0163513D02*
X0215095Y0159013D01*
X0215595Y0158513D01*
X0200095Y0134013D02*
X0198095Y0134013D01*
X0175595Y0141343D02*
X0174195Y0141343D01*
X0174128Y0140345D02*
X0174096Y0140345D01*
X0168639Y0145337D02*
X0168195Y0145337D01*
X0168195Y0146336D02*
X0168595Y0146336D01*
X0168595Y0147334D02*
X0168195Y0147334D01*
X0171595Y0150330D02*
X0172595Y0150330D01*
X0172595Y0151328D02*
X0171595Y0151328D01*
X0175289Y0151328D02*
X0175595Y0151328D01*
X0175595Y0150330D02*
X0175595Y0150330D01*
X0175595Y0149331D02*
X0175595Y0149331D01*
X0179095Y0157513D02*
X0178595Y0158013D01*
X0178595Y0163513D01*
X0166595Y0145763D02*
X0163595Y0145763D01*
X0163595Y0150263D01*
X0166595Y0150263D01*
X0166595Y0145763D01*
X0166595Y0146762D02*
X0163595Y0146762D01*
X0163595Y0147761D02*
X0166595Y0147761D01*
X0166595Y0148760D02*
X0163595Y0148760D01*
X0163595Y0149759D02*
X0166595Y0149759D01*
X0154095Y0169513D02*
X0156095Y0171513D01*
X0156095Y0176611D01*
X0195095Y0210240D02*
X0212095Y0210240D01*
X0212095Y0209242D02*
X0206222Y0209242D01*
X0207592Y0208243D02*
X0212095Y0208243D01*
X0212095Y0207245D02*
X0208456Y0207245D01*
X0209026Y0206246D02*
X0212095Y0206246D01*
X0212095Y0205248D02*
X0209385Y0205248D01*
X0209580Y0204249D02*
X0212095Y0204249D01*
X0212095Y0203251D02*
X0203595Y0203251D01*
X0203595Y0202252D02*
X0202595Y0202252D01*
X0202595Y0201254D02*
X0203595Y0201254D01*
X0203595Y0200255D02*
X0202595Y0200255D01*
X0202595Y0199257D02*
X0203595Y0199257D01*
X0203595Y0198258D02*
X0202595Y0198258D01*
X0204969Y0197260D02*
X0212095Y0197260D01*
X0212095Y0198258D02*
X0206966Y0198258D01*
X0208054Y0199257D02*
X0212095Y0199257D01*
X0212095Y0200255D02*
X0208749Y0200255D01*
X0209222Y0201254D02*
X0212095Y0201254D01*
X0212095Y0202252D02*
X0209511Y0202252D01*
X0209095Y0106763D02*
X0206095Y0106763D01*
X0206095Y0111263D01*
X0209095Y0111263D01*
X0209095Y0106763D01*
X0209095Y0107762D02*
X0206095Y0107762D01*
X0206095Y0108761D02*
X0209095Y0108761D01*
X0209095Y0109760D02*
X0206095Y0109760D01*
X0206095Y0110759D02*
X0209095Y0110759D01*
X0213095Y0106763D02*
X0216095Y0106763D01*
X0213095Y0106763D02*
X0213095Y0111263D01*
X0216095Y0111263D01*
X0216095Y0106763D01*
X0216095Y0107762D02*
X0213095Y0107762D01*
X0213095Y0108761D02*
X0216095Y0108761D01*
X0216095Y0109760D02*
X0213095Y0109760D01*
X0213095Y0110759D02*
X0216095Y0110759D01*
D34*
X0193095Y0084513D03*
X0156595Y0085013D03*
D35*
X0156595Y0095013D03*
X0166595Y0095013D03*
X0176595Y0095013D03*
X0176595Y0085013D03*
X0166595Y0085013D03*
X0193095Y0094513D03*
X0203095Y0094513D03*
X0203095Y0084513D03*
X0213095Y0084513D03*
X0213095Y0094513D03*
D36*
X0207894Y0160013D03*
X0195296Y0160013D03*
X0171394Y0160013D03*
X0158796Y0160013D03*
D37*
X0203095Y0120013D03*
D38*
X0136595Y0160513D03*
X0054595Y0134013D03*
D39*
X0047194Y0035013D03*
X0071997Y0035013D03*
D40*
X0156095Y0176611D03*
X0156095Y0201414D03*
D41*
X0120095Y0133237D03*
X0120095Y0128513D03*
X0120095Y0123788D03*
D42*
X0120095Y0128513D02*
X0114949Y0128513D01*
X0120095Y0128513D01*
X0120095Y0128513D01*
X0125242Y0128513D01*
X0125242Y0130128D01*
X0125119Y0130585D01*
X0124882Y0130996D01*
X0124720Y0131158D01*
X0124842Y0131279D01*
X0124842Y0132529D01*
X0125245Y0132933D01*
X0125245Y0141093D01*
X0124425Y0141913D01*
X0121645Y0141913D01*
X0121645Y0142945D01*
X0119241Y0145349D01*
X0119241Y0150492D01*
X0119021Y0150713D01*
X0129100Y0150713D01*
X0131767Y0148045D01*
X0131702Y0148063D01*
X0130170Y0148063D01*
X0130170Y0143838D01*
X0130020Y0143838D01*
X0130020Y0148063D01*
X0128488Y0148063D01*
X0127919Y0147910D01*
X0127409Y0147616D01*
X0126992Y0147199D01*
X0126698Y0146689D01*
X0126545Y0146120D01*
X0126545Y0143838D01*
X0130020Y0143838D01*
X0130020Y0143688D01*
X0126545Y0143688D01*
X0126545Y0141406D01*
X0126698Y0140837D01*
X0126992Y0140326D01*
X0127409Y0139910D01*
X0127919Y0139615D01*
X0128488Y0139463D01*
X0130020Y0139463D01*
X0130020Y0143688D01*
X0130170Y0143688D01*
X0130170Y0139463D01*
X0131702Y0139463D01*
X0131795Y0139488D01*
X0131795Y0135767D01*
X0134336Y0133227D01*
X0133945Y0132836D01*
X0133945Y0127189D01*
X0135022Y0126113D01*
X0138795Y0126113D01*
X0138795Y0121663D01*
X0135022Y0121663D01*
X0133945Y0120586D01*
X0133945Y0116408D01*
X0133645Y0116108D01*
X0133645Y0117688D01*
X0130170Y0117688D01*
X0130170Y0117838D01*
X0130020Y0117838D01*
X0130020Y0122063D01*
X0128488Y0122063D01*
X0127919Y0121910D01*
X0127409Y0121616D01*
X0126992Y0121199D01*
X0126698Y0120689D01*
X0126545Y0120120D01*
X0126545Y0117838D01*
X0130020Y0117838D01*
X0130020Y0117688D01*
X0126545Y0117688D01*
X0126545Y0115406D01*
X0126698Y0114837D01*
X0126992Y0114326D01*
X0127409Y0113910D01*
X0127919Y0113615D01*
X0128488Y0113463D01*
X0129250Y0113463D01*
X0126295Y0110508D01*
X0126295Y0106049D01*
X0126185Y0106240D01*
X0125850Y0106575D01*
X0125570Y0106737D01*
X0126145Y0107311D01*
X0126145Y0113589D01*
X0125325Y0114409D01*
X0123364Y0114409D01*
X0123358Y0115113D01*
X0124425Y0115113D01*
X0125245Y0115933D01*
X0125245Y0124093D01*
X0124842Y0124496D01*
X0124842Y0125746D01*
X0124720Y0125868D01*
X0124882Y0126030D01*
X0125119Y0126440D01*
X0125242Y0126898D01*
X0125242Y0128513D01*
X0120095Y0128513D01*
X0120095Y0128513D01*
X0114949Y0128513D02*
X0114949Y0127705D01*
X0112641Y0130013D01*
X0115003Y0132375D01*
X0115265Y0132113D01*
X0115349Y0132113D01*
X0115349Y0131279D01*
X0115470Y0131158D01*
X0115308Y0130996D01*
X0115071Y0130585D01*
X0114949Y0130128D01*
X0114949Y0128513D01*
X0114949Y0128219D02*
X0114435Y0128219D01*
X0114949Y0129817D02*
X0112836Y0129817D01*
X0114044Y0131416D02*
X0115349Y0131416D01*
X0112150Y0134613D02*
X0096119Y0134613D01*
X0096119Y0134333D02*
X0096119Y0140493D01*
X0095395Y0141216D01*
X0095395Y0146267D01*
X0102591Y0153463D01*
X0105494Y0153463D01*
X0106095Y0154064D01*
X0106696Y0153463D01*
X0112974Y0153463D01*
X0113537Y0154026D01*
X0115795Y0151767D01*
X0116250Y0151312D01*
X0112143Y0151312D01*
X0111569Y0150738D01*
X0111408Y0151018D01*
X0111072Y0151353D01*
X0110662Y0151590D01*
X0110204Y0151712D01*
X0107888Y0151712D01*
X0107888Y0147242D01*
X0106929Y0147242D01*
X0106929Y0146283D01*
X0107888Y0146283D01*
X0107888Y0141813D01*
X0110204Y0141813D01*
X0110662Y0141936D01*
X0111072Y0142173D01*
X0111408Y0142508D01*
X0111569Y0142787D01*
X0112143Y0142213D01*
X0117286Y0142213D01*
X0117587Y0141913D01*
X0115265Y0141913D01*
X0114445Y0141093D01*
X0114445Y0136908D01*
X0110873Y0133336D01*
X0103275Y0133336D01*
X0102575Y0134036D01*
X0096415Y0134036D01*
X0095595Y0133216D01*
X0095595Y0127237D01*
X0082395Y0127237D01*
X0082568Y0127309D01*
X0083299Y0128040D01*
X0083473Y0128458D01*
X0083622Y0128309D01*
X0084578Y0127913D01*
X0085612Y0127913D01*
X0086568Y0128309D01*
X0087299Y0129040D01*
X0087695Y0129996D01*
X0087695Y0130567D01*
X0089120Y0131992D01*
X0089120Y0133513D01*
X0095299Y0133513D01*
X0096119Y0134333D01*
X0095595Y0133015D02*
X0089120Y0133015D01*
X0088544Y0131416D02*
X0095595Y0131416D01*
X0095595Y0129817D02*
X0087621Y0129817D01*
X0086352Y0128219D02*
X0095595Y0128219D01*
X0095195Y0123237D02*
X0090819Y0123237D01*
X0091195Y0122330D01*
X0091195Y0121458D01*
X0093341Y0119313D01*
X0094395Y0118258D01*
X0094395Y0113258D01*
X0095419Y0112235D01*
X0095419Y0107393D01*
X0096119Y0106693D01*
X0096119Y0100533D01*
X0095299Y0099713D01*
X0092269Y0099713D01*
X0092269Y0097084D01*
X0095795Y0093558D01*
X0095795Y0095636D01*
X0095391Y0096040D01*
X0094995Y0096996D01*
X0094995Y0098030D01*
X0095391Y0098986D01*
X0096122Y0099717D01*
X0097078Y0100113D01*
X0098112Y0100113D01*
X0099068Y0099717D01*
X0099799Y0098986D01*
X0100195Y0098030D01*
X0100195Y0096996D01*
X0099799Y0096040D01*
X0099395Y0095636D01*
X0099395Y0093258D01*
X0101545Y0091108D01*
X0101545Y0106989D01*
X0096415Y0106989D01*
X0095595Y0107809D01*
X0095595Y0113543D01*
X0095555Y0113583D01*
X0095318Y0113994D01*
X0095195Y0114451D01*
X0095195Y0115788D01*
X0099495Y0115788D01*
X0099495Y0115788D01*
X0095195Y0115788D01*
X0095195Y0117125D01*
X0095318Y0117583D01*
X0095555Y0117994D01*
X0095595Y0118034D01*
X0095595Y0119842D01*
X0095555Y0119882D01*
X0095318Y0120293D01*
X0095195Y0120751D01*
X0095195Y0122087D01*
X0099495Y0122087D01*
X0099495Y0122088D01*
X0095195Y0122088D01*
X0095195Y0123237D01*
X0095195Y0121825D02*
X0091195Y0121825D01*
X0092427Y0120226D02*
X0095356Y0120226D01*
X0095595Y0118628D02*
X0094026Y0118628D01*
X0094395Y0117029D02*
X0095195Y0117029D01*
X0095195Y0115431D02*
X0094395Y0115431D01*
X0094395Y0113832D02*
X0095411Y0113832D01*
X0095419Y0112234D02*
X0095595Y0112234D01*
X0095595Y0110635D02*
X0095419Y0110635D01*
X0095419Y0109037D02*
X0095595Y0109037D01*
X0095419Y0107438D02*
X0095966Y0107438D01*
X0096119Y0105840D02*
X0101545Y0105840D01*
X0101545Y0104241D02*
X0096119Y0104241D01*
X0096119Y0102643D02*
X0101545Y0102643D01*
X0101545Y0101044D02*
X0096119Y0101044D01*
X0095851Y0099446D02*
X0092269Y0099446D01*
X0092269Y0097847D02*
X0094995Y0097847D01*
X0095305Y0096249D02*
X0093105Y0096249D01*
X0094703Y0094650D02*
X0095795Y0094650D01*
X0099395Y0094650D02*
X0101545Y0094650D01*
X0101545Y0093052D02*
X0099602Y0093052D01*
X0101200Y0091453D02*
X0101545Y0091453D01*
X0098095Y0089467D02*
X0106850Y0080713D01*
X0108341Y0080713D01*
X0121850Y0080713D01*
X0123295Y0079267D01*
X0123295Y0072658D01*
X0119595Y0076358D01*
X0118541Y0077413D01*
X0109041Y0077413D01*
X0098095Y0088358D01*
X0098095Y0089467D01*
X0098197Y0088256D02*
X0099306Y0088256D01*
X0099796Y0086658D02*
X0100905Y0086658D01*
X0101394Y0085059D02*
X0102503Y0085059D01*
X0102993Y0083461D02*
X0104102Y0083461D01*
X0104591Y0081862D02*
X0105700Y0081862D01*
X0106190Y0080264D02*
X0122299Y0080264D01*
X0123295Y0078665D02*
X0107788Y0078665D01*
X0104296Y0077067D02*
X0101387Y0077067D01*
X0102697Y0078665D02*
X0099845Y0078665D01*
X0099845Y0078608D02*
X0099845Y0079343D01*
X0099025Y0080163D01*
X0092885Y0080163D01*
X0092885Y0083363D01*
X0094224Y0083363D01*
X0095044Y0084183D01*
X0095044Y0086318D01*
X0095550Y0085813D01*
X0107550Y0073813D01*
X0117050Y0073813D01*
X0120795Y0070067D01*
X0120795Y0066358D01*
X0119941Y0067213D01*
X0115441Y0071713D01*
X0113950Y0071713D01*
X0107872Y0071713D01*
X0107468Y0072117D01*
X0106512Y0072513D01*
X0105941Y0072513D01*
X0099845Y0078608D01*
X0101099Y0080264D02*
X0092885Y0080264D01*
X0092885Y0081862D02*
X0099500Y0081862D01*
X0097902Y0083461D02*
X0094322Y0083461D01*
X0095044Y0085059D02*
X0096303Y0085059D01*
X0106941Y0085713D02*
X0129857Y0085713D01*
X0129857Y0082427D01*
X0130654Y0080502D01*
X0132128Y0079028D01*
X0134053Y0078231D01*
X0136137Y0078231D01*
X0138063Y0079028D01*
X0139536Y0080502D01*
X0140334Y0082427D01*
X0140334Y0092189D01*
X0139536Y0094114D01*
X0138063Y0095588D01*
X0136137Y0096385D01*
X0134053Y0096385D01*
X0132128Y0095588D01*
X0130654Y0094114D01*
X0129857Y0092189D01*
X0129857Y0089313D01*
X0123794Y0089313D01*
X0123794Y0091213D01*
X0125841Y0091213D01*
X0126895Y0092267D01*
X0126895Y0092267D01*
X0128841Y0094213D01*
X0129895Y0095267D01*
X0129895Y0100603D01*
X0131345Y0099153D01*
X0134103Y0098010D01*
X0137087Y0098010D01*
X0139845Y0099153D01*
X0141955Y0101263D01*
X0143098Y0104020D01*
X0143098Y0107005D01*
X0142166Y0109255D01*
X0142795Y0109884D01*
X0142795Y0167741D01*
X0141624Y0168913D01*
X0139973Y0170563D01*
X0141286Y0170563D01*
X0142563Y0171092D01*
X0143540Y0172069D01*
X0144068Y0173345D01*
X0144068Y0174727D01*
X0143540Y0176004D01*
X0142563Y0176981D01*
X0141286Y0177510D01*
X0139904Y0177510D01*
X0138628Y0176981D01*
X0137651Y0176004D01*
X0137122Y0174727D01*
X0137122Y0173345D01*
X0137402Y0172670D01*
X0134105Y0172670D01*
X0134105Y0173612D01*
X0133285Y0174432D01*
X0124251Y0174432D01*
X0123431Y0173612D01*
X0123431Y0167728D01*
X0124251Y0166908D01*
X0133285Y0166908D01*
X0134105Y0167728D01*
X0134105Y0168670D01*
X0136209Y0168670D01*
X0138795Y0166084D01*
X0138795Y0164905D01*
X0137570Y0165413D01*
X0135620Y0165413D01*
X0133820Y0164667D01*
X0132441Y0163288D01*
X0131872Y0161915D01*
X0131224Y0162562D01*
X0124946Y0162562D01*
X0124345Y0161961D01*
X0123744Y0162562D01*
X0118601Y0162562D01*
X0114351Y0166813D01*
X0113391Y0166813D01*
X0113391Y0169013D01*
X0120424Y0169013D01*
X0121924Y0170513D01*
X0123095Y0171684D01*
X0123095Y0175011D01*
X0124835Y0176751D01*
X0133285Y0176751D01*
X0134105Y0177571D01*
X0134105Y0183455D01*
X0133285Y0184275D01*
X0124251Y0184275D01*
X0123431Y0183455D01*
X0123431Y0181004D01*
X0120267Y0177840D01*
X0120267Y0177840D01*
X0119095Y0176668D01*
X0119095Y0173341D01*
X0118767Y0173013D01*
X0113391Y0173013D01*
X0113391Y0173992D01*
X0112571Y0174812D01*
X0108624Y0174812D01*
X0105595Y0177841D01*
X0105595Y0207441D01*
X0102524Y0210513D01*
X0112865Y0210513D01*
X0112195Y0209843D01*
X0112195Y0209013D01*
X0111267Y0209013D01*
X0106767Y0204513D01*
X0105595Y0203341D01*
X0105595Y0191621D01*
X0106046Y0191171D01*
X0106046Y0186311D01*
X0106620Y0185737D01*
X0106340Y0185575D01*
X0106005Y0185240D01*
X0105768Y0184830D01*
X0105646Y0184372D01*
X0105646Y0182055D01*
X0110116Y0182055D01*
X0110116Y0181096D01*
X0111075Y0181096D01*
X0111075Y0182055D01*
X0115545Y0182055D01*
X0115545Y0184372D01*
X0115427Y0184813D01*
X0125025Y0184813D01*
X0125845Y0185633D01*
X0125845Y0186093D01*
X0133285Y0186093D01*
X0134105Y0186913D01*
X0134105Y0192797D01*
X0133285Y0193617D01*
X0129595Y0193617D01*
X0129595Y0198341D01*
X0128424Y0199513D01*
X0126924Y0201013D01*
X0122495Y0201013D01*
X0122495Y0201843D01*
X0121675Y0202663D01*
X0116515Y0202663D01*
X0115780Y0201928D01*
X0115773Y0201958D01*
X0115536Y0202368D01*
X0115200Y0202703D01*
X0114790Y0202940D01*
X0114332Y0203063D01*
X0112295Y0203063D01*
X0112295Y0199213D01*
X0111895Y0199213D01*
X0111895Y0203063D01*
X0110974Y0203063D01*
X0112195Y0204284D01*
X0112195Y0204183D01*
X0113015Y0203363D01*
X0118175Y0203363D01*
X0118995Y0204183D01*
X0118995Y0206763D01*
X0127405Y0206763D01*
X0127035Y0206392D01*
X0126395Y0204848D01*
X0126395Y0203177D01*
X0127035Y0201634D01*
X0128216Y0200452D01*
X0129760Y0199813D01*
X0131431Y0199813D01*
X0132974Y0200452D01*
X0134156Y0201634D01*
X0134795Y0203177D01*
X0134795Y0204848D01*
X0134156Y0206392D01*
X0133785Y0206763D01*
X0138168Y0206763D01*
X0138372Y0206559D01*
X0139328Y0206163D01*
X0140362Y0206163D01*
X0141318Y0206559D01*
X0142049Y0207290D01*
X0142445Y0208246D01*
X0142445Y0209280D01*
X0142049Y0210236D01*
X0141772Y0210513D01*
X0144595Y0210513D01*
X0144595Y0121684D01*
X0144800Y0121479D01*
X0144772Y0108518D01*
X0144595Y0108341D01*
X0144595Y0029513D01*
X0136841Y0029513D01*
X0140582Y0033254D01*
X0140582Y0046408D01*
X0140041Y0046949D01*
X0140041Y0052092D01*
X0139221Y0052912D01*
X0137768Y0052912D01*
X0138050Y0053056D01*
X0138768Y0053578D01*
X0139396Y0054206D01*
X0139918Y0054924D01*
X0140321Y0055714D01*
X0140595Y0056559D01*
X0140734Y0057435D01*
X0140734Y0061238D01*
X0135575Y0061238D01*
X0135575Y0062197D01*
X0140734Y0062197D01*
X0140734Y0066000D01*
X0140595Y0066876D01*
X0140321Y0067721D01*
X0139918Y0068511D01*
X0139396Y0069229D01*
X0138768Y0069857D01*
X0138050Y0070379D01*
X0137260Y0070782D01*
X0136416Y0071056D01*
X0135575Y0071189D01*
X0135575Y0062197D01*
X0134616Y0062197D01*
X0134616Y0071189D01*
X0133775Y0071056D01*
X0132931Y0070782D01*
X0132140Y0070379D01*
X0131422Y0069857D01*
X0130794Y0069229D01*
X0130273Y0068511D01*
X0129870Y0067721D01*
X0129595Y0066876D01*
X0129457Y0066000D01*
X0129457Y0062197D01*
X0134616Y0062197D01*
X0134616Y0061238D01*
X0129457Y0061238D01*
X0129457Y0057435D01*
X0129520Y0057033D01*
X0126895Y0059658D01*
X0126895Y0080758D01*
X0124395Y0083258D01*
X0123341Y0084313D01*
X0108341Y0084313D01*
X0106941Y0085713D01*
X0107594Y0085059D02*
X0129857Y0085059D01*
X0129857Y0083461D02*
X0124193Y0083461D01*
X0125791Y0081862D02*
X0130091Y0081862D01*
X0130893Y0080264D02*
X0126895Y0080264D01*
X0126895Y0078665D02*
X0133005Y0078665D01*
X0137186Y0078665D02*
X0144595Y0078665D01*
X0144595Y0077067D02*
X0126895Y0077067D01*
X0126895Y0075468D02*
X0144595Y0075468D01*
X0144595Y0073870D02*
X0126895Y0073870D01*
X0126895Y0072271D02*
X0144595Y0072271D01*
X0144595Y0070673D02*
X0137473Y0070673D01*
X0135575Y0070673D02*
X0134616Y0070673D01*
X0134616Y0069074D02*
X0135575Y0069074D01*
X0135575Y0067476D02*
X0134616Y0067476D01*
X0134616Y0065877D02*
X0135575Y0065877D01*
X0135575Y0064279D02*
X0134616Y0064279D01*
X0134616Y0062680D02*
X0135575Y0062680D01*
X0140734Y0062680D02*
X0144595Y0062680D01*
X0144595Y0061081D02*
X0140734Y0061081D01*
X0140734Y0059483D02*
X0144595Y0059483D01*
X0144595Y0057884D02*
X0140734Y0057884D01*
X0140506Y0056286D02*
X0144595Y0056286D01*
X0144595Y0054687D02*
X0139746Y0054687D01*
X0138095Y0053089D02*
X0144595Y0053089D01*
X0144595Y0051490D02*
X0140041Y0051490D01*
X0140041Y0049892D02*
X0144595Y0049892D01*
X0144595Y0048293D02*
X0140041Y0048293D01*
X0140296Y0046695D02*
X0144595Y0046695D01*
X0144595Y0045096D02*
X0140582Y0045096D01*
X0140582Y0043498D02*
X0144595Y0043498D01*
X0144595Y0041899D02*
X0140582Y0041899D01*
X0140582Y0040301D02*
X0144595Y0040301D01*
X0144595Y0038702D02*
X0140582Y0038702D01*
X0140582Y0037104D02*
X0144595Y0037104D01*
X0144595Y0035505D02*
X0140582Y0035505D01*
X0140582Y0033907D02*
X0144595Y0033907D01*
X0144595Y0032308D02*
X0139636Y0032308D01*
X0138038Y0030710D02*
X0144595Y0030710D01*
X0135385Y0033148D02*
X0134350Y0032113D01*
X0093659Y0032113D01*
X0093883Y0032148D01*
X0094706Y0032416D01*
X0095478Y0032809D01*
X0096178Y0033318D01*
X0096790Y0033930D01*
X0097299Y0034630D01*
X0097692Y0035401D01*
X0097960Y0036225D01*
X0097977Y0036335D01*
X0098272Y0035624D01*
X0099706Y0034189D01*
X0101581Y0033413D01*
X0103610Y0033413D01*
X0105484Y0034189D01*
X0106919Y0035624D01*
X0107495Y0037016D01*
X0107495Y0036498D01*
X0108272Y0034624D01*
X0109706Y0033189D01*
X0111581Y0032413D01*
X0113610Y0032413D01*
X0115484Y0033189D01*
X0116919Y0034624D01*
X0117695Y0036498D01*
X0117695Y0037016D01*
X0118272Y0035624D01*
X0119706Y0034189D01*
X0121581Y0033413D01*
X0123610Y0033413D01*
X0125484Y0034189D01*
X0126919Y0035624D01*
X0127495Y0037016D01*
X0127495Y0036498D01*
X0128272Y0034624D01*
X0129706Y0033189D01*
X0131581Y0032413D01*
X0133610Y0032413D01*
X0135385Y0033148D01*
X0134545Y0032308D02*
X0094376Y0032308D01*
X0091531Y0032113D02*
X0077924Y0032113D01*
X0077924Y0035585D01*
X0078400Y0034930D01*
X0079012Y0034318D01*
X0079713Y0033809D01*
X0080484Y0033416D01*
X0081307Y0033148D01*
X0082162Y0033013D01*
X0082595Y0033013D01*
X0082595Y0038513D01*
X0082595Y0044013D01*
X0082162Y0044013D01*
X0081307Y0043877D01*
X0080484Y0043610D01*
X0079713Y0043217D01*
X0079012Y0042708D01*
X0078400Y0042096D01*
X0077891Y0041395D01*
X0077498Y0040624D01*
X0077231Y0039801D01*
X0077181Y0039486D01*
X0077104Y0039562D01*
X0069993Y0039562D01*
X0065395Y0044160D01*
X0065395Y0057258D01*
X0064341Y0058313D01*
X0063440Y0059214D01*
X0070875Y0059214D01*
X0071695Y0060034D01*
X0071695Y0061313D01*
X0073618Y0061313D01*
X0074122Y0060809D01*
X0075078Y0060413D01*
X0076112Y0060413D01*
X0077068Y0060809D01*
X0077799Y0061540D01*
X0078195Y0062496D01*
X0078195Y0063530D01*
X0077799Y0064486D01*
X0077295Y0064990D01*
X0077295Y0067927D01*
X0079696Y0065526D01*
X0079696Y0060383D01*
X0079808Y0060271D01*
X0074699Y0055162D01*
X0073610Y0055613D01*
X0071581Y0055613D01*
X0069706Y0054836D01*
X0068272Y0053402D01*
X0067495Y0051527D01*
X0067495Y0049498D01*
X0068272Y0047624D01*
X0069706Y0046189D01*
X0071581Y0045413D01*
X0073610Y0045413D01*
X0075484Y0046189D01*
X0076919Y0047624D01*
X0077495Y0049016D01*
X0077495Y0048498D01*
X0078272Y0046624D01*
X0079706Y0045189D01*
X0081581Y0044413D01*
X0083610Y0044413D01*
X0085484Y0045189D01*
X0086179Y0045884D01*
X0088795Y0043267D01*
X0089801Y0042262D01*
X0089713Y0042217D01*
X0089012Y0041708D01*
X0088400Y0041096D01*
X0087891Y0040395D01*
X0087815Y0040246D01*
X0087692Y0040624D01*
X0087299Y0041395D01*
X0086790Y0042096D01*
X0086178Y0042708D01*
X0085478Y0043217D01*
X0084706Y0043610D01*
X0083883Y0043877D01*
X0083028Y0044013D01*
X0082595Y0044013D01*
X0082595Y0038513D01*
X0082595Y0038513D01*
X0082595Y0038513D01*
X0082595Y0033013D01*
X0083028Y0033013D01*
X0083883Y0033148D01*
X0084706Y0033416D01*
X0085478Y0033809D01*
X0086178Y0034318D01*
X0086790Y0034930D01*
X0087299Y0035630D01*
X0087375Y0035780D01*
X0087498Y0035401D01*
X0087891Y0034630D01*
X0088400Y0033930D01*
X0089012Y0033318D01*
X0089713Y0032809D01*
X0090484Y0032416D01*
X0091307Y0032148D01*
X0091531Y0032113D01*
X0090815Y0032308D02*
X0077924Y0032308D01*
X0077924Y0033907D02*
X0079578Y0033907D01*
X0077982Y0035505D02*
X0077924Y0035505D01*
X0082595Y0035505D02*
X0082595Y0035505D01*
X0082595Y0033907D02*
X0082595Y0033907D01*
X0085613Y0033907D02*
X0088423Y0033907D01*
X0087464Y0035505D02*
X0087209Y0035505D01*
X0087797Y0040301D02*
X0087843Y0040301D01*
X0086933Y0041899D02*
X0089276Y0041899D01*
X0088564Y0043498D02*
X0084926Y0043498D01*
X0085260Y0045096D02*
X0086966Y0045096D01*
X0082595Y0043498D02*
X0082595Y0043498D01*
X0082595Y0041899D02*
X0082595Y0041899D01*
X0082595Y0040301D02*
X0082595Y0040301D01*
X0082595Y0038702D02*
X0082595Y0038702D01*
X0082595Y0037104D02*
X0082595Y0037104D01*
X0077393Y0040301D02*
X0069254Y0040301D01*
X0067656Y0041899D02*
X0078257Y0041899D01*
X0080264Y0043498D02*
X0066057Y0043498D01*
X0065395Y0045096D02*
X0079930Y0045096D01*
X0078242Y0046695D02*
X0075990Y0046695D01*
X0077196Y0048293D02*
X0077580Y0048293D01*
X0075823Y0056286D02*
X0065395Y0056286D01*
X0065395Y0054687D02*
X0069557Y0054687D01*
X0068142Y0053089D02*
X0065395Y0053089D01*
X0065395Y0051490D02*
X0067495Y0051490D01*
X0067495Y0049892D02*
X0065395Y0049892D01*
X0065395Y0048293D02*
X0067994Y0048293D01*
X0069201Y0046695D02*
X0065395Y0046695D01*
X0061795Y0046695D02*
X0036990Y0046695D01*
X0036484Y0046189D02*
X0037919Y0047624D01*
X0038695Y0049498D01*
X0038695Y0051527D01*
X0038244Y0052616D01*
X0046341Y0060713D01*
X0047395Y0061767D01*
X0047395Y0083267D01*
X0054546Y0090418D01*
X0054546Y0089134D01*
X0055366Y0088314D01*
X0062825Y0088314D01*
X0063645Y0089134D01*
X0063645Y0091017D01*
X0064395Y0091767D01*
X0065841Y0093213D01*
X0072841Y0093213D01*
X0073695Y0094067D01*
X0073695Y0064913D01*
X0071695Y0064913D01*
X0071695Y0066312D01*
X0071094Y0066913D01*
X0071695Y0067514D01*
X0071695Y0073792D01*
X0070875Y0074612D01*
X0069595Y0074612D01*
X0069595Y0076620D01*
X0069804Y0076706D01*
X0070901Y0077804D01*
X0071495Y0079237D01*
X0071495Y0080789D01*
X0070901Y0082222D01*
X0069804Y0083319D01*
X0068371Y0083913D01*
X0066819Y0083913D01*
X0065386Y0083319D01*
X0064289Y0082222D01*
X0063695Y0080789D01*
X0063695Y0079237D01*
X0064289Y0077804D01*
X0065386Y0076706D01*
X0065595Y0076620D01*
X0065595Y0074612D01*
X0063416Y0074612D01*
X0062596Y0073792D01*
X0062596Y0072653D01*
X0062332Y0072653D01*
X0062268Y0072717D01*
X0061312Y0073113D01*
X0060278Y0073113D01*
X0059322Y0072717D01*
X0058591Y0071986D01*
X0058195Y0071030D01*
X0058195Y0069996D01*
X0058591Y0069040D01*
X0059322Y0068309D01*
X0060278Y0067913D01*
X0061312Y0067913D01*
X0062268Y0068309D01*
X0062596Y0068636D01*
X0062596Y0067514D01*
X0063197Y0066913D01*
X0062596Y0066312D01*
X0062596Y0060058D01*
X0057895Y0064758D01*
X0056841Y0065813D01*
X0056245Y0065813D01*
X0056245Y0067343D01*
X0055425Y0068163D01*
X0048765Y0068163D01*
X0047945Y0067343D01*
X0047945Y0060683D01*
X0048765Y0059863D01*
X0055425Y0059863D01*
X0056245Y0060683D01*
X0056245Y0061317D01*
X0057850Y0059713D01*
X0055845Y0059713D01*
X0055845Y0054313D01*
X0055445Y0054313D01*
X0055445Y0059713D01*
X0053326Y0059713D01*
X0050045Y0056432D01*
X0050045Y0054313D01*
X0055445Y0054313D01*
X0055445Y0053913D01*
X0050045Y0053913D01*
X0050045Y0051793D01*
X0053326Y0048513D01*
X0055445Y0048513D01*
X0055445Y0053913D01*
X0055845Y0053913D01*
X0055845Y0054313D01*
X0061245Y0054313D01*
X0061245Y0056317D01*
X0061795Y0055767D01*
X0061795Y0042669D01*
X0066069Y0038395D01*
X0066069Y0031283D01*
X0066889Y0030463D01*
X0074001Y0030463D01*
X0074951Y0029513D01*
X0035111Y0029513D01*
X0035401Y0029804D01*
X0035995Y0031237D01*
X0035995Y0032789D01*
X0035401Y0034222D01*
X0034304Y0035319D01*
X0033895Y0035488D01*
X0033895Y0035945D01*
X0034484Y0036189D01*
X0035919Y0037624D01*
X0036695Y0039498D01*
X0036695Y0041527D01*
X0035919Y0043402D01*
X0034484Y0044836D01*
X0033092Y0045413D01*
X0034610Y0045413D01*
X0036484Y0046189D01*
X0038196Y0048293D02*
X0061795Y0048293D01*
X0061795Y0049892D02*
X0059344Y0049892D01*
X0057965Y0048513D02*
X0055845Y0048513D01*
X0055845Y0053913D01*
X0061245Y0053913D01*
X0061245Y0051793D01*
X0057965Y0048513D01*
X0055845Y0049892D02*
X0055445Y0049892D01*
X0055445Y0051490D02*
X0055845Y0051490D01*
X0055845Y0053089D02*
X0055445Y0053089D01*
X0055445Y0054687D02*
X0055845Y0054687D01*
X0055845Y0056286D02*
X0055445Y0056286D01*
X0055445Y0057884D02*
X0055845Y0057884D01*
X0055845Y0059483D02*
X0055445Y0059483D01*
X0056245Y0061081D02*
X0056481Y0061081D01*
X0058375Y0064279D02*
X0062596Y0064279D01*
X0062596Y0065877D02*
X0056245Y0065877D01*
X0056112Y0067476D02*
X0062634Y0067476D01*
X0058577Y0069074D02*
X0047395Y0069074D01*
X0047395Y0067476D02*
X0048078Y0067476D01*
X0047945Y0065877D02*
X0047395Y0065877D01*
X0047395Y0064279D02*
X0047945Y0064279D01*
X0047945Y0062680D02*
X0047395Y0062680D01*
X0047945Y0061081D02*
X0046709Y0061081D01*
X0046341Y0060713D02*
X0046341Y0060713D01*
X0045111Y0059483D02*
X0053096Y0059483D01*
X0051497Y0057884D02*
X0043512Y0057884D01*
X0041914Y0056286D02*
X0050045Y0056286D01*
X0050045Y0054687D02*
X0040315Y0054687D01*
X0038717Y0053089D02*
X0050045Y0053089D01*
X0050348Y0051490D02*
X0038695Y0051490D01*
X0038695Y0049892D02*
X0051946Y0049892D01*
X0060942Y0051490D02*
X0061795Y0051490D01*
X0061795Y0053089D02*
X0061245Y0053089D01*
X0061245Y0054687D02*
X0061795Y0054687D01*
X0061276Y0056286D02*
X0061245Y0056286D01*
X0064769Y0057884D02*
X0077421Y0057884D01*
X0079020Y0059483D02*
X0071144Y0059483D01*
X0071695Y0061081D02*
X0073849Y0061081D01*
X0077341Y0061081D02*
X0079696Y0061081D01*
X0079696Y0062680D02*
X0078195Y0062680D01*
X0077885Y0064279D02*
X0079696Y0064279D01*
X0079345Y0065877D02*
X0077295Y0065877D01*
X0077295Y0067476D02*
X0077747Y0067476D01*
X0073695Y0067476D02*
X0071656Y0067476D01*
X0071695Y0069074D02*
X0073695Y0069074D01*
X0073695Y0070673D02*
X0071695Y0070673D01*
X0071695Y0072271D02*
X0073695Y0072271D01*
X0073695Y0073870D02*
X0071617Y0073870D01*
X0069595Y0075468D02*
X0073695Y0075468D01*
X0073695Y0077067D02*
X0070164Y0077067D01*
X0071258Y0078665D02*
X0073695Y0078665D01*
X0073695Y0080264D02*
X0071495Y0080264D01*
X0071050Y0081862D02*
X0073695Y0081862D01*
X0073695Y0083461D02*
X0069462Y0083461D01*
X0068112Y0086413D02*
X0069068Y0086809D01*
X0069799Y0087540D01*
X0070195Y0088496D01*
X0070195Y0089530D01*
X0069799Y0090486D01*
X0069068Y0091217D01*
X0068112Y0091613D01*
X0067078Y0091613D01*
X0066122Y0091217D01*
X0065391Y0090486D01*
X0064995Y0089530D01*
X0064995Y0088958D01*
X0056245Y0080208D01*
X0056245Y0080343D01*
X0055425Y0081163D01*
X0048765Y0081163D01*
X0047945Y0080343D01*
X0047945Y0073683D01*
X0048765Y0072863D01*
X0055425Y0072863D01*
X0056245Y0073683D01*
X0056245Y0075213D01*
X0056341Y0075213D01*
X0067541Y0086413D01*
X0068112Y0086413D01*
X0068704Y0086658D02*
X0073695Y0086658D01*
X0073695Y0088256D02*
X0070096Y0088256D01*
X0070061Y0089855D02*
X0073695Y0089855D01*
X0073695Y0091453D02*
X0068498Y0091453D01*
X0066693Y0091453D02*
X0064081Y0091453D01*
X0063645Y0089855D02*
X0065130Y0089855D01*
X0064293Y0088256D02*
X0052384Y0088256D01*
X0050786Y0086658D02*
X0062695Y0086658D01*
X0061096Y0085059D02*
X0049187Y0085059D01*
X0047589Y0083461D02*
X0059498Y0083461D01*
X0057899Y0081862D02*
X0047395Y0081862D01*
X0047395Y0080264D02*
X0047945Y0080264D01*
X0047945Y0078665D02*
X0047395Y0078665D01*
X0047395Y0077067D02*
X0047945Y0077067D01*
X0047945Y0075468D02*
X0047395Y0075468D01*
X0047395Y0073870D02*
X0047945Y0073870D01*
X0047395Y0072271D02*
X0058877Y0072271D01*
X0058195Y0070673D02*
X0047395Y0070673D01*
X0043795Y0070196D02*
X0043795Y0063258D01*
X0035699Y0055162D01*
X0034610Y0055613D01*
X0034093Y0055613D01*
X0034478Y0055809D01*
X0035178Y0056318D01*
X0035790Y0056930D01*
X0036299Y0057630D01*
X0036692Y0058401D01*
X0036960Y0059225D01*
X0037095Y0060080D01*
X0037095Y0060313D01*
X0031795Y0060313D01*
X0031795Y0060713D01*
X0037095Y0060713D01*
X0037095Y0060946D01*
X0036960Y0061801D01*
X0036692Y0062624D01*
X0036299Y0063395D01*
X0035790Y0064096D01*
X0035178Y0064708D01*
X0034478Y0065217D01*
X0034093Y0065413D01*
X0034610Y0065413D01*
X0036484Y0066189D01*
X0037919Y0067624D01*
X0038695Y0069498D01*
X0038695Y0071527D01*
X0038244Y0072616D01*
X0040795Y0075167D01*
X0040795Y0074390D01*
X0040391Y0073986D01*
X0039995Y0073030D01*
X0039995Y0071996D01*
X0040391Y0071040D01*
X0041122Y0070309D01*
X0042078Y0069913D01*
X0043112Y0069913D01*
X0043795Y0070196D01*
X0043795Y0069074D02*
X0038519Y0069074D01*
X0038695Y0070673D02*
X0040758Y0070673D01*
X0039995Y0072271D02*
X0038387Y0072271D01*
X0039498Y0073870D02*
X0040343Y0073870D01*
X0037770Y0067476D02*
X0043795Y0067476D01*
X0043795Y0065877D02*
X0035730Y0065877D01*
X0035608Y0064279D02*
X0043795Y0064279D01*
X0043217Y0062680D02*
X0036664Y0062680D01*
X0037074Y0061081D02*
X0041618Y0061081D01*
X0040020Y0059483D02*
X0037001Y0059483D01*
X0036429Y0057884D02*
X0038421Y0057884D01*
X0036823Y0056286D02*
X0035135Y0056286D01*
X0031141Y0055016D02*
X0030706Y0054836D01*
X0029272Y0053402D01*
X0028495Y0051527D01*
X0028495Y0049498D01*
X0029272Y0047624D01*
X0030706Y0046189D01*
X0032098Y0045613D01*
X0030581Y0045613D01*
X0028706Y0044836D01*
X0027272Y0043402D01*
X0026495Y0041527D01*
X0026495Y0039498D01*
X0027272Y0037624D01*
X0028706Y0036189D01*
X0030295Y0035531D01*
X0030295Y0035488D01*
X0029886Y0035319D01*
X0028789Y0034222D01*
X0028195Y0032789D01*
X0028195Y0031237D01*
X0028789Y0029804D01*
X0029080Y0029513D01*
X0024595Y0029513D01*
X0024595Y0082184D01*
X0026495Y0080284D01*
X0026495Y0079498D01*
X0027272Y0077624D01*
X0028706Y0076189D01*
X0030581Y0075413D01*
X0032098Y0075413D01*
X0030706Y0074836D01*
X0029272Y0073402D01*
X0028495Y0071527D01*
X0028495Y0069498D01*
X0029272Y0067624D01*
X0030706Y0066189D01*
X0031141Y0066009D01*
X0030307Y0065877D01*
X0029484Y0065610D01*
X0028713Y0065217D01*
X0028012Y0064708D01*
X0027400Y0064096D01*
X0026891Y0063395D01*
X0026498Y0062624D01*
X0026231Y0061801D01*
X0026095Y0060946D01*
X0026095Y0060713D01*
X0031395Y0060713D01*
X0031395Y0060313D01*
X0026095Y0060313D01*
X0026095Y0060080D01*
X0026231Y0059225D01*
X0026498Y0058401D01*
X0026891Y0057630D01*
X0027400Y0056930D01*
X0028012Y0056318D01*
X0028713Y0055809D01*
X0029484Y0055416D01*
X0030307Y0055148D01*
X0031141Y0055016D01*
X0030557Y0054687D02*
X0024595Y0054687D01*
X0024595Y0053089D02*
X0029142Y0053089D01*
X0028495Y0051490D02*
X0024595Y0051490D01*
X0024595Y0049892D02*
X0028495Y0049892D01*
X0028994Y0048293D02*
X0024595Y0048293D01*
X0024595Y0046695D02*
X0030201Y0046695D01*
X0029334Y0045096D02*
X0024595Y0045096D01*
X0024595Y0043498D02*
X0027368Y0043498D01*
X0026649Y0041899D02*
X0024595Y0041899D01*
X0024595Y0040301D02*
X0026495Y0040301D01*
X0026825Y0038702D02*
X0024595Y0038702D01*
X0024595Y0037104D02*
X0027792Y0037104D01*
X0030295Y0035505D02*
X0024595Y0035505D01*
X0024595Y0033907D02*
X0028658Y0033907D01*
X0028195Y0032308D02*
X0024595Y0032308D01*
X0024595Y0030710D02*
X0028414Y0030710D01*
X0033895Y0035505D02*
X0046419Y0035505D01*
X0046419Y0035788D02*
X0046419Y0034238D01*
X0047968Y0034238D01*
X0047968Y0030063D01*
X0051958Y0030063D01*
X0052416Y0030186D01*
X0052826Y0030423D01*
X0053162Y0030758D01*
X0053398Y0031168D01*
X0053521Y0031626D01*
X0053521Y0034238D01*
X0047968Y0034238D01*
X0047968Y0035788D01*
X0046419Y0035788D01*
X0046419Y0039962D01*
X0042429Y0039962D01*
X0041971Y0039840D01*
X0041561Y0039603D01*
X0041226Y0039268D01*
X0040989Y0038857D01*
X0040866Y0038399D01*
X0040866Y0035788D01*
X0046419Y0035788D01*
X0046419Y0037104D02*
X0047968Y0037104D01*
X0047968Y0035788D02*
X0047968Y0039962D01*
X0051958Y0039962D01*
X0052416Y0039840D01*
X0052826Y0039603D01*
X0053162Y0039268D01*
X0053398Y0038857D01*
X0053521Y0038399D01*
X0053521Y0035788D01*
X0047968Y0035788D01*
X0047968Y0035505D02*
X0066069Y0035505D01*
X0066069Y0033907D02*
X0053521Y0033907D01*
X0053521Y0032308D02*
X0066069Y0032308D01*
X0066643Y0030710D02*
X0053113Y0030710D01*
X0047968Y0030710D02*
X0046419Y0030710D01*
X0046419Y0030063D02*
X0042429Y0030063D01*
X0041971Y0030186D01*
X0041561Y0030423D01*
X0041226Y0030758D01*
X0040989Y0031168D01*
X0040866Y0031626D01*
X0040866Y0034238D01*
X0046419Y0034238D01*
X0046419Y0030063D01*
X0046419Y0032308D02*
X0047968Y0032308D01*
X0047968Y0033907D02*
X0046419Y0033907D01*
X0046419Y0038702D02*
X0047968Y0038702D01*
X0053440Y0038702D02*
X0065762Y0038702D01*
X0066069Y0037104D02*
X0053521Y0037104D01*
X0061795Y0043498D02*
X0035823Y0043498D01*
X0036541Y0041899D02*
X0062565Y0041899D01*
X0064163Y0040301D02*
X0036695Y0040301D01*
X0036365Y0038702D02*
X0040947Y0038702D01*
X0040866Y0037104D02*
X0035399Y0037104D01*
X0035532Y0033907D02*
X0040866Y0033907D01*
X0040866Y0032308D02*
X0035995Y0032308D01*
X0035777Y0030710D02*
X0041274Y0030710D01*
X0033856Y0045096D02*
X0061795Y0045096D01*
X0061572Y0061081D02*
X0062596Y0061081D01*
X0062596Y0062680D02*
X0059973Y0062680D01*
X0062673Y0073870D02*
X0056245Y0073870D01*
X0056596Y0075468D02*
X0065595Y0075468D01*
X0065026Y0077067D02*
X0058195Y0077067D01*
X0059793Y0078665D02*
X0063932Y0078665D01*
X0063695Y0080264D02*
X0061392Y0080264D01*
X0062990Y0081862D02*
X0064140Y0081862D01*
X0064589Y0083461D02*
X0065728Y0083461D01*
X0066187Y0085059D02*
X0073695Y0085059D01*
X0073695Y0093052D02*
X0065680Y0093052D01*
X0066966Y0101553D02*
X0063645Y0101553D01*
X0063645Y0102892D01*
X0062825Y0103712D01*
X0057340Y0103712D01*
X0061317Y0107689D01*
X0061915Y0107689D01*
X0062615Y0106989D01*
X0068775Y0106989D01*
X0069595Y0107809D01*
X0069595Y0116692D01*
X0069636Y0116733D01*
X0069873Y0117143D01*
X0069995Y0117601D01*
X0069995Y0118938D01*
X0069995Y0120275D01*
X0069873Y0120733D01*
X0069636Y0121143D01*
X0069595Y0121184D01*
X0069595Y0126513D01*
X0072267Y0126513D01*
X0075542Y0123237D01*
X0086371Y0123237D01*
X0085995Y0122330D01*
X0085995Y0121296D01*
X0086391Y0120340D01*
X0086753Y0119978D01*
X0086122Y0119717D01*
X0085391Y0118986D01*
X0084995Y0118030D01*
X0084995Y0117458D01*
X0082370Y0114833D01*
X0082370Y0107513D01*
X0069892Y0107513D01*
X0069072Y0106693D01*
X0069072Y0103658D01*
X0066966Y0101553D01*
X0068056Y0102643D02*
X0063645Y0102643D01*
X0062166Y0107438D02*
X0061066Y0107438D01*
X0059468Y0105840D02*
X0069072Y0105840D01*
X0069072Y0104241D02*
X0057869Y0104241D01*
X0050348Y0105811D02*
X0037925Y0093388D01*
X0037919Y0093402D01*
X0036484Y0094836D01*
X0034610Y0095613D01*
X0032581Y0095613D01*
X0030706Y0094836D01*
X0029272Y0093402D01*
X0028495Y0091527D01*
X0028495Y0089498D01*
X0029272Y0087624D01*
X0030706Y0086189D01*
X0032098Y0085613D01*
X0030581Y0085613D01*
X0028706Y0084836D01*
X0028153Y0084283D01*
X0027095Y0085341D01*
X0027095Y0101601D01*
X0027235Y0101263D01*
X0029345Y0099153D01*
X0032103Y0098010D01*
X0035087Y0098010D01*
X0037845Y0099153D01*
X0039955Y0101263D01*
X0041098Y0104020D01*
X0041098Y0107005D01*
X0039955Y0109762D01*
X0037845Y0111873D01*
X0035087Y0113015D01*
X0032103Y0113015D01*
X0029345Y0111873D01*
X0027235Y0109762D01*
X0027095Y0109425D01*
X0027095Y0122963D01*
X0029994Y0122963D01*
X0030595Y0123564D01*
X0030735Y0123425D01*
X0029611Y0122301D01*
X0028895Y0120574D01*
X0028895Y0118704D01*
X0029611Y0116976D01*
X0030933Y0115654D01*
X0032660Y0114939D01*
X0034530Y0114939D01*
X0036258Y0115654D01*
X0037316Y0116713D01*
X0038445Y0116713D01*
X0038445Y0116439D01*
X0039522Y0115363D01*
X0043669Y0115363D01*
X0044745Y0116439D01*
X0044745Y0116713D01*
X0049250Y0116713D01*
X0047199Y0114662D01*
X0043116Y0114662D01*
X0042296Y0113842D01*
X0042296Y0106383D01*
X0043116Y0105563D01*
X0049394Y0105563D01*
X0049995Y0106164D01*
X0050348Y0105811D01*
X0050320Y0105840D02*
X0049671Y0105840D01*
X0048778Y0104241D02*
X0041098Y0104241D01*
X0041098Y0105840D02*
X0042839Y0105840D01*
X0042296Y0107438D02*
X0040918Y0107438D01*
X0040256Y0109037D02*
X0042296Y0109037D01*
X0042296Y0110635D02*
X0039083Y0110635D01*
X0036974Y0112234D02*
X0042296Y0112234D01*
X0042296Y0113832D02*
X0027095Y0113832D01*
X0027095Y0112234D02*
X0030217Y0112234D01*
X0028108Y0110635D02*
X0027095Y0110635D01*
X0027095Y0115431D02*
X0031472Y0115431D01*
X0029589Y0117029D02*
X0027095Y0117029D01*
X0027095Y0118628D02*
X0028927Y0118628D01*
X0028895Y0120226D02*
X0027095Y0120226D01*
X0027095Y0121825D02*
X0029413Y0121825D01*
X0030454Y0123423D02*
X0030733Y0123423D01*
X0038294Y0126856D02*
X0038294Y0131242D01*
X0037479Y0132058D01*
X0037485Y0132064D01*
X0037957Y0132714D01*
X0038322Y0133429D01*
X0038570Y0134193D01*
X0038695Y0134985D01*
X0038695Y0135387D01*
X0038695Y0135788D01*
X0038570Y0136581D01*
X0038322Y0137344D01*
X0037957Y0138060D01*
X0037628Y0138513D01*
X0052655Y0138513D01*
X0051820Y0138167D01*
X0050441Y0136788D01*
X0050179Y0136155D01*
X0050151Y0136222D01*
X0049054Y0137319D01*
X0047621Y0137913D01*
X0046069Y0137913D01*
X0044636Y0137319D01*
X0043539Y0136222D01*
X0042945Y0134789D01*
X0042945Y0133237D01*
X0043539Y0131804D01*
X0044636Y0130706D01*
X0046069Y0130113D01*
X0047450Y0130113D01*
X0049100Y0128462D01*
X0048638Y0128462D01*
X0048638Y0123992D01*
X0047679Y0123992D01*
X0047679Y0128462D01*
X0045362Y0128462D01*
X0044904Y0128340D01*
X0044494Y0128103D01*
X0044159Y0127768D01*
X0044124Y0127707D01*
X0043771Y0127910D01*
X0043202Y0128063D01*
X0041670Y0128063D01*
X0041670Y0124588D01*
X0041520Y0124588D01*
X0041520Y0128063D01*
X0039988Y0128063D01*
X0039419Y0127910D01*
X0038909Y0127616D01*
X0038492Y0127199D01*
X0038294Y0126856D01*
X0038294Y0128219D02*
X0044695Y0128219D01*
X0047679Y0128219D02*
X0048638Y0128219D01*
X0048638Y0126620D02*
X0047679Y0126620D01*
X0047679Y0125022D02*
X0048638Y0125022D01*
X0047745Y0129817D02*
X0038294Y0129817D01*
X0038121Y0131416D02*
X0043927Y0131416D01*
X0043037Y0133015D02*
X0038110Y0133015D01*
X0038636Y0134613D02*
X0042945Y0134613D01*
X0043535Y0136212D02*
X0038628Y0136212D01*
X0038695Y0135387D02*
X0033595Y0135387D01*
X0033595Y0135387D01*
X0028495Y0135387D01*
X0028495Y0135788D01*
X0028621Y0136581D01*
X0028869Y0137344D01*
X0029233Y0138060D01*
X0029648Y0138631D01*
X0027095Y0141184D01*
X0027095Y0132062D01*
X0029707Y0132062D01*
X0029705Y0132064D01*
X0029233Y0132714D01*
X0028869Y0133429D01*
X0028621Y0134193D01*
X0028495Y0134985D01*
X0028495Y0135387D01*
X0033595Y0135387D01*
X0033595Y0135387D01*
X0038695Y0135387D01*
X0038084Y0137810D02*
X0045821Y0137810D01*
X0047869Y0137810D02*
X0051463Y0137810D01*
X0050202Y0136212D02*
X0050156Y0136212D01*
X0041670Y0126620D02*
X0041520Y0126620D01*
X0041520Y0125022D02*
X0041670Y0125022D01*
X0043737Y0115431D02*
X0047968Y0115431D01*
X0039453Y0115431D02*
X0035718Y0115431D01*
X0040527Y0102643D02*
X0047180Y0102643D01*
X0045581Y0101044D02*
X0039737Y0101044D01*
X0038138Y0099446D02*
X0043983Y0099446D01*
X0042384Y0097847D02*
X0027095Y0097847D01*
X0027095Y0096249D02*
X0040786Y0096249D01*
X0039187Y0094650D02*
X0036670Y0094650D01*
X0030520Y0094650D02*
X0027095Y0094650D01*
X0027095Y0093052D02*
X0029127Y0093052D01*
X0028495Y0091453D02*
X0027095Y0091453D01*
X0027095Y0089855D02*
X0028495Y0089855D01*
X0029010Y0088256D02*
X0027095Y0088256D01*
X0027095Y0086658D02*
X0030238Y0086658D01*
X0029244Y0085059D02*
X0027377Y0085059D01*
X0024917Y0081862D02*
X0024595Y0081862D01*
X0024595Y0080264D02*
X0026495Y0080264D01*
X0026840Y0078665D02*
X0024595Y0078665D01*
X0024595Y0077067D02*
X0027829Y0077067D01*
X0030447Y0075468D02*
X0024595Y0075468D01*
X0024595Y0073870D02*
X0029740Y0073870D01*
X0028803Y0072271D02*
X0024595Y0072271D01*
X0024595Y0070673D02*
X0028495Y0070673D01*
X0028671Y0069074D02*
X0024595Y0069074D01*
X0024595Y0067476D02*
X0029420Y0067476D01*
X0030306Y0065877D02*
X0024595Y0065877D01*
X0024595Y0064279D02*
X0027583Y0064279D01*
X0026527Y0062680D02*
X0024595Y0062680D01*
X0024595Y0061081D02*
X0026117Y0061081D01*
X0026190Y0059483D02*
X0024595Y0059483D01*
X0024595Y0057884D02*
X0026762Y0057884D01*
X0028056Y0056286D02*
X0024595Y0056286D01*
X0056245Y0080264D02*
X0056300Y0080264D01*
X0054546Y0089855D02*
X0053983Y0089855D01*
X0069224Y0107438D02*
X0069817Y0107438D01*
X0069595Y0109037D02*
X0082370Y0109037D01*
X0082370Y0110635D02*
X0069595Y0110635D01*
X0069595Y0112234D02*
X0082370Y0112234D01*
X0082370Y0113832D02*
X0069595Y0113832D01*
X0069595Y0115431D02*
X0082968Y0115431D01*
X0084566Y0117029D02*
X0069807Y0117029D01*
X0069995Y0118628D02*
X0085243Y0118628D01*
X0086505Y0120226D02*
X0069995Y0120226D01*
X0069995Y0118938D02*
X0065695Y0118938D01*
X0065695Y0118938D01*
X0069995Y0118938D01*
X0069595Y0121825D02*
X0085995Y0121825D01*
X0079795Y0127237D02*
X0077199Y0127237D01*
X0075095Y0129341D01*
X0073924Y0130513D01*
X0069595Y0130513D01*
X0069595Y0133216D01*
X0068775Y0134036D01*
X0067495Y0134036D01*
X0067495Y0138567D01*
X0069072Y0136991D01*
X0069072Y0134333D01*
X0069892Y0133513D01*
X0079220Y0133513D01*
X0079220Y0133192D01*
X0079233Y0133180D01*
X0079264Y0131358D01*
X0078891Y0130986D01*
X0078495Y0130030D01*
X0078495Y0128996D01*
X0078891Y0128040D01*
X0079622Y0127309D01*
X0079795Y0127237D01*
X0078817Y0128219D02*
X0076217Y0128219D01*
X0074619Y0129817D02*
X0078495Y0129817D01*
X0079263Y0131416D02*
X0069595Y0131416D01*
X0069595Y0133015D02*
X0079236Y0133015D01*
X0083373Y0128219D02*
X0083839Y0128219D01*
X0075356Y0123423D02*
X0069595Y0123423D01*
X0069595Y0125022D02*
X0073758Y0125022D01*
X0069072Y0134613D02*
X0067495Y0134613D01*
X0067495Y0136212D02*
X0069072Y0136212D01*
X0068252Y0137810D02*
X0067495Y0137810D01*
X0069772Y0141382D02*
X0064341Y0146813D01*
X0062850Y0146813D01*
X0036841Y0146813D01*
X0035695Y0147958D01*
X0035695Y0148530D01*
X0035299Y0149486D01*
X0034895Y0149890D01*
X0034895Y0162267D01*
X0035492Y0162864D01*
X0036581Y0162413D01*
X0038610Y0162413D01*
X0040484Y0163189D01*
X0041919Y0164624D01*
X0042595Y0166257D01*
X0043272Y0164624D01*
X0044706Y0163189D01*
X0046581Y0162413D01*
X0048610Y0162413D01*
X0050484Y0163189D01*
X0051919Y0164624D01*
X0052370Y0165713D01*
X0066850Y0165713D01*
X0067095Y0165467D01*
X0067095Y0148890D01*
X0066691Y0148486D01*
X0066295Y0147530D01*
X0066295Y0146496D01*
X0066691Y0145540D01*
X0067422Y0144809D01*
X0068378Y0144413D01*
X0069412Y0144413D01*
X0069772Y0144562D01*
X0069772Y0141382D01*
X0069772Y0142606D02*
X0068548Y0142606D01*
X0069772Y0144204D02*
X0066949Y0144204D01*
X0066582Y0145803D02*
X0065351Y0145803D01*
X0066295Y0147401D02*
X0036252Y0147401D01*
X0035501Y0149000D02*
X0067095Y0149000D01*
X0067095Y0150598D02*
X0034895Y0150598D01*
X0034895Y0152197D02*
X0067095Y0152197D01*
X0067095Y0153795D02*
X0034895Y0153795D01*
X0034895Y0155394D02*
X0067095Y0155394D01*
X0067095Y0156992D02*
X0034895Y0156992D01*
X0034895Y0158591D02*
X0067095Y0158591D01*
X0067095Y0160189D02*
X0034895Y0160189D01*
X0034895Y0161788D02*
X0067095Y0161788D01*
X0067095Y0163386D02*
X0050681Y0163386D01*
X0052068Y0164985D02*
X0067095Y0164985D01*
X0068467Y0187313D02*
X0061341Y0187313D01*
X0053244Y0195409D01*
X0053370Y0195713D01*
X0056119Y0195713D01*
X0056289Y0195304D01*
X0057386Y0194206D01*
X0058819Y0193613D01*
X0060371Y0193613D01*
X0061804Y0194206D01*
X0062901Y0195304D01*
X0063495Y0196737D01*
X0063495Y0198289D01*
X0062901Y0199722D01*
X0061804Y0200819D01*
X0060371Y0201413D01*
X0058819Y0201413D01*
X0057386Y0200819D01*
X0056289Y0199722D01*
X0056119Y0199313D01*
X0053370Y0199313D01*
X0052919Y0200402D01*
X0051484Y0201836D01*
X0049610Y0202613D01*
X0047581Y0202613D01*
X0045706Y0201836D01*
X0044272Y0200402D01*
X0043805Y0199276D01*
X0043692Y0199624D01*
X0043299Y0200395D01*
X0042790Y0201096D01*
X0042178Y0201708D01*
X0041478Y0202217D01*
X0040706Y0202610D01*
X0039883Y0202877D01*
X0039028Y0203013D01*
X0038795Y0203013D01*
X0038795Y0197713D01*
X0038395Y0197713D01*
X0038395Y0203013D01*
X0038162Y0203013D01*
X0037307Y0202877D01*
X0036484Y0202610D01*
X0035713Y0202217D01*
X0035012Y0201708D01*
X0034400Y0201096D01*
X0033891Y0200395D01*
X0033498Y0199624D01*
X0033231Y0198801D01*
X0033095Y0197946D01*
X0033095Y0197713D01*
X0038395Y0197713D01*
X0038395Y0197313D01*
X0033095Y0197313D01*
X0033095Y0197080D01*
X0033231Y0196225D01*
X0033498Y0195401D01*
X0033891Y0194630D01*
X0034400Y0193930D01*
X0035012Y0193318D01*
X0035713Y0192809D01*
X0036314Y0192502D01*
X0034706Y0191836D01*
X0033272Y0190402D01*
X0032495Y0188527D01*
X0032495Y0186498D01*
X0033272Y0184624D01*
X0034706Y0183189D01*
X0036581Y0182413D01*
X0037098Y0182413D01*
X0035706Y0181836D01*
X0034272Y0180402D01*
X0033495Y0178527D01*
X0033495Y0176498D01*
X0033800Y0175763D01*
X0028795Y0170758D01*
X0028795Y0146067D01*
X0032350Y0142513D01*
X0031424Y0142513D01*
X0027095Y0146841D01*
X0027095Y0204184D01*
X0031624Y0208713D01*
X0067467Y0208713D01*
X0070025Y0206155D01*
X0069995Y0206125D01*
X0069995Y0201900D01*
X0070075Y0201821D01*
X0066095Y0197841D01*
X0066095Y0189684D01*
X0067267Y0188513D01*
X0068467Y0187313D01*
X0068416Y0187364D02*
X0061290Y0187364D01*
X0059691Y0188962D02*
X0066817Y0188962D01*
X0066095Y0190561D02*
X0058093Y0190561D01*
X0056494Y0192159D02*
X0066095Y0192159D01*
X0066095Y0193758D02*
X0060721Y0193758D01*
X0058469Y0193758D02*
X0054896Y0193758D01*
X0056267Y0195356D02*
X0053297Y0195356D01*
X0053022Y0200152D02*
X0056719Y0200152D01*
X0051570Y0201750D02*
X0070005Y0201750D01*
X0069995Y0203349D02*
X0027095Y0203349D01*
X0027095Y0201750D02*
X0035071Y0201750D01*
X0033767Y0200152D02*
X0027095Y0200152D01*
X0027095Y0198553D02*
X0033191Y0198553D01*
X0033115Y0196955D02*
X0027095Y0196955D01*
X0027095Y0195356D02*
X0033521Y0195356D01*
X0034572Y0193758D02*
X0027095Y0193758D01*
X0027095Y0192159D02*
X0035486Y0192159D01*
X0033431Y0190561D02*
X0027095Y0190561D01*
X0027095Y0188962D02*
X0032675Y0188962D01*
X0032495Y0187364D02*
X0027095Y0187364D01*
X0027095Y0185765D02*
X0032799Y0185765D01*
X0033729Y0184167D02*
X0027095Y0184167D01*
X0027095Y0182568D02*
X0036205Y0182568D01*
X0034840Y0180970D02*
X0027095Y0180970D01*
X0027095Y0179371D02*
X0033845Y0179371D01*
X0033495Y0177773D02*
X0027095Y0177773D01*
X0027095Y0176174D02*
X0033629Y0176174D01*
X0032613Y0174576D02*
X0027095Y0174576D01*
X0027095Y0172977D02*
X0031014Y0172977D01*
X0029416Y0171379D02*
X0027095Y0171379D01*
X0027095Y0169780D02*
X0028795Y0169780D01*
X0028795Y0168182D02*
X0027095Y0168182D01*
X0027095Y0166583D02*
X0028795Y0166583D01*
X0028795Y0164985D02*
X0027095Y0164985D01*
X0027095Y0163386D02*
X0028795Y0163386D01*
X0028795Y0161788D02*
X0027095Y0161788D01*
X0027095Y0160189D02*
X0028795Y0160189D01*
X0028795Y0158591D02*
X0027095Y0158591D01*
X0027095Y0156992D02*
X0028795Y0156992D01*
X0028795Y0155394D02*
X0027095Y0155394D01*
X0027095Y0153795D02*
X0028795Y0153795D01*
X0028795Y0152197D02*
X0027095Y0152197D01*
X0027095Y0150598D02*
X0028795Y0150598D01*
X0028795Y0149000D02*
X0027095Y0149000D01*
X0027095Y0147401D02*
X0028795Y0147401D01*
X0029060Y0145803D02*
X0028134Y0145803D01*
X0029732Y0144204D02*
X0030658Y0144204D01*
X0031331Y0142606D02*
X0032257Y0142606D01*
X0028871Y0139409D02*
X0027095Y0139409D01*
X0027095Y0141007D02*
X0027272Y0141007D01*
X0027095Y0137810D02*
X0029106Y0137810D01*
X0028562Y0136212D02*
X0027095Y0136212D01*
X0027095Y0134613D02*
X0028554Y0134613D01*
X0029080Y0133015D02*
X0027095Y0133015D01*
X0040681Y0163386D02*
X0044509Y0163386D01*
X0043122Y0164985D02*
X0042068Y0164985D01*
X0038795Y0192536D02*
X0038795Y0197313D01*
X0043495Y0197313D01*
X0043495Y0197713D01*
X0038795Y0197713D01*
X0038795Y0197313D01*
X0038395Y0197313D01*
X0038395Y0192613D01*
X0038610Y0192613D01*
X0038795Y0192536D01*
X0038795Y0193758D02*
X0038395Y0193758D01*
X0038395Y0195356D02*
X0038795Y0195356D01*
X0038795Y0196955D02*
X0038395Y0196955D01*
X0038395Y0198553D02*
X0038795Y0198553D01*
X0038795Y0200152D02*
X0038395Y0200152D01*
X0038395Y0201750D02*
X0038795Y0201750D01*
X0042120Y0201750D02*
X0045620Y0201750D01*
X0044168Y0200152D02*
X0043423Y0200152D01*
X0031055Y0208145D02*
X0068035Y0208145D01*
X0069633Y0206546D02*
X0029457Y0206546D01*
X0027858Y0204948D02*
X0069995Y0204948D01*
X0068406Y0200152D02*
X0062471Y0200152D01*
X0063385Y0198553D02*
X0066807Y0198553D01*
X0066095Y0196955D02*
X0063495Y0196955D01*
X0062923Y0195356D02*
X0066095Y0195356D01*
X0085024Y0187913D02*
X0087208Y0187913D01*
X0090195Y0190900D01*
X0090195Y0191700D01*
X0092983Y0188913D01*
X0093295Y0188913D01*
X0093295Y0170758D01*
X0091850Y0169313D01*
X0090795Y0168258D01*
X0090795Y0161838D01*
X0090335Y0161838D01*
X0090335Y0182601D01*
X0085024Y0187913D01*
X0085572Y0187364D02*
X0093295Y0187364D01*
X0093295Y0185765D02*
X0087171Y0185765D01*
X0088769Y0184167D02*
X0093295Y0184167D01*
X0093295Y0182568D02*
X0090335Y0182568D01*
X0090335Y0180970D02*
X0093295Y0180970D01*
X0093295Y0179371D02*
X0090335Y0179371D01*
X0090335Y0177773D02*
X0093295Y0177773D01*
X0093295Y0176174D02*
X0090335Y0176174D01*
X0090335Y0174576D02*
X0093295Y0174576D01*
X0093295Y0172977D02*
X0090335Y0172977D01*
X0090335Y0171379D02*
X0093295Y0171379D01*
X0092317Y0169780D02*
X0090335Y0169780D01*
X0090335Y0168182D02*
X0090795Y0168182D01*
X0090795Y0166583D02*
X0090335Y0166583D01*
X0090335Y0164985D02*
X0090795Y0164985D01*
X0090795Y0163386D02*
X0090335Y0163386D01*
X0094395Y0163386D02*
X0095673Y0163386D01*
X0094395Y0162108D02*
X0097936Y0165649D01*
X0097894Y0165673D01*
X0097559Y0166008D01*
X0097322Y0166418D01*
X0097199Y0166876D01*
X0097199Y0169783D01*
X0101079Y0169783D01*
X0101079Y0170742D01*
X0097199Y0170742D01*
X0097199Y0173649D01*
X0097322Y0174107D01*
X0097559Y0174518D01*
X0097894Y0174853D01*
X0098304Y0175090D01*
X0098762Y0175212D01*
X0101079Y0175212D01*
X0101079Y0170742D01*
X0102038Y0170742D01*
X0102038Y0175212D01*
X0102567Y0175212D01*
X0101595Y0176184D01*
X0101595Y0205784D01*
X0098967Y0208413D01*
X0098473Y0208413D01*
X0100595Y0206291D01*
X0100595Y0204213D01*
X0095295Y0204213D01*
X0095295Y0203813D01*
X0100595Y0203813D01*
X0100595Y0201735D01*
X0097590Y0198730D01*
X0100195Y0196125D01*
X0100195Y0191900D01*
X0097208Y0188913D01*
X0096895Y0188913D01*
X0096895Y0169267D01*
X0094395Y0166767D01*
X0094395Y0162108D01*
X0094395Y0164985D02*
X0097272Y0164985D01*
X0097278Y0166583D02*
X0094395Y0166583D01*
X0095810Y0168182D02*
X0097199Y0168182D01*
X0097199Y0169780D02*
X0096895Y0169780D01*
X0096895Y0171379D02*
X0097199Y0171379D01*
X0097199Y0172977D02*
X0096895Y0172977D01*
X0096895Y0174576D02*
X0097617Y0174576D01*
X0096895Y0176174D02*
X0101605Y0176174D01*
X0101595Y0177773D02*
X0096895Y0177773D01*
X0096895Y0179371D02*
X0101595Y0179371D01*
X0101595Y0180970D02*
X0096895Y0180970D01*
X0096895Y0182568D02*
X0101595Y0182568D01*
X0101595Y0184167D02*
X0096895Y0184167D01*
X0096895Y0185765D02*
X0101595Y0185765D01*
X0101595Y0187364D02*
X0096895Y0187364D01*
X0097257Y0188962D02*
X0101595Y0188962D01*
X0101595Y0190561D02*
X0098856Y0190561D01*
X0100195Y0192159D02*
X0101595Y0192159D01*
X0101595Y0193758D02*
X0100195Y0193758D01*
X0100195Y0195356D02*
X0101595Y0195356D01*
X0101595Y0196955D02*
X0099365Y0196955D01*
X0097767Y0198553D02*
X0101595Y0198553D01*
X0101595Y0200152D02*
X0099013Y0200152D01*
X0100595Y0201750D02*
X0101595Y0201750D01*
X0101595Y0203349D02*
X0100595Y0203349D01*
X0100595Y0204948D02*
X0101595Y0204948D01*
X0100833Y0206546D02*
X0100340Y0206546D01*
X0099235Y0208145D02*
X0098742Y0208145D01*
X0103293Y0209743D02*
X0112195Y0209743D01*
X0110399Y0208145D02*
X0104892Y0208145D01*
X0105595Y0206546D02*
X0108800Y0206546D01*
X0107202Y0204948D02*
X0105595Y0204948D01*
X0105595Y0203349D02*
X0105603Y0203349D01*
X0105595Y0201750D02*
X0105595Y0201750D01*
X0105595Y0200152D02*
X0105595Y0200152D01*
X0105595Y0198553D02*
X0105595Y0198553D01*
X0105595Y0196955D02*
X0105595Y0196955D01*
X0105595Y0195356D02*
X0105595Y0195356D01*
X0105595Y0193758D02*
X0105595Y0193758D01*
X0105595Y0192159D02*
X0105595Y0192159D01*
X0105595Y0190561D02*
X0106046Y0190561D01*
X0106046Y0188962D02*
X0105595Y0188962D01*
X0105595Y0187364D02*
X0106046Y0187364D01*
X0105595Y0185765D02*
X0106591Y0185765D01*
X0105646Y0184167D02*
X0105595Y0184167D01*
X0105595Y0182568D02*
X0105646Y0182568D01*
X0105646Y0181096D02*
X0105646Y0178780D01*
X0105768Y0178322D01*
X0106005Y0177911D01*
X0106340Y0177576D01*
X0106751Y0177339D01*
X0107209Y0177217D01*
X0110116Y0177217D01*
X0110116Y0181096D01*
X0105646Y0181096D01*
X0105646Y0180970D02*
X0105595Y0180970D01*
X0105595Y0179371D02*
X0105646Y0179371D01*
X0105664Y0177773D02*
X0106144Y0177773D01*
X0107262Y0176174D02*
X0119095Y0176174D01*
X0119095Y0174576D02*
X0112808Y0174576D01*
X0113982Y0177217D02*
X0111075Y0177217D01*
X0111075Y0181096D01*
X0115545Y0181096D01*
X0115545Y0178780D01*
X0115422Y0178322D01*
X0115185Y0177911D01*
X0114850Y0177576D01*
X0114440Y0177339D01*
X0113982Y0177217D01*
X0115046Y0177773D02*
X0120200Y0177773D01*
X0121799Y0179371D02*
X0115545Y0179371D01*
X0115545Y0180970D02*
X0123397Y0180970D01*
X0123431Y0182568D02*
X0115545Y0182568D01*
X0115545Y0184167D02*
X0124143Y0184167D01*
X0125845Y0185765D02*
X0137122Y0185765D01*
X0137122Y0185298D02*
X0137122Y0186680D01*
X0137651Y0187957D01*
X0138628Y0188934D01*
X0139904Y0189462D01*
X0141286Y0189462D01*
X0142563Y0188934D01*
X0143540Y0187957D01*
X0144068Y0186680D01*
X0144068Y0185298D01*
X0143540Y0184022D01*
X0142563Y0183045D01*
X0141286Y0182516D01*
X0139904Y0182516D01*
X0138628Y0183045D01*
X0137651Y0184022D01*
X0137122Y0185298D01*
X0137591Y0184167D02*
X0133393Y0184167D01*
X0134105Y0182568D02*
X0139778Y0182568D01*
X0141413Y0182568D02*
X0144595Y0182568D01*
X0144595Y0180970D02*
X0134105Y0180970D01*
X0134105Y0179371D02*
X0144595Y0179371D01*
X0144595Y0177773D02*
X0134105Y0177773D01*
X0137821Y0176174D02*
X0124258Y0176174D01*
X0123095Y0174576D02*
X0137122Y0174576D01*
X0137274Y0172977D02*
X0134105Y0172977D01*
X0134105Y0168182D02*
X0136698Y0168182D01*
X0138296Y0166583D02*
X0114580Y0166583D01*
X0113391Y0168182D02*
X0123431Y0168182D01*
X0123431Y0169780D02*
X0121191Y0169780D01*
X0122790Y0171379D02*
X0123431Y0171379D01*
X0123431Y0172977D02*
X0123095Y0172977D01*
X0116179Y0164985D02*
X0134587Y0164985D01*
X0132539Y0163386D02*
X0117777Y0163386D01*
X0113767Y0153795D02*
X0113306Y0153795D01*
X0115366Y0152197D02*
X0101325Y0152197D01*
X0099726Y0150598D02*
X0103169Y0150598D01*
X0103172Y0150607D02*
X0103049Y0150149D01*
X0103049Y0147242D01*
X0106929Y0147242D01*
X0106929Y0151712D01*
X0104612Y0151712D01*
X0104154Y0151590D01*
X0103744Y0151353D01*
X0103409Y0151018D01*
X0103172Y0150607D01*
X0103049Y0149000D02*
X0098128Y0149000D01*
X0096529Y0147401D02*
X0103049Y0147401D01*
X0103049Y0146283D02*
X0103049Y0143376D01*
X0103172Y0142918D01*
X0103409Y0142508D01*
X0103744Y0142173D01*
X0104154Y0141936D01*
X0104612Y0141813D01*
X0106929Y0141813D01*
X0106929Y0146283D01*
X0103049Y0146283D01*
X0103049Y0145803D02*
X0095395Y0145803D01*
X0095395Y0144204D02*
X0103049Y0144204D01*
X0103352Y0142606D02*
X0095395Y0142606D01*
X0095604Y0141007D02*
X0114445Y0141007D01*
X0114445Y0139409D02*
X0096119Y0139409D01*
X0096119Y0137810D02*
X0114445Y0137810D01*
X0113748Y0136212D02*
X0096119Y0136212D01*
X0106929Y0142606D02*
X0107888Y0142606D01*
X0107888Y0144204D02*
X0106929Y0144204D01*
X0106929Y0145803D02*
X0107888Y0145803D01*
X0107888Y0147401D02*
X0106929Y0147401D01*
X0106929Y0149000D02*
X0107888Y0149000D01*
X0107888Y0150598D02*
X0106929Y0150598D01*
X0106364Y0153795D02*
X0105826Y0153795D01*
X0111464Y0142606D02*
X0111751Y0142606D01*
X0119135Y0150598D02*
X0129214Y0150598D01*
X0130813Y0149000D02*
X0119241Y0149000D01*
X0119241Y0147401D02*
X0127194Y0147401D01*
X0126545Y0145803D02*
X0119241Y0145803D01*
X0120386Y0144204D02*
X0126545Y0144204D01*
X0126545Y0142606D02*
X0121645Y0142606D01*
X0125245Y0141007D02*
X0126652Y0141007D01*
X0125245Y0139409D02*
X0131795Y0139409D01*
X0131795Y0137810D02*
X0125245Y0137810D01*
X0125245Y0136212D02*
X0131795Y0136212D01*
X0131702Y0134313D02*
X0130170Y0134313D01*
X0130170Y0130088D01*
X0130020Y0130088D01*
X0130020Y0134313D01*
X0128488Y0134313D01*
X0127919Y0134160D01*
X0127409Y0133866D01*
X0126992Y0133449D01*
X0126698Y0132939D01*
X0126545Y0132370D01*
X0126545Y0130088D01*
X0130020Y0130088D01*
X0130020Y0129938D01*
X0126545Y0129938D01*
X0126545Y0127656D01*
X0126698Y0127087D01*
X0126992Y0126576D01*
X0127409Y0126160D01*
X0127919Y0125865D01*
X0128488Y0125713D01*
X0130020Y0125713D01*
X0130020Y0129938D01*
X0130170Y0129938D01*
X0130170Y0130088D01*
X0133645Y0130088D01*
X0133645Y0132370D01*
X0133493Y0132939D01*
X0133198Y0133449D01*
X0132782Y0133866D01*
X0132271Y0134160D01*
X0131702Y0134313D01*
X0132949Y0134613D02*
X0125245Y0134613D01*
X0125245Y0133015D02*
X0126741Y0133015D01*
X0126545Y0131416D02*
X0124842Y0131416D01*
X0125242Y0129817D02*
X0126545Y0129817D01*
X0126545Y0128219D02*
X0125242Y0128219D01*
X0125167Y0126620D02*
X0126967Y0126620D01*
X0124842Y0125022D02*
X0138795Y0125022D01*
X0138795Y0123423D02*
X0125245Y0123423D01*
X0125245Y0121825D02*
X0127771Y0121825D01*
X0126574Y0120226D02*
X0125245Y0120226D01*
X0125245Y0118628D02*
X0126545Y0118628D01*
X0126545Y0117029D02*
X0125245Y0117029D01*
X0124743Y0115431D02*
X0126545Y0115431D01*
X0125901Y0113832D02*
X0127543Y0113832D01*
X0128021Y0112234D02*
X0126145Y0112234D01*
X0126145Y0110635D02*
X0126422Y0110635D01*
X0126295Y0109037D02*
X0126145Y0109037D01*
X0126145Y0107438D02*
X0126295Y0107438D01*
X0122075Y0102096D02*
X0122075Y0098217D01*
X0124982Y0098217D01*
X0125440Y0098339D01*
X0125850Y0098576D01*
X0126185Y0098911D01*
X0126295Y0099102D01*
X0126295Y0096758D01*
X0124350Y0094813D01*
X0123794Y0094813D01*
X0123794Y0096742D01*
X0122974Y0097562D01*
X0116696Y0097562D01*
X0116095Y0096961D01*
X0115494Y0097562D01*
X0109216Y0097562D01*
X0108396Y0096742D01*
X0108396Y0094313D01*
X0108341Y0094313D01*
X0107395Y0095258D01*
X0107395Y0110717D01*
X0108016Y0110717D01*
X0108016Y0114596D01*
X0108975Y0114596D01*
X0108975Y0115555D01*
X0113445Y0115555D01*
X0113445Y0117872D01*
X0113322Y0118330D01*
X0113085Y0118740D01*
X0112750Y0119075D01*
X0112470Y0119237D01*
X0113045Y0119811D01*
X0113045Y0124518D01*
X0114445Y0123117D01*
X0114445Y0115933D01*
X0115265Y0115113D01*
X0119758Y0115113D01*
X0119763Y0114409D01*
X0117866Y0114409D01*
X0117046Y0113589D01*
X0117046Y0107311D01*
X0117620Y0106737D01*
X0117340Y0106575D01*
X0117005Y0106240D01*
X0116768Y0105830D01*
X0116646Y0105372D01*
X0116646Y0103055D01*
X0121116Y0103055D01*
X0121116Y0102096D01*
X0122075Y0102096D01*
X0121116Y0102096D02*
X0121116Y0098217D01*
X0118209Y0098217D01*
X0117751Y0098339D01*
X0117340Y0098576D01*
X0117005Y0098911D01*
X0116768Y0099322D01*
X0116646Y0099780D01*
X0116646Y0102096D01*
X0121116Y0102096D01*
X0121116Y0102643D02*
X0107395Y0102643D01*
X0107395Y0104241D02*
X0116646Y0104241D01*
X0116774Y0105840D02*
X0107395Y0105840D01*
X0107395Y0107438D02*
X0117046Y0107438D01*
X0117046Y0109037D02*
X0107395Y0109037D01*
X0107395Y0110635D02*
X0117046Y0110635D01*
X0117046Y0112234D02*
X0113432Y0112234D01*
X0113445Y0112280D02*
X0113445Y0114596D01*
X0108975Y0114596D01*
X0108975Y0110717D01*
X0111882Y0110717D01*
X0112340Y0110839D01*
X0112750Y0111076D01*
X0113085Y0111411D01*
X0113322Y0111822D01*
X0113445Y0112280D01*
X0113445Y0113832D02*
X0117289Y0113832D01*
X0114947Y0115431D02*
X0108975Y0115431D01*
X0108975Y0113832D02*
X0108016Y0113832D01*
X0108016Y0112234D02*
X0108975Y0112234D01*
X0113445Y0117029D02*
X0114445Y0117029D01*
X0114445Y0118628D02*
X0113150Y0118628D01*
X0113045Y0120226D02*
X0114445Y0120226D01*
X0114445Y0121825D02*
X0113045Y0121825D01*
X0113045Y0123423D02*
X0114139Y0123423D01*
X0130020Y0121825D02*
X0130170Y0121825D01*
X0130170Y0122063D02*
X0130170Y0117838D01*
X0133645Y0117838D01*
X0133645Y0120120D01*
X0133493Y0120689D01*
X0133198Y0121199D01*
X0132782Y0121616D01*
X0132271Y0121910D01*
X0131702Y0122063D01*
X0130170Y0122063D01*
X0130170Y0120226D02*
X0130020Y0120226D01*
X0130020Y0118628D02*
X0130170Y0118628D01*
X0133645Y0118628D02*
X0133945Y0118628D01*
X0133945Y0120226D02*
X0133617Y0120226D01*
X0132419Y0121825D02*
X0138795Y0121825D01*
X0142795Y0121825D02*
X0144595Y0121825D01*
X0144595Y0123423D02*
X0142795Y0123423D01*
X0142795Y0125022D02*
X0144595Y0125022D01*
X0144595Y0126620D02*
X0142795Y0126620D01*
X0142795Y0128219D02*
X0144595Y0128219D01*
X0144595Y0129817D02*
X0142795Y0129817D01*
X0142795Y0131416D02*
X0144595Y0131416D01*
X0144595Y0133015D02*
X0142795Y0133015D01*
X0142795Y0134613D02*
X0144595Y0134613D01*
X0144595Y0136212D02*
X0142795Y0136212D01*
X0142795Y0137810D02*
X0144595Y0137810D01*
X0144595Y0139409D02*
X0142795Y0139409D01*
X0142795Y0141007D02*
X0144595Y0141007D01*
X0144595Y0142606D02*
X0142795Y0142606D01*
X0142795Y0144204D02*
X0144595Y0144204D01*
X0144595Y0145803D02*
X0142795Y0145803D01*
X0142795Y0147401D02*
X0144595Y0147401D01*
X0144595Y0149000D02*
X0142795Y0149000D01*
X0142795Y0150598D02*
X0144595Y0150598D01*
X0144595Y0152197D02*
X0142795Y0152197D01*
X0142795Y0153795D02*
X0144595Y0153795D01*
X0144595Y0155394D02*
X0142795Y0155394D01*
X0142795Y0156992D02*
X0144595Y0156992D01*
X0144595Y0158591D02*
X0142795Y0158591D01*
X0142795Y0160189D02*
X0144595Y0160189D01*
X0144595Y0161788D02*
X0142795Y0161788D01*
X0142795Y0163386D02*
X0144595Y0163386D01*
X0144595Y0164985D02*
X0142795Y0164985D01*
X0142795Y0166583D02*
X0144595Y0166583D01*
X0144595Y0168182D02*
X0142355Y0168182D01*
X0140756Y0169780D02*
X0144595Y0169780D01*
X0144595Y0171379D02*
X0142849Y0171379D01*
X0143916Y0172977D02*
X0144595Y0172977D01*
X0144595Y0174576D02*
X0144068Y0174576D01*
X0144595Y0176174D02*
X0143369Y0176174D01*
X0143600Y0184167D02*
X0144595Y0184167D01*
X0144595Y0185765D02*
X0144068Y0185765D01*
X0143785Y0187364D02*
X0144595Y0187364D01*
X0144595Y0188962D02*
X0142493Y0188962D01*
X0144595Y0190561D02*
X0134105Y0190561D01*
X0134105Y0192159D02*
X0144595Y0192159D01*
X0144595Y0193758D02*
X0129595Y0193758D01*
X0129595Y0195356D02*
X0144595Y0195356D01*
X0144595Y0196955D02*
X0129595Y0196955D01*
X0129383Y0198553D02*
X0144595Y0198553D01*
X0144595Y0200152D02*
X0132250Y0200152D01*
X0134204Y0201750D02*
X0144595Y0201750D01*
X0144595Y0203349D02*
X0134795Y0203349D01*
X0134754Y0204948D02*
X0144595Y0204948D01*
X0144595Y0206546D02*
X0141288Y0206546D01*
X0142403Y0208145D02*
X0144595Y0208145D01*
X0144595Y0209743D02*
X0142253Y0209743D01*
X0138403Y0206546D02*
X0134002Y0206546D01*
X0127189Y0206546D02*
X0118995Y0206546D01*
X0118995Y0204948D02*
X0126436Y0204948D01*
X0126395Y0203349D02*
X0111260Y0203349D01*
X0111895Y0201750D02*
X0112295Y0201750D01*
X0112295Y0200152D02*
X0111895Y0200152D01*
X0111895Y0198813D02*
X0112295Y0198813D01*
X0112295Y0194963D01*
X0114332Y0194963D01*
X0114790Y0195085D01*
X0115200Y0195322D01*
X0115536Y0195658D01*
X0115773Y0196068D01*
X0115780Y0196098D01*
X0116515Y0195363D01*
X0121675Y0195363D01*
X0122495Y0196183D01*
X0122495Y0197013D01*
X0125267Y0197013D01*
X0125595Y0196684D01*
X0125595Y0193617D01*
X0124251Y0193617D01*
X0123847Y0193213D01*
X0114521Y0193213D01*
X0114325Y0193409D01*
X0109595Y0193409D01*
X0109595Y0195033D01*
X0109858Y0194963D01*
X0111895Y0194963D01*
X0111895Y0198813D01*
X0111895Y0198553D02*
X0112295Y0198553D01*
X0112295Y0196955D02*
X0111895Y0196955D01*
X0111895Y0195356D02*
X0112295Y0195356D01*
X0109595Y0193758D02*
X0125595Y0193758D01*
X0125595Y0195356D02*
X0115234Y0195356D01*
X0122495Y0196955D02*
X0125325Y0196955D01*
X0127784Y0200152D02*
X0128941Y0200152D01*
X0126986Y0201750D02*
X0122495Y0201750D01*
X0134105Y0188962D02*
X0138697Y0188962D01*
X0137405Y0187364D02*
X0134105Y0187364D01*
X0138603Y0164985D02*
X0138795Y0164985D01*
X0130170Y0147401D02*
X0130020Y0147401D01*
X0130020Y0145803D02*
X0130170Y0145803D01*
X0130170Y0144204D02*
X0130020Y0144204D01*
X0130020Y0142606D02*
X0130170Y0142606D01*
X0130170Y0141007D02*
X0130020Y0141007D01*
X0130020Y0133015D02*
X0130170Y0133015D01*
X0130170Y0131416D02*
X0130020Y0131416D01*
X0130170Y0129938D02*
X0133645Y0129938D01*
X0133645Y0127656D01*
X0133493Y0127087D01*
X0133198Y0126576D01*
X0132782Y0126160D01*
X0132271Y0125865D01*
X0131702Y0125713D01*
X0130170Y0125713D01*
X0130170Y0129938D01*
X0130170Y0129817D02*
X0130020Y0129817D01*
X0130020Y0128219D02*
X0130170Y0128219D01*
X0130170Y0126620D02*
X0130020Y0126620D01*
X0133224Y0126620D02*
X0134514Y0126620D01*
X0133945Y0128219D02*
X0133645Y0128219D01*
X0133645Y0129817D02*
X0133945Y0129817D01*
X0133945Y0131416D02*
X0133645Y0131416D01*
X0133449Y0133015D02*
X0134123Y0133015D01*
X0142795Y0120226D02*
X0144797Y0120226D01*
X0144794Y0118628D02*
X0142795Y0118628D01*
X0142795Y0117029D02*
X0144791Y0117029D01*
X0144787Y0115431D02*
X0142795Y0115431D01*
X0142795Y0113832D02*
X0144784Y0113832D01*
X0144780Y0112234D02*
X0142795Y0112234D01*
X0142795Y0110635D02*
X0144777Y0110635D01*
X0144773Y0109037D02*
X0142256Y0109037D01*
X0142918Y0107438D02*
X0144595Y0107438D01*
X0144595Y0105840D02*
X0143098Y0105840D01*
X0143098Y0104241D02*
X0144595Y0104241D01*
X0144595Y0102643D02*
X0142527Y0102643D01*
X0141737Y0101044D02*
X0144595Y0101044D01*
X0144595Y0099446D02*
X0140138Y0099446D01*
X0144595Y0097847D02*
X0129895Y0097847D01*
X0129895Y0096249D02*
X0133724Y0096249D01*
X0136467Y0096249D02*
X0144595Y0096249D01*
X0144595Y0094650D02*
X0139000Y0094650D01*
X0139976Y0093052D02*
X0144595Y0093052D01*
X0144595Y0091453D02*
X0140334Y0091453D01*
X0140334Y0089855D02*
X0144595Y0089855D01*
X0144595Y0088256D02*
X0140334Y0088256D01*
X0140334Y0086658D02*
X0144595Y0086658D01*
X0144595Y0085059D02*
X0140334Y0085059D01*
X0140334Y0083461D02*
X0144595Y0083461D01*
X0144595Y0081862D02*
X0140100Y0081862D01*
X0139298Y0080264D02*
X0144595Y0080264D01*
X0144595Y0069074D02*
X0139509Y0069074D01*
X0140400Y0067476D02*
X0144595Y0067476D01*
X0144595Y0065877D02*
X0140734Y0065877D01*
X0140734Y0064279D02*
X0144595Y0064279D01*
X0132717Y0070673D02*
X0126895Y0070673D01*
X0126895Y0069074D02*
X0130681Y0069074D01*
X0129790Y0067476D02*
X0126895Y0067476D01*
X0126895Y0065877D02*
X0129457Y0065877D01*
X0129457Y0064279D02*
X0126895Y0064279D01*
X0126895Y0062680D02*
X0129457Y0062680D01*
X0129457Y0061081D02*
X0126895Y0061081D01*
X0127071Y0059483D02*
X0129457Y0059483D01*
X0129457Y0057884D02*
X0128669Y0057884D01*
X0120795Y0055188D02*
X0120795Y0043287D01*
X0119706Y0042836D01*
X0118272Y0041402D01*
X0117495Y0039527D01*
X0117495Y0039010D01*
X0116919Y0040402D01*
X0115484Y0041836D01*
X0113610Y0042613D01*
X0111581Y0042613D01*
X0110492Y0042162D01*
X0106841Y0045813D01*
X0106108Y0045813D01*
X0106919Y0046624D01*
X0107287Y0047513D01*
X0112227Y0047513D01*
X0112227Y0047346D01*
X0113047Y0046526D01*
X0118144Y0046526D01*
X0118964Y0047346D01*
X0118964Y0054018D01*
X0118144Y0054838D01*
X0113047Y0054838D01*
X0112227Y0054018D01*
X0112227Y0051513D01*
X0107287Y0051513D01*
X0106919Y0052402D01*
X0105484Y0053836D01*
X0103610Y0054613D01*
X0101581Y0054613D01*
X0099706Y0053836D01*
X0098272Y0052402D01*
X0097977Y0051691D01*
X0097960Y0051801D01*
X0097692Y0052624D01*
X0097299Y0053395D01*
X0096790Y0054096D01*
X0096178Y0054708D01*
X0095478Y0055217D01*
X0094706Y0055610D01*
X0093883Y0055877D01*
X0093028Y0056013D01*
X0092795Y0056013D01*
X0092795Y0050713D01*
X0092395Y0050713D01*
X0092395Y0056013D01*
X0092162Y0056013D01*
X0091307Y0055877D01*
X0090484Y0055610D01*
X0089713Y0055217D01*
X0089120Y0054786D01*
X0089120Y0059563D01*
X0094274Y0059563D01*
X0095094Y0060383D01*
X0095094Y0060513D01*
X0097224Y0060513D01*
X0099495Y0062784D01*
X0104936Y0057343D01*
X0108487Y0057343D01*
X0108487Y0056008D01*
X0109307Y0055188D01*
X0114403Y0055188D01*
X0115224Y0056008D01*
X0115224Y0062679D01*
X0114403Y0063499D01*
X0109307Y0063499D01*
X0108487Y0062679D01*
X0108487Y0061343D01*
X0106593Y0061343D01*
X0102095Y0065841D01*
X0102095Y0066130D01*
X0101699Y0067086D01*
X0100968Y0067817D01*
X0100012Y0068213D01*
X0098978Y0068213D01*
X0098022Y0067817D01*
X0097291Y0067086D01*
X0096895Y0066130D01*
X0096895Y0065841D01*
X0095567Y0064513D01*
X0095094Y0064513D01*
X0095094Y0067842D01*
X0094274Y0068662D01*
X0092885Y0068662D01*
X0092885Y0071863D01*
X0099025Y0071863D01*
X0099845Y0072683D01*
X0099845Y0073517D01*
X0103395Y0069967D01*
X0103395Y0069396D01*
X0103791Y0068440D01*
X0104522Y0067709D01*
X0105478Y0067313D01*
X0106512Y0067313D01*
X0107468Y0067709D01*
X0107872Y0068113D01*
X0113950Y0068113D01*
X0117395Y0064667D01*
X0117395Y0063499D01*
X0116787Y0063499D01*
X0115967Y0062679D01*
X0115967Y0056008D01*
X0116787Y0055188D01*
X0120795Y0055188D01*
X0120795Y0054687D02*
X0118294Y0054687D01*
X0118964Y0053089D02*
X0120795Y0053089D01*
X0120795Y0051490D02*
X0118964Y0051490D01*
X0118964Y0049892D02*
X0120795Y0049892D01*
X0120795Y0048293D02*
X0118964Y0048293D01*
X0118312Y0046695D02*
X0120795Y0046695D01*
X0120795Y0045096D02*
X0107557Y0045096D01*
X0106948Y0046695D02*
X0112878Y0046695D01*
X0109156Y0043498D02*
X0120795Y0043498D01*
X0118769Y0041899D02*
X0115332Y0041899D01*
X0116961Y0040301D02*
X0117816Y0040301D01*
X0117284Y0035505D02*
X0118390Y0035505D01*
X0120388Y0033907D02*
X0116202Y0033907D01*
X0108989Y0033907D02*
X0104802Y0033907D01*
X0106800Y0035505D02*
X0107906Y0035505D01*
X0100388Y0033907D02*
X0096767Y0033907D01*
X0097726Y0035505D02*
X0098390Y0035505D01*
X0092795Y0051490D02*
X0092395Y0051490D01*
X0092395Y0053089D02*
X0092795Y0053089D01*
X0092795Y0054687D02*
X0092395Y0054687D01*
X0089120Y0056286D02*
X0108487Y0056286D01*
X0106231Y0053089D02*
X0112227Y0053089D01*
X0112896Y0054687D02*
X0096199Y0054687D01*
X0097455Y0053089D02*
X0098959Y0053089D01*
X0104395Y0057884D02*
X0089120Y0057884D01*
X0089120Y0059483D02*
X0102797Y0059483D01*
X0101198Y0061081D02*
X0097792Y0061081D01*
X0099391Y0062680D02*
X0099599Y0062680D01*
X0102095Y0065877D02*
X0116185Y0065877D01*
X0117395Y0064279D02*
X0103658Y0064279D01*
X0105256Y0062680D02*
X0108487Y0062680D01*
X0106905Y0067476D02*
X0114587Y0067476D01*
X0116481Y0070673D02*
X0120190Y0070673D01*
X0120795Y0069074D02*
X0118079Y0069074D01*
X0119678Y0067476D02*
X0120795Y0067476D01*
X0118591Y0072271D02*
X0107096Y0072271D01*
X0107493Y0073870D02*
X0104584Y0073870D01*
X0105894Y0075468D02*
X0102985Y0075468D01*
X0101091Y0072271D02*
X0099433Y0072271D01*
X0102690Y0070673D02*
X0092885Y0070673D01*
X0092885Y0069074D02*
X0103528Y0069074D01*
X0105085Y0067476D02*
X0101309Y0067476D01*
X0097681Y0067476D02*
X0095094Y0067476D01*
X0095094Y0065877D02*
X0096895Y0065877D01*
X0115223Y0062680D02*
X0115968Y0062680D01*
X0115967Y0061081D02*
X0115224Y0061081D01*
X0115224Y0059483D02*
X0115967Y0059483D01*
X0115967Y0057884D02*
X0115224Y0057884D01*
X0115224Y0056286D02*
X0115967Y0056286D01*
X0122084Y0073870D02*
X0123295Y0073870D01*
X0123295Y0075468D02*
X0120485Y0075468D01*
X0118887Y0077067D02*
X0123295Y0077067D01*
X0123794Y0089855D02*
X0129857Y0089855D01*
X0129857Y0091453D02*
X0126081Y0091453D01*
X0127680Y0093052D02*
X0130214Y0093052D01*
X0128841Y0094213D02*
X0128841Y0094213D01*
X0129278Y0094650D02*
X0131190Y0094650D01*
X0126295Y0097847D02*
X0107395Y0097847D01*
X0107395Y0096249D02*
X0108396Y0096249D01*
X0108396Y0094650D02*
X0108003Y0094650D01*
X0107395Y0099446D02*
X0116735Y0099446D01*
X0116646Y0101044D02*
X0107395Y0101044D01*
X0101545Y0099446D02*
X0099339Y0099446D01*
X0100195Y0097847D02*
X0101545Y0097847D01*
X0101545Y0096249D02*
X0099886Y0096249D01*
X0121116Y0099446D02*
X0122075Y0099446D01*
X0122075Y0101044D02*
X0121116Y0101044D01*
X0123794Y0096249D02*
X0125786Y0096249D01*
X0129895Y0099446D02*
X0131052Y0099446D01*
X0133645Y0117029D02*
X0133945Y0117029D01*
X0102038Y0171379D02*
X0101079Y0171379D01*
X0101079Y0172977D02*
X0102038Y0172977D01*
X0102038Y0174576D02*
X0101079Y0174576D01*
X0110116Y0177773D02*
X0111075Y0177773D01*
X0111075Y0179371D02*
X0110116Y0179371D01*
X0110116Y0180970D02*
X0111075Y0180970D01*
X0092933Y0188962D02*
X0088257Y0188962D01*
X0089856Y0190561D02*
X0091335Y0190561D01*
X0172095Y0182013D02*
X0172095Y0178013D01*
X0172095Y0182013D02*
X0172595Y0182513D01*
X0191855Y0111182D02*
X0191855Y0095753D01*
X0193095Y0094513D01*
X0128989Y0033907D02*
X0124802Y0033907D01*
X0126800Y0035505D02*
X0127906Y0035505D01*
X0073695Y0065877D02*
X0071695Y0065877D01*
X0029052Y0099446D02*
X0027095Y0099446D01*
X0027095Y0101044D02*
X0027454Y0101044D01*
D43*
X0028595Y0114013D03*
X0054095Y0086013D03*
X0067595Y0089013D03*
X0060795Y0070513D03*
X0075595Y0063013D03*
X0067395Y0044113D03*
X0047595Y0047513D03*
X0026095Y0032013D03*
X0042595Y0072513D03*
X0057595Y0116013D03*
X0072095Y0131513D03*
X0081095Y0129513D03*
X0085095Y0130513D03*
X0088595Y0121813D03*
X0087595Y0117513D03*
X0079095Y0118013D03*
X0097595Y0097513D03*
X0116045Y0099663D03*
X0120795Y0078413D03*
X0118295Y0070513D03*
X0105995Y0069913D03*
X0099495Y0065613D03*
X0117495Y0044713D03*
X0097895Y0032913D03*
X0135095Y0074513D03*
X0153595Y0071013D03*
X0190095Y0071013D03*
X0207095Y0119013D03*
X0195595Y0127513D03*
X0214095Y0142513D03*
X0215595Y0158513D03*
X0179095Y0157513D03*
X0154095Y0169513D03*
X0139845Y0208763D03*
X0108095Y0210013D03*
X0099095Y0188513D03*
X0091095Y0186013D03*
X0083545Y0182563D03*
X0074595Y0179013D03*
X0071795Y0169813D03*
X0074595Y0152013D03*
X0077595Y0147513D03*
X0068895Y0147013D03*
X0087795Y0145813D03*
X0099345Y0142513D03*
X0099095Y0176513D03*
X0069095Y0205513D03*
X0040345Y0207763D03*
X0029845Y0185263D03*
X0051595Y0160513D03*
X0045095Y0151513D03*
X0033095Y0148013D03*
X0027845Y0149763D03*
X0156095Y0127513D03*
D44*
X0154095Y0130013D02*
X0154095Y0134013D01*
X0157595Y0137513D01*
X0161595Y0137513D01*
X0162095Y0138013D01*
X0164095Y0137513D01*
X0166095Y0139513D01*
X0166095Y0147013D01*
X0165095Y0148013D01*
X0170095Y0138013D02*
X0176595Y0138013D01*
X0178095Y0138013D01*
X0180095Y0136013D01*
X0180095Y0111513D01*
X0180095Y0098513D01*
X0176595Y0095013D01*
X0163335Y0103253D02*
X0163335Y0111182D01*
X0163666Y0111513D01*
X0171095Y0111513D01*
X0164095Y0111942D02*
X0163335Y0111182D01*
X0163335Y0112753D01*
X0164095Y0113013D02*
X0161595Y0115513D01*
X0155095Y0115513D01*
X0153095Y0117513D01*
X0153095Y0125013D01*
X0153595Y0125513D01*
X0153595Y0129513D01*
X0154095Y0130013D01*
X0159595Y0126513D02*
X0159595Y0119843D01*
X0160426Y0119843D01*
X0159595Y0126513D02*
X0161595Y0128513D01*
X0165095Y0128513D01*
X0162095Y0133513D02*
X0162095Y0134013D01*
X0170095Y0134013D02*
X0174595Y0134013D01*
X0176595Y0132013D01*
X0176595Y0131513D01*
X0172595Y0127513D01*
X0172095Y0127513D01*
X0171095Y0128513D01*
X0164095Y0113013D02*
X0164095Y0111942D01*
X0155855Y0111182D02*
X0155855Y0095753D01*
X0156595Y0095013D01*
X0161595Y0101513D02*
X0163335Y0103253D01*
X0161595Y0101513D02*
X0161595Y0075013D01*
X0157595Y0071013D01*
X0153595Y0071013D01*
X0167595Y0076013D02*
X0168595Y0075013D01*
X0190095Y0071013D02*
X0192595Y0071013D01*
X0196595Y0075013D01*
X0198095Y0075013D01*
X0198095Y0076013D01*
X0198095Y0109942D01*
X0199335Y0111182D01*
X0201505Y0109013D01*
X0207595Y0109013D01*
X0214595Y0109013D02*
X0216595Y0107513D01*
X0216595Y0098013D01*
X0213095Y0094513D01*
X0216595Y0107513D02*
X0216595Y0135013D01*
X0213595Y0138013D01*
X0213095Y0138013D01*
X0206095Y0138013D01*
X0202095Y0140513D02*
X0202095Y0146013D01*
X0200595Y0147513D01*
X0200595Y0148013D01*
X0202095Y0140513D02*
X0199595Y0138013D01*
X0198095Y0138013D01*
X0198095Y0134013D02*
X0195595Y0131513D01*
X0195595Y0127513D01*
X0195595Y0119843D01*
X0194595Y0115513D02*
X0192095Y0115513D01*
X0190095Y0117513D01*
X0190095Y0136513D01*
X0191095Y0137513D01*
X0207095Y0123513D02*
X0207095Y0119013D01*
X0199335Y0111253D02*
X0199335Y0111182D01*
X0198926Y0111182D01*
X0194595Y0115513D01*
X0207595Y0148013D02*
X0209595Y0150013D01*
X0215095Y0153513D01*
X0178595Y0169513D02*
X0174595Y0169513D01*
X0173095Y0171013D01*
X0173095Y0177013D01*
X0172095Y0178013D01*
X0173095Y0177013D02*
X0174595Y0175513D01*
X0174595Y0169513D02*
X0172595Y0167513D01*
X0172595Y0161214D01*
X0171394Y0160013D01*
X0140795Y0160513D02*
X0136595Y0160513D01*
X0140795Y0160513D02*
X0140795Y0110713D01*
X0135595Y0105513D01*
X0105595Y0120013D02*
X0104520Y0118938D01*
X0099495Y0118938D01*
X0099495Y0115788D02*
X0099771Y0115513D01*
X0105595Y0120013D02*
X0105595Y0123513D01*
X0103871Y0125237D01*
X0099495Y0125237D01*
X0076371Y0125237D01*
X0073095Y0128513D01*
X0065821Y0128513D01*
X0065695Y0128387D01*
X0063221Y0128387D01*
X0060095Y0131513D01*
X0060095Y0138013D01*
X0057595Y0140513D01*
X0030595Y0140513D01*
X0025095Y0146013D01*
X0025095Y0205013D01*
X0030795Y0210713D01*
X0068295Y0210713D01*
X0071495Y0207513D01*
X0071595Y0207513D01*
X0075095Y0204013D01*
X0068095Y0197013D01*
X0068095Y0190513D01*
X0071095Y0187513D01*
X0082595Y0187513D01*
X0088335Y0181773D01*
X0088335Y0157682D01*
X0109432Y0170263D02*
X0109432Y0170850D01*
X0109595Y0171013D01*
X0119595Y0171013D01*
X0121095Y0172513D01*
X0121095Y0175840D01*
X0125268Y0180013D01*
X0128768Y0180513D01*
X0128768Y0170670D02*
X0137038Y0170670D01*
X0140795Y0166913D01*
X0140795Y0160513D01*
X0125095Y0190013D02*
X0122195Y0189013D01*
X0125095Y0190013D02*
X0127595Y0192513D01*
X0127595Y0191029D01*
X0128768Y0189855D01*
X0127595Y0192513D02*
X0127595Y0197513D01*
X0126095Y0199013D01*
X0119095Y0199013D01*
X0115595Y0207013D02*
X0112095Y0207013D01*
X0107595Y0202513D01*
X0107595Y0192450D01*
X0110595Y0189450D01*
X0111158Y0190013D01*
X0116995Y0189013D01*
X0103595Y0177013D02*
X0109595Y0171013D01*
X0103595Y0177013D02*
X0103595Y0206613D01*
X0099795Y0210413D01*
X0081495Y0210413D01*
X0075095Y0204013D01*
X0115595Y0207013D02*
X0117345Y0208763D01*
X0139845Y0208763D01*
X0116095Y0207513D02*
X0115595Y0207013D01*
X0026855Y0127513D02*
X0025095Y0127513D01*
X0025095Y0146013D01*
X0025095Y0127513D02*
X0025095Y0084513D01*
X0029095Y0080513D01*
X0031595Y0080513D01*
X0060795Y0070513D02*
X0060935Y0070653D01*
X0067145Y0070653D01*
X0067595Y0071103D01*
X0067595Y0080013D01*
X0066245Y0071553D02*
X0067145Y0070653D01*
X0091135Y0064113D02*
X0092735Y0062513D01*
X0096395Y0062513D01*
X0099495Y0065613D01*
X0105764Y0059343D01*
X0111855Y0059343D01*
X0115595Y0050682D02*
X0114426Y0049513D01*
X0102595Y0049513D01*
D45*
X0106095Y0044013D02*
X0112595Y0037513D01*
X0106095Y0044013D02*
X0090595Y0044013D01*
X0087320Y0047288D01*
X0087320Y0103613D01*
X0090469Y0103613D02*
X0090469Y0096339D01*
X0096295Y0090513D01*
X0096295Y0087613D01*
X0108295Y0075613D01*
X0117795Y0075613D01*
X0122595Y0070813D01*
X0122595Y0038513D01*
X0128208Y0041900D02*
X0132595Y0037513D01*
X0128208Y0041900D02*
X0128208Y0048363D01*
X0135645Y0048363D02*
X0125095Y0058913D01*
X0125095Y0080013D01*
X0122595Y0082513D01*
X0107595Y0082513D01*
X0097595Y0092513D01*
X0097595Y0097513D01*
X0093619Y0103613D02*
X0093619Y0111489D01*
X0092595Y0112513D01*
X0092595Y0117513D01*
X0088595Y0121513D01*
X0088595Y0121813D01*
X0087595Y0117513D02*
X0084170Y0114088D01*
X0084170Y0103613D01*
X0084170Y0088478D01*
X0083605Y0087913D01*
X0083605Y0076923D01*
X0082695Y0076013D01*
X0077595Y0070173D02*
X0083655Y0064113D01*
X0083655Y0061573D01*
X0072595Y0050513D01*
X0063595Y0056513D02*
X0063595Y0043414D01*
X0071997Y0035013D01*
X0076697Y0030313D01*
X0135095Y0030313D01*
X0138782Y0034000D01*
X0138782Y0045663D01*
X0136082Y0048363D01*
X0135645Y0048363D01*
X0119335Y0059343D02*
X0119195Y0059484D01*
X0119195Y0065413D01*
X0114695Y0069913D01*
X0105995Y0069913D01*
X0097995Y0077913D01*
X0096095Y0076013D01*
X0095695Y0076013D01*
X0097595Y0078313D02*
X0097995Y0077913D01*
X0091085Y0087913D02*
X0091085Y0064163D01*
X0092735Y0062513D01*
X0083655Y0064113D02*
X0083855Y0065347D01*
X0077595Y0070173D02*
X0077595Y0092513D01*
X0081020Y0095938D01*
X0081020Y0103613D01*
X0077871Y0103613D02*
X0077871Y0096588D01*
X0075495Y0094213D01*
X0075495Y0063113D01*
X0067205Y0063113D01*
X0067145Y0063173D01*
X0063595Y0056513D02*
X0056095Y0064013D01*
X0052095Y0064013D01*
X0045595Y0062513D02*
X0045595Y0084013D01*
X0053855Y0092273D01*
X0059095Y0092273D01*
X0059335Y0092513D01*
X0062595Y0092513D01*
X0065095Y0095013D01*
X0072095Y0095013D01*
X0074721Y0097639D01*
X0074721Y0103613D01*
X0071572Y0103613D02*
X0067712Y0099753D01*
X0059095Y0099753D01*
X0055335Y0099753D01*
X0042595Y0087013D01*
X0042595Y0072513D01*
X0039595Y0076513D02*
X0033595Y0070513D01*
X0039595Y0076513D02*
X0039595Y0088513D01*
X0060572Y0109489D01*
X0065695Y0109489D01*
X0065569Y0112513D02*
X0059595Y0112513D01*
X0057195Y0110113D01*
X0053735Y0110113D01*
X0057195Y0110113D02*
X0037595Y0090513D01*
X0033595Y0090513D01*
X0052095Y0077013D02*
X0055595Y0077013D01*
X0067595Y0089013D01*
X0047595Y0110953D02*
X0046255Y0110113D01*
X0047595Y0110953D02*
X0047595Y0112513D01*
X0051095Y0116013D01*
X0057595Y0116013D01*
X0059595Y0118513D02*
X0041595Y0118513D01*
X0034469Y0118513D01*
X0033595Y0119639D01*
X0034335Y0120379D01*
X0034335Y0127513D01*
X0033595Y0127513D01*
X0046845Y0134013D02*
X0047595Y0133263D01*
X0047595Y0132513D01*
X0054845Y0125263D01*
X0054845Y0124838D01*
X0057595Y0122088D01*
X0056733Y0122088D01*
X0056032Y0123513D01*
X0057595Y0122088D02*
X0065695Y0122088D01*
X0065695Y0125237D02*
X0061871Y0125237D01*
X0055095Y0132013D01*
X0055095Y0133513D01*
X0054595Y0134013D01*
X0061595Y0143013D02*
X0034395Y0143013D01*
X0030595Y0146813D01*
X0030595Y0170013D01*
X0038095Y0177513D01*
X0038595Y0177513D01*
X0037595Y0187513D02*
X0042595Y0192513D01*
X0050895Y0192513D01*
X0059895Y0183513D01*
X0079595Y0183513D01*
X0080595Y0182513D01*
X0080595Y0163513D01*
X0082095Y0162013D01*
X0083595Y0162013D01*
X0084595Y0161013D01*
X0084595Y0137838D01*
X0084170Y0137413D01*
X0084095Y0137488D01*
X0087320Y0137413D02*
X0087320Y0132737D01*
X0085095Y0130513D01*
X0081095Y0129513D02*
X0081020Y0133938D01*
X0081020Y0137413D01*
X0081020Y0157517D01*
X0080855Y0157682D01*
X0074595Y0152013D02*
X0074595Y0137539D01*
X0074721Y0137413D01*
X0071572Y0137413D02*
X0071195Y0137413D01*
X0063595Y0145013D01*
X0036095Y0145013D01*
X0033095Y0148013D01*
X0033095Y0163013D01*
X0037595Y0167513D01*
X0047595Y0167513D02*
X0067595Y0167513D01*
X0068895Y0166213D01*
X0068895Y0147013D01*
X0074595Y0152013D02*
X0074595Y0179013D01*
X0073095Y0177513D01*
X0048595Y0177513D01*
X0047595Y0187513D02*
X0052595Y0187513D01*
X0058595Y0181513D01*
X0076095Y0181513D01*
X0077595Y0180013D01*
X0077595Y0147513D01*
X0077595Y0137688D01*
X0077871Y0137413D01*
X0071572Y0137413D02*
X0071572Y0169589D01*
X0071795Y0169813D01*
X0084595Y0166343D02*
X0084595Y0181513D01*
X0083545Y0182563D01*
X0083545Y0183063D01*
X0081095Y0185513D01*
X0060595Y0185513D01*
X0048595Y0197513D01*
X0059595Y0197513D01*
X0048095Y0188013D02*
X0047595Y0187513D01*
X0087595Y0148013D02*
X0087595Y0146013D01*
X0087795Y0145813D01*
X0087595Y0148013D02*
X0092595Y0153013D01*
X0092595Y0167513D01*
X0095095Y0170013D01*
X0095095Y0194013D01*
X0099845Y0165013D02*
X0113605Y0165013D01*
X0120605Y0158013D01*
X0117595Y0152513D02*
X0129845Y0152513D01*
X0133595Y0148763D01*
X0133595Y0136513D01*
X0137595Y0132513D01*
X0137595Y0130513D01*
X0137095Y0130013D01*
X0136345Y0118763D02*
X0137595Y0117513D01*
X0137095Y0117763D02*
X0137095Y0117013D01*
X0133345Y0113263D01*
X0131595Y0113263D01*
X0128095Y0109763D01*
X0128095Y0096013D01*
X0125095Y0093013D01*
X0119835Y0093013D01*
X0112355Y0093013D02*
X0111855Y0092513D01*
X0107595Y0092513D01*
X0105595Y0094513D01*
X0105595Y0110013D01*
X0102969Y0112639D01*
X0099495Y0112639D01*
X0099495Y0109489D02*
X0102369Y0109489D01*
X0103345Y0108513D01*
X0103345Y0091763D01*
X0107595Y0087513D01*
X0134890Y0087513D01*
X0135095Y0087308D01*
X0121595Y0110450D02*
X0121532Y0118326D01*
X0119845Y0120013D01*
X0119595Y0121013D01*
X0119595Y0123288D01*
X0120095Y0123788D01*
X0118820Y0122513D01*
X0117595Y0122513D01*
X0111721Y0128387D01*
X0099495Y0128387D01*
X0099495Y0131536D02*
X0111619Y0131536D01*
X0117595Y0137513D01*
X0119345Y0137513D01*
X0119845Y0137013D01*
X0120095Y0136763D01*
X0120095Y0133237D01*
X0119845Y0137013D02*
X0118595Y0137513D01*
X0119845Y0137013D02*
X0119845Y0142200D01*
X0115282Y0146763D01*
X0117595Y0152513D02*
X0112345Y0157763D01*
X0112345Y0158013D01*
X0109835Y0158013D01*
X0102355Y0158013D02*
X0102355Y0155773D01*
X0093595Y0147013D01*
X0093595Y0137436D01*
X0093619Y0137413D01*
X0090595Y0137539D02*
X0090595Y0148313D01*
X0095695Y0153413D01*
X0095695Y0160863D01*
X0099845Y0165013D01*
X0090595Y0137539D02*
X0090469Y0137413D01*
X0105595Y0123513D02*
X0108432Y0123513D01*
X0108495Y0122950D01*
X0136345Y0118763D02*
X0137095Y0117763D01*
X0152695Y0124013D02*
X0152695Y0167802D01*
X0153184Y0167313D01*
X0153859Y0167313D01*
X0153859Y0154549D01*
X0153595Y0139513D01*
X0158153Y0139513D01*
X0158095Y0139297D01*
X0158095Y0138163D01*
X0161945Y0138163D01*
X0161945Y0137863D01*
X0158095Y0137863D01*
X0158095Y0136728D01*
X0158191Y0136372D01*
X0158375Y0136053D01*
X0158636Y0135792D01*
X0158715Y0135747D01*
X0158495Y0135527D01*
X0158495Y0132499D01*
X0158727Y0132266D01*
X0156174Y0129713D01*
X0155184Y0129713D01*
X0153895Y0128424D01*
X0153895Y0126601D01*
X0155184Y0125313D01*
X0157006Y0125313D01*
X0157995Y0126302D01*
X0157995Y0124013D01*
X0152695Y0124013D01*
X0152695Y0124133D02*
X0157995Y0124133D01*
X0157995Y0124931D02*
X0152695Y0124931D01*
X0152695Y0125730D02*
X0154767Y0125730D01*
X0153968Y0126528D02*
X0152695Y0126528D01*
X0152695Y0127327D02*
X0153895Y0127327D01*
X0153895Y0128125D02*
X0152695Y0128125D01*
X0152695Y0128924D02*
X0154395Y0128924D01*
X0152695Y0129722D02*
X0156183Y0129722D01*
X0156982Y0130521D02*
X0152695Y0130521D01*
X0152695Y0131319D02*
X0157780Y0131319D01*
X0158579Y0132118D02*
X0152695Y0132118D01*
X0152695Y0132916D02*
X0158495Y0132916D01*
X0158495Y0133715D02*
X0152695Y0133715D01*
X0152695Y0134513D02*
X0158495Y0134513D01*
X0158495Y0135312D02*
X0152695Y0135312D01*
X0152695Y0136110D02*
X0158342Y0136110D01*
X0158095Y0136909D02*
X0152695Y0136909D01*
X0152695Y0137707D02*
X0158095Y0137707D01*
X0158095Y0138506D02*
X0152695Y0138506D01*
X0152695Y0139304D02*
X0158097Y0139304D01*
X0158095Y0141513D02*
X0155595Y0141513D01*
X0155595Y0151723D01*
X0158396Y0151723D01*
X0158396Y0159613D01*
X0159196Y0159613D01*
X0159196Y0160413D01*
X0164133Y0160413D01*
X0164133Y0167013D01*
X0164595Y0167013D01*
X0164595Y0151763D01*
X0163066Y0151763D01*
X0163273Y0151818D01*
X0163593Y0152003D01*
X0163853Y0152263D01*
X0164038Y0152583D01*
X0164133Y0152939D01*
X0164133Y0159613D01*
X0159196Y0159613D01*
X0159196Y0151723D01*
X0162917Y0151723D01*
X0162940Y0151729D01*
X0162095Y0150884D01*
X0162095Y0145141D01*
X0162724Y0144513D01*
X0162245Y0144513D01*
X0162245Y0142163D01*
X0161945Y0142163D01*
X0161945Y0144513D01*
X0159311Y0144513D01*
X0158955Y0144417D01*
X0158636Y0144233D01*
X0158375Y0143972D01*
X0158191Y0143653D01*
X0158095Y0143297D01*
X0158095Y0142163D01*
X0161945Y0142163D01*
X0161945Y0141863D01*
X0158095Y0141863D01*
X0158095Y0141513D01*
X0158095Y0141700D02*
X0155595Y0141700D01*
X0155595Y0142498D02*
X0158095Y0142498D01*
X0158095Y0143297D02*
X0155595Y0143297D01*
X0155595Y0144095D02*
X0158498Y0144095D01*
X0155595Y0144894D02*
X0162343Y0144894D01*
X0162245Y0144095D02*
X0161945Y0144095D01*
X0161945Y0143297D02*
X0162245Y0143297D01*
X0162245Y0142498D02*
X0161945Y0142498D01*
X0162095Y0145692D02*
X0155595Y0145692D01*
X0155595Y0146491D02*
X0162095Y0146491D01*
X0162095Y0147289D02*
X0155595Y0147289D01*
X0155595Y0148088D02*
X0162095Y0148088D01*
X0162095Y0148886D02*
X0155595Y0148886D01*
X0155595Y0149685D02*
X0162095Y0149685D01*
X0162095Y0150484D02*
X0155595Y0150484D01*
X0155595Y0151282D02*
X0162493Y0151282D01*
X0163670Y0152081D02*
X0164595Y0152081D01*
X0164595Y0152879D02*
X0164117Y0152879D01*
X0164133Y0153678D02*
X0164595Y0153678D01*
X0164595Y0154476D02*
X0164133Y0154476D01*
X0164133Y0155275D02*
X0164595Y0155275D01*
X0164595Y0156073D02*
X0164133Y0156073D01*
X0164133Y0156872D02*
X0164595Y0156872D01*
X0164595Y0157670D02*
X0164133Y0157670D01*
X0164133Y0158469D02*
X0164595Y0158469D01*
X0164595Y0159267D02*
X0164133Y0159267D01*
X0164595Y0160066D02*
X0159196Y0160066D01*
X0159196Y0159267D02*
X0158396Y0159267D01*
X0158396Y0158469D02*
X0159196Y0158469D01*
X0159196Y0157670D02*
X0158396Y0157670D01*
X0158396Y0156872D02*
X0159196Y0156872D01*
X0159196Y0156073D02*
X0158396Y0156073D01*
X0158396Y0155275D02*
X0159196Y0155275D01*
X0159196Y0154476D02*
X0158396Y0154476D01*
X0158396Y0153678D02*
X0159196Y0153678D01*
X0159196Y0152879D02*
X0158396Y0152879D01*
X0158396Y0152081D02*
X0159196Y0152081D01*
X0153816Y0152081D02*
X0152695Y0152081D01*
X0152695Y0152879D02*
X0153830Y0152879D01*
X0153844Y0153678D02*
X0152695Y0153678D01*
X0152695Y0154476D02*
X0153858Y0154476D01*
X0153859Y0155275D02*
X0152695Y0155275D01*
X0152695Y0156073D02*
X0153859Y0156073D01*
X0153859Y0156872D02*
X0152695Y0156872D01*
X0152695Y0157670D02*
X0153859Y0157670D01*
X0153859Y0158469D02*
X0152695Y0158469D01*
X0152695Y0159267D02*
X0153859Y0159267D01*
X0153859Y0160066D02*
X0152695Y0160066D01*
X0152695Y0160864D02*
X0153859Y0160864D01*
X0153859Y0161663D02*
X0152695Y0161663D01*
X0152695Y0162461D02*
X0153859Y0162461D01*
X0153859Y0163260D02*
X0152695Y0163260D01*
X0152695Y0164058D02*
X0153859Y0164058D01*
X0153859Y0164857D02*
X0152695Y0164857D01*
X0152695Y0165655D02*
X0153859Y0165655D01*
X0153859Y0166454D02*
X0152695Y0166454D01*
X0152695Y0167252D02*
X0153859Y0167252D01*
X0164133Y0166454D02*
X0164595Y0166454D01*
X0164595Y0165655D02*
X0164133Y0165655D01*
X0164133Y0164857D02*
X0164595Y0164857D01*
X0164595Y0164058D02*
X0164133Y0164058D01*
X0164133Y0163260D02*
X0164595Y0163260D01*
X0164595Y0162461D02*
X0164133Y0162461D01*
X0164133Y0161663D02*
X0164595Y0161663D01*
X0164595Y0160864D02*
X0164133Y0160864D01*
X0153802Y0151282D02*
X0152695Y0151282D01*
X0152695Y0150484D02*
X0153788Y0150484D01*
X0153774Y0149685D02*
X0152695Y0149685D01*
X0152695Y0148886D02*
X0153760Y0148886D01*
X0153746Y0148088D02*
X0152695Y0148088D01*
X0152695Y0147289D02*
X0153732Y0147289D01*
X0153718Y0146491D02*
X0152695Y0146491D01*
X0152695Y0145692D02*
X0153704Y0145692D01*
X0153690Y0144894D02*
X0152695Y0144894D01*
X0152695Y0144095D02*
X0153676Y0144095D01*
X0153662Y0143297D02*
X0152695Y0143297D01*
X0152695Y0142498D02*
X0153648Y0142498D01*
X0153634Y0141700D02*
X0152695Y0141700D01*
X0152695Y0140901D02*
X0153620Y0140901D01*
X0153606Y0140103D02*
X0152695Y0140103D01*
X0157423Y0125730D02*
X0157995Y0125730D01*
X0137095Y0143763D02*
X0137095Y0144263D01*
X0137595Y0144763D01*
X0137595Y0152513D01*
X0132095Y0158013D01*
X0128085Y0158013D01*
X0189195Y0157670D02*
X0190359Y0157670D01*
X0190359Y0156872D02*
X0189195Y0156872D01*
X0189195Y0156073D02*
X0190359Y0156073D01*
X0190359Y0155275D02*
X0189195Y0155275D01*
X0189195Y0154476D02*
X0190359Y0154476D01*
X0190359Y0153678D02*
X0189195Y0153678D01*
X0189195Y0152879D02*
X0190359Y0152879D01*
X0190359Y0152709D02*
X0190595Y0152473D01*
X0190595Y0139513D01*
X0194153Y0139513D01*
X0194095Y0139297D01*
X0194095Y0138163D01*
X0197945Y0138163D01*
X0197945Y0137863D01*
X0194095Y0137863D01*
X0194095Y0136728D01*
X0194191Y0136372D01*
X0194375Y0136053D01*
X0194636Y0135792D01*
X0194715Y0135747D01*
X0194495Y0135527D01*
X0194495Y0132675D01*
X0193995Y0132175D01*
X0193995Y0129024D01*
X0193395Y0128424D01*
X0193395Y0126601D01*
X0193995Y0126001D01*
X0193995Y0123599D01*
X0193212Y0123599D01*
X0192627Y0123014D01*
X0192627Y0122513D01*
X0189195Y0122513D01*
X0189195Y0167513D01*
X0190555Y0167513D01*
X0190359Y0167317D01*
X0190359Y0152709D01*
X0190595Y0152081D02*
X0189195Y0152081D01*
X0189195Y0151282D02*
X0190595Y0151282D01*
X0190595Y0150484D02*
X0189195Y0150484D01*
X0189195Y0149685D02*
X0190595Y0149685D01*
X0190595Y0148886D02*
X0189195Y0148886D01*
X0189195Y0148088D02*
X0190595Y0148088D01*
X0190595Y0147289D02*
X0189195Y0147289D01*
X0189195Y0146491D02*
X0190595Y0146491D01*
X0190595Y0145692D02*
X0189195Y0145692D01*
X0189195Y0144894D02*
X0190595Y0144894D01*
X0190595Y0144095D02*
X0189195Y0144095D01*
X0189195Y0143297D02*
X0190595Y0143297D01*
X0190595Y0142498D02*
X0189195Y0142498D01*
X0189195Y0141700D02*
X0190595Y0141700D01*
X0190595Y0140901D02*
X0189195Y0140901D01*
X0189195Y0140103D02*
X0190595Y0140103D01*
X0189195Y0139304D02*
X0194097Y0139304D01*
X0194095Y0138506D02*
X0189195Y0138506D01*
X0189195Y0137707D02*
X0194095Y0137707D01*
X0194095Y0136909D02*
X0189195Y0136909D01*
X0189195Y0136110D02*
X0194342Y0136110D01*
X0194495Y0135312D02*
X0189195Y0135312D01*
X0189195Y0134513D02*
X0194495Y0134513D01*
X0194495Y0133715D02*
X0189195Y0133715D01*
X0189195Y0132916D02*
X0194495Y0132916D01*
X0193995Y0132118D02*
X0189195Y0132118D01*
X0189195Y0131319D02*
X0193995Y0131319D01*
X0193995Y0130521D02*
X0189195Y0130521D01*
X0189195Y0129722D02*
X0193995Y0129722D01*
X0193895Y0128924D02*
X0189195Y0128924D01*
X0189195Y0128125D02*
X0193395Y0128125D01*
X0193395Y0127327D02*
X0189195Y0127327D01*
X0189195Y0126528D02*
X0193468Y0126528D01*
X0193995Y0125730D02*
X0189195Y0125730D01*
X0189195Y0124931D02*
X0193995Y0124931D01*
X0193995Y0124133D02*
X0189195Y0124133D01*
X0189195Y0123334D02*
X0192947Y0123334D01*
X0192627Y0122536D02*
X0189195Y0122536D01*
X0198245Y0137863D02*
X0198245Y0138163D01*
X0200095Y0138163D01*
X0200095Y0137863D01*
X0198245Y0137863D01*
X0197945Y0141863D02*
X0194095Y0141863D01*
X0194095Y0141013D01*
X0192095Y0141013D01*
X0192095Y0151723D01*
X0194896Y0151723D01*
X0194896Y0159613D01*
X0195696Y0159613D01*
X0195696Y0151723D01*
X0198434Y0151723D01*
X0197595Y0150884D01*
X0197595Y0145141D01*
X0198245Y0144491D01*
X0198245Y0142163D01*
X0197945Y0142163D01*
X0197945Y0144513D01*
X0195311Y0144513D01*
X0194955Y0144417D01*
X0194636Y0144233D01*
X0194375Y0143972D01*
X0194191Y0143653D01*
X0194095Y0143297D01*
X0194095Y0142163D01*
X0197945Y0142163D01*
X0197945Y0141863D01*
X0197945Y0142498D02*
X0198245Y0142498D01*
X0198245Y0143297D02*
X0197945Y0143297D01*
X0197945Y0144095D02*
X0198245Y0144095D01*
X0197843Y0144894D02*
X0192095Y0144894D01*
X0192095Y0145692D02*
X0197595Y0145692D01*
X0197595Y0146491D02*
X0192095Y0146491D01*
X0192095Y0147289D02*
X0197595Y0147289D01*
X0197595Y0148088D02*
X0192095Y0148088D01*
X0192095Y0148886D02*
X0197595Y0148886D01*
X0197595Y0149685D02*
X0192095Y0149685D01*
X0192095Y0150484D02*
X0197595Y0150484D01*
X0197993Y0151282D02*
X0192095Y0151282D01*
X0194896Y0152081D02*
X0195696Y0152081D01*
X0195696Y0152879D02*
X0194896Y0152879D01*
X0194896Y0153678D02*
X0195696Y0153678D01*
X0195696Y0154476D02*
X0194896Y0154476D01*
X0194896Y0155275D02*
X0195696Y0155275D01*
X0195696Y0156073D02*
X0194896Y0156073D01*
X0194896Y0156872D02*
X0195696Y0156872D01*
X0195696Y0157670D02*
X0194896Y0157670D01*
X0194896Y0158469D02*
X0195696Y0158469D01*
X0195696Y0159267D02*
X0194896Y0159267D01*
X0190359Y0159267D02*
X0189195Y0159267D01*
X0189195Y0158469D02*
X0190359Y0158469D01*
X0190359Y0160066D02*
X0189195Y0160066D01*
X0189195Y0160864D02*
X0190359Y0160864D01*
X0190359Y0161663D02*
X0189195Y0161663D01*
X0189195Y0162461D02*
X0190359Y0162461D01*
X0190359Y0163260D02*
X0189195Y0163260D01*
X0189195Y0164058D02*
X0190359Y0164058D01*
X0190359Y0164857D02*
X0189195Y0164857D01*
X0189195Y0165655D02*
X0190359Y0165655D01*
X0190359Y0166454D02*
X0189195Y0166454D01*
X0189195Y0167252D02*
X0190359Y0167252D01*
X0192095Y0144095D02*
X0194498Y0144095D01*
X0194095Y0143297D02*
X0192095Y0143297D01*
X0192095Y0142498D02*
X0194095Y0142498D01*
X0194095Y0141700D02*
X0192095Y0141700D01*
X0075595Y0063013D02*
X0075495Y0063113D01*
X0045595Y0062513D02*
X0033595Y0050513D01*
X0031595Y0040513D02*
X0032095Y0040013D01*
X0032095Y0032013D01*
X0065569Y0112513D02*
X0065695Y0112639D01*
X0065695Y0115788D02*
X0062320Y0115788D01*
X0059595Y0118513D01*
X0065695Y0131536D02*
X0065695Y0138913D01*
X0061595Y0143013D01*
M02*
