%
M48
M72
T01C0.01200
T02C0.03150
T03C0.03346
T04C0.03500
T05C0.04000
T06C0.05118
T07C0.06700
T08C0.07480
%
T01
X26095Y32013
X47595Y47513
X67395Y44113
X75595Y63013
X60795Y70513
X54095Y86013
X67595Y89013
X42595Y72513
X28595Y114013
X57595Y116013
X72095Y131513
X81095Y129513
X85095Y130513
X88595Y121813
X87595Y117513
X79095Y118013
X97595Y97513
X116045Y99663
X120795Y78413
X118295Y70513
X105995Y69913
X99495Y65613
X117495Y44713
X97895Y32913
X135095Y74513
X153595Y71013
X190095Y71013
X40345Y207763
X29845Y185263
X51595Y160513
X45095Y151513
X33095Y148013
X27845Y149763
X68895Y147013
X74595Y152013
X77595Y147513
X87795Y145813
X99345Y142513
X71795Y169813
X74595Y179013
X83545Y182563
X91095Y186013
X99095Y188513
X99095Y176513
X69095Y205513
X108095Y210013
X139845Y208763
X154095Y169513
X179095Y157513
X195595Y127513
X207095Y119013
X214095Y142513
X215595Y158513
X156095Y127513
T02
X82595Y38513
X92595Y37513
X102595Y38513
X112595Y37513
X122595Y38513
X132595Y37513
X33595Y135387
X33595Y119639
X130595Y204013
T03
X140595Y185989
X140595Y174036
T04
X213095Y84513
X213095Y94513
X203095Y94513
X193095Y94513
X193095Y84513
X203095Y84513
X176595Y85013
X166595Y85013
X166595Y95013
X176595Y95013
X156595Y95013
X156595Y85013
T05
X31595Y40513
X33595Y50513
X31595Y60513
X33595Y70513
X31595Y80513
X33595Y90513
X55645Y54113
X72595Y50513
X82595Y49513
X92595Y50513
X102595Y49513
X38595Y197513
X48595Y197513
X47595Y187513
X37595Y187513
X38595Y177513
X48595Y177513
X47595Y167513
X37595Y167513
X54595Y134013
X75095Y194013
X85095Y193013
X85095Y203013
X75095Y204013
X95095Y204013
X95095Y194013
X136595Y160513
T06
X135095Y61717
X135095Y87308
T07
X203095Y35513
X203095Y65513
X166595Y66013
X166595Y36013
X203095Y203513
X203095Y173513
X166595Y174013
X166595Y204013
T08
X33595Y105513
X135595Y105513
M30
