G75*
%MOIN*%
%OFA0B0*%
%FSLAX25Y25*%
%IPPOS*%
%LPD*%
%AMOC8*
5,1,8,0,0,1.08239X$1,22.5*
%
%ADD10C,0.00400*%
%ADD11R,0.05518X0.06699*%
%ADD12R,0.06699X0.05518*%
%ADD13R,0.04337X0.05912*%
%ADD14OC8,0.08000*%
%ADD15C,0.07000*%
%ADD16R,0.05400X0.02600*%
%ADD17R,0.02600X0.05400*%
%ADD18C,0.07800*%
%ADD19C,0.12605*%
%ADD20C,0.06000*%
%ADD21C,0.00975*%
%ADD22OC8,0.07800*%
%ADD23R,0.05900X0.05900*%
%ADD24R,0.04400X0.04900*%
%ADD25R,0.08400X0.07400*%
%ADD26R,0.08274X0.05124*%
%ADD27C,0.00000*%
%ADD28C,0.03746*%
%ADD29C,0.08077*%
%ADD30C,0.05400*%
%ADD31R,0.04900X0.06000*%
%ADD32C,0.10450*%
%ADD33R,0.05600X0.02600*%
%ADD34C,0.01100*%
%ADD35R,0.06900X0.06900*%
%ADD36C,0.06900*%
%ADD37R,0.08274X0.14180*%
%ADD38C,0.03400*%
%ADD39C,0.07400*%
%ADD40R,0.09455X0.06699*%
%ADD41R,0.06699X0.09455*%
%ADD42R,0.07093X0.03156*%
D10*
X0022595Y0027513D02*
X0022595Y0212513D01*
X0146595Y0212513D01*
X0146595Y0122513D01*
X0151095Y0122513D01*
X0151095Y0212513D01*
X0182595Y0212513D01*
X0182595Y0122513D01*
X0187595Y0122513D01*
X0187595Y0212513D01*
X0219095Y0212513D01*
X0219095Y0027513D01*
X0187595Y0027513D01*
X0187595Y0107513D01*
X0182595Y0107513D01*
X0182595Y0027513D01*
X0151095Y0027513D01*
X0151095Y0107513D01*
X0146595Y0107513D01*
X0146595Y0027513D01*
X0022595Y0027513D01*
D11*
X0083655Y0064113D03*
X0091135Y0064113D03*
X0091085Y0087913D03*
X0083605Y0087913D03*
X0112355Y0093013D03*
X0119835Y0093013D03*
X0128208Y0048363D03*
X0136082Y0048363D03*
X0056032Y0123513D03*
X0048158Y0123513D03*
X0046255Y0110113D03*
X0053735Y0110113D03*
X0034335Y0127513D03*
X0026855Y0127513D03*
X0101558Y0170263D03*
X0109432Y0170263D03*
X0109835Y0158013D03*
X0102355Y0158013D03*
X0107408Y0146763D03*
X0115282Y0146763D03*
X0120605Y0158013D03*
X0128085Y0158013D03*
D12*
X0110595Y0181576D03*
X0110595Y0189450D03*
X0108495Y0122950D03*
X0108495Y0115076D03*
X0121595Y0110450D03*
X0121595Y0102576D03*
X0067145Y0070653D03*
X0067145Y0063173D03*
X0059095Y0092273D03*
X0059095Y0099753D03*
D13*
X0111855Y0059343D03*
X0119335Y0059343D03*
X0115595Y0050682D03*
X0155855Y0111182D03*
X0163335Y0111182D03*
X0159595Y0119843D03*
X0191855Y0111182D03*
X0199335Y0111182D03*
X0195595Y0119843D03*
X0088335Y0157682D03*
X0080855Y0157682D03*
X0084595Y0166343D03*
D14*
X0055645Y0054113D03*
D15*
X0033595Y0119639D03*
X0033595Y0135387D03*
D16*
X0065695Y0131536D03*
X0065695Y0128387D03*
X0065695Y0125237D03*
X0065695Y0122088D03*
X0065695Y0118938D03*
X0065695Y0115788D03*
X0065695Y0112639D03*
X0065695Y0109489D03*
X0099495Y0109489D03*
X0099495Y0112639D03*
X0099495Y0115788D03*
X0099495Y0118938D03*
X0099495Y0122088D03*
X0099495Y0125237D03*
X0099495Y0128387D03*
X0099495Y0131536D03*
D17*
X0093619Y0137413D03*
X0090469Y0137413D03*
X0087320Y0137413D03*
X0084170Y0137413D03*
X0081020Y0137413D03*
X0077871Y0137413D03*
X0074721Y0137413D03*
X0071572Y0137413D03*
X0071572Y0103613D03*
X0074721Y0103613D03*
X0077871Y0103613D03*
X0081020Y0103613D03*
X0084170Y0103613D03*
X0087320Y0103613D03*
X0090469Y0103613D03*
X0093619Y0103613D03*
D18*
X0092595Y0050513D03*
X0082595Y0049513D03*
X0072595Y0050513D03*
X0082595Y0038513D03*
X0092595Y0037513D03*
X0102595Y0038513D03*
X0112595Y0037513D03*
X0122595Y0038513D03*
X0132595Y0037513D03*
X0102595Y0049513D03*
X0033595Y0050513D03*
X0031595Y0060513D03*
X0033595Y0070513D03*
X0031595Y0080513D03*
X0033595Y0090513D03*
X0031595Y0040513D03*
X0037595Y0167513D03*
X0047595Y0167513D03*
X0048595Y0177513D03*
X0047595Y0187513D03*
X0037595Y0187513D03*
X0038595Y0177513D03*
X0038595Y0197513D03*
X0048595Y0197513D03*
D19*
X0033595Y0105513D03*
X0135595Y0105513D03*
D20*
X0130595Y0204013D03*
D21*
X0180058Y0170976D02*
X0180058Y0168050D01*
X0177132Y0168050D01*
X0177132Y0170976D01*
X0180058Y0170976D01*
X0180058Y0169024D02*
X0177132Y0169024D01*
X0177132Y0169998D02*
X0180058Y0169998D01*
X0180058Y0170972D02*
X0177132Y0170972D01*
X0180058Y0164976D02*
X0180058Y0162050D01*
X0177132Y0162050D01*
X0177132Y0164976D01*
X0180058Y0164976D01*
X0180058Y0163024D02*
X0177132Y0163024D01*
X0177132Y0163998D02*
X0180058Y0163998D01*
X0180058Y0164972D02*
X0177132Y0164972D01*
X0178058Y0139476D02*
X0178058Y0136550D01*
X0175132Y0136550D01*
X0175132Y0139476D01*
X0178058Y0139476D01*
X0178058Y0137524D02*
X0175132Y0137524D01*
X0175132Y0138498D02*
X0178058Y0138498D01*
X0178058Y0139472D02*
X0175132Y0139472D01*
X0178058Y0133476D02*
X0178058Y0130550D01*
X0175132Y0130550D01*
X0175132Y0133476D01*
X0178058Y0133476D01*
X0178058Y0131524D02*
X0175132Y0131524D01*
X0175132Y0132498D02*
X0178058Y0132498D01*
X0178058Y0133472D02*
X0175132Y0133472D01*
X0172558Y0127050D02*
X0169632Y0127050D01*
X0169632Y0129976D01*
X0172558Y0129976D01*
X0172558Y0127050D01*
X0172558Y0128024D02*
X0169632Y0128024D01*
X0169632Y0128998D02*
X0172558Y0128998D01*
X0172558Y0129972D02*
X0169632Y0129972D01*
X0166558Y0127050D02*
X0163632Y0127050D01*
X0163632Y0129976D01*
X0166558Y0129976D01*
X0166558Y0127050D01*
X0166558Y0128024D02*
X0163632Y0128024D01*
X0163632Y0128998D02*
X0166558Y0128998D01*
X0166558Y0129972D02*
X0163632Y0129972D01*
X0138558Y0132226D02*
X0135632Y0132226D01*
X0138558Y0132226D02*
X0138558Y0127800D01*
X0135632Y0127800D01*
X0135632Y0132226D01*
X0135632Y0128774D02*
X0138558Y0128774D01*
X0138558Y0129748D02*
X0135632Y0129748D01*
X0135632Y0130722D02*
X0138558Y0130722D01*
X0138558Y0131696D02*
X0135632Y0131696D01*
X0131558Y0132226D02*
X0128632Y0132226D01*
X0131558Y0132226D02*
X0131558Y0127800D01*
X0128632Y0127800D01*
X0128632Y0132226D01*
X0128632Y0128774D02*
X0131558Y0128774D01*
X0131558Y0129748D02*
X0128632Y0129748D01*
X0128632Y0130722D02*
X0131558Y0130722D01*
X0131558Y0131696D02*
X0128632Y0131696D01*
X0128632Y0145976D02*
X0131558Y0145976D01*
X0131558Y0141550D01*
X0128632Y0141550D01*
X0128632Y0145976D01*
X0128632Y0142524D02*
X0131558Y0142524D01*
X0131558Y0143498D02*
X0128632Y0143498D01*
X0128632Y0144472D02*
X0131558Y0144472D01*
X0131558Y0145446D02*
X0128632Y0145446D01*
X0135632Y0145976D02*
X0138558Y0145976D01*
X0138558Y0141550D01*
X0135632Y0141550D01*
X0135632Y0145976D01*
X0135632Y0142524D02*
X0138558Y0142524D01*
X0138558Y0143498D02*
X0135632Y0143498D01*
X0135632Y0144472D02*
X0138558Y0144472D01*
X0138558Y0145446D02*
X0135632Y0145446D01*
X0135632Y0119976D02*
X0138558Y0119976D01*
X0138558Y0115550D01*
X0135632Y0115550D01*
X0135632Y0119976D01*
X0135632Y0116524D02*
X0138558Y0116524D01*
X0138558Y0117498D02*
X0135632Y0117498D01*
X0135632Y0118472D02*
X0138558Y0118472D01*
X0138558Y0119446D02*
X0135632Y0119446D01*
X0131558Y0119976D02*
X0128632Y0119976D01*
X0131558Y0119976D02*
X0131558Y0115550D01*
X0128632Y0115550D01*
X0128632Y0119976D01*
X0128632Y0116524D02*
X0131558Y0116524D01*
X0131558Y0117498D02*
X0128632Y0117498D01*
X0128632Y0118472D02*
X0131558Y0118472D01*
X0131558Y0119446D02*
X0128632Y0119446D01*
X0199632Y0124976D02*
X0202558Y0124976D01*
X0202558Y0122050D01*
X0199632Y0122050D01*
X0199632Y0124976D01*
X0199632Y0123024D02*
X0202558Y0123024D01*
X0202558Y0123998D02*
X0199632Y0123998D01*
X0199632Y0124972D02*
X0202558Y0124972D01*
X0202558Y0127550D02*
X0199632Y0127550D01*
X0199632Y0130476D01*
X0202558Y0130476D01*
X0202558Y0127550D01*
X0202558Y0128524D02*
X0199632Y0128524D01*
X0199632Y0129498D02*
X0202558Y0129498D01*
X0202558Y0130472D02*
X0199632Y0130472D01*
X0205632Y0127550D02*
X0208558Y0127550D01*
X0205632Y0127550D02*
X0205632Y0130476D01*
X0208558Y0130476D01*
X0208558Y0127550D01*
X0208558Y0128524D02*
X0205632Y0128524D01*
X0205632Y0129498D02*
X0208558Y0129498D01*
X0208558Y0130472D02*
X0205632Y0130472D01*
X0205632Y0124976D02*
X0208558Y0124976D01*
X0208558Y0122050D01*
X0205632Y0122050D01*
X0205632Y0124976D01*
X0205632Y0123024D02*
X0208558Y0123024D01*
X0208558Y0123998D02*
X0205632Y0123998D01*
X0205632Y0124972D02*
X0208558Y0124972D01*
X0214558Y0130550D02*
X0214558Y0133476D01*
X0214558Y0130550D02*
X0211632Y0130550D01*
X0211632Y0133476D01*
X0214558Y0133476D01*
X0214558Y0131524D02*
X0211632Y0131524D01*
X0211632Y0132498D02*
X0214558Y0132498D01*
X0214558Y0133472D02*
X0211632Y0133472D01*
X0214558Y0136550D02*
X0214558Y0139476D01*
X0214558Y0136550D02*
X0211632Y0136550D01*
X0211632Y0139476D01*
X0214558Y0139476D01*
X0214558Y0137524D02*
X0211632Y0137524D01*
X0211632Y0138498D02*
X0214558Y0138498D01*
X0214558Y0139472D02*
X0211632Y0139472D01*
X0216558Y0146050D02*
X0216558Y0148976D01*
X0216558Y0146050D02*
X0213632Y0146050D01*
X0213632Y0148976D01*
X0216558Y0148976D01*
X0216558Y0147024D02*
X0213632Y0147024D01*
X0213632Y0147998D02*
X0216558Y0147998D01*
X0216558Y0148972D02*
X0213632Y0148972D01*
X0216558Y0152050D02*
X0216558Y0154976D01*
X0216558Y0152050D02*
X0213632Y0152050D01*
X0213632Y0154976D01*
X0216558Y0154976D01*
X0216558Y0153024D02*
X0213632Y0153024D01*
X0213632Y0153998D02*
X0216558Y0153998D01*
X0216558Y0154972D02*
X0213632Y0154972D01*
X0216558Y0162050D02*
X0216558Y0164976D01*
X0216558Y0162050D02*
X0213632Y0162050D01*
X0213632Y0164976D01*
X0216558Y0164976D01*
X0216558Y0163024D02*
X0213632Y0163024D01*
X0213632Y0163998D02*
X0216558Y0163998D01*
X0216558Y0164972D02*
X0213632Y0164972D01*
X0216558Y0168050D02*
X0216558Y0170976D01*
X0216558Y0168050D02*
X0213632Y0168050D01*
X0213632Y0170976D01*
X0216558Y0170976D01*
X0216558Y0169024D02*
X0213632Y0169024D01*
X0213632Y0169998D02*
X0216558Y0169998D01*
X0216558Y0170972D02*
X0213632Y0170972D01*
X0040132Y0125976D02*
X0040132Y0123050D01*
X0040132Y0125976D02*
X0043058Y0125976D01*
X0043058Y0123050D01*
X0040132Y0123050D01*
X0040132Y0124024D02*
X0043058Y0124024D01*
X0043058Y0124998D02*
X0040132Y0124998D01*
X0040132Y0125972D02*
X0043058Y0125972D01*
X0040132Y0119976D02*
X0040132Y0117050D01*
X0040132Y0119976D02*
X0043058Y0119976D01*
X0043058Y0117050D01*
X0040132Y0117050D01*
X0040132Y0118024D02*
X0043058Y0118024D01*
X0043058Y0118998D02*
X0040132Y0118998D01*
X0040132Y0119972D02*
X0043058Y0119972D01*
D22*
X0075095Y0194013D03*
X0085095Y0193013D03*
X0085095Y0203013D03*
X0075095Y0204013D03*
X0095095Y0204013D03*
X0095095Y0194013D03*
D23*
X0095695Y0076013D03*
X0082695Y0076013D03*
X0052095Y0077013D03*
X0052095Y0064013D03*
D24*
X0112095Y0199013D03*
X0119095Y0199013D03*
X0115595Y0207013D03*
D25*
X0119845Y0137013D03*
X0119845Y0120013D03*
D26*
X0128768Y0170670D03*
X0128768Y0180513D03*
X0128768Y0189855D03*
D27*
X0138922Y0185989D02*
X0138924Y0186070D01*
X0138930Y0186152D01*
X0138940Y0186233D01*
X0138954Y0186313D01*
X0138971Y0186392D01*
X0138993Y0186471D01*
X0139018Y0186548D01*
X0139047Y0186625D01*
X0139080Y0186699D01*
X0139117Y0186772D01*
X0139156Y0186843D01*
X0139200Y0186912D01*
X0139246Y0186979D01*
X0139296Y0187043D01*
X0139349Y0187105D01*
X0139405Y0187165D01*
X0139463Y0187221D01*
X0139525Y0187275D01*
X0139589Y0187326D01*
X0139655Y0187373D01*
X0139723Y0187417D01*
X0139794Y0187458D01*
X0139866Y0187495D01*
X0139941Y0187529D01*
X0140016Y0187559D01*
X0140094Y0187585D01*
X0140172Y0187608D01*
X0140251Y0187626D01*
X0140331Y0187641D01*
X0140412Y0187652D01*
X0140493Y0187659D01*
X0140575Y0187662D01*
X0140656Y0187661D01*
X0140737Y0187656D01*
X0140818Y0187647D01*
X0140899Y0187634D01*
X0140979Y0187617D01*
X0141057Y0187597D01*
X0141135Y0187572D01*
X0141212Y0187544D01*
X0141287Y0187512D01*
X0141360Y0187477D01*
X0141431Y0187438D01*
X0141501Y0187395D01*
X0141568Y0187350D01*
X0141634Y0187301D01*
X0141696Y0187249D01*
X0141756Y0187193D01*
X0141813Y0187135D01*
X0141868Y0187075D01*
X0141919Y0187011D01*
X0141967Y0186946D01*
X0142012Y0186878D01*
X0142054Y0186808D01*
X0142092Y0186736D01*
X0142127Y0186662D01*
X0142158Y0186587D01*
X0142185Y0186510D01*
X0142208Y0186432D01*
X0142228Y0186353D01*
X0142244Y0186273D01*
X0142256Y0186192D01*
X0142264Y0186111D01*
X0142268Y0186030D01*
X0142268Y0185948D01*
X0142264Y0185867D01*
X0142256Y0185786D01*
X0142244Y0185705D01*
X0142228Y0185625D01*
X0142208Y0185546D01*
X0142185Y0185468D01*
X0142158Y0185391D01*
X0142127Y0185316D01*
X0142092Y0185242D01*
X0142054Y0185170D01*
X0142012Y0185100D01*
X0141967Y0185032D01*
X0141919Y0184967D01*
X0141868Y0184903D01*
X0141813Y0184843D01*
X0141756Y0184785D01*
X0141696Y0184729D01*
X0141634Y0184677D01*
X0141568Y0184628D01*
X0141501Y0184583D01*
X0141432Y0184540D01*
X0141360Y0184501D01*
X0141287Y0184466D01*
X0141212Y0184434D01*
X0141135Y0184406D01*
X0141057Y0184381D01*
X0140979Y0184361D01*
X0140899Y0184344D01*
X0140818Y0184331D01*
X0140737Y0184322D01*
X0140656Y0184317D01*
X0140575Y0184316D01*
X0140493Y0184319D01*
X0140412Y0184326D01*
X0140331Y0184337D01*
X0140251Y0184352D01*
X0140172Y0184370D01*
X0140094Y0184393D01*
X0140016Y0184419D01*
X0139941Y0184449D01*
X0139866Y0184483D01*
X0139794Y0184520D01*
X0139723Y0184561D01*
X0139655Y0184605D01*
X0139589Y0184652D01*
X0139525Y0184703D01*
X0139463Y0184757D01*
X0139405Y0184813D01*
X0139349Y0184873D01*
X0139296Y0184935D01*
X0139246Y0184999D01*
X0139200Y0185066D01*
X0139156Y0185135D01*
X0139117Y0185206D01*
X0139080Y0185279D01*
X0139047Y0185353D01*
X0139018Y0185430D01*
X0138993Y0185507D01*
X0138971Y0185586D01*
X0138954Y0185665D01*
X0138940Y0185745D01*
X0138930Y0185826D01*
X0138924Y0185908D01*
X0138922Y0185989D01*
X0138922Y0174036D02*
X0138924Y0174117D01*
X0138930Y0174199D01*
X0138940Y0174280D01*
X0138954Y0174360D01*
X0138971Y0174439D01*
X0138993Y0174518D01*
X0139018Y0174595D01*
X0139047Y0174672D01*
X0139080Y0174746D01*
X0139117Y0174819D01*
X0139156Y0174890D01*
X0139200Y0174959D01*
X0139246Y0175026D01*
X0139296Y0175090D01*
X0139349Y0175152D01*
X0139405Y0175212D01*
X0139463Y0175268D01*
X0139525Y0175322D01*
X0139589Y0175373D01*
X0139655Y0175420D01*
X0139723Y0175464D01*
X0139794Y0175505D01*
X0139866Y0175542D01*
X0139941Y0175576D01*
X0140016Y0175606D01*
X0140094Y0175632D01*
X0140172Y0175655D01*
X0140251Y0175673D01*
X0140331Y0175688D01*
X0140412Y0175699D01*
X0140493Y0175706D01*
X0140575Y0175709D01*
X0140656Y0175708D01*
X0140737Y0175703D01*
X0140818Y0175694D01*
X0140899Y0175681D01*
X0140979Y0175664D01*
X0141057Y0175644D01*
X0141135Y0175619D01*
X0141212Y0175591D01*
X0141287Y0175559D01*
X0141360Y0175524D01*
X0141431Y0175485D01*
X0141501Y0175442D01*
X0141568Y0175397D01*
X0141634Y0175348D01*
X0141696Y0175296D01*
X0141756Y0175240D01*
X0141813Y0175182D01*
X0141868Y0175122D01*
X0141919Y0175058D01*
X0141967Y0174993D01*
X0142012Y0174925D01*
X0142054Y0174855D01*
X0142092Y0174783D01*
X0142127Y0174709D01*
X0142158Y0174634D01*
X0142185Y0174557D01*
X0142208Y0174479D01*
X0142228Y0174400D01*
X0142244Y0174320D01*
X0142256Y0174239D01*
X0142264Y0174158D01*
X0142268Y0174077D01*
X0142268Y0173995D01*
X0142264Y0173914D01*
X0142256Y0173833D01*
X0142244Y0173752D01*
X0142228Y0173672D01*
X0142208Y0173593D01*
X0142185Y0173515D01*
X0142158Y0173438D01*
X0142127Y0173363D01*
X0142092Y0173289D01*
X0142054Y0173217D01*
X0142012Y0173147D01*
X0141967Y0173079D01*
X0141919Y0173014D01*
X0141868Y0172950D01*
X0141813Y0172890D01*
X0141756Y0172832D01*
X0141696Y0172776D01*
X0141634Y0172724D01*
X0141568Y0172675D01*
X0141501Y0172630D01*
X0141432Y0172587D01*
X0141360Y0172548D01*
X0141287Y0172513D01*
X0141212Y0172481D01*
X0141135Y0172453D01*
X0141057Y0172428D01*
X0140979Y0172408D01*
X0140899Y0172391D01*
X0140818Y0172378D01*
X0140737Y0172369D01*
X0140656Y0172364D01*
X0140575Y0172363D01*
X0140493Y0172366D01*
X0140412Y0172373D01*
X0140331Y0172384D01*
X0140251Y0172399D01*
X0140172Y0172417D01*
X0140094Y0172440D01*
X0140016Y0172466D01*
X0139941Y0172496D01*
X0139866Y0172530D01*
X0139794Y0172567D01*
X0139723Y0172608D01*
X0139655Y0172652D01*
X0139589Y0172699D01*
X0139525Y0172750D01*
X0139463Y0172804D01*
X0139405Y0172860D01*
X0139349Y0172920D01*
X0139296Y0172982D01*
X0139246Y0173046D01*
X0139200Y0173113D01*
X0139156Y0173182D01*
X0139117Y0173253D01*
X0139080Y0173326D01*
X0139047Y0173400D01*
X0139018Y0173477D01*
X0138993Y0173554D01*
X0138971Y0173633D01*
X0138954Y0173712D01*
X0138940Y0173792D01*
X0138930Y0173873D01*
X0138924Y0173955D01*
X0138922Y0174036D01*
D28*
X0140595Y0174036D03*
X0140595Y0185989D03*
D29*
X0135095Y0091147D02*
X0135095Y0083469D01*
X0135095Y0065556D02*
X0135095Y0057879D01*
D30*
X0067595Y0080013D03*
X0032095Y0032013D03*
X0046845Y0134013D03*
X0059595Y0197513D03*
D31*
X0116995Y0189013D03*
X0122195Y0189013D03*
D32*
X0166595Y0204013D03*
X0166595Y0174013D03*
X0203095Y0173513D03*
X0203095Y0203513D03*
X0203095Y0065513D03*
X0203095Y0035513D03*
X0166595Y0036013D03*
X0166595Y0066013D03*
D33*
X0170095Y0134013D03*
X0170095Y0138013D03*
X0170095Y0142013D03*
X0162095Y0142013D03*
X0162095Y0138013D03*
X0162095Y0134013D03*
X0198095Y0134013D03*
X0198095Y0138013D03*
X0198095Y0142013D03*
X0206095Y0142013D03*
X0206095Y0138013D03*
X0206095Y0134013D03*
D34*
X0205945Y0145613D02*
X0209245Y0145613D01*
X0205945Y0145613D02*
X0205945Y0150413D01*
X0209245Y0150413D01*
X0209245Y0145613D01*
X0209245Y0146712D02*
X0205945Y0146712D01*
X0205945Y0147811D02*
X0209245Y0147811D01*
X0209245Y0148910D02*
X0205945Y0148910D01*
X0205945Y0150009D02*
X0209245Y0150009D01*
X0202245Y0145613D02*
X0198945Y0145613D01*
X0198945Y0150413D01*
X0202245Y0150413D01*
X0202245Y0145613D01*
X0202245Y0146712D02*
X0198945Y0146712D01*
X0198945Y0147811D02*
X0202245Y0147811D01*
X0202245Y0148910D02*
X0198945Y0148910D01*
X0198945Y0150009D02*
X0202245Y0150009D01*
X0173745Y0145613D02*
X0170445Y0145613D01*
X0170445Y0150413D01*
X0173745Y0150413D01*
X0173745Y0145613D01*
X0173745Y0146712D02*
X0170445Y0146712D01*
X0170445Y0147811D02*
X0173745Y0147811D01*
X0173745Y0148910D02*
X0170445Y0148910D01*
X0170445Y0150009D02*
X0173745Y0150009D01*
X0166745Y0145613D02*
X0163445Y0145613D01*
X0163445Y0150413D01*
X0166745Y0150413D01*
X0166745Y0145613D01*
X0166745Y0146712D02*
X0163445Y0146712D01*
X0163445Y0147811D02*
X0166745Y0147811D01*
X0166745Y0148910D02*
X0163445Y0148910D01*
X0163445Y0150009D02*
X0166745Y0150009D01*
X0169445Y0109113D02*
X0172745Y0109113D01*
X0169445Y0109113D02*
X0169445Y0113913D01*
X0172745Y0113913D01*
X0172745Y0109113D01*
X0172745Y0110212D02*
X0169445Y0110212D01*
X0169445Y0111311D02*
X0172745Y0111311D01*
X0172745Y0112410D02*
X0169445Y0112410D01*
X0169445Y0113509D02*
X0172745Y0113509D01*
X0176445Y0109113D02*
X0179745Y0109113D01*
X0176445Y0109113D02*
X0176445Y0113913D01*
X0179745Y0113913D01*
X0179745Y0109113D01*
X0179745Y0110212D02*
X0176445Y0110212D01*
X0176445Y0111311D02*
X0179745Y0111311D01*
X0179745Y0112410D02*
X0176445Y0112410D01*
X0176445Y0113509D02*
X0179745Y0113509D01*
X0205945Y0106613D02*
X0209245Y0106613D01*
X0205945Y0106613D02*
X0205945Y0111413D01*
X0209245Y0111413D01*
X0209245Y0106613D01*
X0209245Y0107712D02*
X0205945Y0107712D01*
X0205945Y0108811D02*
X0209245Y0108811D01*
X0209245Y0109910D02*
X0205945Y0109910D01*
X0205945Y0111009D02*
X0209245Y0111009D01*
X0212945Y0106613D02*
X0216245Y0106613D01*
X0212945Y0106613D02*
X0212945Y0111413D01*
X0216245Y0111413D01*
X0216245Y0106613D01*
X0216245Y0107712D02*
X0212945Y0107712D01*
X0212945Y0108811D02*
X0216245Y0108811D01*
X0216245Y0109910D02*
X0212945Y0109910D01*
X0212945Y0111009D02*
X0216245Y0111009D01*
X0206745Y0072613D02*
X0203445Y0072613D01*
X0203445Y0077413D01*
X0206745Y0077413D01*
X0206745Y0072613D01*
X0206745Y0073712D02*
X0203445Y0073712D01*
X0203445Y0074811D02*
X0206745Y0074811D01*
X0206745Y0075910D02*
X0203445Y0075910D01*
X0203445Y0077009D02*
X0206745Y0077009D01*
X0199745Y0072613D02*
X0196445Y0072613D01*
X0196445Y0077413D01*
X0199745Y0077413D01*
X0199745Y0072613D01*
X0199745Y0073712D02*
X0196445Y0073712D01*
X0196445Y0074811D02*
X0199745Y0074811D01*
X0199745Y0075910D02*
X0196445Y0075910D01*
X0196445Y0077009D02*
X0199745Y0077009D01*
X0170245Y0072613D02*
X0166945Y0072613D01*
X0166945Y0077413D01*
X0170245Y0077413D01*
X0170245Y0072613D01*
X0170245Y0073712D02*
X0166945Y0073712D01*
X0166945Y0074811D02*
X0170245Y0074811D01*
X0170245Y0075910D02*
X0166945Y0075910D01*
X0166945Y0077009D02*
X0170245Y0077009D01*
X0163245Y0072613D02*
X0159945Y0072613D01*
X0159945Y0077413D01*
X0163245Y0077413D01*
X0163245Y0072613D01*
X0163245Y0073712D02*
X0159945Y0073712D01*
X0159945Y0074811D02*
X0163245Y0074811D01*
X0163245Y0075910D02*
X0159945Y0075910D01*
X0159945Y0077009D02*
X0163245Y0077009D01*
D35*
X0156595Y0085013D03*
X0193095Y0084513D03*
D36*
X0193095Y0094513D03*
X0203095Y0094513D03*
X0203095Y0084513D03*
X0213095Y0084513D03*
X0213095Y0094513D03*
X0176595Y0095013D03*
X0166595Y0095013D03*
X0156595Y0095013D03*
X0166595Y0085013D03*
X0176595Y0085013D03*
D37*
X0171394Y0160013D03*
X0158796Y0160013D03*
X0195296Y0160013D03*
X0207894Y0160013D03*
D38*
X0203095Y0120013D03*
D39*
X0136595Y0160513D03*
X0054595Y0134013D03*
D40*
X0047194Y0035013D03*
X0071997Y0035013D03*
D41*
X0156095Y0176611D03*
X0156095Y0201414D03*
D42*
X0120095Y0133237D03*
X0120095Y0128513D03*
X0120095Y0123788D03*
M02*
