G75*
%MOIN*%
%OFA0B0*%
%FSLAX25Y25*%
%IPPOS*%
%LPD*%
%AMOC8*
5,1,8,0,0,1.08239X$1,22.5*
%
%ADD10C,0.00000*%
%ADD11C,0.06000*%
%ADD12OC8,0.06000*%
%ADD13OC8,0.06400*%
%ADD14C,0.06900*%
%ADD15OC8,0.09061*%
D10*
X0001900Y0001794D02*
X0001900Y0130534D01*
X0112136Y0130534D01*
X0112136Y0001794D01*
X0001900Y0001794D01*
D11*
X0098400Y0119975D03*
D12*
X0098400Y0109975D03*
X0098400Y0099975D03*
X0098400Y0089975D03*
X0098400Y0079975D03*
X0088400Y0079975D03*
X0088400Y0089975D03*
X0088400Y0099975D03*
X0088400Y0109975D03*
X0088400Y0119975D03*
D13*
X0018400Y0119975D03*
X0018400Y0109975D03*
X0018400Y0099975D03*
X0018400Y0089975D03*
X0018400Y0079975D03*
X0018400Y0069975D03*
X0018400Y0059975D03*
X0018400Y0049975D03*
X0018400Y0039975D03*
X0018400Y0029975D03*
X0018400Y0019975D03*
X0018400Y0009975D03*
X0008400Y0009975D03*
X0008400Y0019975D03*
X0008400Y0029975D03*
X0008400Y0039975D03*
X0008400Y0049975D03*
X0008400Y0059975D03*
X0008400Y0069975D03*
X0008400Y0079975D03*
X0008400Y0089975D03*
X0008400Y0099975D03*
X0008400Y0109975D03*
X0008400Y0119975D03*
D14*
X0043400Y0120725D03*
X0063400Y0120725D03*
D15*
X0103676Y0006955D03*
M02*
