G75*
%MOIN*%
%OFA0B0*%
%FSLAX25Y25*%
%IPPOS*%
%LPD*%
%AMOC8*
5,1,8,0,0,1.08239X$1,22.5*
%
%ADD10C,0.00000*%
%ADD11R,0.10400X0.05400*%
%ADD12C,0.06000*%
%ADD13OC8,0.06000*%
%ADD14R,0.03550X0.03550*%
%ADD15R,0.04337X0.04731*%
%ADD16R,0.04731X0.04337*%
%ADD17R,0.02600X0.05400*%
%ADD18R,0.05400X0.02600*%
%ADD19C,0.00500*%
%ADD20OC8,0.06400*%
%ADD21C,0.06900*%
%ADD22OC8,0.09061*%
D10*
X0001900Y0001794D02*
X0001900Y0130534D01*
X0112136Y0130534D01*
X0112136Y0001794D01*
X0001900Y0001794D01*
D11*
X0031904Y0006853D03*
X0031904Y0014727D03*
X0031904Y0022601D03*
X0031904Y0030475D03*
X0031904Y0038349D03*
X0031904Y0046223D03*
X0031904Y0054097D03*
X0094896Y0054097D03*
X0094896Y0046223D03*
X0094896Y0038349D03*
X0094896Y0030475D03*
X0094896Y0022601D03*
X0094896Y0014727D03*
X0094896Y0006853D03*
D12*
X0098400Y0119975D03*
D13*
X0098400Y0109975D03*
X0098400Y0099975D03*
X0098400Y0089975D03*
X0098400Y0079975D03*
X0088400Y0079975D03*
X0088400Y0089975D03*
X0088400Y0099975D03*
X0088400Y0109975D03*
X0088400Y0119975D03*
D14*
X0106900Y0069678D03*
X0106900Y0063772D03*
D15*
X0102246Y0064475D03*
X0095554Y0064475D03*
X0090246Y0064475D03*
X0083554Y0064475D03*
X0083554Y0072475D03*
X0090246Y0072475D03*
X0106900Y0043821D03*
X0106900Y0037128D03*
X0105150Y0021321D03*
X0105150Y0014628D03*
X0074650Y0101878D03*
X0074650Y0108571D03*
D16*
X0065246Y0108975D03*
X0058554Y0108975D03*
X0041996Y0108975D03*
X0035304Y0108975D03*
X0095554Y0072475D03*
X0102246Y0072475D03*
D17*
X0064174Y0067825D03*
X0061024Y0067825D03*
X0057874Y0067825D03*
X0054725Y0067825D03*
X0051575Y0067825D03*
X0048426Y0067825D03*
X0045276Y0067825D03*
X0042126Y0067825D03*
X0042126Y0101625D03*
X0045276Y0101625D03*
X0048426Y0101625D03*
X0051575Y0101625D03*
X0054725Y0101625D03*
X0057874Y0101625D03*
X0061024Y0101625D03*
X0064174Y0101625D03*
D18*
X0070050Y0095748D03*
X0070050Y0092599D03*
X0070050Y0089449D03*
X0070050Y0086300D03*
X0070050Y0083150D03*
X0070050Y0080000D03*
X0070050Y0076851D03*
X0070050Y0073701D03*
X0036250Y0073701D03*
X0036250Y0076851D03*
X0036250Y0080000D03*
X0036250Y0083150D03*
X0036250Y0086300D03*
X0036250Y0089449D03*
X0036250Y0092599D03*
X0036250Y0095748D03*
D19*
X0028747Y0116275D02*
X0028084Y0116098D01*
X0027400Y0116038D01*
X0026716Y0116098D01*
X0026053Y0116275D01*
X0025431Y0116565D01*
X0024869Y0116959D01*
X0024384Y0117444D01*
X0023990Y0118006D01*
X0023700Y0118628D01*
X0023523Y0119291D01*
X0023463Y0119975D01*
X0023523Y0120658D01*
X0023700Y0121321D01*
X0023990Y0121943D01*
X0024384Y0122505D01*
X0024869Y0122991D01*
X0025431Y0123384D01*
X0026053Y0123674D01*
X0026716Y0123852D01*
X0027400Y0123912D01*
X0028084Y0123852D01*
X0028747Y0123674D01*
X0029369Y0123384D01*
X0029931Y0122991D01*
X0030416Y0122505D01*
X0030810Y0121943D01*
X0031100Y0121321D01*
X0031277Y0120658D01*
X0031337Y0119975D01*
X0031277Y0119291D01*
X0031100Y0118628D01*
X0030810Y0118006D01*
X0030416Y0117444D01*
X0029931Y0116959D01*
X0029369Y0116565D01*
X0028747Y0116275D01*
X0029124Y0116451D02*
X0025676Y0116451D01*
X0024882Y0116950D02*
X0029918Y0116950D01*
X0030419Y0117448D02*
X0024381Y0117448D01*
X0024032Y0117947D02*
X0030768Y0117947D01*
X0031014Y0118445D02*
X0023786Y0118445D01*
X0023616Y0118944D02*
X0031184Y0118944D01*
X0031290Y0119442D02*
X0023510Y0119442D01*
X0023466Y0119941D02*
X0031334Y0119941D01*
X0031296Y0120439D02*
X0023504Y0120439D01*
X0023598Y0120938D02*
X0031202Y0120938D01*
X0031046Y0121436D02*
X0023754Y0121436D01*
X0023987Y0121935D02*
X0030813Y0121935D01*
X0030466Y0122433D02*
X0024334Y0122433D01*
X0024811Y0122932D02*
X0029989Y0122932D01*
X0029270Y0123430D02*
X0025530Y0123430D01*
X0071053Y0017974D02*
X0070431Y0017684D01*
X0069869Y0017291D01*
X0069384Y0016805D01*
X0068990Y0016243D01*
X0068700Y0015621D01*
X0068523Y0014958D01*
X0068463Y0014275D01*
X0068523Y0013591D01*
X0068700Y0012928D01*
X0068990Y0012306D01*
X0069384Y0011744D01*
X0069869Y0011259D01*
X0070431Y0010865D01*
X0071053Y0010575D01*
X0071716Y0010398D01*
X0072400Y0010338D01*
X0073084Y0010398D01*
X0073747Y0010575D01*
X0074369Y0010865D01*
X0074931Y0011259D01*
X0075416Y0011744D01*
X0075810Y0012306D01*
X0076100Y0012928D01*
X0076277Y0013591D01*
X0076337Y0014275D01*
X0076277Y0014958D01*
X0076100Y0015621D01*
X0075810Y0016243D01*
X0075416Y0016805D01*
X0074931Y0017291D01*
X0074369Y0017684D01*
X0073747Y0017974D01*
X0073084Y0018152D01*
X0072400Y0018212D01*
X0071716Y0018152D01*
X0071053Y0017974D01*
X0070564Y0017746D02*
X0074236Y0017746D01*
X0074974Y0017248D02*
X0069826Y0017248D01*
X0069345Y0016749D02*
X0075455Y0016749D01*
X0075804Y0016251D02*
X0068996Y0016251D01*
X0068761Y0015752D02*
X0076039Y0015752D01*
X0076198Y0015254D02*
X0068602Y0015254D01*
X0068505Y0014755D02*
X0076295Y0014755D01*
X0076335Y0014256D02*
X0068465Y0014256D01*
X0068508Y0013758D02*
X0076292Y0013758D01*
X0076188Y0013259D02*
X0068612Y0013259D01*
X0068778Y0012761D02*
X0076022Y0012761D01*
X0075779Y0012262D02*
X0069021Y0012262D01*
X0069370Y0011764D02*
X0075430Y0011764D01*
X0074937Y0011265D02*
X0069863Y0011265D01*
X0070642Y0010767D02*
X0074158Y0010767D01*
D20*
X0018400Y0009975D03*
X0018400Y0019975D03*
X0018400Y0029975D03*
X0018400Y0039975D03*
X0018400Y0049975D03*
X0018400Y0059975D03*
X0018400Y0069975D03*
X0018400Y0079975D03*
X0018400Y0089975D03*
X0018400Y0099975D03*
X0018400Y0109975D03*
X0018400Y0119975D03*
X0008400Y0119975D03*
X0008400Y0109975D03*
X0008400Y0099975D03*
X0008400Y0089975D03*
X0008400Y0079975D03*
X0008400Y0069975D03*
X0008400Y0059975D03*
X0008400Y0049975D03*
X0008400Y0039975D03*
X0008400Y0029975D03*
X0008400Y0019975D03*
X0008400Y0009975D03*
D21*
X0043400Y0120725D03*
X0063400Y0120725D03*
D22*
X0103676Y0006955D03*
M02*
