%
M48
M72
T01C0.01969
T02C0.02756
T03C0.03600
T04C0.04000
T05C0.05512
%
T01
X21650Y44975
X24400Y60575
X32150Y70475
X23150Y73475
X24400Y84975
X44250Y78625
X48400Y73725
X51900Y82725
X58150Y76975
X61650Y81975
X58150Y93725
X52400Y93225
X44900Y85475
X55475Y62800
X58850Y59425
X62150Y62725
X69447Y58022
X71150Y64975
X70800Y69475
X75150Y75725
X75150Y83225
X78650Y86225
X83074Y87649
X83400Y94975
X79650Y98725
X75250Y95975
X68850Y101125
X69900Y105975
X78900Y114794
X71400Y119975
X52900Y120794
X52300Y109175
X25900Y111794
X48900Y61725
X39148Y58473
X39900Y19975
X40150Y14725
X78900Y10794
X86700Y14725
X83400Y38225
X87400Y46225
X83900Y53794
X78350Y61775
X78400Y66725
X98900Y68475
X107900Y76975
X103650Y53975
X109150Y14475
X103900Y124525
X93400Y127125
T02
X43400Y120725
X63400Y120725
T03
X88400Y119975
X88400Y109975
X88400Y99975
X88400Y89975
X88400Y79975
X98400Y79975
X98400Y89975
X98400Y99975
X98400Y109975
X98400Y119975
T04
X8400Y119975
X8400Y109975
X8400Y99975
X8400Y89975
X8400Y79975
X8400Y69975
X8400Y59975
X8400Y49975
X8400Y39975
X8400Y29975
X8400Y19975
X8400Y9975
X18400Y9975
X18400Y19975
X18400Y29975
X18400Y39975
X18400Y49975
X18400Y59975
X18400Y69975
X18400Y79975
X18400Y89975
X18400Y99975
X18400Y109975
X18400Y119975
T05
X103676Y6955
M30
