G75*
%MOIN*%
%OFA0B0*%
%FSLAX25Y25*%
%IPPOS*%
%LPD*%
%AMOC8*
5,1,8,0,0,1.08239X$1,22.5*
%
%ADD10C,0.00000*%
%ADD11R,0.10000X0.05000*%
%ADD12C,0.05600*%
%ADD13OC8,0.05600*%
%ADD14R,0.03150X0.03150*%
%ADD15R,0.03937X0.04331*%
%ADD16R,0.04331X0.03937*%
%ADD17R,0.02200X0.05000*%
%ADD18R,0.05000X0.02200*%
%ADD19C,0.03937*%
%ADD20OC8,0.06000*%
%ADD21C,0.06500*%
%ADD22OC8,0.08661*%
%ADD23C,0.02000*%
%ADD24C,0.01000*%
%ADD25C,0.03169*%
%ADD26C,0.01600*%
%ADD27C,0.00800*%
%ADD28C,0.03000*%
%ADD29C,0.03200*%
D10*
X0001900Y0001794D02*
X0001900Y0130534D01*
X0112136Y0130534D01*
X0112136Y0001794D01*
X0001900Y0001794D01*
D11*
X0031904Y0006853D03*
X0031904Y0014727D03*
X0031904Y0022601D03*
X0031904Y0030475D03*
X0031904Y0038349D03*
X0031904Y0046223D03*
X0031904Y0054097D03*
X0094896Y0054097D03*
X0094896Y0046223D03*
X0094896Y0038349D03*
X0094896Y0030475D03*
X0094896Y0022601D03*
X0094896Y0014727D03*
X0094896Y0006853D03*
D12*
X0098400Y0119975D03*
D13*
X0098400Y0109975D03*
X0098400Y0099975D03*
X0098400Y0089975D03*
X0098400Y0079975D03*
X0088400Y0079975D03*
X0088400Y0089975D03*
X0088400Y0099975D03*
X0088400Y0109975D03*
X0088400Y0119975D03*
D14*
X0106900Y0069678D03*
X0106900Y0063772D03*
D15*
X0102246Y0064475D03*
X0095554Y0064475D03*
X0090246Y0064475D03*
X0083554Y0064475D03*
X0083554Y0072475D03*
X0090246Y0072475D03*
X0106900Y0043821D03*
X0106900Y0037128D03*
X0105150Y0021321D03*
X0105150Y0014628D03*
X0074650Y0101878D03*
X0074650Y0108571D03*
D16*
X0065246Y0108975D03*
X0058554Y0108975D03*
X0041996Y0108975D03*
X0035304Y0108975D03*
X0095554Y0072475D03*
X0102246Y0072475D03*
D17*
X0064174Y0067825D03*
X0061024Y0067825D03*
X0057874Y0067825D03*
X0054725Y0067825D03*
X0051575Y0067825D03*
X0048426Y0067825D03*
X0045276Y0067825D03*
X0042126Y0067825D03*
X0042126Y0101625D03*
X0045276Y0101625D03*
X0048426Y0101625D03*
X0051575Y0101625D03*
X0054725Y0101625D03*
X0057874Y0101625D03*
X0061024Y0101625D03*
X0064174Y0101625D03*
D18*
X0070050Y0095748D03*
X0070050Y0092599D03*
X0070050Y0089449D03*
X0070050Y0086300D03*
X0070050Y0083150D03*
X0070050Y0080000D03*
X0070050Y0076851D03*
X0070050Y0073701D03*
X0036250Y0073701D03*
X0036250Y0076851D03*
X0036250Y0080000D03*
X0036250Y0083150D03*
X0036250Y0086300D03*
X0036250Y0089449D03*
X0036250Y0092599D03*
X0036250Y0095748D03*
D19*
X0027400Y0119975D03*
X0072400Y0014275D03*
D20*
X0018400Y0009975D03*
X0018400Y0019975D03*
X0018400Y0029975D03*
X0018400Y0039975D03*
X0018400Y0049975D03*
X0018400Y0059975D03*
X0018400Y0069975D03*
X0018400Y0079975D03*
X0018400Y0089975D03*
X0018400Y0099975D03*
X0018400Y0109975D03*
X0018400Y0119975D03*
X0008400Y0119975D03*
X0008400Y0109975D03*
X0008400Y0099975D03*
X0008400Y0089975D03*
X0008400Y0079975D03*
X0008400Y0069975D03*
X0008400Y0059975D03*
X0008400Y0049975D03*
X0008400Y0039975D03*
X0008400Y0029975D03*
X0008400Y0019975D03*
X0008400Y0009975D03*
D21*
X0043400Y0120725D03*
X0063400Y0120725D03*
D22*
X0103676Y0006955D03*
D23*
X0105304Y0014475D02*
X0109150Y0014475D01*
X0109150Y0033225D01*
X0106900Y0035475D01*
X0106900Y0037128D01*
X0105150Y0022475D02*
X0095022Y0022475D01*
X0094100Y0014775D02*
X0086700Y0014725D01*
X0094994Y0014628D02*
X0105150Y0014628D01*
D24*
X0105304Y0014475D01*
X0105150Y0021321D02*
X0104900Y0021571D01*
X0104900Y0027794D01*
X0102900Y0029794D01*
X0102900Y0042794D01*
X0103900Y0043794D01*
X0106872Y0043794D01*
X0106900Y0043821D01*
X0106900Y0057794D01*
X0109900Y0060794D01*
X0109900Y0066678D01*
X0106900Y0069678D01*
X0106900Y0070551D01*
X0106857Y0070594D01*
X0106857Y0070837D01*
X0105900Y0071794D01*
X0102928Y0071794D01*
X0102246Y0072475D01*
X0102246Y0071821D01*
X0098900Y0068475D01*
X0095554Y0072475D02*
X0090246Y0072475D01*
X0090246Y0064475D01*
X0095554Y0064475D02*
X0095900Y0064128D01*
X0095900Y0060794D01*
X0093900Y0058794D01*
X0087900Y0058794D01*
X0087081Y0057975D01*
X0070650Y0057975D01*
X0069603Y0058022D01*
X0069447Y0058022D01*
X0065400Y0056225D02*
X0065424Y0066248D01*
X0064174Y0067825D01*
X0061024Y0067825D02*
X0061024Y0063599D01*
X0062150Y0062725D01*
X0058800Y0063625D02*
X0058850Y0059425D01*
X0055475Y0062800D02*
X0055325Y0062800D01*
X0054650Y0063475D01*
X0054725Y0067825D01*
X0057874Y0067825D02*
X0057900Y0067775D01*
X0057900Y0064975D01*
X0058300Y0064625D01*
X0058800Y0063625D01*
X0065400Y0056225D02*
X0048900Y0056225D01*
X0048900Y0061725D01*
X0048426Y0067825D02*
X0048426Y0071949D01*
X0048400Y0073725D01*
X0052556Y0077596D02*
X0051528Y0078625D01*
X0044250Y0078625D01*
X0044900Y0085475D02*
X0044900Y0092975D01*
X0035400Y0102475D01*
X0025900Y0102475D01*
X0018400Y0109975D01*
X0024400Y0095725D02*
X0024400Y0084975D01*
X0032526Y0076851D02*
X0032150Y0076475D01*
X0032150Y0070475D01*
X0035400Y0072975D02*
X0035500Y0060325D01*
X0031900Y0057475D01*
X0031900Y0054101D01*
X0031904Y0054097D01*
X0031782Y0053975D01*
X0027100Y0053975D01*
X0025150Y0052025D01*
X0025150Y0014475D01*
X0018400Y0009975D01*
X0008400Y0019975D02*
X0013400Y0024475D01*
X0013400Y0062725D01*
X0015900Y0064975D01*
X0020150Y0064975D01*
X0023150Y0067975D01*
X0023150Y0073475D01*
X0026600Y0071875D02*
X0026600Y0064875D01*
X0025790Y0064193D01*
X0024400Y0062803D01*
X0024400Y0060575D01*
X0024700Y0063275D02*
X0025790Y0064193D01*
X0035400Y0072975D02*
X0036250Y0073575D01*
X0036250Y0073701D01*
X0036250Y0076851D02*
X0032526Y0076851D01*
X0042126Y0067825D02*
X0042126Y0064701D01*
X0042400Y0064475D01*
X0042400Y0021725D01*
X0040150Y0019975D01*
X0039900Y0019975D01*
X0038648Y0046223D02*
X0031904Y0046223D01*
X0038648Y0046223D02*
X0039148Y0046723D01*
X0039148Y0058473D01*
X0045276Y0067825D02*
X0045150Y0067951D01*
X0052556Y0077596D02*
X0055900Y0073725D01*
X0070026Y0073725D01*
X0070050Y0073701D01*
X0070050Y0076851D02*
X0061776Y0076851D01*
X0061650Y0081975D01*
X0058150Y0076975D02*
X0058150Y0088975D01*
X0064924Y0095748D01*
X0070050Y0095748D01*
X0070050Y0092599D02*
X0077274Y0092599D01*
X0079400Y0094975D01*
X0083400Y0094975D01*
X0083400Y0119975D01*
X0071400Y0119975D01*
X0063400Y0120725D02*
X0063400Y0118225D01*
X0057804Y0112628D01*
X0057804Y0111071D01*
X0057804Y0108725D01*
X0058554Y0108975D01*
X0057804Y0111071D02*
X0057900Y0112475D01*
X0046400Y0112475D01*
X0046400Y0106225D01*
X0045276Y0105101D01*
X0045276Y0101625D01*
X0042126Y0101625D02*
X0042126Y0107845D01*
X0041996Y0108975D01*
X0041996Y0119321D01*
X0043400Y0120725D01*
X0058400Y0105475D02*
X0065246Y0105475D01*
X0065246Y0108975D01*
X0069900Y0105975D01*
X0068850Y0101125D02*
X0066424Y0101701D01*
X0064174Y0101625D01*
X0061024Y0101625D02*
X0061024Y0096849D01*
X0058150Y0093725D01*
X0057900Y0097475D02*
X0051650Y0097475D01*
X0051650Y0101300D01*
X0051575Y0101625D01*
X0051575Y0094050D01*
X0052400Y0093225D01*
X0057900Y0097475D02*
X0057874Y0097750D01*
X0057874Y0101625D01*
X0058400Y0101625D01*
X0058400Y0105475D01*
X0070050Y0089449D02*
X0077900Y0089475D01*
X0078874Y0089449D01*
X0078150Y0086725D02*
X0072900Y0086725D01*
X0072400Y0086225D01*
X0070125Y0086225D01*
X0070050Y0086300D01*
X0070050Y0083150D02*
X0075075Y0083150D01*
X0075150Y0083225D01*
X0078650Y0086225D02*
X0078150Y0086725D01*
X0075250Y0095975D02*
X0074450Y0096775D01*
X0074700Y0101775D01*
X0074650Y0101878D01*
X0079650Y0098725D02*
X0079650Y0107725D01*
X0078804Y0108571D01*
X0074650Y0108571D01*
X0093400Y0127125D02*
X0093400Y0089975D01*
X0098400Y0089975D01*
X0083554Y0072475D02*
X0083554Y0071878D01*
X0094200Y0054925D02*
X0094896Y0054097D01*
X0103528Y0054097D01*
X0103650Y0053975D01*
X0094896Y0046223D02*
X0087402Y0046223D01*
X0087400Y0046225D01*
X0083400Y0038225D02*
X0094772Y0038225D01*
X0094896Y0038349D01*
X0094896Y0022601D02*
X0095022Y0022475D01*
X0094896Y0014727D02*
X0094100Y0014775D01*
X0094896Y0014727D02*
X0094994Y0014628D01*
X0105150Y0021321D02*
X0105150Y0022475D01*
X0106900Y0063772D02*
X0102949Y0063772D01*
X0102246Y0064475D01*
X0036250Y0095748D02*
X0028626Y0095748D01*
X0024400Y0095725D01*
D25*
X0024400Y0084975D03*
X0023150Y0073475D03*
X0032150Y0070475D03*
X0024400Y0060575D03*
X0021650Y0044975D03*
X0039148Y0058473D03*
X0048900Y0061725D03*
X0055475Y0062800D03*
X0058850Y0059425D03*
X0062150Y0062725D03*
X0069447Y0058022D03*
X0071150Y0064975D03*
X0070800Y0069475D03*
X0075150Y0075725D03*
X0075150Y0083225D03*
X0078650Y0086225D03*
X0083074Y0087649D03*
X0083400Y0094975D03*
X0079650Y0098725D03*
X0075250Y0095975D03*
X0068850Y0101125D03*
X0069900Y0105975D03*
X0078900Y0114794D03*
X0071400Y0119975D03*
X0052900Y0120794D03*
X0052300Y0109175D03*
X0052400Y0093225D03*
X0058150Y0093725D03*
X0051900Y0082725D03*
X0058150Y0076975D03*
X0061650Y0081975D03*
X0048400Y0073725D03*
X0044250Y0078625D03*
X0044900Y0085475D03*
X0025900Y0111794D03*
X0078400Y0066725D03*
X0078350Y0061775D03*
X0083900Y0053794D03*
X0087400Y0046225D03*
X0083400Y0038225D03*
X0086700Y0014725D03*
X0078900Y0010794D03*
X0109150Y0014475D03*
X0103650Y0053975D03*
X0098900Y0068475D03*
X0107900Y0076975D03*
X0103900Y0124525D03*
X0093400Y0127125D03*
X0039900Y0019975D03*
X0040150Y0014725D03*
D26*
X0043900Y0014725D01*
X0045150Y0015975D01*
X0045150Y0067951D01*
X0048426Y0101625D02*
X0048426Y0105300D01*
X0052300Y0109175D01*
X0054700Y0106775D01*
X0054700Y0101650D01*
X0094896Y0022601D02*
X0104900Y0022601D01*
D27*
X0104750Y0022555D02*
X0105550Y0022555D01*
X0105550Y0023354D02*
X0104750Y0023354D01*
X0104750Y0024152D02*
X0105550Y0024152D01*
X0105550Y0024887D02*
X0105550Y0021721D01*
X0104750Y0021721D01*
X0104750Y0020921D01*
X0101781Y0020921D01*
X0101781Y0018972D01*
X0101877Y0018616D01*
X0102061Y0018296D01*
X0102322Y0018036D01*
X0102399Y0017991D01*
X0101781Y0017374D01*
X0101781Y0017028D01*
X0101296Y0017028D01*
X0101296Y0017807D01*
X0100476Y0018627D01*
X0089316Y0018627D01*
X0088496Y0017807D01*
X0088496Y0017149D01*
X0088390Y0017255D01*
X0087294Y0017709D01*
X0086106Y0017709D01*
X0085010Y0017255D01*
X0084170Y0016415D01*
X0083716Y0015318D01*
X0083716Y0014131D01*
X0084170Y0013034D01*
X0085010Y0012195D01*
X0086106Y0011741D01*
X0087294Y0011741D01*
X0088390Y0012195D01*
X0088496Y0012301D01*
X0088496Y0011647D01*
X0089316Y0010827D01*
X0099443Y0010827D01*
X0099369Y0010753D01*
X0089316Y0010753D01*
X0088496Y0009933D01*
X0088496Y0003773D01*
X0089075Y0003194D01*
X0037452Y0003194D01*
X0038111Y0003853D01*
X0038111Y0009853D01*
X0037404Y0010560D01*
X0026404Y0010560D01*
X0025697Y0009853D01*
X0025697Y0003853D01*
X0026356Y0003194D01*
X0003300Y0003194D01*
X0003300Y0129134D01*
X0091462Y0129134D01*
X0091034Y0128706D01*
X0090609Y0127680D01*
X0090609Y0126570D01*
X0091034Y0125544D01*
X0091693Y0124884D01*
X0091693Y0122622D01*
X0090140Y0124175D01*
X0086660Y0124175D01*
X0084200Y0121714D01*
X0084200Y0121589D01*
X0084107Y0121682D01*
X0073640Y0121682D01*
X0072981Y0122341D01*
X0071955Y0122766D01*
X0070845Y0122766D01*
X0069819Y0122341D01*
X0069034Y0121556D01*
X0068609Y0120530D01*
X0068609Y0119420D01*
X0069034Y0118394D01*
X0069819Y0117608D01*
X0070845Y0117183D01*
X0071955Y0117183D01*
X0072981Y0117608D01*
X0073640Y0118268D01*
X0081693Y0118268D01*
X0081693Y0100629D01*
X0081357Y0100965D01*
X0081357Y0108432D01*
X0080511Y0109278D01*
X0079511Y0110278D01*
X0077826Y0110278D01*
X0077826Y0111237D01*
X0077118Y0111944D01*
X0072181Y0111944D01*
X0071474Y0111237D01*
X0071474Y0105906D01*
X0072156Y0105225D01*
X0071474Y0104544D01*
X0071474Y0102083D01*
X0071216Y0102706D01*
X0070431Y0103491D01*
X0069405Y0103916D01*
X0068295Y0103916D01*
X0067269Y0103491D01*
X0067143Y0103365D01*
X0067072Y0103431D01*
X0066595Y0103415D01*
X0066481Y0103442D01*
X0066481Y0104625D01*
X0065774Y0105332D01*
X0059684Y0105332D01*
X0059515Y0105429D01*
X0059159Y0105525D01*
X0058024Y0105525D01*
X0058024Y0101775D01*
X0057724Y0101775D01*
X0057724Y0105525D01*
X0056900Y0105525D01*
X0056900Y0105799D01*
X0061219Y0105799D01*
X0061816Y0106397D01*
X0061961Y0106147D01*
X0062221Y0105886D01*
X0062541Y0105702D01*
X0062897Y0105606D01*
X0064846Y0105606D01*
X0064846Y0108575D01*
X0065646Y0108575D01*
X0065646Y0105606D01*
X0067596Y0105606D01*
X0067952Y0105702D01*
X0068271Y0105886D01*
X0068532Y0106147D01*
X0068716Y0106466D01*
X0068812Y0106822D01*
X0068812Y0108575D01*
X0065646Y0108575D01*
X0065646Y0109375D01*
X0064846Y0109375D01*
X0064846Y0112343D01*
X0062897Y0112343D01*
X0062541Y0112248D01*
X0062221Y0112064D01*
X0061961Y0111803D01*
X0061816Y0111553D01*
X0061219Y0112150D01*
X0059740Y0112150D01*
X0063857Y0116268D01*
X0064287Y0116268D01*
X0065925Y0116946D01*
X0067179Y0118200D01*
X0067857Y0119838D01*
X0067857Y0121611D01*
X0067179Y0123250D01*
X0065925Y0124503D01*
X0064287Y0125182D01*
X0062513Y0125182D01*
X0060875Y0124503D01*
X0059621Y0123250D01*
X0058943Y0121611D01*
X0058943Y0119838D01*
X0059621Y0118200D01*
X0060291Y0117530D01*
X0056943Y0114182D01*
X0045693Y0114182D01*
X0044693Y0113182D01*
X0044693Y0112119D01*
X0044662Y0112150D01*
X0043704Y0112150D01*
X0043704Y0116268D01*
X0044287Y0116268D01*
X0045925Y0116946D01*
X0047179Y0118200D01*
X0047857Y0119838D01*
X0047857Y0121611D01*
X0047179Y0123250D01*
X0045925Y0124503D01*
X0044287Y0125182D01*
X0042513Y0125182D01*
X0040875Y0124503D01*
X0039621Y0123250D01*
X0038943Y0121611D01*
X0038943Y0119838D01*
X0039621Y0118200D01*
X0040289Y0117532D01*
X0040289Y0112150D01*
X0039331Y0112150D01*
X0038734Y0111553D01*
X0038589Y0111803D01*
X0038329Y0112064D01*
X0038009Y0112248D01*
X0037653Y0112343D01*
X0035704Y0112343D01*
X0035704Y0109375D01*
X0034904Y0109375D01*
X0034904Y0112343D01*
X0032954Y0112343D01*
X0032598Y0112248D01*
X0032279Y0112064D01*
X0032018Y0111803D01*
X0031834Y0111484D01*
X0031738Y0111128D01*
X0031738Y0109375D01*
X0034903Y0109375D01*
X0034903Y0108575D01*
X0031738Y0108575D01*
X0031738Y0106822D01*
X0031834Y0106466D01*
X0032018Y0106147D01*
X0032279Y0105886D01*
X0032598Y0105702D01*
X0032954Y0105606D01*
X0034904Y0105606D01*
X0034904Y0108575D01*
X0035704Y0108575D01*
X0035704Y0105606D01*
X0037653Y0105606D01*
X0038009Y0105702D01*
X0038329Y0105886D01*
X0038589Y0106147D01*
X0038734Y0106397D01*
X0039331Y0105799D01*
X0040419Y0105799D01*
X0040419Y0105225D01*
X0039819Y0104625D01*
X0039819Y0100470D01*
X0036107Y0104182D01*
X0026607Y0104182D01*
X0022582Y0108207D01*
X0022607Y0108232D01*
X0022607Y0111717D01*
X0020143Y0114182D01*
X0016657Y0114182D01*
X0014193Y0111717D01*
X0014193Y0108232D01*
X0016657Y0105768D01*
X0020143Y0105768D01*
X0020168Y0105793D01*
X0025193Y0100768D01*
X0034693Y0100768D01*
X0037405Y0098055D01*
X0033250Y0098055D01*
X0032650Y0097455D01*
X0029328Y0097455D01*
X0029324Y0097459D01*
X0028622Y0097455D01*
X0027919Y0097455D01*
X0027915Y0097452D01*
X0024394Y0097432D01*
X0023693Y0097432D01*
X0023689Y0097428D01*
X0023683Y0097428D01*
X0023189Y0096928D01*
X0022693Y0096432D01*
X0022693Y0096426D01*
X0022689Y0096422D01*
X0022693Y0095719D01*
X0022693Y0087215D01*
X0022034Y0086556D01*
X0021609Y0085530D01*
X0021609Y0084420D01*
X0022034Y0083394D01*
X0022819Y0082608D01*
X0023845Y0082183D01*
X0024517Y0082183D01*
X0022607Y0080274D01*
X0022607Y0081717D01*
X0020143Y0084182D01*
X0016657Y0084182D01*
X0014193Y0081717D01*
X0014193Y0078232D01*
X0016024Y0076401D01*
X0013734Y0076401D01*
X0012793Y0075459D01*
X0010829Y0073495D01*
X0010143Y0074182D01*
X0006657Y0074182D01*
X0004193Y0071717D01*
X0004193Y0068232D01*
X0006657Y0065768D01*
X0010143Y0065768D01*
X0012607Y0068232D01*
X0012607Y0070728D01*
X0015066Y0073187D01*
X0015662Y0073187D01*
X0014193Y0071717D01*
X0014193Y0068232D01*
X0015732Y0066693D01*
X0015284Y0066717D01*
X0015245Y0066682D01*
X0015193Y0066682D01*
X0014725Y0066214D01*
X0012745Y0064432D01*
X0012693Y0064432D01*
X0012225Y0063964D01*
X0011732Y0063521D01*
X0011730Y0063469D01*
X0011693Y0063432D01*
X0011693Y0062770D01*
X0011686Y0062638D01*
X0010143Y0064182D01*
X0006657Y0064182D01*
X0004193Y0061717D01*
X0004193Y0058232D01*
X0006657Y0055768D01*
X0010143Y0055768D01*
X0011693Y0057318D01*
X0011693Y0052632D01*
X0010143Y0054182D01*
X0006657Y0054182D01*
X0004193Y0051717D01*
X0004193Y0048232D01*
X0006657Y0045768D01*
X0010143Y0045768D01*
X0011693Y0047318D01*
X0011693Y0042632D01*
X0010143Y0044182D01*
X0006657Y0044182D01*
X0004193Y0041717D01*
X0004193Y0038232D01*
X0006657Y0035768D01*
X0010143Y0035768D01*
X0011693Y0037318D01*
X0011693Y0032904D01*
X0010223Y0034375D01*
X0008800Y0034375D01*
X0008800Y0030375D01*
X0008000Y0030375D01*
X0008000Y0034375D01*
X0006577Y0034375D01*
X0004000Y0031797D01*
X0004000Y0030375D01*
X0008000Y0030375D01*
X0008000Y0029575D01*
X0004000Y0029575D01*
X0004000Y0028152D01*
X0006577Y0025575D01*
X0008000Y0025575D01*
X0008000Y0029575D01*
X0008800Y0029575D01*
X0008800Y0025575D01*
X0010223Y0025575D01*
X0011693Y0027045D01*
X0011693Y0025235D01*
X0010323Y0024002D01*
X0010143Y0024182D01*
X0006657Y0024182D01*
X0004193Y0021717D01*
X0004193Y0018232D01*
X0006657Y0015768D01*
X0010143Y0015768D01*
X0012607Y0018232D01*
X0012607Y0021465D01*
X0014055Y0022768D01*
X0014107Y0022768D01*
X0014575Y0023236D01*
X0015068Y0023679D01*
X0015070Y0023731D01*
X0015107Y0023768D01*
X0015107Y0024430D01*
X0015142Y0025091D01*
X0015107Y0025130D01*
X0015107Y0027318D01*
X0016657Y0025768D01*
X0020143Y0025768D01*
X0022607Y0028232D01*
X0022607Y0031717D01*
X0020143Y0034182D01*
X0016657Y0034182D01*
X0015107Y0032632D01*
X0015107Y0037045D01*
X0016577Y0035575D01*
X0018000Y0035575D01*
X0018000Y0039575D01*
X0018800Y0039575D01*
X0018800Y0040375D01*
X0018000Y0040375D01*
X0018000Y0044375D01*
X0016577Y0044375D01*
X0015107Y0042904D01*
X0015107Y0047318D01*
X0016657Y0045768D01*
X0018957Y0045768D01*
X0018859Y0045530D01*
X0018859Y0044420D01*
X0018877Y0044375D01*
X0018800Y0044375D01*
X0018800Y0040375D01*
X0022800Y0040375D01*
X0022800Y0041797D01*
X0022353Y0042245D01*
X0023231Y0042608D01*
X0023443Y0042820D01*
X0023443Y0015388D01*
X0020739Y0013586D01*
X0020143Y0014182D01*
X0016657Y0014182D01*
X0014193Y0011717D01*
X0014193Y0008232D01*
X0016657Y0005768D01*
X0020143Y0005768D01*
X0022607Y0008232D01*
X0022607Y0010728D01*
X0025667Y0012768D01*
X0025697Y0012768D01*
X0025697Y0011727D01*
X0026404Y0011020D01*
X0037404Y0011020D01*
X0038111Y0011727D01*
X0038111Y0012543D01*
X0038460Y0012195D01*
X0039556Y0011741D01*
X0040744Y0011741D01*
X0041840Y0012195D01*
X0042170Y0012525D01*
X0044811Y0012525D01*
X0046100Y0013814D01*
X0047350Y0015064D01*
X0047350Y0055361D01*
X0048193Y0054518D01*
X0065398Y0054518D01*
X0066103Y0054516D01*
X0066105Y0054518D01*
X0066107Y0054518D01*
X0066608Y0055019D01*
X0067105Y0055514D01*
X0067105Y0055516D01*
X0067107Y0055518D01*
X0067107Y0056224D01*
X0067108Y0056414D01*
X0067866Y0055656D01*
X0068892Y0055231D01*
X0070002Y0055231D01*
X0071028Y0055656D01*
X0071640Y0056268D01*
X0087788Y0056268D01*
X0088607Y0057087D01*
X0088689Y0057087D01*
X0088689Y0051097D01*
X0089396Y0050390D01*
X0100396Y0050390D01*
X0101103Y0051097D01*
X0101103Y0052390D01*
X0101287Y0052390D01*
X0102069Y0051608D01*
X0103095Y0051183D01*
X0104205Y0051183D01*
X0105231Y0051608D01*
X0106016Y0052394D01*
X0106441Y0053420D01*
X0106441Y0054530D01*
X0106016Y0055556D01*
X0105231Y0056341D01*
X0104205Y0056766D01*
X0103095Y0056766D01*
X0102069Y0056341D01*
X0101532Y0055804D01*
X0101103Y0055804D01*
X0101103Y0057097D01*
X0100396Y0057804D01*
X0095324Y0057804D01*
X0097607Y0060087D01*
X0097607Y0061102D01*
X0098022Y0061102D01*
X0098729Y0061809D01*
X0098729Y0067140D01*
X0098022Y0067847D01*
X0093085Y0067847D01*
X0093036Y0067799D01*
X0092795Y0068040D01*
X0092146Y0068040D01*
X0092146Y0068909D01*
X0092795Y0068909D01*
X0092992Y0069106D01*
X0098299Y0069106D01*
X0098916Y0069724D01*
X0098961Y0069647D01*
X0099221Y0069386D01*
X0099541Y0069202D01*
X0099897Y0069106D01*
X0101846Y0069106D01*
X0101846Y0072075D01*
X0102646Y0072075D01*
X0102646Y0069106D01*
X0103925Y0069106D01*
X0103925Y0067918D01*
X0103944Y0067847D01*
X0099778Y0067847D01*
X0099071Y0067140D01*
X0099071Y0061809D01*
X0099778Y0061102D01*
X0104713Y0061102D01*
X0104825Y0060990D01*
X0108975Y0060990D01*
X0109682Y0061697D01*
X0109682Y0065847D01*
X0108975Y0066554D01*
X0105422Y0066554D01*
X0105422Y0066703D01*
X0106513Y0066703D01*
X0106513Y0069290D01*
X0107287Y0069290D01*
X0107287Y0066703D01*
X0108659Y0066703D01*
X0109015Y0066798D01*
X0109334Y0066982D01*
X0109595Y0067243D01*
X0109779Y0067562D01*
X0109875Y0067918D01*
X0109875Y0069290D01*
X0107287Y0069290D01*
X0107287Y0070065D01*
X0106513Y0070065D01*
X0106513Y0072652D01*
X0105141Y0072652D01*
X0104785Y0072557D01*
X0104466Y0072373D01*
X0104205Y0072112D01*
X0104183Y0072075D01*
X0102646Y0072075D01*
X0102646Y0072875D01*
X0101846Y0072875D01*
X0101846Y0075843D01*
X0099897Y0075843D01*
X0099541Y0075748D01*
X0099221Y0075564D01*
X0098961Y0075303D01*
X0098916Y0075226D01*
X0098299Y0075843D01*
X0097354Y0075843D01*
X0097354Y0075968D01*
X0100060Y0075968D01*
X0102407Y0078315D01*
X0102407Y0081635D01*
X0101767Y0082275D01*
X0102634Y0082275D01*
X0104100Y0080750D01*
X0104100Y0078229D01*
X0104916Y0077413D01*
X0104916Y0076381D01*
X0105249Y0075576D01*
X0104952Y0075748D01*
X0104596Y0075843D01*
X0102646Y0075843D01*
X0102646Y0072875D01*
X0105812Y0072875D01*
X0105812Y0074628D01*
X0105733Y0074921D01*
X0106210Y0074445D01*
X0107306Y0073991D01*
X0108494Y0073991D01*
X0109590Y0074445D01*
X0110430Y0075284D01*
X0110736Y0076024D01*
X0110736Y0035033D01*
X0110509Y0035259D01*
X0110268Y0035500D01*
X0110268Y0039874D01*
X0109651Y0040491D01*
X0109728Y0040536D01*
X0109989Y0040796D01*
X0110173Y0041116D01*
X0110268Y0041472D01*
X0110268Y0043421D01*
X0107300Y0043421D01*
X0107300Y0044221D01*
X0110268Y0044221D01*
X0110268Y0046171D01*
X0110173Y0046527D01*
X0109989Y0046846D01*
X0109728Y0047107D01*
X0109409Y0047291D01*
X0109053Y0047387D01*
X0107300Y0047387D01*
X0107300Y0044221D01*
X0106500Y0044221D01*
X0106500Y0043421D01*
X0103531Y0043421D01*
X0103531Y0041472D01*
X0103627Y0041116D01*
X0103811Y0040796D01*
X0104072Y0040536D01*
X0104149Y0040491D01*
X0103531Y0039874D01*
X0103531Y0034383D01*
X0104352Y0033563D01*
X0105418Y0033563D01*
X0105541Y0033440D01*
X0106750Y0032231D01*
X0106750Y0024887D01*
X0105550Y0024887D01*
X0104750Y0024887D02*
X0102997Y0024887D01*
X0102641Y0024791D01*
X0102322Y0024607D01*
X0102061Y0024346D01*
X0101877Y0024027D01*
X0101781Y0023671D01*
X0101781Y0021721D01*
X0104750Y0021721D01*
X0104750Y0024887D01*
X0106750Y0024951D02*
X0101296Y0024951D01*
X0101296Y0025285D02*
X0101296Y0023001D01*
X0095296Y0023001D01*
X0094496Y0023001D01*
X0094496Y0026501D01*
X0089712Y0026501D01*
X0089356Y0026405D01*
X0089036Y0026221D01*
X0088776Y0025960D01*
X0088591Y0025641D01*
X0088496Y0025285D01*
X0088496Y0023001D01*
X0094496Y0023001D01*
X0094496Y0022201D01*
X0088496Y0022201D01*
X0088496Y0019916D01*
X0088591Y0019560D01*
X0088776Y0019241D01*
X0089036Y0018981D01*
X0089356Y0018796D01*
X0089712Y0018701D01*
X0094496Y0018701D01*
X0094496Y0022201D01*
X0095296Y0022201D01*
X0095296Y0023001D01*
X0095296Y0026501D01*
X0100080Y0026501D01*
X0100436Y0026405D01*
X0100756Y0026221D01*
X0101016Y0025960D01*
X0101201Y0025641D01*
X0101296Y0025285D01*
X0101138Y0025749D02*
X0106750Y0025749D01*
X0106750Y0026548D02*
X0047350Y0026548D01*
X0047350Y0027346D02*
X0088818Y0027346D01*
X0088689Y0027475D02*
X0089396Y0026768D01*
X0100396Y0026768D01*
X0101103Y0027475D01*
X0101103Y0033475D01*
X0100396Y0034182D01*
X0089396Y0034182D01*
X0088689Y0033475D01*
X0088689Y0027475D01*
X0088689Y0028145D02*
X0047350Y0028145D01*
X0047350Y0028943D02*
X0088689Y0028943D01*
X0088689Y0029742D02*
X0047350Y0029742D01*
X0047350Y0030540D02*
X0088689Y0030540D01*
X0088689Y0031339D02*
X0047350Y0031339D01*
X0047350Y0032137D02*
X0088689Y0032137D01*
X0088689Y0032936D02*
X0047350Y0032936D01*
X0047350Y0033734D02*
X0088948Y0033734D01*
X0089396Y0034642D02*
X0088689Y0035349D01*
X0088689Y0036518D01*
X0085640Y0036518D01*
X0084981Y0035858D01*
X0083955Y0035433D01*
X0082845Y0035433D01*
X0081819Y0035858D01*
X0081034Y0036644D01*
X0080609Y0037670D01*
X0080609Y0038780D01*
X0081034Y0039806D01*
X0081819Y0040591D01*
X0082845Y0041016D01*
X0083955Y0041016D01*
X0084981Y0040591D01*
X0085640Y0039932D01*
X0088689Y0039932D01*
X0088689Y0041349D01*
X0089396Y0042056D01*
X0100396Y0042056D01*
X0101103Y0041349D01*
X0101103Y0035349D01*
X0100396Y0034642D01*
X0089396Y0034642D01*
X0088707Y0035331D02*
X0047350Y0035331D01*
X0047350Y0034533D02*
X0103531Y0034533D01*
X0103531Y0035331D02*
X0101085Y0035331D01*
X0101103Y0036130D02*
X0103531Y0036130D01*
X0103531Y0036928D02*
X0101103Y0036928D01*
X0101103Y0037727D02*
X0103531Y0037727D01*
X0103531Y0038525D02*
X0101103Y0038525D01*
X0101103Y0039324D02*
X0103531Y0039324D01*
X0103780Y0040122D02*
X0101103Y0040122D01*
X0101103Y0040921D02*
X0103739Y0040921D01*
X0103531Y0041719D02*
X0100733Y0041719D01*
X0100396Y0042516D02*
X0101103Y0043223D01*
X0101103Y0049223D01*
X0100396Y0049930D01*
X0089396Y0049930D01*
X0088689Y0049223D01*
X0088689Y0048712D01*
X0087955Y0049016D01*
X0086845Y0049016D01*
X0085819Y0048591D01*
X0085034Y0047806D01*
X0084609Y0046780D01*
X0084609Y0045670D01*
X0085034Y0044644D01*
X0085819Y0043858D01*
X0086845Y0043433D01*
X0087955Y0043433D01*
X0088689Y0043737D01*
X0088689Y0043223D01*
X0089396Y0042516D01*
X0100396Y0042516D01*
X0100398Y0042518D02*
X0103531Y0042518D01*
X0103531Y0043316D02*
X0101103Y0043316D01*
X0101103Y0044115D02*
X0106500Y0044115D01*
X0106500Y0044221D02*
X0103531Y0044221D01*
X0103531Y0046171D01*
X0103627Y0046527D01*
X0103811Y0046846D01*
X0104072Y0047107D01*
X0104391Y0047291D01*
X0104747Y0047387D01*
X0106500Y0047387D01*
X0106500Y0044221D01*
X0106500Y0044913D02*
X0107300Y0044913D01*
X0107300Y0044115D02*
X0110736Y0044115D01*
X0110736Y0044913D02*
X0110268Y0044913D01*
X0110268Y0045712D02*
X0110736Y0045712D01*
X0110736Y0046510D02*
X0110178Y0046510D01*
X0110736Y0047309D02*
X0109343Y0047309D01*
X0110736Y0048107D02*
X0101103Y0048107D01*
X0101103Y0047309D02*
X0104457Y0047309D01*
X0103622Y0046510D02*
X0101103Y0046510D01*
X0101103Y0045712D02*
X0103531Y0045712D01*
X0103531Y0044913D02*
X0101103Y0044913D01*
X0101103Y0048906D02*
X0110736Y0048906D01*
X0110736Y0049704D02*
X0100622Y0049704D01*
X0100509Y0050503D02*
X0110736Y0050503D01*
X0110736Y0051301D02*
X0104490Y0051301D01*
X0105723Y0052100D02*
X0110736Y0052100D01*
X0110736Y0052898D02*
X0106225Y0052898D01*
X0106441Y0053697D02*
X0110736Y0053697D01*
X0110736Y0054495D02*
X0106441Y0054495D01*
X0106125Y0055294D02*
X0110736Y0055294D01*
X0110736Y0056092D02*
X0105480Y0056092D01*
X0101820Y0056092D02*
X0101103Y0056092D01*
X0101103Y0056891D02*
X0110736Y0056891D01*
X0110736Y0057689D02*
X0100510Y0057689D01*
X0097605Y0060085D02*
X0110736Y0060085D01*
X0110736Y0059287D02*
X0096807Y0059287D01*
X0096008Y0058488D02*
X0110736Y0058488D01*
X0110736Y0060884D02*
X0097607Y0060884D01*
X0098602Y0061682D02*
X0099198Y0061682D01*
X0099071Y0062481D02*
X0098729Y0062481D01*
X0098729Y0063279D02*
X0099071Y0063279D01*
X0099071Y0064078D02*
X0098729Y0064078D01*
X0098729Y0064876D02*
X0099071Y0064876D01*
X0099071Y0065675D02*
X0098729Y0065675D01*
X0098729Y0066473D02*
X0099071Y0066473D01*
X0099202Y0067272D02*
X0098598Y0067272D01*
X0098860Y0069667D02*
X0098949Y0069667D01*
X0101846Y0069667D02*
X0102646Y0069667D01*
X0102646Y0070466D02*
X0101846Y0070466D01*
X0101846Y0071264D02*
X0102646Y0071264D01*
X0102646Y0072063D02*
X0101846Y0072063D01*
X0102646Y0072861D02*
X0110736Y0072861D01*
X0110736Y0072063D02*
X0109624Y0072063D01*
X0109595Y0072112D02*
X0109334Y0072373D01*
X0109015Y0072557D01*
X0108659Y0072652D01*
X0107287Y0072652D01*
X0107287Y0070065D01*
X0109875Y0070065D01*
X0109875Y0071437D01*
X0109779Y0071793D01*
X0109595Y0072112D01*
X0109875Y0071264D02*
X0110736Y0071264D01*
X0110736Y0070466D02*
X0109875Y0070466D01*
X0110736Y0069667D02*
X0107287Y0069667D01*
X0107287Y0068869D02*
X0106513Y0068869D01*
X0106513Y0068070D02*
X0107287Y0068070D01*
X0107287Y0067272D02*
X0106513Y0067272D01*
X0109056Y0066473D02*
X0110736Y0066473D01*
X0110736Y0065675D02*
X0109682Y0065675D01*
X0109682Y0064876D02*
X0110736Y0064876D01*
X0110736Y0064078D02*
X0109682Y0064078D01*
X0109682Y0063279D02*
X0110736Y0063279D01*
X0110736Y0062481D02*
X0109682Y0062481D01*
X0109667Y0061682D02*
X0110736Y0061682D01*
X0110736Y0067272D02*
X0109612Y0067272D01*
X0109875Y0068070D02*
X0110736Y0068070D01*
X0110736Y0068869D02*
X0109875Y0068869D01*
X0107287Y0070466D02*
X0106513Y0070466D01*
X0106513Y0071264D02*
X0107287Y0071264D01*
X0107287Y0072063D02*
X0106513Y0072063D01*
X0105812Y0073660D02*
X0110736Y0073660D01*
X0110736Y0074458D02*
X0109604Y0074458D01*
X0110402Y0075257D02*
X0110736Y0075257D01*
X0107900Y0076975D02*
X0105900Y0078975D01*
X0105900Y0081475D01*
X0103400Y0084075D01*
X0095400Y0084075D01*
X0093400Y0081975D01*
X0093400Y0077475D01*
X0095554Y0075321D01*
X0095554Y0072475D01*
X0098885Y0075257D02*
X0098934Y0075257D01*
X0100147Y0076055D02*
X0105051Y0076055D01*
X0104916Y0076854D02*
X0100946Y0076854D01*
X0101744Y0077652D02*
X0104677Y0077652D01*
X0104100Y0078451D02*
X0102407Y0078451D01*
X0102407Y0079249D02*
X0104100Y0079249D01*
X0104100Y0080048D02*
X0102407Y0080048D01*
X0102407Y0080846D02*
X0104007Y0080846D01*
X0103239Y0081645D02*
X0102397Y0081645D01*
X0102900Y0085875D02*
X0103900Y0086475D01*
X0103900Y0124525D01*
X0091693Y0124764D02*
X0065294Y0124764D01*
X0066462Y0123966D02*
X0086451Y0123966D01*
X0085653Y0123167D02*
X0067213Y0123167D01*
X0067543Y0122369D02*
X0069886Y0122369D01*
X0069048Y0121570D02*
X0067857Y0121570D01*
X0067857Y0120772D02*
X0068709Y0120772D01*
X0068609Y0119973D02*
X0067857Y0119973D01*
X0067582Y0119175D02*
X0068710Y0119175D01*
X0069051Y0118376D02*
X0067252Y0118376D01*
X0066556Y0117578D02*
X0069893Y0117578D01*
X0072907Y0117578D02*
X0081693Y0117578D01*
X0081693Y0116779D02*
X0065522Y0116779D01*
X0063570Y0115981D02*
X0081693Y0115981D01*
X0081693Y0115182D02*
X0062772Y0115182D01*
X0061973Y0114384D02*
X0081693Y0114384D01*
X0081693Y0113585D02*
X0061175Y0113585D01*
X0060376Y0112787D02*
X0081693Y0112787D01*
X0081693Y0111988D02*
X0068347Y0111988D01*
X0068271Y0112064D02*
X0067952Y0112248D01*
X0067596Y0112343D01*
X0065646Y0112343D01*
X0065646Y0109375D01*
X0068812Y0109375D01*
X0068812Y0111128D01*
X0068716Y0111484D01*
X0068532Y0111803D01*
X0068271Y0112064D01*
X0068795Y0111190D02*
X0071474Y0111190D01*
X0071474Y0110391D02*
X0068812Y0110391D01*
X0068812Y0109593D02*
X0071474Y0109593D01*
X0071474Y0108794D02*
X0065646Y0108794D01*
X0065646Y0107996D02*
X0064846Y0107996D01*
X0064846Y0107197D02*
X0065646Y0107197D01*
X0065646Y0106399D02*
X0064846Y0106399D01*
X0066304Y0104802D02*
X0071732Y0104802D01*
X0071780Y0105600D02*
X0056900Y0105600D01*
X0057724Y0104802D02*
X0058024Y0104802D01*
X0058024Y0104003D02*
X0057724Y0104003D01*
X0057724Y0103205D02*
X0058024Y0103205D01*
X0058024Y0102406D02*
X0057724Y0102406D01*
X0058024Y0101775D02*
X0058717Y0101775D01*
X0058717Y0101475D01*
X0058024Y0101475D01*
X0058024Y0097725D01*
X0059159Y0097725D01*
X0059317Y0097767D01*
X0059317Y0097515D01*
X0058398Y0096516D01*
X0057595Y0096516D01*
X0056569Y0096091D01*
X0055784Y0095306D01*
X0055359Y0094280D01*
X0055359Y0093170D01*
X0055784Y0092144D01*
X0056569Y0091358D01*
X0057595Y0090933D01*
X0057694Y0090933D01*
X0057443Y0090682D01*
X0056443Y0089682D01*
X0056443Y0079215D01*
X0055784Y0078556D01*
X0055359Y0077530D01*
X0055359Y0076963D01*
X0054264Y0078231D01*
X0054264Y0078303D01*
X0053808Y0078759D01*
X0053386Y0079247D01*
X0053314Y0079252D01*
X0052581Y0079986D01*
X0053481Y0080358D01*
X0054266Y0081144D01*
X0054691Y0082170D01*
X0054691Y0083280D01*
X0054266Y0084306D01*
X0053481Y0085091D01*
X0052455Y0085516D01*
X0051345Y0085516D01*
X0050319Y0085091D01*
X0049534Y0084306D01*
X0049200Y0083501D01*
X0046874Y0083501D01*
X0047266Y0083894D01*
X0047691Y0084920D01*
X0047691Y0086030D01*
X0047266Y0087056D01*
X0046607Y0087715D01*
X0046607Y0093682D01*
X0042371Y0097918D01*
X0043726Y0097918D01*
X0046553Y0097918D01*
X0046746Y0097725D01*
X0050105Y0097725D01*
X0050145Y0097764D01*
X0050291Y0097725D01*
X0051425Y0097725D01*
X0051425Y0101475D01*
X0051725Y0101475D01*
X0051725Y0097725D01*
X0052860Y0097725D01*
X0053006Y0097764D01*
X0053045Y0097725D01*
X0056405Y0097725D01*
X0056444Y0097764D01*
X0056590Y0097725D01*
X0057724Y0097725D01*
X0057724Y0101475D01*
X0058024Y0101475D01*
X0058024Y0101775D01*
X0058024Y0101608D02*
X0058717Y0101608D01*
X0058024Y0100809D02*
X0057724Y0100809D01*
X0057724Y0100011D02*
X0058024Y0100011D01*
X0058024Y0099212D02*
X0057724Y0099212D01*
X0057724Y0098414D02*
X0058024Y0098414D01*
X0059317Y0097615D02*
X0042674Y0097615D01*
X0043472Y0096817D02*
X0058675Y0096817D01*
X0056496Y0096018D02*
X0044271Y0096018D01*
X0045069Y0095220D02*
X0055748Y0095220D01*
X0055417Y0094421D02*
X0045868Y0094421D01*
X0046607Y0093623D02*
X0055359Y0093623D01*
X0055502Y0092824D02*
X0046607Y0092824D01*
X0046607Y0092025D02*
X0055902Y0092025D01*
X0056886Y0091227D02*
X0046607Y0091227D01*
X0046607Y0090428D02*
X0057189Y0090428D01*
X0056443Y0089630D02*
X0046607Y0089630D01*
X0046607Y0088831D02*
X0056443Y0088831D01*
X0056443Y0088033D02*
X0046607Y0088033D01*
X0047088Y0087234D02*
X0056443Y0087234D01*
X0056443Y0086436D02*
X0047523Y0086436D01*
X0047691Y0085637D02*
X0056443Y0085637D01*
X0056443Y0084839D02*
X0053733Y0084839D01*
X0054376Y0084040D02*
X0056443Y0084040D01*
X0056443Y0083242D02*
X0054691Y0083242D01*
X0054691Y0082443D02*
X0056443Y0082443D01*
X0056443Y0081645D02*
X0054474Y0081645D01*
X0053969Y0080846D02*
X0056443Y0080846D01*
X0056443Y0080048D02*
X0052731Y0080048D01*
X0053358Y0079249D02*
X0056443Y0079249D01*
X0055740Y0078451D02*
X0054116Y0078451D01*
X0054764Y0077652D02*
X0055409Y0077652D01*
X0049900Y0076775D02*
X0054700Y0071975D01*
X0065900Y0071975D01*
X0067400Y0070475D01*
X0067400Y0062975D01*
X0068600Y0061775D01*
X0078350Y0061775D01*
X0081050Y0064475D01*
X0083554Y0064475D01*
X0086729Y0064078D02*
X0086878Y0064078D01*
X0086878Y0064876D02*
X0086729Y0064876D01*
X0086729Y0065675D02*
X0086878Y0065675D01*
X0086878Y0066473D02*
X0086729Y0066473D01*
X0086729Y0067140D02*
X0086022Y0067847D01*
X0081199Y0067847D01*
X0082454Y0069102D01*
X0086022Y0069102D01*
X0086729Y0069809D01*
X0086729Y0075140D01*
X0086022Y0075847D01*
X0081085Y0075847D01*
X0080378Y0075140D01*
X0080378Y0071572D01*
X0078322Y0069516D01*
X0077845Y0069516D01*
X0076819Y0069091D01*
X0076034Y0068306D01*
X0075609Y0067280D01*
X0075609Y0066170D01*
X0076034Y0065144D01*
X0076819Y0064358D01*
X0077056Y0064260D01*
X0076769Y0064141D01*
X0076010Y0063382D01*
X0069266Y0063382D01*
X0069007Y0063640D01*
X0069007Y0067320D01*
X0069219Y0067108D01*
X0070245Y0066683D01*
X0071355Y0066683D01*
X0072381Y0067108D01*
X0073140Y0067868D01*
X0075066Y0067868D01*
X0079066Y0071868D01*
X0080007Y0072809D01*
X0080007Y0080009D01*
X0082366Y0082368D01*
X0084342Y0082368D01*
X0084427Y0082301D01*
X0084834Y0082349D01*
X0084200Y0081714D01*
X0084200Y0080375D01*
X0088000Y0080375D01*
X0088000Y0084175D01*
X0087105Y0084175D01*
X0087179Y0084268D01*
X0093098Y0084268D01*
X0092112Y0083232D01*
X0091600Y0082720D01*
X0091600Y0082714D01*
X0090140Y0084175D01*
X0088800Y0084175D01*
X0088800Y0080375D01*
X0088000Y0080375D01*
X0088000Y0079575D01*
X0084200Y0079575D01*
X0084200Y0078235D01*
X0086660Y0075775D01*
X0087433Y0075775D01*
X0086878Y0075220D01*
X0086878Y0069730D01*
X0087698Y0068909D01*
X0088346Y0068909D01*
X0088346Y0068040D01*
X0087698Y0068040D01*
X0086878Y0067220D01*
X0086878Y0061730D01*
X0087698Y0060909D01*
X0092795Y0060909D01*
X0093036Y0061151D01*
X0093085Y0061102D01*
X0093794Y0061102D01*
X0093193Y0060501D01*
X0087193Y0060501D01*
X0086374Y0059682D01*
X0080205Y0059682D01*
X0080716Y0060194D01*
X0081093Y0061102D01*
X0086022Y0061102D01*
X0086729Y0061809D01*
X0086729Y0067140D01*
X0086598Y0067272D02*
X0086930Y0067272D01*
X0088346Y0068070D02*
X0081422Y0068070D01*
X0082220Y0068869D02*
X0088346Y0068869D01*
X0086940Y0069667D02*
X0086587Y0069667D01*
X0086729Y0070466D02*
X0086878Y0070466D01*
X0086878Y0071264D02*
X0086729Y0071264D01*
X0086729Y0072063D02*
X0086878Y0072063D01*
X0086878Y0072861D02*
X0086729Y0072861D01*
X0086729Y0073660D02*
X0086878Y0073660D01*
X0086878Y0074458D02*
X0086729Y0074458D01*
X0086613Y0075257D02*
X0086915Y0075257D01*
X0086380Y0076055D02*
X0080007Y0076055D01*
X0080007Y0075257D02*
X0080495Y0075257D01*
X0080378Y0074458D02*
X0080007Y0074458D01*
X0080007Y0073660D02*
X0080378Y0073660D01*
X0080378Y0072861D02*
X0080007Y0072861D01*
X0080100Y0072475D02*
X0080100Y0076975D01*
X0082900Y0079975D01*
X0088400Y0079975D01*
X0086700Y0079975D01*
X0088000Y0080048D02*
X0080046Y0080048D01*
X0080007Y0079249D02*
X0084200Y0079249D01*
X0084200Y0078451D02*
X0080007Y0078451D01*
X0080007Y0077652D02*
X0084783Y0077652D01*
X0085581Y0076854D02*
X0080007Y0076854D01*
X0078400Y0073475D02*
X0078400Y0080675D01*
X0081700Y0083975D01*
X0084900Y0083975D01*
X0086400Y0085875D01*
X0102900Y0085875D01*
X0102293Y0091749D02*
X0100060Y0093982D01*
X0096740Y0093982D01*
X0095107Y0092349D01*
X0095107Y0097328D01*
X0096660Y0095775D01*
X0098000Y0095775D01*
X0098000Y0099575D01*
X0098800Y0099575D01*
X0098800Y0095775D01*
X0100140Y0095775D01*
X0102293Y0097928D01*
X0102293Y0091749D01*
X0102293Y0092025D02*
X0102016Y0092025D01*
X0102293Y0092824D02*
X0101218Y0092824D01*
X0100419Y0093623D02*
X0102293Y0093623D01*
X0102293Y0094421D02*
X0095107Y0094421D01*
X0095107Y0093623D02*
X0096381Y0093623D01*
X0095582Y0092824D02*
X0095107Y0092824D01*
X0095107Y0095220D02*
X0102293Y0095220D01*
X0102293Y0096018D02*
X0100383Y0096018D01*
X0101181Y0096817D02*
X0102293Y0096817D01*
X0102293Y0097615D02*
X0101980Y0097615D01*
X0098800Y0097615D02*
X0098000Y0097615D01*
X0098000Y0096817D02*
X0098800Y0096817D01*
X0098800Y0096018D02*
X0098000Y0096018D01*
X0096417Y0096018D02*
X0095107Y0096018D01*
X0095107Y0096817D02*
X0095619Y0096817D01*
X0098000Y0098414D02*
X0098800Y0098414D01*
X0098800Y0099212D02*
X0098000Y0099212D01*
X0098000Y0100375D02*
X0098000Y0104175D01*
X0096660Y0104175D01*
X0095107Y0102622D01*
X0095107Y0107601D01*
X0096740Y0105968D01*
X0100060Y0105968D01*
X0102293Y0108201D01*
X0102293Y0102022D01*
X0100140Y0104175D01*
X0098800Y0104175D01*
X0098800Y0100375D01*
X0098000Y0100375D01*
X0098000Y0100809D02*
X0098800Y0100809D01*
X0098800Y0101608D02*
X0098000Y0101608D01*
X0098000Y0102406D02*
X0098800Y0102406D01*
X0098800Y0103205D02*
X0098000Y0103205D01*
X0098000Y0104003D02*
X0098800Y0104003D01*
X0100311Y0104003D02*
X0102293Y0104003D01*
X0102293Y0103205D02*
X0101110Y0103205D01*
X0101908Y0102406D02*
X0102293Y0102406D01*
X0102293Y0104802D02*
X0095107Y0104802D01*
X0095107Y0105600D02*
X0102293Y0105600D01*
X0102293Y0106399D02*
X0100491Y0106399D01*
X0101289Y0107197D02*
X0102293Y0107197D01*
X0102293Y0107996D02*
X0102088Y0107996D01*
X0096309Y0106399D02*
X0095107Y0106399D01*
X0095107Y0107197D02*
X0095511Y0107197D01*
X0095107Y0104003D02*
X0096489Y0104003D01*
X0095690Y0103205D02*
X0095107Y0103205D01*
X0081274Y0089449D02*
X0083074Y0087649D01*
X0081274Y0089449D02*
X0078874Y0089449D01*
X0081643Y0081645D02*
X0084200Y0081645D01*
X0084200Y0080846D02*
X0080844Y0080846D01*
X0075100Y0077975D02*
X0075100Y0075775D01*
X0075150Y0075725D01*
X0075100Y0077975D02*
X0073074Y0080000D01*
X0070050Y0080000D01*
X0078400Y0073475D02*
X0074400Y0069475D01*
X0070800Y0069475D01*
X0072544Y0067272D02*
X0075609Y0067272D01*
X0075609Y0066473D02*
X0069007Y0066473D01*
X0069007Y0065675D02*
X0075814Y0065675D01*
X0076301Y0064876D02*
X0069007Y0064876D01*
X0069007Y0064078D02*
X0076705Y0064078D01*
X0078400Y0066725D02*
X0078400Y0067321D01*
X0083554Y0072475D01*
X0080378Y0072063D02*
X0079261Y0072063D01*
X0080100Y0072475D02*
X0072200Y0064775D01*
X0070950Y0064775D01*
X0071150Y0064975D01*
X0069056Y0067272D02*
X0069007Y0067272D01*
X0075268Y0068070D02*
X0075936Y0068070D01*
X0076067Y0068869D02*
X0076596Y0068869D01*
X0076865Y0069667D02*
X0078473Y0069667D01*
X0079272Y0070466D02*
X0077664Y0070466D01*
X0078462Y0071264D02*
X0080070Y0071264D01*
X0086729Y0063279D02*
X0086878Y0063279D01*
X0086878Y0062481D02*
X0086729Y0062481D01*
X0086602Y0061682D02*
X0086925Y0061682D01*
X0086777Y0060085D02*
X0080608Y0060085D01*
X0081002Y0060884D02*
X0093576Y0060884D01*
X0088689Y0056891D02*
X0088411Y0056891D01*
X0088689Y0056092D02*
X0071465Y0056092D01*
X0070155Y0055294D02*
X0088689Y0055294D01*
X0088689Y0054495D02*
X0047350Y0054495D01*
X0047350Y0053697D02*
X0088689Y0053697D01*
X0088689Y0052898D02*
X0047350Y0052898D01*
X0047350Y0052100D02*
X0088689Y0052100D01*
X0088689Y0051301D02*
X0047350Y0051301D01*
X0047350Y0050503D02*
X0089283Y0050503D01*
X0089171Y0049704D02*
X0047350Y0049704D01*
X0047350Y0048906D02*
X0086579Y0048906D01*
X0085335Y0048107D02*
X0047350Y0048107D01*
X0047350Y0047309D02*
X0084828Y0047309D01*
X0084609Y0046510D02*
X0047350Y0046510D01*
X0047350Y0045712D02*
X0084609Y0045712D01*
X0084922Y0044913D02*
X0047350Y0044913D01*
X0047350Y0044115D02*
X0085562Y0044115D01*
X0088689Y0043316D02*
X0047350Y0043316D01*
X0047350Y0042518D02*
X0089394Y0042518D01*
X0089059Y0041719D02*
X0047350Y0041719D01*
X0047350Y0040921D02*
X0082615Y0040921D01*
X0081350Y0040122D02*
X0047350Y0040122D01*
X0047350Y0039324D02*
X0080834Y0039324D01*
X0080609Y0038525D02*
X0047350Y0038525D01*
X0047350Y0037727D02*
X0080609Y0037727D01*
X0080916Y0036928D02*
X0047350Y0036928D01*
X0047350Y0036130D02*
X0081548Y0036130D01*
X0085252Y0036130D02*
X0088689Y0036130D01*
X0088689Y0040122D02*
X0085450Y0040122D01*
X0084185Y0040921D02*
X0088689Y0040921D01*
X0088689Y0048906D02*
X0088221Y0048906D01*
X0101103Y0051301D02*
X0102810Y0051301D01*
X0101577Y0052100D02*
X0101103Y0052100D01*
X0106500Y0047309D02*
X0107300Y0047309D01*
X0107300Y0046510D02*
X0106500Y0046510D01*
X0106500Y0045712D02*
X0107300Y0045712D01*
X0110268Y0043316D02*
X0110736Y0043316D01*
X0110736Y0042518D02*
X0110268Y0042518D01*
X0110268Y0041719D02*
X0110736Y0041719D01*
X0110736Y0040921D02*
X0110061Y0040921D01*
X0110020Y0040122D02*
X0110736Y0040122D01*
X0110736Y0039324D02*
X0110268Y0039324D01*
X0110268Y0038525D02*
X0110736Y0038525D01*
X0110736Y0037727D02*
X0110268Y0037727D01*
X0110268Y0036928D02*
X0110736Y0036928D01*
X0110736Y0036130D02*
X0110268Y0036130D01*
X0110438Y0035331D02*
X0110736Y0035331D01*
X0106750Y0032137D02*
X0101103Y0032137D01*
X0101103Y0031339D02*
X0106750Y0031339D01*
X0106750Y0030540D02*
X0101103Y0030540D01*
X0101103Y0029742D02*
X0106750Y0029742D01*
X0106750Y0028943D02*
X0101103Y0028943D01*
X0101103Y0028145D02*
X0106750Y0028145D01*
X0106750Y0027346D02*
X0100974Y0027346D01*
X0101296Y0024152D02*
X0101949Y0024152D01*
X0101781Y0023354D02*
X0101296Y0023354D01*
X0101781Y0022555D02*
X0095296Y0022555D01*
X0095296Y0022201D02*
X0101296Y0022201D01*
X0101296Y0019916D01*
X0101201Y0019560D01*
X0101016Y0019241D01*
X0100756Y0018981D01*
X0100436Y0018796D01*
X0100080Y0018701D01*
X0095296Y0018701D01*
X0095296Y0022201D01*
X0095296Y0021756D02*
X0094496Y0021756D01*
X0094496Y0020958D02*
X0095296Y0020958D01*
X0095296Y0020159D02*
X0094496Y0020159D01*
X0094496Y0019361D02*
X0095296Y0019361D01*
X0094496Y0022555D02*
X0047350Y0022555D01*
X0047350Y0023354D02*
X0088496Y0023354D01*
X0088496Y0024152D02*
X0047350Y0024152D01*
X0047350Y0024951D02*
X0088496Y0024951D01*
X0088654Y0025749D02*
X0047350Y0025749D01*
X0047350Y0021756D02*
X0088496Y0021756D01*
X0088496Y0020958D02*
X0047350Y0020958D01*
X0047350Y0020159D02*
X0088496Y0020159D01*
X0088707Y0019361D02*
X0074204Y0019361D01*
X0074244Y0019342D02*
X0073815Y0019542D01*
X0073811Y0019541D01*
X0073808Y0019544D01*
X0073336Y0019585D01*
X0072879Y0019708D01*
X0072875Y0019706D01*
X0072872Y0019709D01*
X0072400Y0019667D01*
X0071928Y0019709D01*
X0071925Y0019706D01*
X0071921Y0019708D01*
X0071464Y0019585D01*
X0070992Y0019544D01*
X0070989Y0019541D01*
X0070985Y0019542D01*
X0070556Y0019342D01*
X0070098Y0019220D01*
X0070096Y0019216D01*
X0070092Y0019217D01*
X0069704Y0018945D01*
X0069274Y0018745D01*
X0069273Y0018741D01*
X0069269Y0018741D01*
X0068934Y0018406D01*
X0068546Y0018134D01*
X0068545Y0018130D01*
X0068541Y0018129D01*
X0068269Y0017741D01*
X0067934Y0017406D01*
X0067934Y0017402D01*
X0067930Y0017400D01*
X0067730Y0016971D01*
X0067458Y0016583D01*
X0067459Y0016579D01*
X0067455Y0016577D01*
X0067333Y0016119D01*
X0067132Y0015690D01*
X0067134Y0015686D01*
X0067131Y0015683D01*
X0067089Y0015211D01*
X0066967Y0014754D01*
X0066969Y0014750D01*
X0066966Y0014747D01*
X0067007Y0014275D01*
X0066966Y0013803D01*
X0066969Y0013800D01*
X0066967Y0013796D01*
X0067089Y0013338D01*
X0067131Y0012866D01*
X0067134Y0012864D01*
X0067132Y0012860D01*
X0067333Y0012430D01*
X0067455Y0011973D01*
X0067459Y0011971D01*
X0067458Y0011967D01*
X0067730Y0011579D01*
X0067930Y0011149D01*
X0067934Y0011148D01*
X0067934Y0011144D01*
X0068269Y0010809D01*
X0068541Y0010420D01*
X0068545Y0010420D01*
X0068546Y0010416D01*
X0068934Y0010144D01*
X0069269Y0009809D01*
X0069273Y0009809D01*
X0069274Y0009805D01*
X0069704Y0009605D01*
X0070092Y0009333D01*
X0070096Y0009334D01*
X0070098Y0009330D01*
X0070556Y0009207D01*
X0070985Y0009007D01*
X0070989Y0009009D01*
X0070992Y0009005D01*
X0071464Y0008964D01*
X0071921Y0008842D01*
X0071925Y0008844D01*
X0071928Y0008841D01*
X0072400Y0008882D01*
X0072872Y0008841D01*
X0072875Y0008844D01*
X0072879Y0008842D01*
X0073336Y0008964D01*
X0073808Y0009005D01*
X0073811Y0009009D01*
X0073815Y0009007D01*
X0074244Y0009207D01*
X0074702Y0009330D01*
X0074704Y0009334D01*
X0074708Y0009333D01*
X0075096Y0009605D01*
X0075526Y0009805D01*
X0075527Y0009809D01*
X0075531Y0009809D01*
X0075866Y0010144D01*
X0076254Y0010416D01*
X0076255Y0010420D01*
X0076259Y0010420D01*
X0076531Y0010809D01*
X0076866Y0011144D01*
X0076866Y0011148D01*
X0076870Y0011149D01*
X0077070Y0011579D01*
X0077342Y0011967D01*
X0077341Y0011971D01*
X0077345Y0011973D01*
X0077467Y0012430D01*
X0077668Y0012860D01*
X0077666Y0012864D01*
X0077669Y0012866D01*
X0077711Y0013338D01*
X0077833Y0013796D01*
X0077831Y0013800D01*
X0077834Y0013803D01*
X0077793Y0014275D01*
X0077834Y0014747D01*
X0077831Y0014750D01*
X0077833Y0014754D01*
X0077711Y0015211D01*
X0077669Y0015683D01*
X0077666Y0015686D01*
X0077668Y0015690D01*
X0077467Y0016119D01*
X0077345Y0016577D01*
X0077341Y0016579D01*
X0077342Y0016583D01*
X0077070Y0016971D01*
X0076870Y0017400D01*
X0076866Y0017402D01*
X0076866Y0017406D01*
X0076531Y0017741D01*
X0076259Y0018129D01*
X0076255Y0018130D01*
X0076254Y0018134D01*
X0075866Y0018406D01*
X0075531Y0018741D01*
X0075527Y0018741D01*
X0075526Y0018745D01*
X0075096Y0018945D01*
X0074708Y0019217D01*
X0074704Y0019216D01*
X0074702Y0019220D01*
X0074244Y0019342D01*
X0075710Y0018562D02*
X0089252Y0018562D01*
X0088496Y0017764D02*
X0076515Y0017764D01*
X0077074Y0016965D02*
X0084720Y0016965D01*
X0084067Y0016167D02*
X0077455Y0016167D01*
X0077697Y0015368D02*
X0083736Y0015368D01*
X0083716Y0014570D02*
X0077818Y0014570D01*
X0077827Y0013771D02*
X0083865Y0013771D01*
X0084232Y0012973D02*
X0077679Y0012973D01*
X0077399Y0012174D02*
X0085059Y0012174D01*
X0088341Y0012174D02*
X0088496Y0012174D01*
X0088767Y0011376D02*
X0076976Y0011376D01*
X0076369Y0010577D02*
X0089141Y0010577D01*
X0088496Y0009779D02*
X0075470Y0009779D01*
X0073520Y0008980D02*
X0088496Y0008980D01*
X0088496Y0008182D02*
X0038111Y0008182D01*
X0038111Y0008980D02*
X0071279Y0008980D01*
X0069330Y0009779D02*
X0038111Y0009779D01*
X0037760Y0011376D02*
X0067824Y0011376D01*
X0067401Y0012174D02*
X0041791Y0012174D01*
X0038509Y0012174D02*
X0038111Y0012174D01*
X0038111Y0007383D02*
X0088496Y0007383D01*
X0088496Y0006585D02*
X0038111Y0006585D01*
X0038111Y0005786D02*
X0088496Y0005786D01*
X0088496Y0004988D02*
X0038111Y0004988D01*
X0038111Y0004189D02*
X0088496Y0004189D01*
X0088878Y0003391D02*
X0037649Y0003391D01*
X0045259Y0012973D02*
X0067121Y0012973D01*
X0066973Y0013771D02*
X0046058Y0013771D01*
X0046856Y0014570D02*
X0066982Y0014570D01*
X0067103Y0015368D02*
X0047350Y0015368D01*
X0047350Y0016167D02*
X0067345Y0016167D01*
X0067726Y0016965D02*
X0047350Y0016965D01*
X0047350Y0017764D02*
X0068285Y0017764D01*
X0069090Y0018562D02*
X0047350Y0018562D01*
X0047350Y0019361D02*
X0070596Y0019361D01*
X0068431Y0010577D02*
X0022607Y0010577D01*
X0022607Y0009779D02*
X0025697Y0009779D01*
X0025697Y0008980D02*
X0022607Y0008980D01*
X0022557Y0008182D02*
X0025697Y0008182D01*
X0025697Y0007383D02*
X0021758Y0007383D01*
X0020960Y0006585D02*
X0025697Y0006585D01*
X0025697Y0005786D02*
X0020161Y0005786D01*
X0016639Y0005786D02*
X0010434Y0005786D01*
X0010223Y0005575D02*
X0012800Y0008152D01*
X0012800Y0011797D01*
X0010223Y0014375D01*
X0006577Y0014375D01*
X0004000Y0011797D01*
X0004000Y0008152D01*
X0006577Y0005575D01*
X0010223Y0005575D01*
X0011232Y0006585D02*
X0015840Y0006585D01*
X0015042Y0007383D02*
X0012031Y0007383D01*
X0012800Y0008182D02*
X0014243Y0008182D01*
X0014193Y0008980D02*
X0012800Y0008980D01*
X0012800Y0009779D02*
X0014193Y0009779D01*
X0014193Y0010577D02*
X0012800Y0010577D01*
X0012800Y0011376D02*
X0014193Y0011376D01*
X0014650Y0012174D02*
X0012423Y0012174D01*
X0011624Y0012973D02*
X0015448Y0012973D01*
X0016247Y0013771D02*
X0010826Y0013771D01*
X0010542Y0016167D02*
X0016258Y0016167D01*
X0016657Y0015768D02*
X0020143Y0015768D01*
X0022607Y0018232D01*
X0022607Y0021717D01*
X0020143Y0024182D01*
X0016657Y0024182D01*
X0014193Y0021717D01*
X0014193Y0018232D01*
X0016657Y0015768D01*
X0015460Y0016965D02*
X0011340Y0016965D01*
X0012139Y0017764D02*
X0014661Y0017764D01*
X0014193Y0018562D02*
X0012607Y0018562D01*
X0012607Y0019361D02*
X0014193Y0019361D01*
X0014193Y0020159D02*
X0012607Y0020159D01*
X0012607Y0020958D02*
X0014193Y0020958D01*
X0014232Y0021756D02*
X0012931Y0021756D01*
X0013819Y0022555D02*
X0015030Y0022555D01*
X0014706Y0023354D02*
X0015829Y0023354D01*
X0015107Y0024152D02*
X0016628Y0024152D01*
X0015134Y0024951D02*
X0023443Y0024951D01*
X0023443Y0025749D02*
X0015107Y0025749D01*
X0015107Y0026548D02*
X0015878Y0026548D01*
X0011693Y0026548D02*
X0011195Y0026548D01*
X0011693Y0025749D02*
X0010397Y0025749D01*
X0011377Y0024951D02*
X0003300Y0024951D01*
X0003300Y0025749D02*
X0006403Y0025749D01*
X0005605Y0026548D02*
X0003300Y0026548D01*
X0003300Y0027346D02*
X0004806Y0027346D01*
X0004008Y0028145D02*
X0003300Y0028145D01*
X0003300Y0028943D02*
X0004000Y0028943D01*
X0003300Y0029742D02*
X0008000Y0029742D01*
X0008000Y0030540D02*
X0008800Y0030540D01*
X0008800Y0031339D02*
X0008000Y0031339D01*
X0008000Y0032137D02*
X0008800Y0032137D01*
X0008800Y0032936D02*
X0008000Y0032936D01*
X0008000Y0033734D02*
X0008800Y0033734D01*
X0010863Y0033734D02*
X0011693Y0033734D01*
X0011662Y0032936D02*
X0011693Y0032936D01*
X0011693Y0034533D02*
X0003300Y0034533D01*
X0003300Y0035331D02*
X0011693Y0035331D01*
X0011693Y0036130D02*
X0010505Y0036130D01*
X0011303Y0036928D02*
X0011693Y0036928D01*
X0015107Y0036928D02*
X0015224Y0036928D01*
X0015107Y0036130D02*
X0016023Y0036130D01*
X0015107Y0035331D02*
X0023443Y0035331D01*
X0023443Y0034533D02*
X0015107Y0034533D01*
X0015107Y0033734D02*
X0016210Y0033734D01*
X0015411Y0032936D02*
X0015107Y0032936D01*
X0018000Y0036130D02*
X0018800Y0036130D01*
X0018800Y0035575D02*
X0020223Y0035575D01*
X0022800Y0038152D01*
X0022800Y0039575D01*
X0018800Y0039575D01*
X0018800Y0035575D01*
X0018800Y0036928D02*
X0018000Y0036928D01*
X0018000Y0037727D02*
X0018800Y0037727D01*
X0018800Y0038525D02*
X0018000Y0038525D01*
X0018000Y0039324D02*
X0018800Y0039324D01*
X0018800Y0040122D02*
X0023443Y0040122D01*
X0023443Y0039324D02*
X0022800Y0039324D01*
X0022800Y0038525D02*
X0023443Y0038525D01*
X0023443Y0037727D02*
X0022374Y0037727D01*
X0021576Y0036928D02*
X0023443Y0036928D01*
X0023443Y0036130D02*
X0020777Y0036130D01*
X0020590Y0033734D02*
X0023443Y0033734D01*
X0023443Y0032936D02*
X0021389Y0032936D01*
X0022187Y0032137D02*
X0023443Y0032137D01*
X0023443Y0031339D02*
X0022607Y0031339D01*
X0022607Y0030540D02*
X0023443Y0030540D01*
X0023443Y0029742D02*
X0022607Y0029742D01*
X0022607Y0028943D02*
X0023443Y0028943D01*
X0023443Y0028145D02*
X0022519Y0028145D01*
X0021721Y0027346D02*
X0023443Y0027346D01*
X0023443Y0026548D02*
X0020922Y0026548D01*
X0020172Y0024152D02*
X0023443Y0024152D01*
X0023443Y0023354D02*
X0020971Y0023354D01*
X0021770Y0022555D02*
X0023443Y0022555D01*
X0023443Y0021756D02*
X0022568Y0021756D01*
X0022607Y0020958D02*
X0023443Y0020958D01*
X0023443Y0020159D02*
X0022607Y0020159D01*
X0022607Y0019361D02*
X0023443Y0019361D01*
X0023443Y0018562D02*
X0022607Y0018562D01*
X0022139Y0017764D02*
X0023443Y0017764D01*
X0023443Y0016965D02*
X0021340Y0016965D01*
X0020542Y0016167D02*
X0023443Y0016167D01*
X0023413Y0015368D02*
X0003300Y0015368D01*
X0003300Y0014570D02*
X0022215Y0014570D01*
X0021017Y0013771D02*
X0020553Y0013771D01*
X0023579Y0011376D02*
X0026048Y0011376D01*
X0025697Y0012174D02*
X0024777Y0012174D01*
X0025697Y0004988D02*
X0003300Y0004988D01*
X0003300Y0005786D02*
X0006366Y0005786D01*
X0005567Y0006585D02*
X0003300Y0006585D01*
X0003300Y0007383D02*
X0004769Y0007383D01*
X0004000Y0008182D02*
X0003300Y0008182D01*
X0003300Y0008980D02*
X0004000Y0008980D01*
X0004000Y0009779D02*
X0003300Y0009779D01*
X0003300Y0010577D02*
X0004000Y0010577D01*
X0004000Y0011376D02*
X0003300Y0011376D01*
X0003300Y0012174D02*
X0004377Y0012174D01*
X0005176Y0012973D02*
X0003300Y0012973D01*
X0003300Y0013771D02*
X0005974Y0013771D01*
X0006258Y0016167D02*
X0003300Y0016167D01*
X0003300Y0016965D02*
X0005460Y0016965D01*
X0004661Y0017764D02*
X0003300Y0017764D01*
X0003300Y0018562D02*
X0004193Y0018562D01*
X0004193Y0019361D02*
X0003300Y0019361D01*
X0003300Y0020159D02*
X0004193Y0020159D01*
X0004193Y0020958D02*
X0003300Y0020958D01*
X0003300Y0021756D02*
X0004232Y0021756D01*
X0005030Y0022555D02*
X0003300Y0022555D01*
X0003300Y0023354D02*
X0005829Y0023354D01*
X0006628Y0024152D02*
X0003300Y0024152D01*
X0008000Y0025749D02*
X0008800Y0025749D01*
X0008800Y0026548D02*
X0008000Y0026548D01*
X0008000Y0027346D02*
X0008800Y0027346D01*
X0008800Y0028145D02*
X0008000Y0028145D01*
X0008000Y0028943D02*
X0008800Y0028943D01*
X0010172Y0024152D02*
X0010490Y0024152D01*
X0004000Y0030540D02*
X0003300Y0030540D01*
X0003300Y0031339D02*
X0004000Y0031339D01*
X0004340Y0032137D02*
X0003300Y0032137D01*
X0003300Y0032936D02*
X0005138Y0032936D01*
X0005937Y0033734D02*
X0003300Y0033734D01*
X0003300Y0036130D02*
X0006295Y0036130D01*
X0005497Y0036928D02*
X0003300Y0036928D01*
X0003300Y0037727D02*
X0004698Y0037727D01*
X0004193Y0038525D02*
X0003300Y0038525D01*
X0003300Y0039324D02*
X0004193Y0039324D01*
X0004193Y0040122D02*
X0003300Y0040122D01*
X0003300Y0040921D02*
X0004193Y0040921D01*
X0004195Y0041719D02*
X0003300Y0041719D01*
X0003300Y0042518D02*
X0004993Y0042518D01*
X0005792Y0043316D02*
X0003300Y0043316D01*
X0003300Y0044115D02*
X0006590Y0044115D01*
X0005915Y0046510D02*
X0003300Y0046510D01*
X0003300Y0045712D02*
X0011693Y0045712D01*
X0011693Y0046510D02*
X0010885Y0046510D01*
X0011684Y0047309D02*
X0011693Y0047309D01*
X0011693Y0044913D02*
X0003300Y0044913D01*
X0003300Y0047309D02*
X0005116Y0047309D01*
X0004318Y0048107D02*
X0003300Y0048107D01*
X0003300Y0048906D02*
X0004193Y0048906D01*
X0004193Y0049704D02*
X0003300Y0049704D01*
X0003300Y0050503D02*
X0004193Y0050503D01*
X0004193Y0051301D02*
X0003300Y0051301D01*
X0003300Y0052100D02*
X0004575Y0052100D01*
X0005374Y0052898D02*
X0003300Y0052898D01*
X0003300Y0053697D02*
X0006172Y0053697D01*
X0006333Y0056092D02*
X0003300Y0056092D01*
X0003300Y0055294D02*
X0011693Y0055294D01*
X0011693Y0056092D02*
X0010467Y0056092D01*
X0011266Y0056891D02*
X0011693Y0056891D01*
X0011693Y0054495D02*
X0003300Y0054495D01*
X0003300Y0056891D02*
X0005534Y0056891D01*
X0004736Y0057689D02*
X0003300Y0057689D01*
X0003300Y0058488D02*
X0004193Y0058488D01*
X0004193Y0059287D02*
X0003300Y0059287D01*
X0003300Y0060085D02*
X0004193Y0060085D01*
X0004193Y0060884D02*
X0003300Y0060884D01*
X0003300Y0061682D02*
X0004193Y0061682D01*
X0004956Y0062481D02*
X0003300Y0062481D01*
X0003300Y0063279D02*
X0005755Y0063279D01*
X0006553Y0064078D02*
X0003300Y0064078D01*
X0003300Y0064876D02*
X0013238Y0064876D01*
X0014126Y0065675D02*
X0003300Y0065675D01*
X0003300Y0066473D02*
X0005952Y0066473D01*
X0005153Y0067272D02*
X0003300Y0067272D01*
X0003300Y0068070D02*
X0004355Y0068070D01*
X0004193Y0068869D02*
X0003300Y0068869D01*
X0003300Y0069667D02*
X0004193Y0069667D01*
X0004193Y0070466D02*
X0003300Y0070466D01*
X0003300Y0071264D02*
X0004193Y0071264D01*
X0004538Y0072063D02*
X0003300Y0072063D01*
X0003300Y0072861D02*
X0005337Y0072861D01*
X0006135Y0073660D02*
X0003300Y0073660D01*
X0003300Y0074458D02*
X0011792Y0074458D01*
X0010993Y0073660D02*
X0010665Y0073660D01*
X0010143Y0075768D02*
X0012607Y0078232D01*
X0012607Y0081717D01*
X0010143Y0084182D01*
X0006657Y0084182D01*
X0004193Y0081717D01*
X0004193Y0078232D01*
X0006657Y0075768D01*
X0010143Y0075768D01*
X0010430Y0076055D02*
X0013389Y0076055D01*
X0012590Y0075257D02*
X0003300Y0075257D01*
X0003300Y0076055D02*
X0006370Y0076055D01*
X0005571Y0076854D02*
X0003300Y0076854D01*
X0003300Y0077652D02*
X0004773Y0077652D01*
X0004193Y0078451D02*
X0003300Y0078451D01*
X0003300Y0079249D02*
X0004193Y0079249D01*
X0004193Y0080048D02*
X0003300Y0080048D01*
X0003300Y0080846D02*
X0004193Y0080846D01*
X0004193Y0081645D02*
X0003300Y0081645D01*
X0003300Y0082443D02*
X0004919Y0082443D01*
X0005717Y0083242D02*
X0003300Y0083242D01*
X0003300Y0084040D02*
X0006516Y0084040D01*
X0006657Y0085768D02*
X0010143Y0085768D01*
X0012607Y0088232D01*
X0012607Y0091717D01*
X0010143Y0094182D01*
X0006657Y0094182D01*
X0004193Y0091717D01*
X0004193Y0088232D01*
X0006657Y0085768D01*
X0005989Y0086436D02*
X0003300Y0086436D01*
X0003300Y0087234D02*
X0005191Y0087234D01*
X0004392Y0088033D02*
X0003300Y0088033D01*
X0003300Y0088831D02*
X0004193Y0088831D01*
X0004193Y0089630D02*
X0003300Y0089630D01*
X0003300Y0090428D02*
X0004193Y0090428D01*
X0004193Y0091227D02*
X0003300Y0091227D01*
X0003300Y0092025D02*
X0004501Y0092025D01*
X0005299Y0092824D02*
X0003300Y0092824D01*
X0003300Y0093623D02*
X0006098Y0093623D01*
X0006657Y0095768D02*
X0010143Y0095768D01*
X0012607Y0098232D01*
X0012607Y0101717D01*
X0010143Y0104182D01*
X0006657Y0104182D01*
X0004193Y0101717D01*
X0004193Y0098232D01*
X0006657Y0095768D01*
X0006407Y0096018D02*
X0003300Y0096018D01*
X0003300Y0095220D02*
X0022693Y0095220D01*
X0022691Y0096018D02*
X0020393Y0096018D01*
X0020143Y0095768D02*
X0022607Y0098232D01*
X0022607Y0101717D01*
X0020143Y0104182D01*
X0016657Y0104182D01*
X0014193Y0101717D01*
X0014193Y0098232D01*
X0016657Y0095768D01*
X0020143Y0095768D01*
X0021191Y0096817D02*
X0023078Y0096817D01*
X0021990Y0097615D02*
X0032810Y0097615D01*
X0035450Y0100011D02*
X0022607Y0100011D01*
X0022607Y0100809D02*
X0025152Y0100809D01*
X0024353Y0101608D02*
X0022607Y0101608D01*
X0021918Y0102406D02*
X0023554Y0102406D01*
X0022756Y0103205D02*
X0021120Y0103205D01*
X0020321Y0104003D02*
X0021957Y0104003D01*
X0021159Y0104802D02*
X0003300Y0104802D01*
X0003300Y0105600D02*
X0020360Y0105600D01*
X0022793Y0107996D02*
X0031738Y0107996D01*
X0031738Y0107197D02*
X0023592Y0107197D01*
X0024390Y0106399D02*
X0031872Y0106399D01*
X0031738Y0109593D02*
X0022607Y0109593D01*
X0022607Y0110391D02*
X0031738Y0110391D01*
X0031755Y0111190D02*
X0022607Y0111190D01*
X0022336Y0111988D02*
X0032203Y0111988D01*
X0034904Y0111988D02*
X0035704Y0111988D01*
X0035704Y0111190D02*
X0034904Y0111190D01*
X0034904Y0110391D02*
X0035704Y0110391D01*
X0035704Y0109593D02*
X0034904Y0109593D01*
X0034903Y0108794D02*
X0022607Y0108794D01*
X0025189Y0105600D02*
X0040419Y0105600D01*
X0039996Y0104802D02*
X0025987Y0104802D01*
X0022607Y0099212D02*
X0036249Y0099212D01*
X0037047Y0098414D02*
X0022607Y0098414D01*
X0022693Y0094421D02*
X0003300Y0094421D01*
X0003300Y0096817D02*
X0005609Y0096817D01*
X0004810Y0097615D02*
X0003300Y0097615D01*
X0003300Y0098414D02*
X0004193Y0098414D01*
X0004193Y0099212D02*
X0003300Y0099212D01*
X0003300Y0100011D02*
X0004193Y0100011D01*
X0004193Y0100809D02*
X0003300Y0100809D01*
X0003300Y0101608D02*
X0004193Y0101608D01*
X0004882Y0102406D02*
X0003300Y0102406D01*
X0003300Y0103205D02*
X0005680Y0103205D01*
X0006479Y0104003D02*
X0003300Y0104003D01*
X0003300Y0106399D02*
X0006026Y0106399D01*
X0006657Y0105768D02*
X0010143Y0105768D01*
X0012607Y0108232D01*
X0012607Y0111717D01*
X0010143Y0114182D01*
X0006657Y0114182D01*
X0004193Y0111717D01*
X0004193Y0108232D01*
X0006657Y0105768D01*
X0005228Y0107197D02*
X0003300Y0107197D01*
X0003300Y0107996D02*
X0004429Y0107996D01*
X0004193Y0108794D02*
X0003300Y0108794D01*
X0003300Y0109593D02*
X0004193Y0109593D01*
X0004193Y0110391D02*
X0003300Y0110391D01*
X0003300Y0111190D02*
X0004193Y0111190D01*
X0004464Y0111988D02*
X0003300Y0111988D01*
X0003300Y0112787D02*
X0005262Y0112787D01*
X0006061Y0113585D02*
X0003300Y0113585D01*
X0003300Y0114384D02*
X0040289Y0114384D01*
X0040289Y0115182D02*
X0029921Y0115182D01*
X0030096Y0115305D02*
X0030526Y0115505D01*
X0030527Y0115509D01*
X0030531Y0115509D01*
X0030866Y0115844D01*
X0031254Y0116116D01*
X0031255Y0116120D01*
X0031259Y0116120D01*
X0031531Y0116509D01*
X0031866Y0116844D01*
X0031866Y0116848D01*
X0031870Y0116849D01*
X0032070Y0117279D01*
X0032342Y0117667D01*
X0032341Y0117671D01*
X0032345Y0117673D01*
X0032467Y0118130D01*
X0032668Y0118560D01*
X0032666Y0118564D01*
X0032669Y0118566D01*
X0032711Y0119038D01*
X0032833Y0119496D01*
X0032831Y0119500D01*
X0032834Y0119503D01*
X0032793Y0119975D01*
X0032834Y0120447D01*
X0032831Y0120450D01*
X0032833Y0120454D01*
X0032711Y0120911D01*
X0032669Y0121383D01*
X0032666Y0121386D01*
X0032668Y0121390D01*
X0032467Y0121819D01*
X0032345Y0122277D01*
X0032341Y0122279D01*
X0032342Y0122283D01*
X0032070Y0122671D01*
X0031870Y0123100D01*
X0031866Y0123102D01*
X0031866Y0123106D01*
X0031531Y0123441D01*
X0031259Y0123829D01*
X0031255Y0123830D01*
X0031254Y0123834D01*
X0030866Y0124106D01*
X0030531Y0124441D01*
X0030527Y0124441D01*
X0030526Y0124445D01*
X0030096Y0124645D01*
X0029708Y0124917D01*
X0029704Y0124916D01*
X0029702Y0124920D01*
X0029244Y0125042D01*
X0028815Y0125242D01*
X0028811Y0125241D01*
X0028808Y0125244D01*
X0028336Y0125285D01*
X0027879Y0125408D01*
X0027875Y0125406D01*
X0027872Y0125409D01*
X0027400Y0125367D01*
X0026928Y0125409D01*
X0026925Y0125406D01*
X0026921Y0125408D01*
X0026464Y0125285D01*
X0025992Y0125244D01*
X0025989Y0125241D01*
X0025985Y0125242D01*
X0025556Y0125042D01*
X0025098Y0124920D01*
X0025096Y0124916D01*
X0025092Y0124917D01*
X0024704Y0124645D01*
X0024274Y0124445D01*
X0024273Y0124441D01*
X0024269Y0124441D01*
X0023934Y0124106D01*
X0023546Y0123834D01*
X0023545Y0123830D01*
X0023541Y0123829D01*
X0023269Y0123441D01*
X0022934Y0123106D01*
X0022934Y0123102D01*
X0022930Y0123100D01*
X0022730Y0122671D01*
X0022458Y0122283D01*
X0022459Y0122279D01*
X0022455Y0122277D01*
X0022369Y0121955D01*
X0020143Y0124182D01*
X0016657Y0124182D01*
X0014193Y0121717D01*
X0014193Y0118232D01*
X0016657Y0115768D01*
X0020143Y0115768D01*
X0022369Y0117994D01*
X0022455Y0117673D01*
X0022459Y0117671D01*
X0022458Y0117667D01*
X0022730Y0117279D01*
X0022930Y0116849D01*
X0022934Y0116848D01*
X0022934Y0116844D01*
X0023269Y0116509D01*
X0023541Y0116120D01*
X0023545Y0116120D01*
X0023546Y0116116D01*
X0023934Y0115844D01*
X0024269Y0115509D01*
X0024273Y0115509D01*
X0024274Y0115505D01*
X0024704Y0115305D01*
X0025092Y0115033D01*
X0025096Y0115034D01*
X0025098Y0115030D01*
X0025556Y0114907D01*
X0025985Y0114707D01*
X0025989Y0114709D01*
X0025992Y0114705D01*
X0026464Y0114664D01*
X0026921Y0114542D01*
X0026925Y0114544D01*
X0026928Y0114541D01*
X0027400Y0114582D01*
X0027872Y0114541D01*
X0027875Y0114544D01*
X0027879Y0114542D01*
X0028336Y0114664D01*
X0028808Y0114705D01*
X0028811Y0114709D01*
X0028815Y0114707D01*
X0029244Y0114907D01*
X0029702Y0115030D01*
X0029704Y0115034D01*
X0029708Y0115033D01*
X0030096Y0115305D01*
X0031062Y0115981D02*
X0040289Y0115981D01*
X0040289Y0116779D02*
X0031802Y0116779D01*
X0032280Y0117578D02*
X0040244Y0117578D01*
X0039548Y0118376D02*
X0032582Y0118376D01*
X0032747Y0119175D02*
X0039218Y0119175D01*
X0038943Y0119973D02*
X0032793Y0119973D01*
X0032748Y0120772D02*
X0038943Y0120772D01*
X0038943Y0121570D02*
X0032583Y0121570D01*
X0032282Y0122369D02*
X0039257Y0122369D01*
X0039587Y0123167D02*
X0031805Y0123167D01*
X0031066Y0123966D02*
X0040338Y0123966D01*
X0041506Y0124764D02*
X0029925Y0124764D01*
X0024875Y0124764D02*
X0003300Y0124764D01*
X0003300Y0123966D02*
X0006441Y0123966D01*
X0006657Y0124182D02*
X0004193Y0121717D01*
X0004193Y0118232D01*
X0006657Y0115768D01*
X0010143Y0115768D01*
X0012607Y0118232D01*
X0012607Y0121717D01*
X0010143Y0124182D01*
X0006657Y0124182D01*
X0005643Y0123167D02*
X0003300Y0123167D01*
X0003300Y0122369D02*
X0004844Y0122369D01*
X0004193Y0121570D02*
X0003300Y0121570D01*
X0003300Y0120772D02*
X0004193Y0120772D01*
X0004193Y0119973D02*
X0003300Y0119973D01*
X0003300Y0119175D02*
X0004193Y0119175D01*
X0004193Y0118376D02*
X0003300Y0118376D01*
X0003300Y0117578D02*
X0004847Y0117578D01*
X0005646Y0116779D02*
X0003300Y0116779D01*
X0003300Y0115981D02*
X0006444Y0115981D01*
X0003300Y0115182D02*
X0024879Y0115182D01*
X0023738Y0115981D02*
X0020356Y0115981D01*
X0021154Y0116779D02*
X0022998Y0116779D01*
X0022520Y0117578D02*
X0021953Y0117578D01*
X0020739Y0113585D02*
X0040289Y0113585D01*
X0040289Y0112787D02*
X0021538Y0112787D01*
X0016061Y0113585D02*
X0010739Y0113585D01*
X0011538Y0112787D02*
X0015262Y0112787D01*
X0014464Y0111988D02*
X0012336Y0111988D01*
X0012607Y0111190D02*
X0014193Y0111190D01*
X0014193Y0110391D02*
X0012607Y0110391D01*
X0012607Y0109593D02*
X0014193Y0109593D01*
X0014193Y0108794D02*
X0012607Y0108794D01*
X0012371Y0107996D02*
X0014429Y0107996D01*
X0015228Y0107197D02*
X0011572Y0107197D01*
X0010774Y0106399D02*
X0016026Y0106399D01*
X0016479Y0104003D02*
X0010321Y0104003D01*
X0011120Y0103205D02*
X0015680Y0103205D01*
X0014882Y0102406D02*
X0011918Y0102406D01*
X0012607Y0101608D02*
X0014193Y0101608D01*
X0014193Y0100809D02*
X0012607Y0100809D01*
X0012607Y0100011D02*
X0014193Y0100011D01*
X0014193Y0099212D02*
X0012607Y0099212D01*
X0012607Y0098414D02*
X0014193Y0098414D01*
X0014810Y0097615D02*
X0011990Y0097615D01*
X0011191Y0096817D02*
X0015609Y0096817D01*
X0016407Y0096018D02*
X0010393Y0096018D01*
X0010702Y0093623D02*
X0016098Y0093623D01*
X0016657Y0094182D02*
X0014193Y0091717D01*
X0014193Y0088232D01*
X0016657Y0085768D01*
X0020143Y0085768D01*
X0022607Y0088232D01*
X0022607Y0091717D01*
X0020143Y0094182D01*
X0016657Y0094182D01*
X0015299Y0092824D02*
X0011501Y0092824D01*
X0012299Y0092025D02*
X0014501Y0092025D01*
X0014193Y0091227D02*
X0012607Y0091227D01*
X0012607Y0090428D02*
X0014193Y0090428D01*
X0014193Y0089630D02*
X0012607Y0089630D01*
X0012607Y0088831D02*
X0014193Y0088831D01*
X0014392Y0088033D02*
X0012408Y0088033D01*
X0011609Y0087234D02*
X0015191Y0087234D01*
X0015989Y0086436D02*
X0010811Y0086436D01*
X0010284Y0084040D02*
X0016516Y0084040D01*
X0015717Y0083242D02*
X0011083Y0083242D01*
X0011881Y0082443D02*
X0014919Y0082443D01*
X0014193Y0081645D02*
X0012607Y0081645D01*
X0012607Y0080846D02*
X0014193Y0080846D01*
X0014193Y0080048D02*
X0012607Y0080048D01*
X0012607Y0079249D02*
X0014193Y0079249D01*
X0014193Y0078451D02*
X0012607Y0078451D01*
X0012027Y0077652D02*
X0014773Y0077652D01*
X0015571Y0076854D02*
X0011229Y0076854D01*
X0014400Y0074794D02*
X0019400Y0074794D01*
X0027400Y0082794D01*
X0027400Y0087794D01*
X0031900Y0092294D01*
X0035945Y0092294D01*
X0036250Y0092599D01*
X0036250Y0089449D02*
X0036324Y0089375D01*
X0039100Y0089375D01*
X0040900Y0087575D01*
X0040900Y0083794D01*
X0042900Y0081894D01*
X0051069Y0081894D01*
X0051900Y0082725D01*
X0050067Y0084839D02*
X0047658Y0084839D01*
X0047327Y0084040D02*
X0049424Y0084040D01*
X0049900Y0076775D02*
X0046900Y0076775D01*
X0044500Y0074375D01*
X0041500Y0074375D01*
X0040400Y0075475D01*
X0040374Y0079000D01*
X0039650Y0079975D01*
X0036250Y0080000D01*
X0036250Y0083150D02*
X0036206Y0083194D01*
X0032700Y0083194D01*
X0031700Y0082194D01*
X0031700Y0081194D01*
X0028650Y0078144D01*
X0028650Y0068025D01*
X0029500Y0067175D01*
X0029500Y0059675D01*
X0028000Y0058175D01*
X0026500Y0058175D01*
X0023150Y0054825D01*
X0023150Y0046475D01*
X0021650Y0044975D01*
X0018859Y0044913D02*
X0015107Y0044913D01*
X0015107Y0044115D02*
X0016317Y0044115D01*
X0015519Y0043316D02*
X0015107Y0043316D01*
X0015107Y0045712D02*
X0018934Y0045712D01*
X0018800Y0044115D02*
X0018000Y0044115D01*
X0018000Y0043316D02*
X0018800Y0043316D01*
X0018800Y0042518D02*
X0018000Y0042518D01*
X0018000Y0041719D02*
X0018800Y0041719D01*
X0018800Y0040921D02*
X0018000Y0040921D01*
X0022800Y0040921D02*
X0023443Y0040921D01*
X0023443Y0041719D02*
X0022800Y0041719D01*
X0023012Y0042518D02*
X0023443Y0042518D01*
X0015915Y0046510D02*
X0015107Y0046510D01*
X0015107Y0047309D02*
X0015116Y0047309D01*
X0011693Y0044115D02*
X0010210Y0044115D01*
X0011008Y0043316D02*
X0011693Y0043316D01*
X0011693Y0052898D02*
X0011426Y0052898D01*
X0011693Y0053697D02*
X0010628Y0053697D01*
X0011045Y0063279D02*
X0011693Y0063279D01*
X0012339Y0064078D02*
X0010247Y0064078D01*
X0010848Y0066473D02*
X0014984Y0066473D01*
X0015153Y0067272D02*
X0011647Y0067272D01*
X0012445Y0068070D02*
X0014355Y0068070D01*
X0014193Y0068869D02*
X0012607Y0068869D01*
X0012607Y0069667D02*
X0014193Y0069667D01*
X0014193Y0070466D02*
X0012607Y0070466D01*
X0013143Y0071264D02*
X0014193Y0071264D01*
X0013942Y0072063D02*
X0014538Y0072063D01*
X0014740Y0072861D02*
X0015337Y0072861D01*
X0014400Y0074794D02*
X0009581Y0069975D01*
X0008400Y0069975D01*
X0021083Y0083242D02*
X0022185Y0083242D01*
X0021881Y0082443D02*
X0023217Y0082443D01*
X0022607Y0081645D02*
X0023978Y0081645D01*
X0023180Y0080846D02*
X0022607Y0080846D01*
X0021766Y0084040D02*
X0020284Y0084040D01*
X0021609Y0084839D02*
X0003300Y0084839D01*
X0003300Y0085637D02*
X0021653Y0085637D01*
X0021984Y0086436D02*
X0020811Y0086436D01*
X0021609Y0087234D02*
X0022693Y0087234D01*
X0022693Y0088033D02*
X0022408Y0088033D01*
X0022607Y0088831D02*
X0022693Y0088831D01*
X0022693Y0089630D02*
X0022607Y0089630D01*
X0022607Y0090428D02*
X0022693Y0090428D01*
X0022693Y0091227D02*
X0022607Y0091227D01*
X0022693Y0092025D02*
X0022299Y0092025D01*
X0022693Y0092824D02*
X0021501Y0092824D01*
X0020702Y0093623D02*
X0022693Y0093623D01*
X0030406Y0086300D02*
X0029400Y0085294D01*
X0029400Y0081794D01*
X0026900Y0079294D01*
X0026800Y0079294D01*
X0026700Y0079194D01*
X0026700Y0071975D01*
X0026600Y0071875D01*
X0026650Y0071625D01*
X0030406Y0086300D02*
X0036250Y0086300D01*
X0039480Y0100809D02*
X0039819Y0100809D01*
X0039819Y0101608D02*
X0038681Y0101608D01*
X0037883Y0102406D02*
X0039819Y0102406D01*
X0039819Y0103205D02*
X0037084Y0103205D01*
X0036286Y0104003D02*
X0039819Y0104003D01*
X0035704Y0106399D02*
X0034904Y0106399D01*
X0034904Y0107197D02*
X0035704Y0107197D01*
X0035704Y0107996D02*
X0034904Y0107996D01*
X0038404Y0111988D02*
X0039169Y0111988D01*
X0043704Y0112787D02*
X0044693Y0112787D01*
X0045096Y0113585D02*
X0043704Y0113585D01*
X0043704Y0114384D02*
X0057145Y0114384D01*
X0057943Y0115182D02*
X0043704Y0115182D01*
X0043704Y0115981D02*
X0058742Y0115981D01*
X0059540Y0116779D02*
X0045522Y0116779D01*
X0046556Y0117578D02*
X0060244Y0117578D01*
X0059548Y0118376D02*
X0047252Y0118376D01*
X0047582Y0119175D02*
X0059218Y0119175D01*
X0058943Y0119973D02*
X0047857Y0119973D01*
X0047857Y0120772D02*
X0058943Y0120772D01*
X0058943Y0121570D02*
X0047857Y0121570D01*
X0047543Y0122369D02*
X0059257Y0122369D01*
X0059587Y0123167D02*
X0047213Y0123167D01*
X0046462Y0123966D02*
X0060338Y0123966D01*
X0061506Y0124764D02*
X0045294Y0124764D01*
X0061381Y0111988D02*
X0062146Y0111988D01*
X0064846Y0111988D02*
X0065646Y0111988D01*
X0065646Y0111190D02*
X0064846Y0111190D01*
X0064846Y0110391D02*
X0065646Y0110391D01*
X0065646Y0109593D02*
X0064846Y0109593D01*
X0068812Y0107996D02*
X0071474Y0107996D01*
X0071474Y0107197D02*
X0068812Y0107197D01*
X0068678Y0106399D02*
X0071474Y0106399D01*
X0071474Y0104003D02*
X0066481Y0104003D01*
X0070718Y0103205D02*
X0071474Y0103205D01*
X0071474Y0102406D02*
X0071341Y0102406D01*
X0077826Y0110391D02*
X0081693Y0110391D01*
X0081693Y0109593D02*
X0080196Y0109593D01*
X0080995Y0108794D02*
X0081693Y0108794D01*
X0081693Y0107996D02*
X0081357Y0107996D01*
X0081357Y0107197D02*
X0081693Y0107197D01*
X0081693Y0106399D02*
X0081357Y0106399D01*
X0081357Y0105600D02*
X0081693Y0105600D01*
X0081693Y0104802D02*
X0081357Y0104802D01*
X0081357Y0104003D02*
X0081693Y0104003D01*
X0081693Y0103205D02*
X0081357Y0103205D01*
X0081357Y0102406D02*
X0081693Y0102406D01*
X0081693Y0101608D02*
X0081357Y0101608D01*
X0081513Y0100809D02*
X0081693Y0100809D01*
X0081693Y0111190D02*
X0077826Y0111190D01*
X0072914Y0122369D02*
X0084854Y0122369D01*
X0090349Y0123966D02*
X0091693Y0123966D01*
X0091693Y0123167D02*
X0091147Y0123167D01*
X0091026Y0125563D02*
X0003300Y0125563D01*
X0003300Y0126361D02*
X0090695Y0126361D01*
X0090609Y0127160D02*
X0003300Y0127160D01*
X0003300Y0127958D02*
X0090724Y0127958D01*
X0091085Y0128757D02*
X0003300Y0128757D01*
X0010359Y0123966D02*
X0016441Y0123966D01*
X0015643Y0123167D02*
X0011157Y0123167D01*
X0011956Y0122369D02*
X0014844Y0122369D01*
X0014193Y0121570D02*
X0012607Y0121570D01*
X0012607Y0120772D02*
X0014193Y0120772D01*
X0014193Y0119973D02*
X0012607Y0119973D01*
X0012607Y0119175D02*
X0014193Y0119175D01*
X0014193Y0118376D02*
X0012607Y0118376D01*
X0011953Y0117578D02*
X0014847Y0117578D01*
X0015646Y0116779D02*
X0011154Y0116779D01*
X0010356Y0115981D02*
X0016444Y0115981D01*
X0021956Y0122369D02*
X0022518Y0122369D01*
X0022995Y0123167D02*
X0021157Y0123167D01*
X0020359Y0123966D02*
X0023734Y0123966D01*
X0051425Y0100809D02*
X0051725Y0100809D01*
X0051725Y0100011D02*
X0051425Y0100011D01*
X0051425Y0099212D02*
X0051725Y0099212D01*
X0051725Y0098414D02*
X0051425Y0098414D01*
X0054700Y0101650D02*
X0054725Y0101625D01*
X0054575Y0067675D02*
X0054875Y0067675D01*
X0054875Y0063925D01*
X0056009Y0063925D01*
X0056365Y0064020D01*
X0056385Y0064032D01*
X0056733Y0063728D01*
X0056947Y0063514D01*
X0057098Y0063212D01*
X0057116Y0061639D01*
X0056484Y0061006D01*
X0056059Y0059980D01*
X0056059Y0058870D01*
X0056447Y0057932D01*
X0050607Y0057932D01*
X0050607Y0059484D01*
X0051266Y0060144D01*
X0051691Y0061170D01*
X0051691Y0062280D01*
X0051266Y0063306D01*
X0050481Y0064091D01*
X0050417Y0064118D01*
X0052916Y0064118D01*
X0053084Y0064020D01*
X0053440Y0063925D01*
X0054575Y0063925D01*
X0054575Y0067675D01*
X0054575Y0067272D02*
X0054875Y0067272D01*
X0054875Y0066473D02*
X0054575Y0066473D01*
X0054575Y0065675D02*
X0054875Y0065675D01*
X0054875Y0064876D02*
X0054575Y0064876D01*
X0054575Y0064078D02*
X0054875Y0064078D01*
X0057064Y0063279D02*
X0051278Y0063279D01*
X0051608Y0062481D02*
X0057106Y0062481D01*
X0057116Y0061682D02*
X0051691Y0061682D01*
X0051573Y0060884D02*
X0056433Y0060884D01*
X0056102Y0060085D02*
X0051208Y0060085D01*
X0050607Y0059287D02*
X0056059Y0059287D01*
X0056217Y0058488D02*
X0050607Y0058488D01*
X0047417Y0055294D02*
X0047350Y0055294D01*
X0050495Y0064078D02*
X0052985Y0064078D01*
X0067107Y0056092D02*
X0067429Y0056092D01*
X0066885Y0055294D02*
X0068739Y0055294D01*
X0092146Y0068070D02*
X0103925Y0068070D01*
X0103925Y0068869D02*
X0092146Y0068869D01*
X0101846Y0073660D02*
X0102646Y0073660D01*
X0102646Y0074458D02*
X0101846Y0074458D01*
X0101846Y0075257D02*
X0102646Y0075257D01*
X0105812Y0074458D02*
X0106196Y0074458D01*
X0092882Y0084040D02*
X0090274Y0084040D01*
X0091073Y0083242D02*
X0092121Y0083242D01*
X0088800Y0083242D02*
X0088000Y0083242D01*
X0088000Y0084040D02*
X0088800Y0084040D01*
X0088800Y0082443D02*
X0088000Y0082443D01*
X0088000Y0081645D02*
X0088800Y0081645D01*
X0088800Y0080846D02*
X0088000Y0080846D01*
X0100844Y0033734D02*
X0104180Y0033734D01*
X0106045Y0032936D02*
X0101103Y0032936D01*
X0095296Y0025749D02*
X0094496Y0025749D01*
X0094496Y0024951D02*
X0095296Y0024951D01*
X0095296Y0024152D02*
X0094496Y0024152D01*
X0094496Y0023354D02*
X0095296Y0023354D01*
X0101296Y0021756D02*
X0101781Y0021756D01*
X0101296Y0020958D02*
X0104750Y0020958D01*
X0104750Y0021756D02*
X0105550Y0021756D01*
X0101781Y0020159D02*
X0101296Y0020159D01*
X0101085Y0019361D02*
X0101781Y0019361D01*
X0101908Y0018562D02*
X0100540Y0018562D01*
X0101296Y0017764D02*
X0102172Y0017764D01*
X0026159Y0003391D02*
X0003300Y0003391D01*
X0003300Y0004189D02*
X0025697Y0004189D01*
D28*
X0094896Y0006853D02*
X0103022Y0006853D01*
D29*
X0103676Y0006955D02*
X0094998Y0006955D01*
X0094896Y0006853D01*
M02*
