G75*
%MOIN*%
%OFA0B0*%
%FSLAX25Y25*%
%IPPOS*%
%LPD*%
%AMOC8*
5,1,8,0,0,1.08239X$1,22.5*
%
%ADD10C,0.00000*%
%ADD11C,0.00600*%
%ADD12C,0.05600*%
%ADD13OC8,0.05600*%
%ADD14OC8,0.06000*%
%ADD15C,0.06500*%
%ADD16OC8,0.08661*%
%ADD17C,0.02000*%
%ADD18C,0.01000*%
%ADD19C,0.03169*%
%ADD20C,0.01600*%
%ADD21C,0.00800*%
D10*
X0001900Y0001794D02*
X0001900Y0130534D01*
X0112136Y0130534D01*
X0112136Y0001794D01*
X0001900Y0001794D01*
D11*
X0039173Y0006429D02*
X0039607Y0006429D01*
X0040474Y0005561D01*
X0040474Y0004694D02*
X0040474Y0006429D01*
X0041686Y0005995D02*
X0041686Y0005127D01*
X0042120Y0004694D01*
X0042987Y0004694D01*
X0043421Y0005127D01*
X0043421Y0005995D01*
X0042987Y0006429D01*
X0042120Y0006429D01*
X0041686Y0005995D01*
X0044518Y0006429D02*
X0045385Y0006429D01*
X0044952Y0006862D02*
X0044952Y0005127D01*
X0044518Y0004694D01*
X0046482Y0004694D02*
X0047350Y0004694D01*
X0046916Y0004694D02*
X0046916Y0006429D01*
X0047350Y0006429D01*
X0046916Y0007296D02*
X0046916Y0007730D01*
X0048561Y0005995D02*
X0048561Y0004694D01*
X0048561Y0005995D02*
X0048995Y0006429D01*
X0050296Y0006429D01*
X0050296Y0004694D01*
X0051508Y0005127D02*
X0051508Y0005995D01*
X0051941Y0006429D01*
X0052809Y0006429D01*
X0053243Y0005995D01*
X0053243Y0005127D01*
X0052809Y0004694D01*
X0051941Y0004694D01*
X0051508Y0005127D01*
X0054454Y0004694D02*
X0054454Y0007296D01*
X0055322Y0006429D01*
X0056189Y0007296D01*
X0056189Y0004694D01*
X0057401Y0004694D02*
X0058702Y0004694D01*
X0059136Y0005127D01*
X0059136Y0006429D01*
X0060347Y0006429D02*
X0060347Y0004260D01*
X0060781Y0003826D01*
X0061215Y0003826D01*
X0061648Y0004694D02*
X0060347Y0004694D01*
X0061648Y0004694D02*
X0062082Y0005127D01*
X0062082Y0005995D01*
X0061648Y0006429D01*
X0060347Y0006429D01*
X0057401Y0006429D02*
X0057401Y0004260D01*
X0057835Y0003826D01*
X0058268Y0003826D01*
X0063236Y0006429D02*
X0063670Y0006429D01*
X0064538Y0005561D01*
X0064538Y0004694D02*
X0064538Y0006429D01*
X0065749Y0005995D02*
X0065749Y0005561D01*
X0067484Y0005561D01*
X0067484Y0005127D02*
X0067484Y0005995D01*
X0067050Y0006429D01*
X0066183Y0006429D01*
X0065749Y0005995D01*
X0066183Y0004694D02*
X0067050Y0004694D01*
X0067484Y0005127D01*
X0068696Y0004694D02*
X0068696Y0005995D01*
X0069129Y0006429D01*
X0070431Y0006429D01*
X0070431Y0004694D01*
X0071642Y0004694D02*
X0073377Y0004694D01*
X0073377Y0007296D01*
X0071642Y0007296D01*
X0072510Y0005995D02*
X0073377Y0005995D01*
X0074589Y0005995D02*
X0074589Y0004694D01*
X0074589Y0005995D02*
X0075023Y0006429D01*
X0076324Y0006429D01*
X0076324Y0004694D01*
X0077535Y0005561D02*
X0079270Y0005561D01*
X0079270Y0005127D02*
X0079270Y0005995D01*
X0078836Y0006429D01*
X0077969Y0006429D01*
X0077535Y0005995D01*
X0077535Y0005561D01*
X0077969Y0004694D02*
X0078836Y0004694D01*
X0079270Y0005127D01*
X0080482Y0005127D02*
X0080482Y0005995D01*
X0080916Y0006429D01*
X0082217Y0006429D01*
X0082217Y0003826D01*
X0082217Y0004694D02*
X0080916Y0004694D01*
X0080482Y0005127D01*
X0083428Y0005127D02*
X0083428Y0006862D01*
X0083862Y0007296D01*
X0084729Y0007296D01*
X0085163Y0006862D01*
X0085163Y0005127D01*
X0084729Y0004694D01*
X0083862Y0004694D01*
X0083428Y0005127D01*
D12*
X0098400Y0119975D03*
D13*
X0098400Y0109975D03*
X0098400Y0099975D03*
X0098400Y0089975D03*
X0098400Y0079975D03*
X0088400Y0079975D03*
X0088400Y0089975D03*
X0088400Y0099975D03*
X0088400Y0109975D03*
X0088400Y0119975D03*
D14*
X0018400Y0119975D03*
X0018400Y0109975D03*
X0018400Y0099975D03*
X0018400Y0089975D03*
X0018400Y0079975D03*
X0018400Y0069975D03*
X0018400Y0059975D03*
X0018400Y0049975D03*
X0018400Y0039975D03*
X0018400Y0029975D03*
X0018400Y0019975D03*
X0018400Y0009975D03*
X0008400Y0009975D03*
X0008400Y0019975D03*
X0008400Y0029975D03*
X0008400Y0039975D03*
X0008400Y0049975D03*
X0008400Y0059975D03*
X0008400Y0069975D03*
X0008400Y0079975D03*
X0008400Y0089975D03*
X0008400Y0099975D03*
X0008400Y0109975D03*
X0008400Y0119975D03*
D15*
X0043400Y0120725D03*
X0063400Y0120725D03*
D16*
X0103676Y0006955D03*
D17*
X0109150Y0014475D02*
X0109150Y0075725D01*
X0107900Y0076975D01*
X0107900Y0078375D01*
X0108700Y0079175D01*
X0108700Y0108575D01*
X0102100Y0115175D01*
X0093200Y0115175D01*
X0088400Y0119975D01*
X0086700Y0014725D02*
X0043900Y0014725D01*
X0013150Y0014725D01*
X0008400Y0009975D01*
D18*
X0008400Y0019975D02*
X0012900Y0024475D01*
X0083400Y0024475D01*
X0083400Y0038225D01*
X0087400Y0046225D02*
X0087400Y0019975D01*
X0039900Y0019975D01*
X0018400Y0019975D01*
X0018400Y0029975D02*
X0075150Y0029975D01*
X0075150Y0065225D01*
X0076400Y0066475D01*
X0078150Y0066475D01*
X0078400Y0066725D01*
X0078400Y0085975D01*
X0078650Y0086225D01*
X0078100Y0086575D01*
X0075350Y0088375D01*
X0075250Y0095975D01*
X0071650Y0095975D02*
X0071650Y0083225D01*
X0075150Y0083225D01*
X0075150Y0075725D02*
X0065150Y0075725D01*
X0065150Y0085475D01*
X0059900Y0085475D01*
X0053900Y0088725D01*
X0052150Y0089725D01*
X0049400Y0089725D01*
X0047650Y0090725D01*
X0022900Y0090725D01*
X0021650Y0089975D01*
X0018400Y0089975D01*
X0021900Y0094725D02*
X0023150Y0095975D01*
X0048400Y0095975D01*
X0049650Y0097225D01*
X0053650Y0097225D01*
X0057150Y0093725D01*
X0058150Y0093725D01*
X0052400Y0093225D02*
X0052400Y0091975D01*
X0051400Y0087475D02*
X0048650Y0087475D01*
X0046650Y0088725D01*
X0033150Y0088725D01*
X0024400Y0079975D01*
X0018400Y0079975D01*
X0013400Y0084975D02*
X0024400Y0084975D01*
X0021900Y0094725D02*
X0013150Y0094725D01*
X0008400Y0089975D01*
X0013400Y0084975D02*
X0008400Y0079975D01*
X0018400Y0069975D02*
X0019650Y0069975D01*
X0021150Y0068725D01*
X0021900Y0068225D01*
X0028900Y0068225D01*
X0029900Y0067225D01*
X0035550Y0067225D01*
X0043300Y0074975D01*
X0043900Y0078275D01*
X0044250Y0078625D01*
X0048400Y0079725D02*
X0045400Y0083225D01*
X0044900Y0085475D01*
X0048400Y0079725D02*
X0048400Y0073725D01*
X0051900Y0067225D02*
X0051900Y0082725D01*
X0051400Y0087475D02*
X0061650Y0081975D01*
X0058150Y0076975D02*
X0054900Y0076975D01*
X0054900Y0066975D01*
X0052150Y0064725D01*
X0052150Y0063725D01*
X0052100Y0063375D01*
X0052150Y0063225D01*
X0052150Y0057725D01*
X0041150Y0057725D01*
X0040402Y0058473D01*
X0039148Y0058473D01*
X0049650Y0065225D02*
X0051900Y0067225D01*
X0049650Y0065225D02*
X0013650Y0065225D01*
X0008400Y0059975D01*
X0018400Y0049975D02*
X0062150Y0049975D01*
X0062150Y0062725D01*
X0058850Y0059425D02*
X0058850Y0069475D01*
X0060150Y0070725D01*
X0066150Y0070725D01*
X0055475Y0062800D02*
X0054650Y0063225D01*
X0069447Y0058022D02*
X0069697Y0057178D01*
X0071150Y0055475D01*
X0071150Y0044975D01*
X0021650Y0044975D01*
X0013400Y0044975D01*
X0008400Y0040225D01*
X0008400Y0039975D01*
X0013650Y0034975D02*
X0024650Y0034975D01*
X0024650Y0039975D02*
X0018400Y0039975D01*
X0013650Y0034975D02*
X0008650Y0029975D01*
X0008400Y0029975D01*
X0040150Y0014725D02*
X0043900Y0014725D01*
X0078350Y0061775D02*
X0103650Y0061725D01*
X0103650Y0053975D01*
X0098400Y0079975D02*
X0103900Y0085475D01*
X0103900Y0094975D01*
X0083400Y0094975D01*
X0093150Y0084725D02*
X0098400Y0089975D01*
X0071650Y0095975D02*
X0063150Y0099975D01*
X0018400Y0099975D01*
X0022900Y0102725D02*
X0020400Y0105225D01*
X0013650Y0105225D01*
X0008400Y0099975D01*
X0008400Y0109975D02*
X0013650Y0115225D01*
X0067150Y0115225D01*
X0071400Y0119975D01*
X0068300Y0124575D02*
X0067400Y0125475D01*
X0024150Y0125475D01*
X0018650Y0119975D01*
X0018400Y0119975D01*
X0022900Y0102725D02*
X0063650Y0102725D01*
X0065900Y0101725D01*
X0068850Y0101125D01*
X0102100Y0124575D02*
X0103900Y0124525D01*
X0032150Y0070475D02*
X0023150Y0070475D01*
X0023150Y0073475D01*
D19*
X0023150Y0073475D03*
X0032150Y0070475D03*
X0024400Y0060575D03*
X0021650Y0044975D03*
X0039148Y0058473D03*
X0048900Y0061725D03*
X0055475Y0062800D03*
X0058850Y0059425D03*
X0062150Y0062725D03*
X0069447Y0058022D03*
X0071150Y0064975D03*
X0070800Y0069475D03*
X0075150Y0075725D03*
X0075150Y0083225D03*
X0078650Y0086225D03*
X0083074Y0087649D03*
X0083400Y0094975D03*
X0079650Y0098725D03*
X0075250Y0095975D03*
X0068850Y0101125D03*
X0069900Y0105975D03*
X0078900Y0114794D03*
X0071400Y0119975D03*
X0052900Y0120794D03*
X0052300Y0109175D03*
X0052400Y0093225D03*
X0058150Y0093725D03*
X0051900Y0082725D03*
X0058150Y0076975D03*
X0061650Y0081975D03*
X0048400Y0073725D03*
X0044250Y0078625D03*
X0044900Y0085475D03*
X0024400Y0084975D03*
X0025900Y0111794D03*
X0078400Y0066725D03*
X0078350Y0061775D03*
X0083900Y0053794D03*
X0087400Y0046225D03*
X0083400Y0038225D03*
X0086700Y0014725D03*
X0078900Y0010794D03*
X0109150Y0014475D03*
X0103650Y0053975D03*
X0098900Y0068475D03*
X0107900Y0076975D03*
X0103900Y0124525D03*
X0093400Y0127125D03*
X0039900Y0019975D03*
X0040150Y0014725D03*
D20*
X0052300Y0109175D02*
X0067300Y0109175D01*
X0078100Y0119975D01*
X0088400Y0119975D01*
D21*
X0085656Y0116779D02*
X0078016Y0116779D01*
X0077217Y0115981D02*
X0086454Y0115981D01*
X0086660Y0115775D02*
X0089206Y0115775D01*
X0091841Y0113140D01*
X0092723Y0112775D01*
X0095533Y0112775D01*
X0094393Y0111635D01*
X0094393Y0108315D01*
X0096740Y0105968D01*
X0100060Y0105968D01*
X0102407Y0108315D01*
X0102407Y0111474D01*
X0106300Y0107581D01*
X0106300Y0080169D01*
X0105865Y0079734D01*
X0105500Y0078852D01*
X0105500Y0078795D01*
X0105370Y0078665D01*
X0104916Y0077568D01*
X0104916Y0076381D01*
X0105370Y0075284D01*
X0106210Y0074445D01*
X0106750Y0074221D01*
X0106750Y0016295D01*
X0106620Y0016165D01*
X0106166Y0015068D01*
X0106166Y0013881D01*
X0106620Y0012784D01*
X0107460Y0011945D01*
X0108556Y0011491D01*
X0109744Y0011491D01*
X0110736Y0011902D01*
X0110736Y0003194D01*
X0108019Y0003194D01*
X0109406Y0004581D01*
X0109406Y0009329D01*
X0106049Y0012686D01*
X0101302Y0012686D01*
X0097945Y0009329D01*
X0097945Y0004581D01*
X0099333Y0003194D01*
X0085361Y0003194D01*
X0086237Y0004069D01*
X0086670Y0004503D01*
X0086670Y0007486D01*
X0085787Y0008369D01*
X0085354Y0008803D01*
X0083238Y0008803D01*
X0082370Y0007936D01*
X0080291Y0007936D01*
X0079876Y0007520D01*
X0079461Y0007936D01*
X0077345Y0007936D01*
X0077146Y0007737D01*
X0076948Y0007936D01*
X0074869Y0007936D01*
X0074001Y0008803D01*
X0071018Y0008803D01*
X0070151Y0007936D01*
X0068505Y0007936D01*
X0068090Y0007520D01*
X0067675Y0007936D01*
X0065559Y0007936D01*
X0065360Y0007737D01*
X0065162Y0007936D01*
X0062612Y0007936D01*
X0062442Y0007766D01*
X0062273Y0007936D01*
X0058511Y0007936D01*
X0058268Y0007692D01*
X0058025Y0007936D01*
X0057681Y0007936D01*
X0057248Y0008368D01*
X0056813Y0008803D01*
X0055565Y0008803D01*
X0055322Y0008560D01*
X0055079Y0008803D01*
X0053830Y0008803D01*
X0052963Y0007936D01*
X0051317Y0007936D01*
X0051119Y0007737D01*
X0050920Y0007936D01*
X0048423Y0007936D01*
X0048423Y0008354D01*
X0047540Y0009237D01*
X0046292Y0009237D01*
X0045424Y0008369D01*
X0044327Y0008369D01*
X0043752Y0007795D01*
X0043611Y0007936D01*
X0041495Y0007936D01*
X0041297Y0007737D01*
X0041099Y0007936D01*
X0038549Y0007936D01*
X0037666Y0007053D01*
X0037666Y0005804D01*
X0038549Y0004921D01*
X0038967Y0004921D01*
X0038967Y0004069D01*
X0039843Y0003194D01*
X0003300Y0003194D01*
X0003300Y0129134D01*
X0012467Y0129134D01*
X0012293Y0128959D01*
X0011203Y0127869D01*
X0011203Y0127790D01*
X0007594Y0124182D01*
X0006657Y0124182D01*
X0004193Y0121717D01*
X0004193Y0118232D01*
X0006657Y0115768D01*
X0010143Y0115768D01*
X0012607Y0118232D01*
X0012607Y0121717D01*
X0011141Y0123183D01*
X0013475Y0125518D01*
X0014417Y0126459D01*
X0014417Y0126538D01*
X0014566Y0126687D01*
X0022948Y0126687D01*
X0022443Y0126182D01*
X0020293Y0124032D01*
X0020143Y0124182D01*
X0016657Y0124182D01*
X0014193Y0121717D01*
X0014193Y0118232D01*
X0015493Y0116932D01*
X0012943Y0116932D01*
X0011943Y0115932D01*
X0010168Y0114157D01*
X0010143Y0114182D01*
X0006657Y0114182D01*
X0004193Y0111717D01*
X0004193Y0108232D01*
X0006657Y0105768D01*
X0010143Y0105768D01*
X0012607Y0108232D01*
X0012607Y0111717D01*
X0012582Y0111743D01*
X0014357Y0113518D01*
X0015993Y0113518D01*
X0014193Y0111717D01*
X0014193Y0108232D01*
X0015493Y0106932D01*
X0012943Y0106932D01*
X0011943Y0105932D01*
X0010168Y0104157D01*
X0010143Y0104182D01*
X0006657Y0104182D01*
X0004193Y0101717D01*
X0004193Y0098232D01*
X0006657Y0095768D01*
X0010143Y0095768D01*
X0012607Y0098232D01*
X0012607Y0101717D01*
X0012582Y0101743D01*
X0014357Y0103518D01*
X0015993Y0103518D01*
X0014193Y0101717D01*
X0014193Y0098232D01*
X0015993Y0096432D01*
X0012443Y0096432D01*
X0011443Y0095432D01*
X0010168Y0094157D01*
X0010143Y0094182D01*
X0006657Y0094182D01*
X0004193Y0091717D01*
X0004193Y0088232D01*
X0006657Y0085768D01*
X0010143Y0085768D01*
X0012607Y0088232D01*
X0012607Y0091717D01*
X0012582Y0091743D01*
X0013857Y0093018D01*
X0015493Y0093018D01*
X0014193Y0091717D01*
X0014193Y0088232D01*
X0015743Y0086682D01*
X0012693Y0086682D01*
X0011693Y0085682D01*
X0010168Y0084157D01*
X0010143Y0084182D01*
X0006657Y0084182D01*
X0004193Y0081717D01*
X0004193Y0078232D01*
X0006657Y0075768D01*
X0010143Y0075768D01*
X0012607Y0078232D01*
X0012607Y0081717D01*
X0012582Y0081743D01*
X0014107Y0083268D01*
X0015743Y0083268D01*
X0014193Y0081717D01*
X0014193Y0078232D01*
X0016657Y0075768D01*
X0020143Y0075768D01*
X0022607Y0078232D01*
X0022607Y0078268D01*
X0025107Y0078268D01*
X0033857Y0087018D01*
X0042518Y0087018D01*
X0042109Y0086030D01*
X0042109Y0084920D01*
X0042534Y0083894D01*
X0043319Y0083108D01*
X0043668Y0082964D01*
X0043644Y0082651D01*
X0043826Y0082438D01*
X0043887Y0082164D01*
X0044269Y0081921D01*
X0044702Y0081416D01*
X0043695Y0081416D01*
X0042669Y0080991D01*
X0041884Y0080206D01*
X0041459Y0079180D01*
X0041459Y0078070D01*
X0041884Y0077044D01*
X0041932Y0076995D01*
X0041716Y0075805D01*
X0034843Y0068932D01*
X0034532Y0068932D01*
X0034941Y0069920D01*
X0034941Y0071030D01*
X0034516Y0072056D01*
X0033731Y0072841D01*
X0032705Y0073266D01*
X0031595Y0073266D01*
X0030569Y0072841D01*
X0029910Y0072182D01*
X0025636Y0072182D01*
X0025941Y0072920D01*
X0025941Y0074030D01*
X0025516Y0075056D01*
X0024731Y0075841D01*
X0023705Y0076266D01*
X0022595Y0076266D01*
X0021569Y0075841D01*
X0020784Y0075056D01*
X0020359Y0074030D01*
X0020359Y0073966D01*
X0020143Y0074182D01*
X0016657Y0074182D01*
X0014193Y0071717D01*
X0014193Y0068232D01*
X0015493Y0066932D01*
X0012943Y0066932D01*
X0011943Y0065932D01*
X0010168Y0064157D01*
X0010143Y0064182D01*
X0006657Y0064182D01*
X0004193Y0061717D01*
X0004193Y0058232D01*
X0006657Y0055768D01*
X0009820Y0055768D01*
X0009293Y0055240D01*
X0008234Y0054182D01*
X0006657Y0054182D01*
X0004193Y0051717D01*
X0004193Y0048232D01*
X0006657Y0045768D01*
X0010143Y0045768D01*
X0012607Y0048232D01*
X0012607Y0051717D01*
X0011461Y0052863D01*
X0011566Y0052968D01*
X0015443Y0052968D01*
X0014193Y0051717D01*
X0014193Y0048232D01*
X0015743Y0046682D01*
X0013422Y0046682D01*
X0012737Y0046699D01*
X0012718Y0046682D01*
X0012693Y0046682D01*
X0012208Y0046197D01*
X0010087Y0044182D01*
X0006657Y0044182D01*
X0004193Y0041717D01*
X0004193Y0038232D01*
X0006657Y0035768D01*
X0010143Y0035768D01*
X0012607Y0038232D01*
X0012607Y0041717D01*
X0012530Y0041794D01*
X0014082Y0043268D01*
X0015470Y0043268D01*
X0014000Y0041797D01*
X0014000Y0040375D01*
X0018000Y0040375D01*
X0018000Y0039575D01*
X0014000Y0039575D01*
X0014000Y0038152D01*
X0016577Y0035575D01*
X0018000Y0035575D01*
X0018000Y0039575D01*
X0018800Y0039575D01*
X0018800Y0040375D01*
X0022800Y0040375D01*
X0022800Y0041797D01*
X0022353Y0042245D01*
X0023231Y0042608D01*
X0023890Y0043268D01*
X0071857Y0043268D01*
X0072857Y0044268D01*
X0072857Y0055407D01*
X0072908Y0056045D01*
X0072857Y0056104D01*
X0072857Y0056182D01*
X0072405Y0056634D01*
X0072061Y0057037D01*
X0072239Y0057467D01*
X0072239Y0058577D01*
X0071814Y0059603D01*
X0071028Y0060388D01*
X0070002Y0060813D01*
X0068892Y0060813D01*
X0067866Y0060388D01*
X0067081Y0059603D01*
X0066656Y0058577D01*
X0066656Y0057467D01*
X0067081Y0056441D01*
X0067866Y0055656D01*
X0068892Y0055231D01*
X0069114Y0055231D01*
X0069443Y0054846D01*
X0069443Y0046682D01*
X0023890Y0046682D01*
X0023231Y0047341D01*
X0022205Y0047766D01*
X0022141Y0047766D01*
X0022607Y0048232D01*
X0022607Y0048268D01*
X0062857Y0048268D01*
X0063857Y0049268D01*
X0063857Y0060484D01*
X0064516Y0061144D01*
X0064941Y0062170D01*
X0064941Y0063280D01*
X0064516Y0064306D01*
X0063731Y0065091D01*
X0062705Y0065516D01*
X0061595Y0065516D01*
X0060569Y0065091D01*
X0060557Y0065079D01*
X0060557Y0068748D01*
X0060838Y0069018D01*
X0065584Y0069018D01*
X0066734Y0067868D01*
X0068460Y0067868D01*
X0069219Y0067108D01*
X0070245Y0066683D01*
X0071355Y0066683D01*
X0072381Y0067108D01*
X0073166Y0067894D01*
X0073591Y0068920D01*
X0073591Y0070030D01*
X0073166Y0071056D01*
X0072381Y0071841D01*
X0071355Y0072266D01*
X0070245Y0072266D01*
X0069219Y0071841D01*
X0068460Y0071082D01*
X0068066Y0071082D01*
X0067857Y0071290D01*
X0067857Y0071432D01*
X0066857Y0072432D01*
X0060167Y0072432D01*
X0059477Y0072445D01*
X0059462Y0072432D01*
X0059443Y0072432D01*
X0058954Y0071943D01*
X0058162Y0071182D01*
X0058143Y0071182D01*
X0057655Y0070694D01*
X0057157Y0070215D01*
X0057157Y0070196D01*
X0057143Y0070182D01*
X0057143Y0069491D01*
X0057129Y0068801D01*
X0057143Y0068787D01*
X0057143Y0061665D01*
X0056484Y0061006D01*
X0056059Y0059980D01*
X0056059Y0058870D01*
X0056484Y0057844D01*
X0057269Y0057058D01*
X0058295Y0056633D01*
X0059405Y0056633D01*
X0060431Y0057058D01*
X0060443Y0057070D01*
X0060443Y0051682D01*
X0022607Y0051682D01*
X0022607Y0051717D01*
X0020961Y0053363D01*
X0025683Y0058085D01*
X0025981Y0058208D01*
X0026766Y0058994D01*
X0027191Y0060020D01*
X0027191Y0061130D01*
X0026865Y0061918D01*
X0045882Y0061918D01*
X0046109Y0061754D01*
X0046109Y0061170D01*
X0046534Y0060144D01*
X0047245Y0059432D01*
X0041857Y0059432D01*
X0041712Y0059577D01*
X0041514Y0060054D01*
X0040729Y0060839D01*
X0039703Y0061264D01*
X0038593Y0061264D01*
X0037567Y0060839D01*
X0036782Y0060054D01*
X0036357Y0059028D01*
X0036357Y0057918D01*
X0036782Y0056892D01*
X0037567Y0056106D01*
X0038593Y0055681D01*
X0039703Y0055681D01*
X0040515Y0056018D01*
X0052857Y0056018D01*
X0053857Y0057018D01*
X0053857Y0062822D01*
X0053993Y0063094D01*
X0053857Y0063502D01*
X0053857Y0063603D01*
X0053908Y0063957D01*
X0055509Y0065268D01*
X0055607Y0065268D01*
X0056047Y0065707D01*
X0056528Y0066101D01*
X0056538Y0066199D01*
X0056607Y0066268D01*
X0056607Y0066890D01*
X0056669Y0067509D01*
X0056607Y0067584D01*
X0056607Y0074593D01*
X0057595Y0074183D01*
X0058705Y0074183D01*
X0059731Y0074608D01*
X0060516Y0075394D01*
X0060941Y0076420D01*
X0060941Y0077530D01*
X0060516Y0078556D01*
X0059731Y0079341D01*
X0058705Y0079766D01*
X0057595Y0079766D01*
X0056569Y0079341D01*
X0055910Y0078682D01*
X0054193Y0078682D01*
X0053607Y0078096D01*
X0053607Y0080484D01*
X0054266Y0081144D01*
X0054691Y0082170D01*
X0054691Y0083280D01*
X0054430Y0083912D01*
X0058859Y0081535D01*
X0058859Y0081420D01*
X0059284Y0080394D01*
X0060069Y0079608D01*
X0061095Y0079183D01*
X0062205Y0079183D01*
X0063231Y0079608D01*
X0063443Y0079820D01*
X0063443Y0075018D01*
X0064443Y0074018D01*
X0072910Y0074018D01*
X0073569Y0073358D01*
X0074595Y0072933D01*
X0075705Y0072933D01*
X0076693Y0073343D01*
X0076693Y0068965D01*
X0076034Y0068306D01*
X0075982Y0068182D01*
X0075693Y0068182D01*
X0074693Y0067182D01*
X0073443Y0065932D01*
X0073443Y0031682D01*
X0022607Y0031682D01*
X0022607Y0031717D01*
X0020143Y0034182D01*
X0016657Y0034182D01*
X0014193Y0031717D01*
X0014193Y0028232D01*
X0016243Y0026182D01*
X0012193Y0026182D01*
X0011193Y0025182D01*
X0010168Y0024157D01*
X0010143Y0024182D01*
X0006657Y0024182D01*
X0004193Y0021717D01*
X0004193Y0018232D01*
X0006657Y0015768D01*
X0010143Y0015768D01*
X0012607Y0018232D01*
X0012607Y0021717D01*
X0012582Y0021743D01*
X0013607Y0022768D01*
X0015243Y0022768D01*
X0014193Y0021717D01*
X0014193Y0018232D01*
X0015300Y0017125D01*
X0012673Y0017125D01*
X0011791Y0016759D01*
X0011115Y0016084D01*
X0009406Y0014375D01*
X0006577Y0014375D01*
X0004000Y0011797D01*
X0004000Y0008152D01*
X0006577Y0005575D01*
X0010223Y0005575D01*
X0012800Y0008152D01*
X0012800Y0010981D01*
X0014144Y0012325D01*
X0014800Y0012325D01*
X0014193Y0011717D01*
X0014193Y0008232D01*
X0016657Y0005768D01*
X0020143Y0005768D01*
X0022607Y0008232D01*
X0022607Y0011717D01*
X0022000Y0012325D01*
X0038330Y0012325D01*
X0038460Y0012195D01*
X0039556Y0011741D01*
X0040744Y0011741D01*
X0041840Y0012195D01*
X0041970Y0012325D01*
X0084880Y0012325D01*
X0085010Y0012195D01*
X0086106Y0011741D01*
X0087294Y0011741D01*
X0088390Y0012195D01*
X0089230Y0013034D01*
X0089684Y0014131D01*
X0089684Y0015318D01*
X0089230Y0016415D01*
X0088390Y0017255D01*
X0087294Y0017709D01*
X0086106Y0017709D01*
X0085010Y0017255D01*
X0084880Y0017125D01*
X0041970Y0017125D01*
X0041840Y0017255D01*
X0041234Y0017506D01*
X0041481Y0017608D01*
X0042140Y0018268D01*
X0088107Y0018268D01*
X0089107Y0019268D01*
X0089107Y0043984D01*
X0089766Y0044644D01*
X0090191Y0045670D01*
X0090191Y0046780D01*
X0089766Y0047806D01*
X0088981Y0048591D01*
X0087955Y0049016D01*
X0086845Y0049016D01*
X0085819Y0048591D01*
X0085034Y0047806D01*
X0084609Y0046780D01*
X0084609Y0045670D01*
X0085034Y0044644D01*
X0085693Y0043984D01*
X0085693Y0039879D01*
X0084981Y0040591D01*
X0083955Y0041016D01*
X0082845Y0041016D01*
X0081819Y0040591D01*
X0081034Y0039806D01*
X0080609Y0038780D01*
X0080609Y0037670D01*
X0081034Y0036644D01*
X0081693Y0035984D01*
X0081693Y0026182D01*
X0020557Y0026182D01*
X0022607Y0028232D01*
X0022607Y0028268D01*
X0075857Y0028268D01*
X0076857Y0029268D01*
X0076857Y0059372D01*
X0077795Y0058983D01*
X0078905Y0058983D01*
X0079931Y0059408D01*
X0080586Y0060063D01*
X0101943Y0060021D01*
X0101943Y0056215D01*
X0101284Y0055556D01*
X0100859Y0054530D01*
X0100859Y0053420D01*
X0101284Y0052394D01*
X0102069Y0051608D01*
X0103095Y0051183D01*
X0104205Y0051183D01*
X0105231Y0051608D01*
X0106016Y0052394D01*
X0106441Y0053420D01*
X0106441Y0054530D01*
X0106016Y0055556D01*
X0105357Y0056215D01*
X0105357Y0061725D01*
X0105358Y0062429D01*
X0105357Y0062430D01*
X0105357Y0062432D01*
X0104856Y0062933D01*
X0104360Y0063430D01*
X0104358Y0063430D01*
X0104357Y0063432D01*
X0103651Y0063432D01*
X0080595Y0063477D01*
X0079931Y0064141D01*
X0079694Y0064239D01*
X0079981Y0064358D01*
X0080766Y0065144D01*
X0081191Y0066170D01*
X0081191Y0067280D01*
X0080766Y0068306D01*
X0080107Y0068965D01*
X0080107Y0083807D01*
X0080231Y0083858D01*
X0081016Y0084644D01*
X0081343Y0085433D01*
X0081493Y0085283D01*
X0082519Y0084858D01*
X0083630Y0084858D01*
X0083852Y0084950D01*
X0084893Y0083909D01*
X0085644Y0083158D01*
X0084200Y0081714D01*
X0084200Y0080375D01*
X0088000Y0080375D01*
X0088000Y0079575D01*
X0084200Y0079575D01*
X0084200Y0078235D01*
X0086660Y0075775D01*
X0088000Y0075775D01*
X0088000Y0079575D01*
X0088800Y0079575D01*
X0088800Y0080375D01*
X0092600Y0080375D01*
X0092600Y0081714D01*
X0091347Y0082968D01*
X0093666Y0082968D01*
X0093716Y0083018D01*
X0093857Y0083018D01*
X0096807Y0085968D01*
X0100060Y0085968D01*
X0102193Y0088101D01*
X0102193Y0086182D01*
X0099993Y0083982D01*
X0096740Y0083982D01*
X0094393Y0081635D01*
X0094393Y0078315D01*
X0096740Y0075968D01*
X0100060Y0075968D01*
X0102407Y0078315D01*
X0102407Y0081568D01*
X0104607Y0083768D01*
X0105607Y0084768D01*
X0105607Y0095682D01*
X0104607Y0096682D01*
X0101047Y0096682D01*
X0102600Y0098235D01*
X0102600Y0099575D01*
X0098800Y0099575D01*
X0098800Y0100375D01*
X0098000Y0100375D01*
X0098000Y0104175D01*
X0096660Y0104175D01*
X0094200Y0101714D01*
X0094200Y0100375D01*
X0098000Y0100375D01*
X0098000Y0099575D01*
X0094200Y0099575D01*
X0094200Y0098235D01*
X0095753Y0096682D01*
X0090774Y0096682D01*
X0092407Y0098315D01*
X0092407Y0101635D01*
X0090060Y0103982D01*
X0086740Y0103982D01*
X0084393Y0101635D01*
X0084393Y0098315D01*
X0086026Y0096682D01*
X0085640Y0096682D01*
X0084981Y0097341D01*
X0083955Y0097766D01*
X0082845Y0097766D01*
X0082156Y0097481D01*
X0082441Y0098170D01*
X0082441Y0099280D01*
X0082016Y0100306D01*
X0081231Y0101091D01*
X0080205Y0101516D01*
X0079095Y0101516D01*
X0078069Y0101091D01*
X0077284Y0100306D01*
X0076859Y0099280D01*
X0076859Y0098314D01*
X0076831Y0098341D01*
X0075805Y0098766D01*
X0074695Y0098766D01*
X0073669Y0098341D01*
X0072884Y0097556D01*
X0072788Y0097326D01*
X0072646Y0097393D01*
X0072357Y0097682D01*
X0072032Y0097682D01*
X0070066Y0098607D01*
X0070431Y0098758D01*
X0071216Y0099544D01*
X0071641Y0100570D01*
X0071641Y0101680D01*
X0071216Y0102706D01*
X0070431Y0103491D01*
X0069405Y0103916D01*
X0068295Y0103916D01*
X0067269Y0103491D01*
X0067017Y0103240D01*
X0066423Y0103360D01*
X0064633Y0104156D01*
X0064357Y0104432D01*
X0064012Y0104432D01*
X0063697Y0104572D01*
X0063333Y0104432D01*
X0023607Y0104432D01*
X0021207Y0106832D01*
X0022607Y0108232D01*
X0022607Y0111717D01*
X0020807Y0113518D01*
X0066498Y0113518D01*
X0066539Y0113481D01*
X0067197Y0113518D01*
X0067857Y0113518D01*
X0067896Y0113557D01*
X0067951Y0113560D01*
X0068391Y0114051D01*
X0068857Y0114518D01*
X0068857Y0114573D01*
X0071193Y0117183D01*
X0071955Y0117183D01*
X0072369Y0117355D01*
X0066389Y0111375D01*
X0054320Y0111375D01*
X0053990Y0111705D01*
X0052894Y0112159D01*
X0051706Y0112159D01*
X0050610Y0111705D01*
X0049770Y0110865D01*
X0049316Y0109768D01*
X0049316Y0108581D01*
X0049770Y0107484D01*
X0050610Y0106645D01*
X0051706Y0106191D01*
X0052894Y0106191D01*
X0053990Y0106645D01*
X0054320Y0106975D01*
X0068211Y0106975D01*
X0079011Y0117775D01*
X0084660Y0117775D01*
X0086660Y0115775D01*
X0086740Y0113982D02*
X0084393Y0111635D01*
X0084393Y0108315D01*
X0086740Y0105968D01*
X0090060Y0105968D01*
X0092407Y0108315D01*
X0092407Y0111635D01*
X0090060Y0113982D01*
X0086740Y0113982D01*
X0086344Y0113585D02*
X0074822Y0113585D01*
X0074023Y0112787D02*
X0085545Y0112787D01*
X0084747Y0111988D02*
X0073225Y0111988D01*
X0072426Y0111190D02*
X0084393Y0111190D01*
X0084393Y0110391D02*
X0071628Y0110391D01*
X0070829Y0109593D02*
X0084393Y0109593D01*
X0084393Y0108794D02*
X0070031Y0108794D01*
X0069232Y0107996D02*
X0084712Y0107996D01*
X0085511Y0107197D02*
X0068434Y0107197D01*
X0069900Y0105975D02*
X0070900Y0104975D01*
X0090100Y0104975D01*
X0090700Y0104375D01*
X0093700Y0104375D01*
X0098100Y0099975D01*
X0098400Y0099975D01*
X0098800Y0100011D02*
X0106300Y0100011D01*
X0106300Y0100809D02*
X0102600Y0100809D01*
X0102600Y0100375D02*
X0102600Y0101714D01*
X0100140Y0104175D01*
X0098800Y0104175D01*
X0098800Y0100375D01*
X0102600Y0100375D01*
X0102600Y0099212D02*
X0106300Y0099212D01*
X0106300Y0098414D02*
X0102600Y0098414D01*
X0101980Y0097615D02*
X0106300Y0097615D01*
X0106300Y0096817D02*
X0101181Y0096817D01*
X0098000Y0100011D02*
X0092407Y0100011D01*
X0092407Y0100809D02*
X0094200Y0100809D01*
X0094200Y0101608D02*
X0092407Y0101608D01*
X0091636Y0102406D02*
X0094892Y0102406D01*
X0095690Y0103205D02*
X0090837Y0103205D01*
X0090491Y0106399D02*
X0096309Y0106399D01*
X0095511Y0107197D02*
X0091289Y0107197D01*
X0092088Y0107996D02*
X0094712Y0107996D01*
X0094393Y0108794D02*
X0092407Y0108794D01*
X0092407Y0109593D02*
X0094393Y0109593D01*
X0094393Y0110391D02*
X0092407Y0110391D01*
X0092407Y0111190D02*
X0094393Y0111190D01*
X0094747Y0111988D02*
X0092053Y0111988D01*
X0092694Y0112787D02*
X0091255Y0112787D01*
X0091395Y0113585D02*
X0090456Y0113585D01*
X0090597Y0114384D02*
X0075620Y0114384D01*
X0076419Y0115182D02*
X0089798Y0115182D01*
X0084857Y0117578D02*
X0078814Y0117578D01*
X0071793Y0116779D02*
X0070832Y0116779D01*
X0070995Y0115981D02*
X0070117Y0115981D01*
X0070196Y0115182D02*
X0069403Y0115182D01*
X0069398Y0114384D02*
X0068723Y0114384D01*
X0068599Y0113585D02*
X0067974Y0113585D01*
X0067801Y0112787D02*
X0021538Y0112787D01*
X0022336Y0111988D02*
X0051294Y0111988D01*
X0050095Y0111190D02*
X0022607Y0111190D01*
X0022607Y0110391D02*
X0049574Y0110391D01*
X0049316Y0109593D02*
X0022607Y0109593D01*
X0022607Y0108794D02*
X0049316Y0108794D01*
X0049558Y0107996D02*
X0022371Y0107996D01*
X0021572Y0107197D02*
X0050057Y0107197D01*
X0051204Y0106399D02*
X0021640Y0106399D01*
X0022439Y0105600D02*
X0106300Y0105600D01*
X0106300Y0104802D02*
X0023237Y0104802D01*
X0015680Y0103205D02*
X0014044Y0103205D01*
X0013245Y0102406D02*
X0014882Y0102406D01*
X0014193Y0101608D02*
X0012607Y0101608D01*
X0012607Y0100809D02*
X0014193Y0100809D01*
X0014193Y0100011D02*
X0012607Y0100011D01*
X0012607Y0099212D02*
X0014193Y0099212D01*
X0014193Y0098414D02*
X0012607Y0098414D01*
X0011990Y0097615D02*
X0014810Y0097615D01*
X0015609Y0096817D02*
X0011191Y0096817D01*
X0010393Y0096018D02*
X0012029Y0096018D01*
X0011231Y0095220D02*
X0003300Y0095220D01*
X0003300Y0096018D02*
X0006407Y0096018D01*
X0005609Y0096817D02*
X0003300Y0096817D01*
X0003300Y0097615D02*
X0004810Y0097615D01*
X0004193Y0098414D02*
X0003300Y0098414D01*
X0003300Y0099212D02*
X0004193Y0099212D01*
X0004193Y0100011D02*
X0003300Y0100011D01*
X0003300Y0100809D02*
X0004193Y0100809D01*
X0004193Y0101608D02*
X0003300Y0101608D01*
X0003300Y0102406D02*
X0004882Y0102406D01*
X0005680Y0103205D02*
X0003300Y0103205D01*
X0003300Y0104003D02*
X0006479Y0104003D01*
X0006026Y0106399D02*
X0003300Y0106399D01*
X0003300Y0107197D02*
X0005228Y0107197D01*
X0004429Y0107996D02*
X0003300Y0107996D01*
X0003300Y0108794D02*
X0004193Y0108794D01*
X0004193Y0109593D02*
X0003300Y0109593D01*
X0003300Y0110391D02*
X0004193Y0110391D01*
X0004193Y0111190D02*
X0003300Y0111190D01*
X0003300Y0111988D02*
X0004464Y0111988D01*
X0005262Y0112787D02*
X0003300Y0112787D01*
X0003300Y0113585D02*
X0006061Y0113585D01*
X0006444Y0115981D02*
X0003300Y0115981D01*
X0003300Y0116779D02*
X0005646Y0116779D01*
X0004847Y0117578D02*
X0003300Y0117578D01*
X0003300Y0118376D02*
X0004193Y0118376D01*
X0004193Y0119175D02*
X0003300Y0119175D01*
X0003300Y0119973D02*
X0004193Y0119973D01*
X0004193Y0120772D02*
X0003300Y0120772D01*
X0003300Y0121570D02*
X0004193Y0121570D01*
X0004844Y0122369D02*
X0003300Y0122369D01*
X0003300Y0123167D02*
X0005643Y0123167D01*
X0006441Y0123966D02*
X0003300Y0123966D01*
X0003300Y0124764D02*
X0008176Y0124764D01*
X0008975Y0125563D02*
X0003300Y0125563D01*
X0003300Y0126361D02*
X0009773Y0126361D01*
X0010572Y0127160D02*
X0003300Y0127160D01*
X0003300Y0127958D02*
X0011292Y0127958D01*
X0012091Y0128757D02*
X0003300Y0128757D01*
X0008400Y0122715D02*
X0012810Y0127125D01*
X0012810Y0127203D01*
X0013900Y0128294D01*
X0092231Y0128294D01*
X0093400Y0127125D01*
X0096100Y0124175D02*
X0068700Y0124175D01*
X0068300Y0124575D01*
X0060910Y0116932D02*
X0045890Y0116932D01*
X0045925Y0116946D01*
X0047179Y0118200D01*
X0047857Y0119838D01*
X0047857Y0121611D01*
X0047179Y0123250D01*
X0046660Y0123768D01*
X0060140Y0123768D01*
X0059621Y0123250D01*
X0058943Y0121611D01*
X0058943Y0119838D01*
X0059621Y0118200D01*
X0060875Y0116946D01*
X0060910Y0116932D01*
X0060244Y0117578D02*
X0046556Y0117578D01*
X0047252Y0118376D02*
X0059548Y0118376D01*
X0059218Y0119175D02*
X0047582Y0119175D01*
X0047857Y0119973D02*
X0058943Y0119973D01*
X0058943Y0120772D02*
X0047857Y0120772D01*
X0047857Y0121570D02*
X0058943Y0121570D01*
X0059257Y0122369D02*
X0047543Y0122369D01*
X0047213Y0123167D02*
X0059587Y0123167D01*
X0053306Y0111988D02*
X0067002Y0111988D01*
X0064977Y0104003D02*
X0096489Y0104003D01*
X0098000Y0104003D02*
X0098800Y0104003D01*
X0098800Y0103205D02*
X0098000Y0103205D01*
X0098000Y0102406D02*
X0098800Y0102406D01*
X0098800Y0101608D02*
X0098000Y0101608D01*
X0098000Y0100809D02*
X0098800Y0100809D01*
X0101110Y0103205D02*
X0106300Y0103205D01*
X0106300Y0104003D02*
X0100311Y0104003D01*
X0101908Y0102406D02*
X0106300Y0102406D01*
X0106300Y0101608D02*
X0102600Y0101608D01*
X0100491Y0106399D02*
X0106300Y0106399D01*
X0106300Y0107197D02*
X0101289Y0107197D01*
X0102088Y0107996D02*
X0105885Y0107996D01*
X0105086Y0108794D02*
X0102407Y0108794D01*
X0102407Y0109593D02*
X0104288Y0109593D01*
X0103489Y0110391D02*
X0102407Y0110391D01*
X0102407Y0111190D02*
X0102691Y0111190D01*
X0094200Y0099212D02*
X0092407Y0099212D01*
X0092407Y0098414D02*
X0094200Y0098414D01*
X0094820Y0097615D02*
X0091707Y0097615D01*
X0090909Y0096817D02*
X0095619Y0096817D01*
X0088400Y0089975D02*
X0086400Y0089975D01*
X0085200Y0091175D01*
X0081100Y0091175D01*
X0079300Y0092975D01*
X0079300Y0098375D01*
X0079650Y0098725D01*
X0082212Y0097615D02*
X0082480Y0097615D01*
X0082441Y0098414D02*
X0084393Y0098414D01*
X0084393Y0099212D02*
X0082441Y0099212D01*
X0082139Y0100011D02*
X0084393Y0100011D01*
X0084393Y0100809D02*
X0081513Y0100809D01*
X0084393Y0101608D02*
X0071641Y0101608D01*
X0071641Y0100809D02*
X0077787Y0100809D01*
X0077161Y0100011D02*
X0071410Y0100011D01*
X0070885Y0099212D02*
X0076859Y0099212D01*
X0076859Y0098414D02*
X0076656Y0098414D01*
X0073844Y0098414D02*
X0070477Y0098414D01*
X0072424Y0097615D02*
X0072943Y0097615D01*
X0069943Y0094891D02*
X0069943Y0082518D01*
X0070943Y0081518D01*
X0072910Y0081518D01*
X0073569Y0080858D01*
X0074595Y0080433D01*
X0075705Y0080433D01*
X0076693Y0080843D01*
X0076693Y0078107D01*
X0075705Y0078516D01*
X0074595Y0078516D01*
X0073569Y0078091D01*
X0072910Y0077432D01*
X0066857Y0077432D01*
X0066857Y0086182D01*
X0065857Y0087182D01*
X0060333Y0087182D01*
X0054730Y0090217D01*
X0053195Y0091094D01*
X0052857Y0091432D01*
X0052603Y0091432D01*
X0052383Y0091558D01*
X0051921Y0091432D01*
X0049853Y0091432D01*
X0048695Y0092094D01*
X0048357Y0092432D01*
X0048103Y0092432D01*
X0047883Y0092558D01*
X0047421Y0092432D01*
X0023110Y0092432D01*
X0022628Y0092552D01*
X0022427Y0092432D01*
X0022193Y0092432D01*
X0022043Y0092282D01*
X0021307Y0093018D01*
X0022607Y0093018D01*
X0023857Y0094268D01*
X0049107Y0094268D01*
X0050357Y0095518D01*
X0052943Y0095518D01*
X0055406Y0093054D01*
X0055784Y0092144D01*
X0056569Y0091358D01*
X0057595Y0090933D01*
X0058705Y0090933D01*
X0059731Y0091358D01*
X0060516Y0092144D01*
X0060941Y0093170D01*
X0060941Y0094280D01*
X0060516Y0095306D01*
X0059731Y0096091D01*
X0058705Y0096516D01*
X0057595Y0096516D01*
X0057014Y0096275D01*
X0055021Y0098268D01*
X0062768Y0098268D01*
X0069943Y0094891D01*
X0069943Y0094421D02*
X0060883Y0094421D01*
X0060941Y0093623D02*
X0069943Y0093623D01*
X0069943Y0092824D02*
X0060798Y0092824D01*
X0060398Y0092025D02*
X0069943Y0092025D01*
X0069943Y0091227D02*
X0059414Y0091227D01*
X0057287Y0088831D02*
X0069943Y0088831D01*
X0069943Y0088033D02*
X0058761Y0088033D01*
X0060236Y0087234D02*
X0069943Y0087234D01*
X0069943Y0086436D02*
X0066603Y0086436D01*
X0066857Y0085637D02*
X0069943Y0085637D01*
X0069943Y0084839D02*
X0066857Y0084839D01*
X0066857Y0084040D02*
X0069943Y0084040D01*
X0069943Y0083242D02*
X0066857Y0083242D01*
X0066857Y0082443D02*
X0070017Y0082443D01*
X0070816Y0081645D02*
X0066857Y0081645D01*
X0066857Y0080846D02*
X0073598Y0080846D01*
X0074437Y0078451D02*
X0066857Y0078451D01*
X0066857Y0079249D02*
X0076693Y0079249D01*
X0076693Y0078451D02*
X0075863Y0078451D01*
X0076693Y0080048D02*
X0066857Y0080048D01*
X0066857Y0077652D02*
X0073130Y0077652D01*
X0073268Y0073660D02*
X0056607Y0073660D01*
X0056607Y0074458D02*
X0056931Y0074458D01*
X0056607Y0072861D02*
X0076693Y0072861D01*
X0076693Y0072063D02*
X0071846Y0072063D01*
X0072958Y0071264D02*
X0076693Y0071264D01*
X0076693Y0070466D02*
X0073411Y0070466D01*
X0073591Y0069667D02*
X0076693Y0069667D01*
X0076596Y0068869D02*
X0073570Y0068869D01*
X0073239Y0068070D02*
X0075581Y0068070D01*
X0074783Y0067272D02*
X0072544Y0067272D01*
X0073984Y0066473D02*
X0060557Y0066473D01*
X0060557Y0065675D02*
X0073443Y0065675D01*
X0073443Y0064876D02*
X0063946Y0064876D01*
X0064611Y0064078D02*
X0073443Y0064078D01*
X0073443Y0063279D02*
X0064941Y0063279D01*
X0064941Y0062481D02*
X0073443Y0062481D01*
X0073443Y0061682D02*
X0064739Y0061682D01*
X0064256Y0060884D02*
X0073443Y0060884D01*
X0073443Y0060085D02*
X0071332Y0060085D01*
X0071945Y0059287D02*
X0073443Y0059287D01*
X0073443Y0058488D02*
X0072239Y0058488D01*
X0072239Y0057689D02*
X0073443Y0057689D01*
X0073443Y0056891D02*
X0072186Y0056891D01*
X0072867Y0056092D02*
X0073443Y0056092D01*
X0073443Y0055294D02*
X0072857Y0055294D01*
X0072857Y0054495D02*
X0073443Y0054495D01*
X0073443Y0053697D02*
X0072857Y0053697D01*
X0072857Y0052898D02*
X0073443Y0052898D01*
X0073443Y0052100D02*
X0072857Y0052100D01*
X0072857Y0051301D02*
X0073443Y0051301D01*
X0073443Y0050503D02*
X0072857Y0050503D01*
X0072857Y0049704D02*
X0073443Y0049704D01*
X0073443Y0048906D02*
X0072857Y0048906D01*
X0072857Y0048107D02*
X0073443Y0048107D01*
X0073443Y0047309D02*
X0072857Y0047309D01*
X0072857Y0046510D02*
X0073443Y0046510D01*
X0073443Y0045712D02*
X0072857Y0045712D01*
X0072857Y0044913D02*
X0073443Y0044913D01*
X0073443Y0044115D02*
X0072704Y0044115D01*
X0073443Y0043316D02*
X0071906Y0043316D01*
X0073443Y0042518D02*
X0023012Y0042518D01*
X0022800Y0041719D02*
X0073443Y0041719D01*
X0073443Y0040921D02*
X0022800Y0040921D01*
X0022800Y0039575D02*
X0018800Y0039575D01*
X0018800Y0035575D01*
X0020223Y0035575D01*
X0022800Y0038152D01*
X0022800Y0039575D01*
X0022800Y0039324D02*
X0073443Y0039324D01*
X0073443Y0040122D02*
X0018800Y0040122D01*
X0018800Y0039324D02*
X0018000Y0039324D01*
X0018000Y0040122D02*
X0012607Y0040122D01*
X0012607Y0039324D02*
X0014000Y0039324D01*
X0014000Y0038525D02*
X0012607Y0038525D01*
X0012102Y0037727D02*
X0014426Y0037727D01*
X0015224Y0036928D02*
X0011303Y0036928D01*
X0010505Y0036130D02*
X0016023Y0036130D01*
X0018000Y0036130D02*
X0018800Y0036130D01*
X0018800Y0036928D02*
X0018000Y0036928D01*
X0018000Y0037727D02*
X0018800Y0037727D01*
X0018800Y0038525D02*
X0018000Y0038525D01*
X0020777Y0036130D02*
X0073443Y0036130D01*
X0073443Y0036928D02*
X0021576Y0036928D01*
X0022374Y0037727D02*
X0073443Y0037727D01*
X0073443Y0038525D02*
X0022800Y0038525D01*
X0020590Y0033734D02*
X0073443Y0033734D01*
X0073443Y0032936D02*
X0021389Y0032936D01*
X0022187Y0032137D02*
X0073443Y0032137D01*
X0073443Y0034533D02*
X0003300Y0034533D01*
X0003300Y0035331D02*
X0073443Y0035331D01*
X0076857Y0035331D02*
X0081693Y0035331D01*
X0081693Y0034533D02*
X0076857Y0034533D01*
X0076857Y0033734D02*
X0081693Y0033734D01*
X0081693Y0032936D02*
X0076857Y0032936D01*
X0076857Y0032137D02*
X0081693Y0032137D01*
X0081693Y0031339D02*
X0076857Y0031339D01*
X0076857Y0030540D02*
X0081693Y0030540D01*
X0081693Y0029742D02*
X0076857Y0029742D01*
X0076532Y0028943D02*
X0081693Y0028943D01*
X0081693Y0028145D02*
X0022519Y0028145D01*
X0021721Y0027346D02*
X0081693Y0027346D01*
X0081693Y0026548D02*
X0020922Y0026548D01*
X0015878Y0026548D02*
X0011195Y0026548D01*
X0011760Y0025749D02*
X0010397Y0025749D01*
X0010223Y0025575D02*
X0012800Y0028152D01*
X0012800Y0029575D01*
X0008800Y0029575D01*
X0008800Y0030375D01*
X0008000Y0030375D01*
X0008000Y0034375D01*
X0006577Y0034375D01*
X0004000Y0031797D01*
X0004000Y0030375D01*
X0008000Y0030375D01*
X0008000Y0029575D01*
X0004000Y0029575D01*
X0004000Y0028152D01*
X0006577Y0025575D01*
X0008000Y0025575D01*
X0008000Y0029575D01*
X0008800Y0029575D01*
X0008800Y0025575D01*
X0010223Y0025575D01*
X0010962Y0024951D02*
X0003300Y0024951D01*
X0003300Y0025749D02*
X0006403Y0025749D01*
X0005605Y0026548D02*
X0003300Y0026548D01*
X0003300Y0027346D02*
X0004806Y0027346D01*
X0004008Y0028145D02*
X0003300Y0028145D01*
X0003300Y0028943D02*
X0004000Y0028943D01*
X0003300Y0029742D02*
X0008000Y0029742D01*
X0008000Y0030540D02*
X0008800Y0030540D01*
X0008800Y0030375D02*
X0008800Y0034375D01*
X0010223Y0034375D01*
X0012800Y0031797D01*
X0012800Y0030375D01*
X0008800Y0030375D01*
X0008800Y0029742D02*
X0014193Y0029742D01*
X0014193Y0030540D02*
X0012800Y0030540D01*
X0012800Y0031339D02*
X0014193Y0031339D01*
X0014613Y0032137D02*
X0012460Y0032137D01*
X0011662Y0032936D02*
X0015411Y0032936D01*
X0016210Y0033734D02*
X0010863Y0033734D01*
X0008800Y0033734D02*
X0008000Y0033734D01*
X0008000Y0032936D02*
X0008800Y0032936D01*
X0008800Y0032137D02*
X0008000Y0032137D01*
X0008000Y0031339D02*
X0008800Y0031339D01*
X0008800Y0028943D02*
X0008000Y0028943D01*
X0008000Y0028145D02*
X0008800Y0028145D01*
X0008800Y0027346D02*
X0008000Y0027346D01*
X0008000Y0026548D02*
X0008800Y0026548D01*
X0008800Y0025749D02*
X0008000Y0025749D01*
X0006628Y0024152D02*
X0003300Y0024152D01*
X0003300Y0023354D02*
X0005829Y0023354D01*
X0005030Y0022555D02*
X0003300Y0022555D01*
X0003300Y0021756D02*
X0004232Y0021756D01*
X0004193Y0020958D02*
X0003300Y0020958D01*
X0003300Y0020159D02*
X0004193Y0020159D01*
X0004193Y0019361D02*
X0003300Y0019361D01*
X0003300Y0018562D02*
X0004193Y0018562D01*
X0004661Y0017764D02*
X0003300Y0017764D01*
X0003300Y0016965D02*
X0005460Y0016965D01*
X0006258Y0016167D02*
X0003300Y0016167D01*
X0003300Y0015368D02*
X0010399Y0015368D01*
X0010542Y0016167D02*
X0011198Y0016167D01*
X0011340Y0016965D02*
X0012288Y0016965D01*
X0012139Y0017764D02*
X0014661Y0017764D01*
X0014193Y0018562D02*
X0012607Y0018562D01*
X0012607Y0019361D02*
X0014193Y0019361D01*
X0014193Y0020159D02*
X0012607Y0020159D01*
X0012607Y0020958D02*
X0014193Y0020958D01*
X0014232Y0021756D02*
X0012596Y0021756D01*
X0013394Y0022555D02*
X0015030Y0022555D01*
X0015079Y0027346D02*
X0011994Y0027346D01*
X0012792Y0028145D02*
X0014281Y0028145D01*
X0014193Y0028943D02*
X0012800Y0028943D01*
X0005937Y0033734D02*
X0003300Y0033734D01*
X0003300Y0032936D02*
X0005138Y0032936D01*
X0004340Y0032137D02*
X0003300Y0032137D01*
X0003300Y0031339D02*
X0004000Y0031339D01*
X0004000Y0030540D02*
X0003300Y0030540D01*
X0003300Y0036130D02*
X0006295Y0036130D01*
X0005497Y0036928D02*
X0003300Y0036928D01*
X0003300Y0037727D02*
X0004698Y0037727D01*
X0004193Y0038525D02*
X0003300Y0038525D01*
X0003300Y0039324D02*
X0004193Y0039324D01*
X0004193Y0040122D02*
X0003300Y0040122D01*
X0003300Y0040921D02*
X0004193Y0040921D01*
X0004195Y0041719D02*
X0003300Y0041719D01*
X0003300Y0042518D02*
X0004993Y0042518D01*
X0005792Y0043316D02*
X0003300Y0043316D01*
X0003300Y0044115D02*
X0006590Y0044115D01*
X0005915Y0046510D02*
X0003300Y0046510D01*
X0003300Y0045712D02*
X0011697Y0045712D01*
X0010885Y0046510D02*
X0012521Y0046510D01*
X0011684Y0047309D02*
X0015116Y0047309D01*
X0014318Y0048107D02*
X0012482Y0048107D01*
X0012607Y0048906D02*
X0014193Y0048906D01*
X0014193Y0049704D02*
X0012607Y0049704D01*
X0012607Y0050503D02*
X0014193Y0050503D01*
X0014193Y0051301D02*
X0012607Y0051301D01*
X0012225Y0052100D02*
X0014575Y0052100D01*
X0015374Y0052898D02*
X0011496Y0052898D01*
X0010900Y0054575D02*
X0019900Y0054575D01*
X0024400Y0059075D01*
X0024400Y0060575D01*
X0026261Y0058488D02*
X0036357Y0058488D01*
X0036451Y0057689D02*
X0025287Y0057689D01*
X0024489Y0056891D02*
X0036782Y0056891D01*
X0037601Y0056092D02*
X0023690Y0056092D01*
X0022892Y0055294D02*
X0060443Y0055294D01*
X0060443Y0056092D02*
X0052932Y0056092D01*
X0053730Y0056891D02*
X0057673Y0056891D01*
X0056638Y0057689D02*
X0053857Y0057689D01*
X0053857Y0058488D02*
X0056217Y0058488D01*
X0056059Y0059287D02*
X0053857Y0059287D01*
X0053857Y0060085D02*
X0056102Y0060085D01*
X0056433Y0060884D02*
X0053857Y0060884D01*
X0053857Y0061682D02*
X0057143Y0061682D01*
X0057143Y0062481D02*
X0053857Y0062481D01*
X0053931Y0063279D02*
X0057143Y0063279D01*
X0057143Y0064078D02*
X0054055Y0064078D01*
X0055031Y0064876D02*
X0057143Y0064876D01*
X0057143Y0065675D02*
X0056014Y0065675D01*
X0056607Y0066473D02*
X0057143Y0066473D01*
X0057143Y0067272D02*
X0056645Y0067272D01*
X0056607Y0068070D02*
X0057143Y0068070D01*
X0057131Y0068869D02*
X0056607Y0068869D01*
X0056607Y0069667D02*
X0057143Y0069667D01*
X0057418Y0070466D02*
X0056607Y0070466D01*
X0056607Y0071264D02*
X0058248Y0071264D01*
X0059074Y0072063D02*
X0056607Y0072063D01*
X0059369Y0074458D02*
X0064002Y0074458D01*
X0063443Y0075257D02*
X0060379Y0075257D01*
X0060790Y0076055D02*
X0063443Y0076055D01*
X0063443Y0076854D02*
X0060941Y0076854D01*
X0060891Y0077652D02*
X0063443Y0077652D01*
X0063443Y0078451D02*
X0060560Y0078451D01*
X0060936Y0079249D02*
X0059823Y0079249D01*
X0059629Y0080048D02*
X0053607Y0080048D01*
X0053607Y0079249D02*
X0056477Y0079249D01*
X0053962Y0078451D02*
X0053607Y0078451D01*
X0053969Y0080846D02*
X0059096Y0080846D01*
X0058655Y0081645D02*
X0054474Y0081645D01*
X0054691Y0082443D02*
X0057166Y0082443D01*
X0055678Y0083242D02*
X0054691Y0083242D01*
X0055813Y0089630D02*
X0069943Y0089630D01*
X0069943Y0090428D02*
X0054359Y0090428D01*
X0053062Y0091227D02*
X0056886Y0091227D01*
X0055902Y0092025D02*
X0048815Y0092025D01*
X0049260Y0094421D02*
X0054040Y0094421D01*
X0054838Y0093623D02*
X0023212Y0093623D01*
X0021500Y0092824D02*
X0055502Y0092824D01*
X0053241Y0095220D02*
X0050059Y0095220D01*
X0055674Y0097615D02*
X0064155Y0097615D01*
X0065852Y0096817D02*
X0056472Y0096817D01*
X0059804Y0096018D02*
X0067549Y0096018D01*
X0069246Y0095220D02*
X0060552Y0095220D01*
X0070718Y0103205D02*
X0085963Y0103205D01*
X0085164Y0102406D02*
X0071341Y0102406D01*
X0084320Y0097615D02*
X0085093Y0097615D01*
X0085506Y0096817D02*
X0085891Y0096817D01*
X0083426Y0087649D02*
X0083074Y0087649D01*
X0083426Y0087649D02*
X0086500Y0084575D01*
X0093000Y0084575D01*
X0093150Y0084725D01*
X0094081Y0083242D02*
X0096000Y0083242D01*
X0095202Y0082443D02*
X0091871Y0082443D01*
X0092600Y0081645D02*
X0094403Y0081645D01*
X0094393Y0080846D02*
X0092600Y0080846D01*
X0092600Y0079575D02*
X0088800Y0079575D01*
X0088800Y0075775D01*
X0090140Y0075775D01*
X0092600Y0078235D01*
X0092600Y0079575D01*
X0092600Y0079249D02*
X0094393Y0079249D01*
X0094393Y0078451D02*
X0092600Y0078451D01*
X0092017Y0077652D02*
X0095056Y0077652D01*
X0095854Y0076854D02*
X0091219Y0076854D01*
X0090420Y0076055D02*
X0096653Y0076055D01*
X0100147Y0076055D02*
X0105051Y0076055D01*
X0104916Y0076854D02*
X0100946Y0076854D01*
X0101744Y0077652D02*
X0104950Y0077652D01*
X0105281Y0078451D02*
X0102407Y0078451D01*
X0102407Y0079249D02*
X0105664Y0079249D01*
X0106179Y0080048D02*
X0102407Y0080048D01*
X0102407Y0080846D02*
X0106300Y0080846D01*
X0106300Y0081645D02*
X0102484Y0081645D01*
X0103283Y0082443D02*
X0106300Y0082443D01*
X0106300Y0083242D02*
X0104081Y0083242D01*
X0104607Y0083768D02*
X0104607Y0083768D01*
X0104880Y0084040D02*
X0106300Y0084040D01*
X0106300Y0084839D02*
X0105607Y0084839D01*
X0105607Y0085637D02*
X0106300Y0085637D01*
X0106300Y0086436D02*
X0105607Y0086436D01*
X0105607Y0087234D02*
X0106300Y0087234D01*
X0106300Y0088033D02*
X0105607Y0088033D01*
X0105607Y0088831D02*
X0106300Y0088831D01*
X0106300Y0089630D02*
X0105607Y0089630D01*
X0105607Y0090428D02*
X0106300Y0090428D01*
X0106300Y0091227D02*
X0105607Y0091227D01*
X0105607Y0092025D02*
X0106300Y0092025D01*
X0106300Y0092824D02*
X0105607Y0092824D01*
X0105607Y0093623D02*
X0106300Y0093623D01*
X0106300Y0094421D02*
X0105607Y0094421D01*
X0105607Y0095220D02*
X0106300Y0095220D01*
X0106300Y0096018D02*
X0105271Y0096018D01*
X0102193Y0088033D02*
X0102125Y0088033D01*
X0102193Y0087234D02*
X0101326Y0087234D01*
X0100528Y0086436D02*
X0102193Y0086436D01*
X0101648Y0085637D02*
X0096477Y0085637D01*
X0095678Y0084839D02*
X0100850Y0084839D01*
X0100051Y0084040D02*
X0094880Y0084040D01*
X0094393Y0080048D02*
X0088800Y0080048D01*
X0088800Y0079249D02*
X0088000Y0079249D01*
X0088000Y0078451D02*
X0088800Y0078451D01*
X0088800Y0077652D02*
X0088000Y0077652D01*
X0088400Y0076975D02*
X0098900Y0068475D01*
X0104511Y0063279D02*
X0106750Y0063279D01*
X0106750Y0062481D02*
X0105308Y0062481D01*
X0105357Y0061682D02*
X0106750Y0061682D01*
X0106750Y0060884D02*
X0105357Y0060884D01*
X0105357Y0060085D02*
X0106750Y0060085D01*
X0106750Y0059287D02*
X0105357Y0059287D01*
X0105357Y0058488D02*
X0106750Y0058488D01*
X0106750Y0057689D02*
X0105357Y0057689D01*
X0105357Y0056891D02*
X0106750Y0056891D01*
X0106750Y0056092D02*
X0105480Y0056092D01*
X0106125Y0055294D02*
X0106750Y0055294D01*
X0106750Y0054495D02*
X0106441Y0054495D01*
X0106441Y0053697D02*
X0106750Y0053697D01*
X0106750Y0052898D02*
X0106225Y0052898D01*
X0105723Y0052100D02*
X0106750Y0052100D01*
X0106750Y0051301D02*
X0104490Y0051301D01*
X0102810Y0051301D02*
X0076857Y0051301D01*
X0076857Y0050503D02*
X0106750Y0050503D01*
X0106750Y0049704D02*
X0076857Y0049704D01*
X0076857Y0048906D02*
X0086579Y0048906D01*
X0085335Y0048107D02*
X0076857Y0048107D01*
X0076857Y0047309D02*
X0084828Y0047309D01*
X0084609Y0046510D02*
X0076857Y0046510D01*
X0076857Y0045712D02*
X0084609Y0045712D01*
X0084922Y0044913D02*
X0076857Y0044913D01*
X0076857Y0044115D02*
X0085562Y0044115D01*
X0085693Y0043316D02*
X0076857Y0043316D01*
X0076857Y0042518D02*
X0085693Y0042518D01*
X0085693Y0041719D02*
X0076857Y0041719D01*
X0076857Y0040921D02*
X0082615Y0040921D01*
X0081350Y0040122D02*
X0076857Y0040122D01*
X0076857Y0039324D02*
X0080834Y0039324D01*
X0080609Y0038525D02*
X0076857Y0038525D01*
X0076857Y0037727D02*
X0080609Y0037727D01*
X0080916Y0036928D02*
X0076857Y0036928D01*
X0076857Y0036130D02*
X0081548Y0036130D01*
X0084185Y0040921D02*
X0085693Y0040921D01*
X0085693Y0040122D02*
X0085450Y0040122D01*
X0089107Y0040122D02*
X0106750Y0040122D01*
X0106750Y0039324D02*
X0089107Y0039324D01*
X0089107Y0038525D02*
X0106750Y0038525D01*
X0106750Y0037727D02*
X0089107Y0037727D01*
X0089107Y0036928D02*
X0106750Y0036928D01*
X0106750Y0036130D02*
X0089107Y0036130D01*
X0089107Y0035331D02*
X0106750Y0035331D01*
X0106750Y0034533D02*
X0089107Y0034533D01*
X0089107Y0033734D02*
X0106750Y0033734D01*
X0106750Y0032936D02*
X0089107Y0032936D01*
X0089107Y0032137D02*
X0106750Y0032137D01*
X0106750Y0031339D02*
X0089107Y0031339D01*
X0089107Y0030540D02*
X0106750Y0030540D01*
X0106750Y0029742D02*
X0089107Y0029742D01*
X0089107Y0028943D02*
X0106750Y0028943D01*
X0106750Y0028145D02*
X0089107Y0028145D01*
X0089107Y0027346D02*
X0106750Y0027346D01*
X0106750Y0026548D02*
X0089107Y0026548D01*
X0089107Y0025749D02*
X0106750Y0025749D01*
X0106750Y0024951D02*
X0089107Y0024951D01*
X0089107Y0024152D02*
X0106750Y0024152D01*
X0106750Y0023354D02*
X0089107Y0023354D01*
X0089107Y0022555D02*
X0106750Y0022555D01*
X0106750Y0021756D02*
X0089107Y0021756D01*
X0089107Y0020958D02*
X0106750Y0020958D01*
X0106750Y0020159D02*
X0089107Y0020159D01*
X0089107Y0019361D02*
X0106750Y0019361D01*
X0106750Y0018562D02*
X0088402Y0018562D01*
X0088680Y0016965D02*
X0106750Y0016965D01*
X0106750Y0017764D02*
X0041637Y0017764D01*
X0041791Y0012174D02*
X0085059Y0012174D01*
X0088341Y0012174D02*
X0100790Y0012174D01*
X0099992Y0011376D02*
X0022607Y0011376D01*
X0022607Y0010577D02*
X0099193Y0010577D01*
X0098395Y0009779D02*
X0022607Y0009779D01*
X0022607Y0008980D02*
X0046035Y0008980D01*
X0047796Y0008980D02*
X0097945Y0008980D01*
X0097945Y0008182D02*
X0085975Y0008182D01*
X0086670Y0007383D02*
X0097945Y0007383D01*
X0097945Y0006585D02*
X0086670Y0006585D01*
X0086670Y0005786D02*
X0097945Y0005786D01*
X0097945Y0004988D02*
X0086670Y0004988D01*
X0086356Y0004189D02*
X0098337Y0004189D01*
X0099136Y0003391D02*
X0085558Y0003391D01*
X0082617Y0008182D02*
X0074623Y0008182D01*
X0070397Y0008182D02*
X0057435Y0008182D01*
X0053209Y0008182D02*
X0048423Y0008182D01*
X0044140Y0008182D02*
X0022557Y0008182D01*
X0021758Y0007383D02*
X0037997Y0007383D01*
X0037666Y0006585D02*
X0020960Y0006585D01*
X0020161Y0005786D02*
X0037684Y0005786D01*
X0038483Y0004988D02*
X0003300Y0004988D01*
X0003300Y0005786D02*
X0006366Y0005786D01*
X0005567Y0006585D02*
X0003300Y0006585D01*
X0003300Y0007383D02*
X0004769Y0007383D01*
X0004000Y0008182D02*
X0003300Y0008182D01*
X0003300Y0008980D02*
X0004000Y0008980D01*
X0004000Y0009779D02*
X0003300Y0009779D01*
X0003300Y0010577D02*
X0004000Y0010577D01*
X0004000Y0011376D02*
X0003300Y0011376D01*
X0003300Y0012174D02*
X0004377Y0012174D01*
X0005176Y0012973D02*
X0003300Y0012973D01*
X0003300Y0013771D02*
X0005974Y0013771D01*
X0003300Y0014570D02*
X0009601Y0014570D01*
X0013195Y0011376D02*
X0014193Y0011376D01*
X0014193Y0010577D02*
X0012800Y0010577D01*
X0012800Y0009779D02*
X0014193Y0009779D01*
X0014193Y0008980D02*
X0012800Y0008980D01*
X0012800Y0008182D02*
X0014243Y0008182D01*
X0015042Y0007383D02*
X0012031Y0007383D01*
X0011232Y0006585D02*
X0015840Y0006585D01*
X0016639Y0005786D02*
X0010434Y0005786D01*
X0013994Y0012174D02*
X0014650Y0012174D01*
X0022150Y0012174D02*
X0038509Y0012174D01*
X0038967Y0004189D02*
X0003300Y0004189D01*
X0003300Y0003391D02*
X0039646Y0003391D01*
X0014000Y0040921D02*
X0012607Y0040921D01*
X0012605Y0041719D02*
X0014000Y0041719D01*
X0013292Y0042518D02*
X0014720Y0042518D01*
X0010857Y0044913D02*
X0003300Y0044913D01*
X0003300Y0047309D02*
X0005116Y0047309D01*
X0004318Y0048107D02*
X0003300Y0048107D01*
X0003300Y0048906D02*
X0004193Y0048906D01*
X0004193Y0049704D02*
X0003300Y0049704D01*
X0003300Y0050503D02*
X0004193Y0050503D01*
X0004193Y0051301D02*
X0003300Y0051301D01*
X0003300Y0052100D02*
X0004575Y0052100D01*
X0005374Y0052898D02*
X0003300Y0052898D01*
X0003300Y0053697D02*
X0006172Y0053697D01*
X0006333Y0056092D02*
X0003300Y0056092D01*
X0003300Y0055294D02*
X0009346Y0055294D01*
X0008548Y0054495D02*
X0003300Y0054495D01*
X0003300Y0056891D02*
X0005534Y0056891D01*
X0004736Y0057689D02*
X0003300Y0057689D01*
X0003300Y0058488D02*
X0004193Y0058488D01*
X0004193Y0059287D02*
X0003300Y0059287D01*
X0003300Y0060085D02*
X0004193Y0060085D01*
X0004193Y0060884D02*
X0003300Y0060884D01*
X0003300Y0061682D02*
X0004193Y0061682D01*
X0004956Y0062481D02*
X0003300Y0062481D01*
X0003300Y0063279D02*
X0005755Y0063279D01*
X0006553Y0064078D02*
X0003300Y0064078D01*
X0003300Y0064876D02*
X0010887Y0064876D01*
X0011686Y0065675D02*
X0003300Y0065675D01*
X0003300Y0066473D02*
X0005952Y0066473D01*
X0006657Y0065768D02*
X0010143Y0065768D01*
X0012607Y0068232D01*
X0012607Y0071717D01*
X0010143Y0074182D01*
X0006657Y0074182D01*
X0004193Y0071717D01*
X0004193Y0068232D01*
X0006657Y0065768D01*
X0005153Y0067272D02*
X0003300Y0067272D01*
X0003300Y0068070D02*
X0004355Y0068070D01*
X0004193Y0068869D02*
X0003300Y0068869D01*
X0003300Y0069667D02*
X0004193Y0069667D01*
X0004193Y0070466D02*
X0003300Y0070466D01*
X0003300Y0071264D02*
X0004193Y0071264D01*
X0004538Y0072063D02*
X0003300Y0072063D01*
X0003300Y0072861D02*
X0005337Y0072861D01*
X0006135Y0073660D02*
X0003300Y0073660D01*
X0003300Y0074458D02*
X0020536Y0074458D01*
X0020984Y0075257D02*
X0003300Y0075257D01*
X0003300Y0076055D02*
X0006370Y0076055D01*
X0005571Y0076854D02*
X0003300Y0076854D01*
X0003300Y0077652D02*
X0004773Y0077652D01*
X0004193Y0078451D02*
X0003300Y0078451D01*
X0003300Y0079249D02*
X0004193Y0079249D01*
X0004193Y0080048D02*
X0003300Y0080048D01*
X0003300Y0080846D02*
X0004193Y0080846D01*
X0004193Y0081645D02*
X0003300Y0081645D01*
X0003300Y0082443D02*
X0004919Y0082443D01*
X0005717Y0083242D02*
X0003300Y0083242D01*
X0003300Y0084040D02*
X0006516Y0084040D01*
X0005989Y0086436D02*
X0003300Y0086436D01*
X0003300Y0087234D02*
X0005191Y0087234D01*
X0004392Y0088033D02*
X0003300Y0088033D01*
X0003300Y0088831D02*
X0004193Y0088831D01*
X0004193Y0089630D02*
X0003300Y0089630D01*
X0003300Y0090428D02*
X0004193Y0090428D01*
X0004193Y0091227D02*
X0003300Y0091227D01*
X0003300Y0092025D02*
X0004501Y0092025D01*
X0005299Y0092824D02*
X0003300Y0092824D01*
X0003300Y0093623D02*
X0006098Y0093623D01*
X0003300Y0094421D02*
X0010432Y0094421D01*
X0012865Y0092025D02*
X0014501Y0092025D01*
X0014193Y0091227D02*
X0012607Y0091227D01*
X0012607Y0090428D02*
X0014193Y0090428D01*
X0014193Y0089630D02*
X0012607Y0089630D01*
X0012607Y0088831D02*
X0014193Y0088831D01*
X0014392Y0088033D02*
X0012408Y0088033D01*
X0011609Y0087234D02*
X0015191Y0087234D01*
X0012447Y0086436D02*
X0010811Y0086436D01*
X0011648Y0085637D02*
X0003300Y0085637D01*
X0003300Y0084839D02*
X0010850Y0084839D01*
X0013283Y0082443D02*
X0014919Y0082443D01*
X0014193Y0081645D02*
X0012607Y0081645D01*
X0012607Y0080846D02*
X0014193Y0080846D01*
X0014193Y0080048D02*
X0012607Y0080048D01*
X0012607Y0079249D02*
X0014193Y0079249D01*
X0014193Y0078451D02*
X0012607Y0078451D01*
X0012027Y0077652D02*
X0014773Y0077652D01*
X0015571Y0076854D02*
X0011229Y0076854D01*
X0010430Y0076055D02*
X0016370Y0076055D01*
X0016135Y0073660D02*
X0010665Y0073660D01*
X0011463Y0072861D02*
X0015337Y0072861D01*
X0014538Y0072063D02*
X0012262Y0072063D01*
X0012607Y0071264D02*
X0014193Y0071264D01*
X0014193Y0070466D02*
X0012607Y0070466D01*
X0012607Y0069667D02*
X0014193Y0069667D01*
X0014193Y0068869D02*
X0012607Y0068869D01*
X0012445Y0068070D02*
X0014355Y0068070D01*
X0015153Y0067272D02*
X0011647Y0067272D01*
X0010848Y0066473D02*
X0012484Y0066473D01*
X0018400Y0061225D02*
X0018400Y0059975D01*
X0018400Y0061225D02*
X0019900Y0063525D01*
X0046400Y0063525D01*
X0048900Y0061725D01*
X0046109Y0061682D02*
X0026963Y0061682D01*
X0027191Y0060884D02*
X0037674Y0060884D01*
X0036813Y0060085D02*
X0027191Y0060085D01*
X0026888Y0059287D02*
X0036464Y0059287D01*
X0040622Y0060884D02*
X0046227Y0060884D01*
X0046592Y0060085D02*
X0041483Y0060085D01*
X0035578Y0069667D02*
X0034837Y0069667D01*
X0034941Y0070466D02*
X0036377Y0070466D01*
X0037175Y0071264D02*
X0034844Y0071264D01*
X0034510Y0072063D02*
X0037974Y0072063D01*
X0038772Y0072861D02*
X0033683Y0072861D01*
X0030617Y0072861D02*
X0025917Y0072861D01*
X0025941Y0073660D02*
X0039571Y0073660D01*
X0040369Y0074458D02*
X0025764Y0074458D01*
X0025316Y0075257D02*
X0041168Y0075257D01*
X0041761Y0076055D02*
X0024214Y0076055D01*
X0022086Y0076055D02*
X0020430Y0076055D01*
X0021229Y0076854D02*
X0041907Y0076854D01*
X0041631Y0077652D02*
X0022027Y0077652D01*
X0025290Y0078451D02*
X0041459Y0078451D01*
X0041487Y0079249D02*
X0026089Y0079249D01*
X0026887Y0080048D02*
X0041818Y0080048D01*
X0042524Y0080846D02*
X0027686Y0080846D01*
X0028484Y0081645D02*
X0044506Y0081645D01*
X0043821Y0082443D02*
X0029283Y0082443D01*
X0030081Y0083242D02*
X0043185Y0083242D01*
X0042473Y0084040D02*
X0030880Y0084040D01*
X0031678Y0084839D02*
X0042142Y0084839D01*
X0042109Y0085637D02*
X0032477Y0085637D01*
X0033275Y0086436D02*
X0042277Y0086436D01*
X0053396Y0106399D02*
X0086309Y0106399D01*
X0096100Y0124175D02*
X0096500Y0124575D01*
X0102100Y0124575D01*
X0083963Y0084839D02*
X0081097Y0084839D01*
X0080413Y0084040D02*
X0084762Y0084040D01*
X0085560Y0083242D02*
X0080107Y0083242D01*
X0080107Y0082443D02*
X0084929Y0082443D01*
X0084200Y0081645D02*
X0080107Y0081645D01*
X0080107Y0080846D02*
X0084200Y0080846D01*
X0084200Y0079249D02*
X0080107Y0079249D01*
X0080107Y0078451D02*
X0084200Y0078451D01*
X0084783Y0077652D02*
X0080107Y0077652D01*
X0080107Y0076854D02*
X0085581Y0076854D01*
X0086380Y0076055D02*
X0080107Y0076055D01*
X0080107Y0075257D02*
X0105398Y0075257D01*
X0106196Y0074458D02*
X0080107Y0074458D01*
X0080107Y0073660D02*
X0106750Y0073660D01*
X0106750Y0072861D02*
X0080107Y0072861D01*
X0080107Y0072063D02*
X0106750Y0072063D01*
X0106750Y0071264D02*
X0080107Y0071264D01*
X0080107Y0070466D02*
X0106750Y0070466D01*
X0106750Y0069667D02*
X0080107Y0069667D01*
X0080204Y0068869D02*
X0106750Y0068869D01*
X0106750Y0068070D02*
X0080864Y0068070D01*
X0081191Y0067272D02*
X0106750Y0067272D01*
X0106750Y0066473D02*
X0081191Y0066473D01*
X0080986Y0065675D02*
X0106750Y0065675D01*
X0106750Y0064876D02*
X0080499Y0064876D01*
X0079995Y0064078D02*
X0106750Y0064078D01*
X0101943Y0059287D02*
X0079637Y0059287D01*
X0077063Y0059287D02*
X0076857Y0059287D01*
X0076857Y0058488D02*
X0101943Y0058488D01*
X0101943Y0057689D02*
X0076857Y0057689D01*
X0076857Y0056891D02*
X0101943Y0056891D01*
X0101820Y0056092D02*
X0076857Y0056092D01*
X0076857Y0055294D02*
X0101175Y0055294D01*
X0100859Y0054495D02*
X0076857Y0054495D01*
X0076857Y0053697D02*
X0100859Y0053697D01*
X0101075Y0052898D02*
X0076857Y0052898D01*
X0076857Y0052100D02*
X0101577Y0052100D01*
X0106750Y0048906D02*
X0088221Y0048906D01*
X0089465Y0048107D02*
X0106750Y0048107D01*
X0106750Y0047309D02*
X0089972Y0047309D01*
X0090191Y0046510D02*
X0106750Y0046510D01*
X0106750Y0045712D02*
X0090191Y0045712D01*
X0089878Y0044913D02*
X0106750Y0044913D01*
X0106750Y0044115D02*
X0089238Y0044115D01*
X0089107Y0043316D02*
X0106750Y0043316D01*
X0106750Y0042518D02*
X0089107Y0042518D01*
X0089107Y0041719D02*
X0106750Y0041719D01*
X0106750Y0040921D02*
X0089107Y0040921D01*
X0069443Y0047309D02*
X0023263Y0047309D01*
X0022482Y0048107D02*
X0069443Y0048107D01*
X0069443Y0048906D02*
X0063495Y0048906D01*
X0063857Y0049704D02*
X0069443Y0049704D01*
X0069443Y0050503D02*
X0063857Y0050503D01*
X0063857Y0051301D02*
X0069443Y0051301D01*
X0069443Y0052100D02*
X0063857Y0052100D01*
X0063857Y0052898D02*
X0069443Y0052898D01*
X0069443Y0053697D02*
X0063857Y0053697D01*
X0063857Y0054495D02*
X0069443Y0054495D01*
X0068739Y0055294D02*
X0063857Y0055294D01*
X0063857Y0056092D02*
X0067429Y0056092D01*
X0066894Y0056891D02*
X0063857Y0056891D01*
X0063857Y0057689D02*
X0066656Y0057689D01*
X0066656Y0058488D02*
X0063857Y0058488D01*
X0063857Y0059287D02*
X0066950Y0059287D01*
X0067563Y0060085D02*
X0063857Y0060085D01*
X0060443Y0056891D02*
X0060027Y0056891D01*
X0060443Y0054495D02*
X0022093Y0054495D01*
X0021295Y0053697D02*
X0060443Y0053697D01*
X0060443Y0052898D02*
X0021426Y0052898D01*
X0022225Y0052100D02*
X0060443Y0052100D01*
X0060557Y0067272D02*
X0069056Y0067272D01*
X0066532Y0068070D02*
X0060557Y0068070D01*
X0060683Y0068869D02*
X0065733Y0068869D01*
X0067400Y0069475D02*
X0066150Y0070725D01*
X0067226Y0072063D02*
X0069754Y0072063D01*
X0068642Y0071264D02*
X0067883Y0071264D01*
X0067400Y0069475D02*
X0070800Y0069475D01*
X0071650Y0069475D01*
X0063443Y0079249D02*
X0062364Y0079249D01*
X0080107Y0080048D02*
X0088000Y0080048D01*
X0088000Y0076854D02*
X0088800Y0076854D01*
X0088800Y0076055D02*
X0088000Y0076055D01*
X0089333Y0016167D02*
X0106622Y0016167D01*
X0106290Y0015368D02*
X0089664Y0015368D01*
X0089684Y0014570D02*
X0106166Y0014570D01*
X0106211Y0013771D02*
X0089535Y0013771D01*
X0089168Y0012973D02*
X0106542Y0012973D01*
X0106561Y0012174D02*
X0107230Y0012174D01*
X0107359Y0011376D02*
X0110736Y0011376D01*
X0110736Y0010577D02*
X0108158Y0010577D01*
X0108956Y0009779D02*
X0110736Y0009779D01*
X0110736Y0008980D02*
X0109406Y0008980D01*
X0109406Y0008182D02*
X0110736Y0008182D01*
X0110736Y0007383D02*
X0109406Y0007383D01*
X0109406Y0006585D02*
X0110736Y0006585D01*
X0110736Y0005786D02*
X0109406Y0005786D01*
X0109406Y0004988D02*
X0110736Y0004988D01*
X0110736Y0004189D02*
X0109014Y0004189D01*
X0108216Y0003391D02*
X0110736Y0003391D01*
X0015717Y0083242D02*
X0014081Y0083242D01*
X0013663Y0092824D02*
X0015299Y0092824D01*
X0010813Y0104802D02*
X0003300Y0104802D01*
X0003300Y0105600D02*
X0011611Y0105600D01*
X0012410Y0106399D02*
X0010774Y0106399D01*
X0011572Y0107197D02*
X0015228Y0107197D01*
X0014429Y0107996D02*
X0012371Y0107996D01*
X0012607Y0108794D02*
X0014193Y0108794D01*
X0014193Y0109593D02*
X0012607Y0109593D01*
X0012607Y0110391D02*
X0014193Y0110391D01*
X0014193Y0111190D02*
X0012607Y0111190D01*
X0012828Y0111988D02*
X0014464Y0111988D01*
X0015262Y0112787D02*
X0013626Y0112787D01*
X0011193Y0115182D02*
X0003300Y0115182D01*
X0003300Y0114384D02*
X0010395Y0114384D01*
X0010356Y0115981D02*
X0011992Y0115981D01*
X0012790Y0116779D02*
X0011154Y0116779D01*
X0011953Y0117578D02*
X0014847Y0117578D01*
X0014193Y0118376D02*
X0012607Y0118376D01*
X0012607Y0119175D02*
X0014193Y0119175D01*
X0014193Y0119973D02*
X0012607Y0119973D01*
X0012607Y0120772D02*
X0014193Y0120772D01*
X0014193Y0121570D02*
X0012607Y0121570D01*
X0011956Y0122369D02*
X0014844Y0122369D01*
X0015643Y0123167D02*
X0011157Y0123167D01*
X0011923Y0123966D02*
X0016441Y0123966D01*
X0014319Y0126361D02*
X0022622Y0126361D01*
X0021824Y0125563D02*
X0013521Y0125563D01*
X0012722Y0124764D02*
X0021025Y0124764D01*
X0008400Y0122715D02*
X0008400Y0119975D01*
X0010900Y0054575D02*
X0008400Y0052075D01*
X0008400Y0049975D01*
M02*
